<svg xmlns="http://www.w3.org/2000/svg" width="98.847" height="115.738" viewBox="0 0 98.847 115.738">
  <path id="selection_to_path" d="M40.971-52.664l-.079.56a1.742,1.742,0,0,0,.869.4c.079.64.316.72.316,1.04,0,.64-1.106,1.04-1.658,1.2-.08-.24-.08-.72-.159-.96a3.136,3.136,0,0,0-2.133-1.36c-.395,0-1.58.08-1.817.48-.079.08-.079.16-.079.32.869.16,2.133.88,1.975,1.919a6.729,6.729,0,0,1-.632,1.52c-.553-.24-.632-.64-1.58-.88-1.106-.32-3,.56-3.16,1.679a3.889,3.889,0,0,1,1.264-.24,1.776,1.776,0,0,1,1.5,1.919l-.079.56c-.71,0-.474-.16-1.422-.16a3.114,3.114,0,0,0-2.844,2.559c.948-.32.948-.72,1.659-.56.395-.24.71.08,1.027.32a1.3,1.3,0,0,1,.316.56,4.569,4.569,0,0,1,.632,2c-.079.32-.316.32-.553.4a4.653,4.653,0,0,0-1.106.48,3.093,3.093,0,0,0-.948,1.519l-.079.96c.474-.24.869-.96,1.422-1.04.553-.16,1.343.4,1.659.8a4.5,4.5,0,0,1,.474.64c.237.32.395.4.395.8.395.32-.474.56-.869.88a4.381,4.381,0,0,0-1.027,2,1.123,1.123,0,0,0,.158.88c.474-.4.474-.88.869-1.2.158-.08.316-.08.474-.16.632-.24.789,0,1.343.32.237.08.711.48.711.8.079.32-.474.64-.711,1.04a2.545,2.545,0,0,0-.395,1.839c0,.24,0,.8.316.88.158.08.237-.08.316-.24v-.4a1.717,1.717,0,0,1,.711-.959,1.745,1.745,0,0,1,1.659.16l.316.24.474.16.395.32c.553.24.474.08.869.64.237,0,.395.16.237.4a12.778,12.778,0,0,0-.869,1.44l-.079.48c-.079,1.04.158.88.158,1.519l.316.4c.948-.24.237-.4.474-1.2a1.641,1.641,0,0,1,1.738-.959,2.456,2.456,0,0,1,1.264.48l1.422.48.395.24a5.8,5.8,0,0,0,1.107.32,2.1,2.1,0,0,1,.71,0l.948.64,1.9,1.04.553.48,1.185.64c.553.4.869.8,1.659.8.079.32.474.559.79.719a9.995,9.995,0,0,0,2.212,1.2c.158.48,1.343,1.12,1.817,1.2a1.58,1.58,0,0,0,.79.64l.632.559.553.24.632.4.474.4.869.56,2.607,1.6c.553.32,1.264,1.2,1.9,1.279A10.683,10.683,0,0,0,69.883-9.8a7.473,7.473,0,0,1,1.026,2.48v.559l.162.56a2.169,2.169,0,0,1-.162.959l-.155.8-.634,1.2a4.78,4.78,0,0,1-1.026,1.2A6.558,6.558,0,0,1,65.144-.521a9.621,9.621,0,0,1-1.5-.16l-.553-.16a14.139,14.139,0,0,1-3.555-1.12l-2.686-1.2a4.376,4.376,0,0,0-1.264-.559c.079-.24.237-.48.158-.72s-.632-.56-.869-.72A28.038,28.038,0,0,1,52.425-7c-.71-.72-.789-1.28,0-1.92a1.344,1.344,0,0,1,.632-.48c.474-.24.316-.32.948-.48-.869-.48-2.765.16-3.476.8l-.869.959a.649.649,0,0,1-.632-.24c-.4-.32-1.027-.96-.79-1.519s.948-.88,1.106-1.04a.611.611,0,0,0,.079-.32l.79-.24a2.176,2.176,0,0,0-1.422.08c-1.264.32-2.765,1.36-2.924,2.8,0,.32.159.56,0,.64-.237.08-.948-.24-1.185-.32L41.6-9.4a7.248,7.248,0,0,0-1.106-.16l-.711-.24-1.975-.24-1.5-.4c-1.027-.16-4.424-.56-5.372-.56H29.516l-2.054.16a3.616,3.616,0,0,1-1.107.16c0-.16.08-.32,0-.4-.158-.24-.948-.24-1.185-.24l-1.106.08-1.58.08a2.211,2.211,0,0,1-1.422-.32c-.869-.8.079-2.159.237-2.8A3.763,3.763,0,0,0,19.4-12.2l-.079.48-.237.48-.079,1.119.237.48c-.79.32-1.343.88-2.212.8-1.107-.08-1.107-1.92-.949-2.72a1.424,1.424,0,0,0-.632.88c-.474.88-.237.64-.4,1.44,0,.32-.079.48-.079.8l.237.88c0,.32.553.959.474,1.28a1.68,1.68,0,0,1-1.343.64.891.891,0,0,1-.632-.24,3.105,3.105,0,0,1-.79-2.239,3.383,3.383,0,0,0-.632,1.679,2.94,2.94,0,0,1,.159,1.2,5.343,5.343,0,0,0,.71,1.52,2.247,2.247,0,0,0,.869.64c.237.08.553.08.632.32s-.237.88-.316,1.119L13.8.758v.88l.158,2.239.474,1.36.948,1.6,1.185,1.2,1.58,1.6.553.24.4.32,1.658.88.79.56.632.24,1.422,1.04.474.16.395.24.553.16.553.4.789.4,1.5.4c.158.4.711.4,1.027.56l.711.242.553.236,1.422.479.474.243.632.162.632.236.869.243.474.081a3.856,3.856,0,0,0,1.027.56l.948.236.711.324,1.264.479.553.236.869.324.4.236,1.5.56.948.4.4.243.869.4h.316c.237.324.395.243.711.4l.553.317.553.243.632.317,1.343.4,1.106.56a7.062,7.062,0,0,0,2.133.958v.243a2.632,2.632,0,0,1,1.264.8c.316,0,.237.155.711.479a5.366,5.366,0,0,1,1.264,1.12l.79.715c.237.162.158.243.553.56l.79.722.553.56c.237.236.316.162.632.56l.869,1.12.869,1.039.79,1.356.316.4.316.715.395.56.316.965.316.4.079.56.237.56.237,1.356.08.641a7.113,7.113,0,0,1,.158,1.282l-.158.56a4.741,4.741,0,0,1-.316,1.12,5.287,5.287,0,0,1-4.344,3.036,6.971,6.971,0,0,1-2.844-.317,8.063,8.063,0,0,1-3.239-2.159,13.522,13.522,0,0,1-1.5-1.525l-.71-.958-.711-.877-.79-1.2-.316-.722-.4-.479L46.5,35.71l-2.923-3.043-3.16-3.2L37.1,27.31l-.948-.641a10.789,10.789,0,0,0-3.239-.8l-1.5-.4a29.353,29.353,0,0,0-3.713-.074,1.192,1.192,0,0,0-.711.155,1.466,1.466,0,0,0-.79,1.68c.4,1.282,1.975.8,2.133.8l.395.081.632.155a3.067,3.067,0,0,1,.869,0l1.264.4c.237.074.316.236.632.317a7.413,7.413,0,0,1,1.185.4l.553.479.632.324,1.185.958c.316.243.632.722,1.107.8v.317l.948.722.395.715,1.027,1.363.632,1.039.237.4.237.479.632,1.12c-1.185.243-1.659,1.842-1.58,2.962l.159.641h.237c.237-.722.158-1.12,1.027-1.282L40.5,41.3l-.316.884v.958l.316.317c.474-.317.079-.56.553-1.12.237-.236.711-.236.711.162a3.1,3.1,0,0,1-.237.8,7.16,7.16,0,0,0-.079,1.835c0,.162.158.243.237.324l.237-.884a.859.859,0,0,1,1.027-.4c.158.081.316.317.474.4.711.641.395.479.869,1.2l.553.722.553.958a3.724,3.724,0,0,0,.79.8c.158,0,.316-.081.474-.081a7.074,7.074,0,0,0,.632,1.356l.237.56c.316.722.948,2.24,1.659,2.638v.243a3.017,3.017,0,0,0-1.422,1.842l-.158.958.158,1.039.553,1.282.632-.081c-.237-.965-.158-2.4,1.106-2.564a3.65,3.65,0,0,1,1.264.243c.948.317,1.106,1.039,1.817,1.356l1.185.641.711.162a7.288,7.288,0,0,0,1.185.479l1.028.081a2.656,2.656,0,0,0,1.579.162,16.373,16.373,0,0,0,1.817-.479,6.033,6.033,0,0,0,2.212-1.2c.316-.324.395-.162.474-.641.316-.081.4-.162.474-.479.474-.081.474-.243.789-.641.316-.317.632-.317.711-.877a1.418,1.418,0,0,0,.711-.8l.948-1.842.711-1.275c.158-.479.158-.641.237-.884l.24-.4a15.974,15.974,0,0,0,.553-2.638l.155-1.12.081-1.12v-1.2a3.118,3.118,0,0,0,2.921-1.835l.155-.479c.081-.486.236-.722.081-1.2-.391.4-.472.715-.945,1.039-1.032.8-1.822.236-2.53-.722a5.54,5.54,0,0,1-.472-1.282l-.081-.56-.474-1.916-.159-.56c-.316-.958-1.106-2-1.185-2.962,1.027-.236,1.973-2.078,1.9-3.036a3.634,3.634,0,0,0-.4-1.2c-.4.722-.4,1.761-1.264,2.078a1.775,1.775,0,0,1-1.264-.155c-1.106-.479-1.422-1.12-2.133-2-.237-.236-.869-.958-.869-1.275-.079-.324.395-.722.632-.958a3.12,3.12,0,0,0,.474-2.483.756.756,0,0,0-.395-.56c-.079.324-.237.722-.316,1.039a1.4,1.4,0,0,1-1.9.884c-1.106-.4-.948-.56-1.738-1.282l-.948-.722c-.395-.4-.789-.877-.158-1.275.158-.8.553-2-.158-2.645-.079.722-.711,2.085-1.58,2a4.461,4.461,0,0,1-1.027-.56l-1.5-1.2-.948-.56-1.027-.722-.79-.317-.948-.4a11.689,11.689,0,0,1-1.185-.722l-1.579-.722-.948-.558-1.106-.4-.632-.24-.711-.32-.711-.32-.553-.4-2.212-.959L38.443,11.4l-1.658-.959-.948-.48-.553-.48L33.466,8.2l-.869-.56-1.185-1.2a6.239,6.239,0,0,1-1.975-3.919,3.442,3.442,0,0,1-.158-.88,5.564,5.564,0,0,1,.395-1.92l.237-.64c.079-.16.237-.24.4-.4a4.763,4.763,0,0,1,3.16-1.52H35.2l.79.161,1.343.24c.474.16.711.32.948.4l1.106.32,2.449.64,1.5.64c.158.08.237.24.474.32l.553.16.948.48,1.5.64.4.24a4.281,4.281,0,0,1,1.422.88,5.472,5.472,0,0,1,1.817.879l.474.24,1.5.959.632.32a2.5,2.5,0,0,1,.948.64,15.066,15.066,0,0,0,1.659.72l.79.4.395.32,1.58.8,1.106.64,1.343.64.553.4,1.027.48.553.16.474.24.948.4,1.027.64c.4.16.632.08.948.48a4.224,4.224,0,0,1,1.66.64,8.031,8.031,0,0,0,1.977.56v.32h-.87l-2.055-.64-.632-.32-1.422-.48-.632-.32-.71-.24-1.422-.64-.869-.32-1.817-.88A11.306,11.306,0,0,1,58.034,8.2l-.553-.56c-.158-.08-.553-.56-.79-.24-.237.24.079.64.237.8l.869.88a7.094,7.094,0,0,1,.79.72c.553.16.632.48,1.027.8l1.58,1.04c.632.48.948,1.04,1.9,1.04a.689.689,0,0,0,.711.4c.079.32.237.24.474.4a1.783,1.783,0,0,0,1.264.48c.08.32.238.32.553.4l1.738.72,3.078.8,1.032.081.864.236,1.586.4a3.619,3.619,0,0,0,1.343.56v.236c.31.081.31.081.472.324a2.129,2.129,0,0,1,.945,1.12,2.939,2.939,0,0,1,.081,2.314,1.312,1.312,0,0,1-.553.884,2.925,2.925,0,0,1-2.841.8l-.715-.081-1.579-.4v.641a1.808,1.808,0,0,1,.87.4l1.107.324c.317.074.472.317.789.317a.49.49,0,0,0,.472,0,3.051,3.051,0,0,0,2.53-1.039l.472-.317.236-.4c.4-.56.472-.4.634-1.2h.472v.56A5.049,5.049,0,0,1,78.1,23.154c-.236.155-.951.56-.951.877,0,.4.951.4,1.187.4a4.416,4.416,0,0,0,1.977-.4A5.311,5.311,0,0,0,82.6,21.555l.317-1.6a6.108,6.108,0,0,0-.87-2.645,5.037,5.037,0,0,0-2.132-1.518,12.237,12.237,0,0,0-2.6-1.119l-.789-.32-1.822-.56c-.472-.08-.789,0-1.026-.48l2.921-.4a6.019,6.019,0,0,1,1.424-.48,9.26,9.26,0,0,0,3-2.239c.4-.4.708-.48.789-1.119.4-.16.472-.48.634-.88a11.908,11.908,0,0,0,1.026-2.32l.155-.48.317-1.04.081-.48a15.063,15.063,0,0,0,.155-2.639,5.39,5.39,0,0,0-.155-1.2c-.317-2.4-1.187-3.679-2.449-5.6-.472-.64-.87-1.2-1.343-1.759l-1.815-2.16-1.741-1.759-2.685-2.639-1.66-1.36-.553-.48-1.107-.88-1.579-1.2-1.421-.96L67.2-19l-.474-.48-1.264-.8-.553-.559-2.291-1.6-2.449-2.079-1.975-1.519-.869-.72-1.738-1.279-.553-.24-.474-.48-.553-.4-.711-.72-2.37-2.079-3-3.119-.869-1.36a5.956,5.956,0,0,1-1.5-2.879l-.079-1.12a1.147,1.147,0,0,0,.158-.48l.158-.56a5.605,5.605,0,0,1,1.58-1.759l1.264-.56h.553l.395-.08a3.136,3.136,0,0,0,.869,0c.158.24.711.32,1.027.48l.474.32a8.633,8.633,0,0,1,1.975.959l.474.24,1.264,1.279.395.56.553.56c.237.24.474.719.79.879l.71,1.68-.316,1.6v.64l.316,2.159.474.959.474.88.316.24.474.48.79.56,1.58,1.04h.395c.158.4.4.16.632.48l.316,1.04.079,1.119c.08.4.4,1.92.553,2.32l.316.559c.4.8.553,1.28,1.5,1.44a1.4,1.4,0,0,0,.237-1.12c0-.16-.237-.4-.395-.8l-.237-1.279c-.08-.48-.4-1.12.158-1.44,0,.88.474,1.36.316,2.319l.632,1.12.71.959h.316c0,.16.079.24.158.4a9.187,9.187,0,0,0,1.184,1.279.694.694,0,0,0,1.107-.48c.081-.64-.634-1.519-.945-2.079a5.725,5.725,0,0,1-1.107-2.719,7.387,7.387,0,0,1-.318-1.279c.079-.16.079-.4.237-.4.236-.08.945.48,1.107.64a13.783,13.783,0,0,1,1.107,1.44l.553.56c.236.32.391.64.789.72l.945,1.279.4.16a5.687,5.687,0,0,0,1.181,1.2.724.724,0,0,0,.4.08c.081.32.4.48.634.719l.945,1.04c.317.24.715.48.789.88l.87.72,1.66,1.04,1.026.72,1.187.24.708-.16c.236-.24.317-.16.553-.32l.708-.72a13.329,13.329,0,0,0,1.586-1.36,2.173,2.173,0,0,0,.553-1.519,1.281,1.281,0,0,0-.715-.72l-.553-.16a18.1,18.1,0,0,1-2.841-1.279l-3.083-1.679-2.132-1.76a6.877,6.877,0,0,1-.87-.72l-.945-1.2-.4-.4a7.1,7.1,0,0,1-.627-1.039.7.7,0,0,1,.391.08l1.187.72c.553.4.553.64,1.262.72.155.48.317.4.634.64l.391.4c.317.24.4.24.634.4l.391.4.553.4.634.559.634.48c.472.24.553.64,1.107.64.155.32.236.32.553.48a3.706,3.706,0,0,0,1.5.72c.155.4.317.24.634.559a10.264,10.264,0,0,0,2.287,1.2h.87c.708-.08.472-.4,1.107-.559.155-.56.789-.72,1.187-1.12.391-.48.31-.72.553-1.2l.864-1.36a2.688,2.688,0,0,0,.081-.8,2.19,2.19,0,0,0-.081-.72c-.31-.8-1.026-.64-1.66-.959a4.39,4.39,0,0,0-.864-.4l-1.107-.24-1.66-.719-1.262-.48-1.66-1.039-1.268-.56-2.685-1.679-.553-.4-.864-.64-1.349-1.2-.391-.48L74.39-35.71A14.011,14.011,0,0,0,73.2-37.23a1.441,1.441,0,0,0-1.579-.24c-.236.16-.317.48-.634.48-.391.08-1.181-1.04-1.181-1.36,0-.08.074-.16.155-.24.236-.24.634.16.789.4.708-.08,1.187-.4,1.187-1.2a1.7,1.7,0,0,0-.162-.88l-1.026-1.279a5.471,5.471,0,0,0-.472-1.76,3.448,3.448,0,0,0-1.822-1.36c-.471-.16-1.182-.08-1.5-.48a6.205,6.205,0,0,1-.79-2l-.553-1.44-.632-1.12-.4-.88-.71-1.28-.4-.88-.632-.96-.474-.72-.316-.48c-.238-.4-.238-.56-.711-.8-1.106-.64-1.975.32-1.975,1.44a6.794,6.794,0,0,0,1.185,2.4c.158.4.4.88.553,1.36l.079.64.553.96c.316.8.159.88.4,1.52,0,.16.158.4.079.64-.158.24-.553,0-.79-.16l-.553-.24-1.264-.64-.79-.24-.948-.56c-.316-.16-.316,0-.948-.32-.632-.4-.711-.16-1.264-.32l-1.264-.32a28.174,28.174,0,0,0-6.4-1.04,10.249,10.249,0,0,0-2.212.08l-1.343.16c-.4-.08-.474-.72-1.027-1.28a4.517,4.517,0,0,0-2.449-1.04Zm18.486,4.559a1.265,1.265,0,0,0,.711-.24.71.71,0,0,0-.079-.56,7.294,7.294,0,0,0-.869-1.28L57.955-51.7l-.395-.56a6.943,6.943,0,0,0-.869-.72,4.5,4.5,0,0,0-1.343-.96l-.553-.24c-.632-.24-1.264-.4-1.659.32-.079.16-.237.32-.237.48a10.606,10.606,0,0,0,.395,1.2c.316.72.474.64.948,1.04.237.24.237.48.4.64a7.922,7.922,0,0,0,1.185.56l.395.24.79.32,2.449,1.28ZM83.869,5.8l.155.48c.155-.08.472-.16.634-.24a10.931,10.931,0,0,0,1.181-1.52l.479-.559.31-.56,1.9-3.039.553-.96.479-.48.236-.48A8.653,8.653,0,0,1,91.372-3.4l.317-.32c.236-.16.708-.4.945-.56a4.079,4.079,0,0,1,.553-.24,3.1,3.1,0,0,1,2.058.4c.31.24.472.48.864.56.081.64.553.559.553,1.279a4.775,4.775,0,0,1,.479,1.519.6.6,0,0,0,.31-.32c.081-.16.243-1.519.317-1.839,0-.32.081-.72.081-1.04A5.364,5.364,0,0,0,95.319-8.2a9.118,9.118,0,0,0-1.97-.56c.789-.8,2.449-.48,3.239.16.391.24.627.32.708.8h.317a1.585,1.585,0,0,0,.236.8c.236.24.4-.08.4-.32v-.56A4.7,4.7,0,0,0,98-9.958a4.185,4.185,0,0,0-3.711-2.8,4.786,4.786,0,0,0-1.5.16,5.4,5.4,0,0,0-2.132,1.36,11.78,11.78,0,0,0-1.187,1.6l-.789,3.279-.162.64-.155.48-.155.72-.243.56-.074.64-.236.56-.317.88-.162.8-.945,2.559L85.684,2.6l-.472,1.04-.87,1.439c-.236.32-.162.4-.472.72ZM3.053,16.272h.711a4.6,4.6,0,0,0-.395-.877,8.769,8.769,0,0,1,0-1.44V13.4a4.567,4.567,0,0,1,1.58-2.079L5.66,11l.474-.24a6.507,6.507,0,0,1,1.738-.24A16.423,16.423,0,0,1,6.687,11.8a3.98,3.98,0,0,0-1.027,1.76c-.079.16-.237.32-.237.48l-.079,1.2v.64a3.853,3.853,0,0,0,.316,1.363l.237.634A9.2,9.2,0,0,0,7.714,20.03a6.233,6.233,0,0,0,1.422,1.12.7.7,0,0,0,.395.081c.159.479.316.243.79.162l-.553-.8a4.007,4.007,0,0,1-.158-4.554c.316-.4.948-1.042,1.422-1.042.395-.32.474-.24.948-.32a2.5,2.5,0,0,1,1.185-.16h1.5l.948.16a3.37,3.37,0,0,1,.948.16,1.66,1.66,0,0,0,.632,0l1.422.4.474.242.869.155.632.243c.316.081.4,0,.711.243l1.027.317,2.054.56,1.58.4,1.9.56.711.162,1.5.4h1.5c.474-.56.553-.877-.237-1.2l-1.58-.317-2.291-.8-1.107-.634-.71-.162-1.106-.48-1.343-.72-.79-.4-2.054-1.2-1.817-.959-1.817-1.2-1.975-1.2-3.16-2.16A11.221,11.221,0,0,0,7,6.117,6.563,6.563,0,0,0,1.789,8.6a4.787,4.787,0,0,0-.711,1.04L.92,10.2c-.079.32-.237.64-.316.96,0,0,0,.879,0,.879a8.225,8.225,0,0,0,.869,2.32l1.58,1.918Z" transform="translate(-0.015 56.518)" stroke="#000" stroke-width="1.178"/>
</svg>
