<svg xmlns="http://www.w3.org/2000/svg" width="112.632" height="152.619" viewBox="0 0 112.632 152.619">
  <g id="layer1" transform="translate(-248.357 85.205)">
    <path id="path11976" d="M296.442,67.255c-.116-.14-.026-.328.45-.945.327-.424.832-1.035,1.121-1.356.5-.555.653-.869.422-.869-.174,0-.515.439-.515.663a.417.417,0,0,1-.279.318,4.383,4.383,0,0,0-.96.911c-.793.934-1.087,1.16-1.272.974s.037-.467,1.383-1.895c1-1.058,1.293-1.467,1.058-1.467a11,11,0,0,0-1.979,1.7c-.844.846-1.19,1.047-1.35.787-.038-.062.252-.405.643-.765l.712-.652-1.115.1c-1.088.094-5.175.1-10.16.014-2.212-.038-7.723-.349-8.859-.5-.239-.032-.531-.059-.651-.062s-.217-.047-.217-.1c0-.126,20.388-.162,20.962-.037.414.09.491.062.861-.32l.405-.418-1.17-.015c-.644-.007-1.338-.03-1.542-.048a11.442,11.442,0,0,0-2.149-.011c-.059.036-2.164.062-4.678.057s-4.823,0-5.13,0l-2.478.045a13.413,13.413,0,0,0-2.067.128.159.159,0,0,1-.224-.032,5.225,5.225,0,0,0-2.5.059,17.918,17.918,0,0,1-5.689.136,1.522,1.522,0,0,0-1.282.074,2.3,2.3,0,0,1-1.085.2c-.606-.038-.922.228-.424.358.347.09.333.388-.022.477a7.354,7.354,0,0,1-2.32-.019c-.307-.084-.445-.2-.473-.393-.042-.289-.321-.356-.641-.154-.159.1-.152.143.053.292.234.171.233.177-.023.315-.279.149-1.022.193-1.022.061,0-.043.1-.157.217-.254.193-.155.17-.165-.217-.092-.534.1-.6.157-.368.306.138.087.1.115-.158.116-.187,0-.341-.057-.341-.129s-.059-.094-.132-.05a1.281,1.281,0,0,1-1.246-.178c-.279-.3-.294-.3-.605-.136-.155.083-.258.083-.309,0s-.161-.079-.327.009c-.3.162-.6.068-.6-.191,0-.213-.193-.255-.31-.066a.511.511,0,0,1-.732-.076c-.054-.14-.123-.164-.23-.078a3.775,3.775,0,0,1-.829.318c-.7.2-1,.129-1-.253,0-.142-.087-.126-.417.078-.465.287-.777.33-.849.115-.029-.088-.252,0-.577.24-.523.378-.931.418-.8.078.051-.134-.052-.176-.436-.176-.643,0-1.071-.2-1.242-.571-.116-.255-.217-.295-.726-.284a4.479,4.479,0,0,0-.9.1c-.4.113-.743.027-.743-.185,0-.364,1.887-.576,2.528-.285a.629.629,0,0,1,.347.4c.031.219.136.269.64.3a1.372,1.372,0,0,0,1.068-.285,1.456,1.456,0,0,1,.575-.289,1.008,1.008,0,0,0,.463-.2c.329-.221.438-.227,1.549-.089,1.669.207,1.644.212,2.433-.437A1.926,1.926,0,0,1,259.465,62a4.92,4.92,0,0,1,1.349.1c.432.12.591.121.733,0a.484.484,0,0,1,.4-.079.9.9,0,0,0,.594-.175,1.483,1.483,0,0,1,.594-.247,1.359,1.359,0,0,0,.591-.274c.364-.269.365-.275.107-.413s-.231-.164.369-.595a6.836,6.836,0,0,1,.678-.454c.025,0,.046.144.046.318,0,.447.206.6.744.568.673-.045.719-.181.212-.626-.361-.316-.422-.43-.306-.57a.47.47,0,0,0,.074-.4c-.1-.312.442-.971.712-.867.245.094.277.7.051.959-.085.1.029.012.254-.19s.35-.389.279-.413c-.191-.063-.159-.518.037-.518a.728.728,0,0,0,.391-.248.81.81,0,0,1,.515-.248c.333,0,.347-.037.142-.366a.458.458,0,0,1-.007-.525,6.144,6.144,0,0,0,.225-1.4c.046-.613.1-1.27.112-1.46a.944.944,0,0,0-.134-.558c-.211-.278-.211-.4,0-.4.145,0,.335-.719.382-1.447a.429.429,0,0,1,.1-.238.6.6,0,0,0,.091-.347,6,6,0,0,1,1.045-1.846,1.757,1.757,0,0,1,.742-.047c.818.069.939.261.939,1.493a6.78,6.78,0,0,0,.114,1.37c.128.427.447,1.859.581,2.611a12.541,12.541,0,0,1,.115,1.425,5.188,5.188,0,0,0,.175,1.3l.149.372.238-.292c.286-.352.3-.513.052-.513-.1,0-.186-.056-.186-.124a.121.121,0,0,1,.117-.124.266.266,0,0,1,.193.124c.289.467.82-.279.577-.812a.619.619,0,0,1,.027-.651,1.426,1.426,0,0,0,.123-.706,2.658,2.658,0,0,1,.494-1.363c.541-.99.6-1.032,1.185-.856.26.078.287.059.206-.146-.3-.755-.2-.958.95-2,.441-.4.9-.544.806-.249-.032.1.179.212.578.311a1.929,1.929,0,0,1,.917.482c.16.181.332.276.388.216.145-.157,1.4-2.466,2.789-5.128.4-.761,1.065-2.176,1.063-2.249a4.207,4.207,0,0,1,.423-.714,3.286,3.286,0,0,0,.512-1.22,1.921,1.921,0,0,1,.641-1.377c.119-.066.177-.16.129-.208-.113-.113.2-.71.557-1.073a5.573,5.573,0,0,0,1.08-1.96.92.92,0,0,1,.242-.514,1.616,1.616,0,0,0,.325-.645,1.021,1.021,0,0,1,.223-.488c.1-.074.1-.12-.016-.165-.1-.039-.155-.312-.155-.727a1.354,1.354,0,0,0-.14-.751c-.1-.061-.112-.382-.043-1.092.053-.553.111-1.2.127-1.438.158-2.254.295-2.754.882-3.215a3.7,3.7,0,0,0,.626-.693.707.707,0,0,1,1.184-.181,1.517,1.517,0,0,0,.386.248,1.737,1.737,0,0,0,.336-.527,4.6,4.6,0,0,1,.447-.735,2.117,2.117,0,0,0,.3-.74c.066-.293.417-1.4.781-2.456.741-2.156,1.345-4.1,1.674-5.393.122-.477.416-1.509.654-2.292a71.044,71.044,0,0,0,2.059-8.287,1.851,1.851,0,0,0-.1-1.161c-.1-.187-.23-.34-.281-.341s-.093-.109-.093-.242a2.673,2.673,0,0,0-.31-.824,1.837,1.837,0,0,1,.075-2.155c.6-.829.978-1.108,1.5-1.112a.877.877,0,0,0,.96-.863,2.356,2.356,0,0,1,.128-.7c.07-.184.264-1.345.43-2.579s.36-2.662.43-3.173c.193-1.413.363-3.151.44-4.524.039-.681.12-1.516.182-1.857a27.118,27.118,0,0,0,.309-2.85c.025-.409.077-1.134.115-1.611s.1-1.62.129-2.54a25.71,25.71,0,0,1,.241-2.726,17.317,17.317,0,0,0,.18-2.416,23.918,23.918,0,0,1,.193-3.42c.086-.525.191-1.849.25-3.147.068-1.5.311-6.666.374-7.93.03-.613.09-1.868.132-2.788s.128-2.007.19-2.416.147-2.583.188-4.832.123-4.619.182-5.266.166-2.934.236-5.08c.29-8.793.325-10.986.184-11.431a4.548,4.548,0,0,0-.608-.9,2.037,2.037,0,0,1-.595-1.312,16.116,16.116,0,0,1,.022-2.424,2.354,2.354,0,0,1,.694-.62c.728-.5.853-.717.827-1.4a.9.9,0,0,1,.376-.805,1.321,1.321,0,0,1,.649-.369c.238,0,.261-.089.318-1.239a4.275,4.275,0,0,1,.281-1.64c.173-.317.189-.449.076-.63s-.09-.384.108-.962a9.727,9.727,0,0,0,.338-1.26c.09-.551.137-.595.428-.41.143.09.148.149.025.3-.1.125-.111.21-.023.265a.423.423,0,0,1,.13.326,2.28,2.28,0,0,0,.251.738,1.985,1.985,0,0,1,.217,1.029,1.148,1.148,0,0,0,.151.76,3.158,3.158,0,0,1,.229,1.475c.046,1.315.1,1.432.645,1.435.674,0,.774.2.847,1.7.01.207.166.341.624.538,1,.43,1.048.531,1.027,2.137-.021,1.573-.2,2.241-.766,2.888l-.369.421.064,4.491c.035,2.47.092,4.658.127,4.863s.085.874.111,1.487c.074,1.71.193,3.441.243,3.521.025.04.085,1.02.134,2.179s.106,2.137.128,2.175.071,1.1.111,2.354.1,2.732.135,3.277.089,2.125.12,3.51.088,2.568.126,2.629a14.5,14.5,0,0,1,.071,1.875,14.377,14.377,0,0,0,.192,2.637,16.649,16.649,0,0,1,.237,2.359c.124,3.9.287,6.731.409,7.125a10.534,10.534,0,0,1,.2,1.735c.036.716.087,1.468.115,1.673s.086.846.131,1.425c.088,1.15.355,3.445.547,4.712a13.949,13.949,0,0,1,.126,1.67,40.231,40.231,0,0,0,.376,4.213,10.065,10.065,0,0,0,.186,1.177c.038.1.126.939.2,1.859s.178,2.063.242,2.54.15,1.286.192,1.8.153,1.375.246,1.921.209,1.343.257,1.774c.085.756.283,1.138.591,1.138a4.561,4.561,0,0,1,.966.836l.819.836.066,1.105c.077,1.3-.012,1.555-.666,1.923-.517.291-.6.558-.356,1.192a4.006,4.006,0,0,1,.181.757c.058.449.486,1.095.726,1.095.269,0,.239.53-.035.617-.322.1-.322.083.068,1.861a86.41,86.41,0,0,0,3.225,11.177,10.159,10.159,0,0,1,.416,1.307.485.485,0,0,0,.109.284,3.74,3.74,0,0,1,.326.8,6.218,6.218,0,0,0,.3.805,6.972,6.972,0,0,1,.317.867c.129.409.254.768.276.8s.2-.134.39-.364c.334-.4.366-.411.737-.258.4.167.576.463.456.776-.043.113.043.232.229.317.224.1.32.27.381.673a6.631,6.631,0,0,0,.4,1.28,7.106,7.106,0,0,1,.425,1.522,3.229,3.229,0,0,0,.293,1.045.957.957,0,0,1-.116,1.089,2.1,2.1,0,0,0-.23.786c-.073.559-.021.718.737,2.292.734,1.522.871,1.728,1.373,2.049.522.335.553.384.479.776-.058.31-.031.437.107.49s.212.341.27.93a2.721,2.721,0,0,0,.187.923,14.546,14.546,0,0,1,.855,1.639c.754,1.579.887,1.84,1.466,2.877.411.737,2.6,4.995,3.31,6.443.408.831.387.808.582.647a4.115,4.115,0,0,1,1.645-.522.586.586,0,0,1,.528.247.5.5,0,0,0,.326.248c.22,0,.322.271.322.859,0,.486.325,1,.634,1s.977.483.977.691c0,.173.117.19.836.123l.836-.078.867.6c.661.456.877.679.907.933.022.183-.02.333-.093.333s-.132-.109-.132-.24a.413.413,0,0,0-.124-.317c-.074-.046-.124.1-.124.356,0,.467.262.655.684.493.145-.056.195-.038.141.048a.362.362,0,0,0,.3.528.4.4,0,0,1,.3.125.143.143,0,0,0,.193.056c.166-.1.141.055-.04.257-.39.435-.434.535-.375.844.035.181.119.33.188.33s.093-.157.048-.38c-.067-.338-.045-.378.2-.358.457.037.522,0,.3-.16-.331-.247-.146-.679.284-.663.193.006.328.036.3.064s.025.14.116.248c.234.271.468,1,.322,1a.136.136,0,0,1-.118-.149c0-.11-.036-.113-.14-.009s-.2.1-.367,0c-.285-.178-.447-.031-.239.218.1.118.107.19.025.19a.278.278,0,0,1-.209-.126c-.088-.141-.309-.046-.309.134,0,.063.09.116.2.116.159,0,.171.036.056.175s-.108.2-.006.26a.222.222,0,0,1,.072.259c-.037.1.009.173.105.173a.231.231,0,0,1,.213.126c.024.069.239.159.48.2.378.061.458.028.608-.252.217-.406.5-.408.881,0a4.128,4.128,0,0,0,.708.57c.352.218.387.281.249.457s-.133.183.028.058.478-.046,1.59.331c1.47.5,1.883.71,1.109.57a4.25,4.25,0,0,0-2,.045c-.108.11-.092.125.067.064a1.851,1.851,0,0,1,.957.317c.74.4.75.4,1.248.2.556-.223,1.679-.27,1.8-.077a1.39,1.39,0,0,0,.726.124,1.782,1.782,0,0,1,.767.115,1.4,1.4,0,0,0,.613.155c.477.038.494.053.456.442-.029.3.011.4.155.4.107,0,.195.056.195.124s.195.124.434.124.434.042.434.093a4.266,4.266,0,0,0,1.239.128c1.318.037,1.527-.066.846-.418a1.6,1.6,0,0,0-.929-.142c-.529.059-.725-.058-.341-.206.6-.23,2.158.237,2.158.648,0,.146.166.161.96.086,1.945-.186,2.633-.109,2.633.294,0,.425-.294.525-1.349.462a5.941,5.941,0,0,1-1.118-.131.144.144,0,0,0-.2.055.8.8,0,0,1-.535.108,5.18,5.18,0,0,0-1.248.195,3.3,3.3,0,0,1-2.4-.171,2.422,2.422,0,0,0-1.561-.1,2.5,2.5,0,0,1-1.312-.026.972.972,0,0,0-.792-.007,9.49,9.49,0,0,1-2.538.164c-.057-.035.051-.223.239-.42l.343-.358h-.388a.68.68,0,0,0-.471.134.338.338,0,0,1-.348.063,12.8,12.8,0,0,0-2.1.187,11.678,11.678,0,0,1-1.913.183c-.164-.164.233-.352,1.1-.524a9.239,9.239,0,0,1,2.12-.283c.323,0,.589-.064.589-.133s-.188-.124-.418-.124a18.723,18.723,0,0,0-3.733.8c-.5.259-1.053.258-1.053,0,0-.143-.062-.172-.217-.107a6.558,6.558,0,0,1-2.433.4c-.322-.172-.1-.289.874-.473.43-.082.753-.195.719-.25-.08-.129-.809-.031-1.607.217-.922.286-2.423.674-2.881.745-.494.077-.547-.164-.076-.342.641-.244.185-.249-.507-.006-1.043.367-1.8.461-1.8.224,0-.128-.08-.169-.248-.124-.305.079-.327-.154-.031-.326s.233-.169-1.136.17a5.9,5.9,0,0,1-1.334.239c-.206-.126.046-.295.742-.493a4.245,4.245,0,0,0,.793-.28,24.752,24.752,0,0,0-2.873-.1c-2.3-.016-2.947.012-2.9.131s-.593.191-2.579.311c-1.45.088-2.66.182-2.689.211-.052.051,3.374.09,4.495.052.452-.016.589.02.548.144s-.679.18-2.833.234c-3.021.074-4.342.011-4.417-.214-.026-.079.053-.17.176-.2s0-.072-.272-.09c-1.045-.066-1.548-.055-1.549.035,0,.051.275.093.612.093.654,0,.928.171.471.294a35.4,35.4,0,0,1-5.729-.087c-.6-.156-.62-.173-.651-.648-.017-.269-.061-.715-.1-.991l-.066-.5-1.5.032a15.233,15.233,0,0,0-1.54.076,4.809,4.809,0,0,0,.046.9,10.232,10.232,0,0,1,.049,1.4c-.037.517-.052.535-.371.455a1.822,1.822,0,0,1-.366-.118c-.018-.019-.036-.639-.039-1.38a4.581,4.581,0,0,0-.146-1.517c-.17-.2.184-.528.988-.9.358-.167.5-.3.451-.425-.057-.147.069-.182.663-.182a2.118,2.118,0,0,0,.965-.17c.225-.165.224-.173-.03-.31a1.027,1.027,0,0,0-.966-.03,8.215,8.215,0,0,1-1.729.192c-.886.043-1.848.112-2.138.151a1.207,1.207,0,0,1-.682-.057c-.108-.09-.247-.077-.464.043-.273.15-.048.171,1.9.175,1.623,0,2.2.043,2.162.149a.383.383,0,0,1-.289.183c-.133.022-2.653.042-5.6.046s-5.359.031-5.359.061a1.1,1.1,0,0,0,.363.243.979.979,0,0,1,.444.442c.058.182.148.233.319.178.545-.172.019.928-.891,1.862a9.3,9.3,0,0,0-.81.929C297.24,67.34,296.75,67.627,296.442,67.255Zm59-1.145a.718.718,0,0,0-.372,0c-.121.032-.052.059.152.062S355.53,66.145,355.447,66.11Zm-6.161-.181c.529-.134.756-.357.361-.357A2.429,2.429,0,0,0,348.6,66C348.6,66.094,348.658,66.088,349.286,65.929Zm-31.665-.1a.236.236,0,0,0-.155-.176,14.687,14.687,0,0,1,2.075-.089c1.227-.016,2.342-.038,2.478-.051s.689-.033,1.229-.045.939-.063.888-.114a33.738,33.738,0,0,0-3.459-.059c-1.851.019-3.812-.011-4.357-.066a7.663,7.663,0,0,0-2.664.081,8.225,8.225,0,0,0,1.7.121,8.453,8.453,0,0,1,1.821.149c.123.12-.025.142-1.068.165-1.092.022-.764.2.372.2A2.934,2.934,0,0,0,317.621,65.83Zm-3.438-.092a.474.474,0,0,0-.31,0c-.085.033-.016.062.155.062S314.268,65.772,314.183,65.738Zm37.036-.24c.636-.145.909-.162,1.009-.062a.624.624,0,0,0,.392.131c.239,0,.237-.017-.052-.258s-.286-.266-.093-.374c.255-.143.274-.3.047-.392a4.533,4.533,0,0,0-1.771.4c-.183.114-.068.126.559.063.991-.1.938.114-.081.323a4.721,4.721,0,0,0-.9.253C350.063,65.737,350.24,65.72,351.219,65.5Zm-9.374-.3c.225-.1.221-.107-.062-.107a1.7,1.7,0,0,0-.558.107c-.226.1-.22.107.062.107A1.7,1.7,0,0,0,341.846,65.2Zm1.515.048a.254.254,0,0,0-.238-.01c-.1.04-.069.069.074.076S343.4,65.291,343.361,65.249Zm6.432-.312a2.473,2.473,0,0,1,.706-.353c.312-.1.434-.2.354-.275s-.313-.038-.679.124a4.861,4.861,0,0,1-2.165.406c-.423-.024-.527.012-.527.18s.131.2,1.04.164A2.356,2.356,0,0,0,349.793,64.937ZM344.352,65a.254.254,0,0,0-.238-.01c-.1.04-.069.069.074.076S344.393,65.043,344.352,65Zm-21.784-.2c.122-.115.178-.118.217-.011.071.193,18.857.087,19.09-.108a.44.44,0,0,0,.156-.283,1.148,1.148,0,0,1,.248-.468,1.625,1.625,0,0,0,.248-.378c0-.141-1.4-.214-5.2-.269-5.493-.079-9.791-.067-11.657.036-.857.048-2.39.04-3.407-.019-1.632-.093-2.348-.109-3.925-.088-.221,0-.9,0-1.506,0a4.119,4.119,0,0,0-2.442.622,1.694,1.694,0,0,1-.743.035c-.534-.068-.54-.066-.327.175a.85.85,0,0,1,.217.383.308.308,0,0,0,.142.225A49.5,49.5,0,0,0,322.568,64.8Zm-1.009-.781c-.032-.032-1.279-.059-2.772-.061-2.888,0-3.682-.067-3.607-.291.05-.149,1.024-.162,5.106-.071,1.295.029,2.828.041,3.407.026,3.146-.078,17.875.076,17.988.188.23.23-.733.266-5.845.221-7.674-.069-12.362-.073-13.336-.011A4.11,4.11,0,0,1,321.559,64.017Zm24.539.517c1.054.016,1.152-.058.406-.309-.643-.214-1.588-.181-1.724.062-.074.131-.142.155-.2.067a.22.22,0,0,0-.259-.067c-.32.123.078.413.432.316A7.512,7.512,0,0,1,346.1,64.534Zm-83.461-.59c.3-.15.465-.323.465-.476,0-.219-.025-.214-.3.063s-.688.31-.688.041c0-.063-.17.011-.377.165-.294.217-.424.249-.589.145s-.282-.088-.491.048c-.153.1-.279.238-.279.3C260.376,64.434,262.116,64.208,262.637,63.944Zm87.34.212c.341-.144.378-.192.2-.261a1.5,1.5,0,0,0-1.209.255c-.129.155-.094.183.221.183A2.434,2.434,0,0,0,349.978,64.156Zm-2.315-.051c-.311-.275-1.047-.644-1.047-.525a.149.149,0,0,0,.155.136,1.168,1.168,0,0,1,.465.245C347.537,64.2,347.908,64.322,347.663,64.105Zm-91.657-.343a.253.253,0,0,0-.237-.01c-.1.04-.07.069.075.076S256.047,63.8,256.006,63.762Zm4.642-.258c.365-.349.465-.782.181-.782-.218,0-.526.347-.689.774C259.969,63.947,260.183,63.95,260.648,63.5Zm-2.311-.171c.173-.28-.04-.223-.325.088s-.287.32-.028.185A1.109,1.109,0,0,0,258.337,63.333Zm85.293.026c-.183-.062-.276.066-.171.235.067.108.118.1.195-.024C343.715,63.473,343.705,63.385,343.63,63.359Zm2.292-.164a2.254,2.254,0,0,1-.078-.491c.01-.043-.118-.016-.285.062-.348.161-.4.327-.107.327.138,0,.181.076.138.242s.007.257.14.286C346.019,63.686,346.031,63.657,345.922,63.2Zm-.669.283c0-.061-.084-.143-.186-.181-.19-.073-.254.059-.1.209C345.082,63.626,345.253,63.608,345.253,63.478Zm-81.16-.136a.425.425,0,0,0-.031-.173c-.017-.026.075-.166.205-.31s.195-.26.144-.26c-.136,0-.557.533-.562.712a.138.138,0,0,0,.12.155A.124.124,0,0,0,264.093,63.342Zm48.51,0a1.917,1.917,0,0,0-.875-.124c-.449,0-.8.053-.8.124s.374.124.875.124C312.356,63.466,312.651,63.42,312.6,63.342Zm-50.463-.368c.409-.372.307-.5-.192-.233-.276.145-.451.341-.455.508C261.489,63.44,261.748,63.33,262.14,62.974Zm5.513.169a.253.253,0,0,0-.237-.01c-.1.04-.07.069.075.076S267.694,63.185,267.653,63.142Zm2.388-.3c0-.068-.087-.124-.193-.124s-.159.056-.117.124a.266.266,0,0,0,.193.124A.121.121,0,0,0,270.041,62.846Zm1.26-.406c.246-.351.25-.378.037-.219-.534.4-.668.539-.6.644C270.827,63.016,270.973,62.906,271.3,62.44Zm22.1.283c.238-.263.092-.352-.161-.1-.116.115-.182.115-.3,0-.218-.219-.347-.182-.347.1,0,.177.083.248.291.248A.81.81,0,0,0,293.4,62.722Zm-4.59.009a.142.142,0,0,0-.055-.193c-.069-.043-.126.009-.126.115C288.627,62.871,288.7,62.9,288.807,62.731Zm7.073-.017c.131-.212.02-.228-.377-.052l-.372.165.333.01A.55.55,0,0,0,295.881,62.714Zm-36.9-.067a.253.253,0,0,0-.237-.01c-.1.04-.069.069.075.076S259.021,62.689,258.979,62.647Zm30.775-.4c.044-.216.032-.393-.028-.393s-.108.077-.108.172a.29.29,0,0,1-.184.243.2.2,0,0,0-.109.266C289.441,62.838,289.665,62.686,289.754,62.248Zm49.055.212c0-.068-.056-.089-.124-.047a.272.272,0,0,0-.124.2c0,.068.056.089.124.047A.272.272,0,0,0,338.809,62.46Zm.96.108a.229.229,0,0,0-.434,0c-.031.092.057.155.217.155S339.8,62.659,339.77,62.567Zm.879-.217c.151-.2.219-.372.15-.372s-.211.167-.317.372a1.023,1.023,0,0,0-.15.372A1.971,1.971,0,0,0,340.648,62.351Zm.763.171c0-.165-.034-.173-.186-.047a.645.645,0,0,0-.186.2c0,.026.084.047.186.047A.194.194,0,0,0,341.411,62.522Zm2.934-.071c-.04-.1-.069-.069-.074.074s.024.2.064.164A.251.251,0,0,0,344.346,62.451Zm-24.9.072a.253.253,0,0,0-.237-.01c-.1.04-.07.069.075.076S319.488,62.565,319.446,62.523Zm1.149.027c0-.026-.112-.076-.248-.112s-.248-.015-.248.047.112.113.248.113S320.6,62.577,320.6,62.55Zm7.5-.2c.123-.136.2-.248.162-.248a.979.979,0,0,0-.286.248c-.123.136-.2.248-.162.248A.977.977,0,0,0,328.091,62.351Zm1.8.047c0-.165-.034-.173-.186-.047a.645.645,0,0,0-.186.2c0,.026.084.047.186.047A.194.194,0,0,0,329.888,62.4Zm-7.936-.794c.405-.347.416-.375.2-.535a.323.323,0,0,1-.15-.379c.044-.115.03-.178-.032-.14a.989.989,0,0,0-.2.468,2.427,2.427,0,0,1-.272.68C321.242,62.083,321.439,62.042,321.952,61.6Zm-52.035.066c0-.1-.05-.186-.111-.186s-.143.083-.182.186,0,.186.111.186A.185.185,0,0,0,269.917,61.669Zm74.84-.062c0-.068-.025-.124-.055-.124s-.089.056-.131.124-.017.124.055.124A.128.128,0,0,0,344.757,61.607Zm-57.371-.348c0-.181-.018-.183-.122-.024-.157.243-.157.406,0,.31A.364.364,0,0,0,287.386,61.259Zm41.88-.022c.218-.2.377-.426.354-.5-.065-.195-.842.4-.845.649C328.772,61.679,328.8,61.668,329.266,61.237Zm8.341.081a4.65,4.65,0,0,1,.572-.649c.387-.366.556-1.032.21-.833a5.147,5.147,0,0,0-1.253,1.648C337.258,61.68,337.4,61.628,337.607,61.317Zm-72.337.042c.042-.068.018-.124-.055-.124a.128.128,0,0,0-.131.124c0,.068.025.124.055.124S265.228,61.428,265.27,61.359Zm13.785-.732a4.551,4.551,0,0,0,.4-1.1.356.356,0,0,1,.186-.32c.2-.078.261-.575.068-.575a5.613,5.613,0,0,0-.95,1.969c-.332.892-.329.882-.2.877A3.259,3.259,0,0,0,279.055,60.627Zm40.589.287c-.1-.269-.289-.074-.284.3,0,.312.015.318.177.1A.5.5,0,0,0,319.644,60.915Zm16.623.121a5.24,5.24,0,0,1,1.19-1.659c.188,0,.128.32-.119.634a6.678,6.678,0,0,0-.759,1.3c0,.169.293-.154.744-.818.608-.895.625-1.163.092-1.422a4.481,4.481,0,0,1-.736-.471c-.3-.243-.326-.335-.261-.81s.1-.529.367-.461c.357.089.525-.219.309-.566a.97.97,0,0,1-.143-.411,3.007,3.007,0,0,0-.681-.87c-.51-.514-.681-.777-.681-1.045a1.669,1.669,0,0,0-.518-1.146,1.283,1.283,0,0,0-.536-.105c-.347,0-.384.043-.521.622-.251,1.056.062,1.317.627.524.357-.5.443-.4.144.17-.174.333-.17.358.062.4.357.057.306.281-.186.819a1.908,1.908,0,0,0-.434.622.99.99,0,0,1-.31.44c-.408.383-.4.119.011-.587.176-.3.284-.585.238-.629-.108-.109-.756.664-1.02,1.217l-.261.545c-.03.062.065.081.21.042.555-.145.428.25-.428,1.333-.45.569-.846,1.3-.7,1.3a2.569,2.569,0,0,0,.53-.651c.239-.358.464-.679.5-.712s.344-.418.682-.851.683-.876.767-.983c.31-.389.263-.058-.058.415a13.187,13.187,0,0,0-1.345,2.5c.036.035.164-.118.286-.341a4.652,4.652,0,0,1,.5-.72,6.237,6.237,0,0,0,.537-.727c.14-.227.339-.411.442-.411.146,0,.112.13-.153.589-.187.323-.416.7-.507.833a1.037,1.037,0,0,0-.167.487c0,.17.129.061.434-.368.49-.689.552-.6.183.264a1.36,1.36,0,0,0-.175.66c.086.085.64-.564.737-.865.064-.2.8-.29.8-.1a1.978,1.978,0,0,1-.392.866c-.406.427-.847,1.1-.72,1.1a4.313,4.313,0,0,0,1.268-1.218c.234-.295.3-.465.206-.523-.077-.048.006-.087.185-.087.438,0,.488.128.2.5a6.681,6.681,0,0,0-.867,1.688C335.836,61.642,336.09,61.46,336.267,61.036Zm3.9-.5a3.939,3.939,0,0,1,.439-.66c.317-.373.374-.867.1-.867-.119,0-.165.069-.12.186s0,.186-.126.186c-.163,0-.17.033-.04.188.18.217.153.266-.18.326-.168.031-.266-.048-.328-.266-.1-.362-.105-.358-.193.372a2.485,2.485,0,0,1-.242.831,1.108,1.108,0,0,0-.174.411C339.305,61.463,339.982,60.912,340.171,60.533Zm-45.829.247c-.146-.25-.181-.171-.062.141.043.11.1.175.135.144S294.414,60.9,294.342,60.779Zm4.569.208a.128.128,0,0,0-.131-.124c-.072,0-.1.056-.055.124s.1.124.131.124S298.911,61.056,298.911,60.988Zm8.24-.007c.157-.072-.2-.085-.991-.038a10.382,10.382,0,0,0-1.291.121A8.754,8.754,0,0,0,307.151,60.98Zm2.664.007c0-.143-1.116-.143-1.673,0-.267.068-.084.1.651.109C309.4,61.105,309.815,61.061,309.815,60.988Zm16.437-.068c.043-.112-.048-.322-.215-.5a1.535,1.535,0,0,1-.192-1.477c.076-.193.042-.178-.154.062-.138.17-.339.408-.446.529-.179.2-.16.274.24.9C325.933,61.131,326.124,61.253,326.252,60.92Zm-38.111-1.09c.281-1.026-.088-.515-.613.849l-.143.372.313-.372A2.658,2.658,0,0,0,288.141,59.829Zm24.871.291a2.332,2.332,0,0,1,.635-.805c.468-.218.521-1.092.069-1.145a1.7,1.7,0,0,0-.847.527c-.33.306-.533.556-.45.556s.124.1.086.248c-.048.183,0,.248.171.248.293,0,.293.022-.012.62C312.156,61.367,312.452,61.155,313.012,60.12Zm-.078-.95a.359.359,0,0,1,.195-.258c.228-.076.189.3-.04.389C312.954,59.353,312.907,59.314,312.935,59.17Zm-31.622.981c0-.085.051-.155.109-.155s.2-.222.327-.492c.292-.647.6-.916.922-.812.15.047.257.026.257-.051s-.135-.133-.3-.133a1.672,1.672,0,0,1-.492-.074c-.143-.055-.287.134-.568.747a5.126,5.126,0,0,0-.376.995.325.325,0,0,1-.124.253.286.286,0,0,0-.124.217C280.945,60.836,281.307,60.347,281.312,60.151Zm32.34.109c0-.17-.033-.164-.186.038-.237.313-.234.514,0,.317A.528.528,0,0,0,313.652,60.26Zm14.673.173a1.212,1.212,0,0,0,.2-.507,1.388,1.388,0,0,1,.261-.57c.144-.2.228-.4.187-.441s-.015-.145.057-.232c.161-.195-.191-.794-.465-.794-.1,0-.145-.055-.1-.121a.479.479,0,0,0-.062-.378.288.288,0,0,0-.386-.177.56.56,0,0,1-.6-.456,5.324,5.324,0,0,1,.686-.792c.516-.532.725-.675.831-.57s.007.278-.391.684c-.319.325-.48.575-.4.623s.231-.041.352-.192c.457-.571.773-.851.958-.851.284,0,.235.145-.183.54-.462.435-.659.782-.5.878.132.082.875-.664.876-.88,0-.136.27-.291.506-.291s.107.323-.264.73c-.561.615-.393.563.371-.113.611-.54.657-.617.5-.814a3.951,3.951,0,0,0-1.489-.918.566.566,0,0,1-.378-.237,1.016,1.016,0,0,0-.48-.322c-.3-.084-.3-.081-.062.1s.241.192-.094.32a1.189,1.189,0,0,0-.544.555c-.264.554-.73.786-.931.462a.344.344,0,0,0-.371-.169c-.315.082-.287.253.05.3.36.051.74.815.76,1.525.013.458.044.517.223.421.326-.172.721-.131.721.076,0,.113-.115.186-.291.186a3.083,3.083,0,0,0-1.412.89,1.692,1.692,0,0,0-.236.608l-.082.423.467-.558c.538-.642.734-.778,1.032-.715.167.035.1.149-.314.524a2.4,2.4,0,0,0-.527.582c0,.208.354.1.638-.2s.725-.424.725-.208a2.077,2.077,0,0,1-.195.5c-.186.373-.149.887.065.887C328.079,60.74,328.215,60.6,328.325,60.434Zm.076-2.18c0-.072.056-.1.124-.055s.124.1.124.131-.056.055-.124.055A.128.128,0,0,1,328.4,58.254ZM276.36,60.088a31.227,31.227,0,0,1,1.723-3.437c.042,0,.144.109.227.242.122.2.116.276-.032.425a.608.608,0,0,0-.183.3,5.843,5.843,0,0,1-.352.907c-.328.734-.611,1.607-.476,1.468.033-.035.334-.592.669-1.239s.683-1.295.774-1.437c.144-.227.128-.309-.125-.651-.159-.214-.328-.39-.377-.39a2.5,2.5,0,0,0-.857.784,8.493,8.493,0,0,1-.576,1.118,6.746,6.746,0,0,0-.665,1.505,4.947,4.947,0,0,1-.189.743c-.1.244-.1.244.169.011A.8.8,0,0,0,276.36,60.088Zm39.242.187a3.7,3.7,0,0,1,.4-.646l.319-.429-.306.212c-.425.294-.5.269-.5-.169,0-.349-.03-.375-.384-.341-.324.033-.411.118-.556.535-.228.657-.223.681.121.681a.407.407,0,0,1,.368.186A.284.284,0,0,0,315.6,60.275Zm-28.411-.826c.505-.9.549-1.073.2-.753a.746.746,0,0,0-.248.444.634.634,0,0,1-.166.387,2.1,2.1,0,0,0-.453.779C286.52,60.511,286.79,60.166,287.192,59.449Zm11.715.641c-.006-.405-.288-.743-.469-.561-.218.218-.343-.006-.164-.292.087-.14.141-.269.119-.285a4.142,4.142,0,0,0-.721.057c-.375.047-.554.094-.4.1a.421.421,0,0,1,.354.2.3.3,0,0,0,.248.186c.1,0,.292.195.433.434C298.6,60.426,298.913,60.508,298.907,60.089Zm-8.174.1c0-.031-.056-.089-.124-.131s-.124-.017-.124.055a.128.128,0,0,0,.124.131C290.678,60.244,290.733,60.219,290.733,60.19ZM308.2,60.12c0-.072-.411-.124-.984-.124a2.7,2.7,0,0,0-1.061.124c-.049.078.309.124.984.124C307.768,60.244,308.2,60.193,308.2,60.12Zm24.781-.069c0-.107-.057-.159-.126-.115a.142.142,0,0,0-.055.193C332.911,60.3,332.986,60.269,332.986,60.051Zm.795-.01c.065-.171.047-.178-.111-.047-.215.178-.237.25-.078.25C333.653,60.244,333.738,60.153,333.781,60.041Zm-24.495,0a.253.253,0,0,0-.237-.01c-.1.04-.07.069.075.076S309.327,60.087,309.286,60.045Zm21.033-.774c-.082-.082-.8.613-.8.773,0,.069.194-.063.432-.294S330.352,59.3,330.319,59.27Zm-10.366.159c.047-.577-.153-.447-.27.175-.056.3-.035.4.077.362C319.844,59.938,319.931,59.7,319.953,59.429Zm1.81-1.072a14.4,14.4,0,0,0,.755-1.684c-.025-.025-.2.183-.381.462-.32.483-.55.646-.55.387a3.713,3.713,0,0,1,.568-1.181,5.432,5.432,0,0,0,.671-1.123c0-.176-.332-.009-.448.226-.076.152-.312.612-.525,1.021a3.8,3.8,0,0,0-.388.966,1.746,1.746,0,0,1-.195.6,3.42,3.42,0,0,0-.246,1.056,3.44,3.44,0,0,1-.124.8c-.039.064-.042.116,0,.116A14.753,14.753,0,0,0,321.763,58.357Zm.743,1.435c.118-.307-.012-.349-.17-.055-.076.142-.087.259-.023.259S322.462,59.9,322.505,59.792Zm-16.16-.167c0-.157-.253-.157-.5,0-.145.093-.111.12.155.121C306.192,59.747,306.346,59.693,306.346,59.625Zm-11.028-.115c0-.064-.107-.15-.238-.192a3.589,3.589,0,0,1-.682-.377c-.552-.374-.572-.247-.04.268C294.739,59.578,295.318,59.758,295.318,59.509Zm12.109-.084a.253.253,0,0,0-.237-.01c-.1.04-.069.069.075.076S307.469,59.467,307.427,59.425Zm31.885-1.151c-.2-.368-.16-.534.1-.451.19.059.244-.009.3-.382a1.345,1.345,0,0,0-.053-.69c-.107-.2-.216-.226-.708-.161-.873.116-1.168.3-1.078.655a.823.823,0,0,1-.133.616c-.2.3-.195.327.009.476.178.13.267.125.5-.026.258-.17.309-.161.611.1a1.182,1.182,0,0,1,.371.657c.063.559.109.551.161-.026A1.733,1.733,0,0,0,339.312,58.274Zm-60.429.281a1.016,1.016,0,0,0,.154-.509c-.063-.063-.568.705-.569.866C278.466,59.153,278.69,58.961,278.883,58.555ZM331.2,57.507c.185-.2.238-.484.092-.484a1.46,1.46,0,0,0-.659.684c0,.081-.167.274-.372.431a.881.881,0,0,0-.369.545C329.894,58.942,329.965,58.878,331.2,57.507Zm8.793,1.033c-.128-.519-.314-.638-.314-.2,0,.388.08.541.282.541C340.024,58.881,340.038,58.73,339.991,58.54Zm.739.093a.266.266,0,0,0-.193-.124.121.121,0,0,0-.117.124c0,.068.087.124.193.124S340.772,58.7,340.73,58.633ZM319.078,58l.032-.424-.186.416c-.226.507-.229.548-.032.482C318.977,58.451,319.06,58.237,319.078,58Zm.647.015a2.494,2.494,0,0,0,.25-.641c0-.083-.139.124-.309.46-.335.659-.339.672-.251.672A1.764,1.764,0,0,0,319.725,58.019Zm2.727.081c0-.221-.024-.237-.122-.085-.158.244-.158.53,0,.434A.46.46,0,0,0,322.452,58.1Zm-9.713-.2a2.181,2.181,0,0,1,1.017-.377c.414,0,1.239-.534,1.172-.76a4.372,4.372,0,0,1,1.857-.287c.588-.006.588-.006.59-.44a3.451,3.451,0,0,1,.416-1.467.241.241,0,0,0-.032-.3c-.22-.221-.154-.492.231-.942a1.151,1.151,0,0,1,.969-.48c.577-.055.627-.036.92.358a2.6,2.6,0,0,1,.391.758c.044.187.145.341.223.341a.841.841,0,0,0,.6-.6c0-.462.846-.975,1.053-.639.17.275.288.1.167-.248-.071-.2-.176-.372-.233-.372s-.143-.125-.191-.279a5.227,5.227,0,0,0-.983-1.377,3.874,3.874,0,0,1-.427-.62,5.686,5.686,0,0,0-.712-.9,3.241,3.241,0,0,1-.534-.66,19.331,19.331,0,0,0-2.449-2.481c-.073,0-.234-.133-.359-.3a10.325,10.325,0,0,0-2.737-1.828,21.821,21.821,0,0,0-4.243-1.352,21.029,21.029,0,0,0-6.133.131l-1.983.432a9.889,9.889,0,0,0-3.339,1.185,8.517,8.517,0,0,0-2.354,1.727c-.685.647-1.373,1.344-1.528,1.549a25.537,25.537,0,0,0-3,5.292c-.216.683-.216.714,0,.911a4.82,4.82,0,0,0,1.225.494c1.192.347,1.229.367,1.419.784a2.948,2.948,0,0,0,.817,1.2,3.009,3.009,0,0,0,.953-.081c.743-.147.784-.143,1.251.167a1.953,1.953,0,0,1,.634.672c.233.543,1.09.88,2.412.949A6.663,6.663,0,0,0,301.311,58a2.212,2.212,0,0,1,1.008.02,38.99,38.99,0,0,0,6.772.3l3.054-.048Zm2.28.367a.128.128,0,0,0-.131-.124c-.072,0-.1.056-.055.124s.1.124.131.124S315.019,58.33,315.019,58.262Zm14.621,0c0-.068-.025-.124-.055-.124s-.089.056-.131.124-.017.124.055.124A.128.128,0,0,0,329.64,58.262Zm-53.276-.569c.29-.675.289-.67.072-.67-.095,0-.2.154-.236.341s-.1.466-.152.62C275.89,58.481,276.115,58.277,276.365,57.693Zm42.744-1.166c.18-.779.446-1.363.623-1.363.242,0,.112.72-.249,1.374-.521.944-.466,1.18.068.291a3.6,3.6,0,0,1,.558-.778.242.242,0,0,0,.115-.222.93.93,0,0,1,.307-.466c.276-.255.289-.309.128-.52-.1-.135-.181-.171-.183-.082-.01.4-.518.011-.755-.575-.083-.206-.755,1.242-.827,1.783a6.075,6.075,0,0,1-.227.9,3.33,3.33,0,0,0-.172.867c.005.332.008.331.231-.1A5.815,5.815,0,0,0,319.108,56.527Zm11.135.926a2,2,0,0,1,.527-.554c.06,0,.109-.089.109-.2,0-.257-.654.343-.991.909C329.541,58.195,329.757,58.1,330.243,57.453Zm-33.439.19c0-.138-.083-.248-.186-.248-.224,0-.24.144-.037.347S296.8,57.931,296.8,57.642Zm-7.627-.116c.332-.367.107-.582-.254-.243a1.052,1.052,0,0,0-.3.38C288.627,57.852,288.958,57.769,289.177,57.526Zm5.521.17a1.21,1.21,0,0,0-.128-.31c-.191-.356-.387-.294-.221.071C294.474,57.73,294.7,57.884,294.7,57.7Zm-10.336-.307c.4-.25.445-.318.606-1.037a3.7,3.7,0,0,1,.964-1.466,2.03,2.03,0,0,0,.341-.476,2.473,2.473,0,0,1,.355-.525,8.093,8.093,0,0,0,.712-1.163,5.609,5.609,0,0,1,.521-.888c.324-.341.538-.748.46-.876-.044-.071-.022-.129.049-.129.212,0,.625-.922.5-1.12s.208-.656.384-.547c.055.034.248-.19.429-.5.2-.344.417-.561.557-.561a.631.631,0,0,0,.42-.273,14.492,14.492,0,0,1,2.664-2.52c3.808-2.623,7.294-3.648,13.08-3.847a17.1,17.1,0,0,1,6.945,1.132,16.14,16.14,0,0,1,3.543,1.682,2.293,2.293,0,0,0,.544.356,15.019,15.019,0,0,1,1.972,1.633,2.379,2.379,0,0,0,.525.43,1.779,1.779,0,0,0-.211-.517,2.41,2.41,0,0,1-.246-.636.346.346,0,0,0-.161-.253,2.372,2.372,0,0,1-.451-.595l-.506-.867c-.5-.855-1.1-1.818-1.253-2a16.183,16.183,0,0,0-3.422-1.6,14.239,14.239,0,0,0-3.634-.546h-.568l-.014.638a1.69,1.69,0,0,1-.145.768,2.486,2.486,0,0,1-1.522-.059c-.244-.131-.289-.652-.1-1.154.109-.288.092-.318-.186-.318-.224,0-.307.067-.307.248,0,.136.07.249.155.25.114,0,.117.026.011.093a.756.756,0,0,0-.186.463l-.042.371h-1.735l.042-.712.042-.712h-.407c-.317,0-.374.033-.258.149a1.439,1.439,0,0,1,.149.741c0,.677-.146.768-1.125.7l-.548-.039v-.714c0-.785-.149-.94-.695-.721-.163.065-.227.122-.142.127s.155.119.155.256.083.248.186.248.186.056.186.124a.124.124,0,0,1-.124.124c-.068,0-.124.1-.124.233,0,.325-.279.522-.846.6-.552.074-.63,0-.839-.8-.122-.469-.112-.546.084-.651a1.53,1.53,0,0,1,.594-.119.655.655,0,0,0,.448-.122c.047-.077-.123-.1-.457-.061-.293.034-1.044.113-1.667.177a11,11,0,0,0-3.325.871,1.437,1.437,0,0,1-.53.255,4.634,4.634,0,0,0-.9.421c-1.594,1.01-1.893,1.236-2.11,1.592-.309.507-.308.627,0,.432s.643-.014.752.412-.055.673-.907,1.292c-.917.667-1.146.707-1.041.183.073-.367-.078-.517-.22-.217-.04.085-.041-.012,0-.217a5.123,5.123,0,0,1,.5-1.115c.233-.409.613-1.134.844-1.611A14.876,14.876,0,0,0,294,39.954c.163-.471.34-.523,2-.584l1.546-.057c.346-.013.392-.041.225-.138a45.484,45.484,0,0,0-5.8.212c-.148.138.32.25.811.194.431-.049.56-.018.623.146.044.114.049.238.011.275s-1.857.064-4.042.059c-4.2-.01-4.242,0-3.719.552l.255.272-.457.086c-.317.06-.418.125-.328.215a26.93,26.93,0,0,0,6.65-.154c.073-.072-.382-.116-1.208-.116-1.1,0-1.326-.032-1.326-.186,0-.107.118-.19.279-.195l1.611-.042a7.387,7.387,0,0,0,1.41-.111c.043-.043.182-.022.309.046.222.119.219.148-.074.727-.6,1.187-2.18,3.942-2.987,5.212-.365.575-1.292,2.236-1.292,2.315a1.89,1.89,0,0,1-.244.4c-.134.188-.507.838-.829,1.444-2.172,4.085-2.722,4.984-3.112,5.085-.219.057-.251.11-.144.239s.091.255-.043.512c-.1.191-.27.556-.38.812-.184.427-.184.465,0,.465A1.683,1.683,0,0,0,284.362,57.388Zm5.761-9.814a7.846,7.846,0,0,1,1.292-2.1c.22.07.063.563-.453,1.416C290.507,47.647,290.1,47.979,290.123,47.574Zm27.931-3.017a4.849,4.849,0,0,0-.417-.288c-.133-.076-.138-.154-.027-.363.2-.367.278-.337.6.224C318.6,44.813,318.554,44.94,318.055,44.557Zm-1.766-.987c-.579-.347-.631-.521-.316-1.053s.495-.533,1.064,0l.518.483-.212.445C317.09,43.971,316.981,43.985,316.289,43.57Zm-21.706-.256c-.423-.537-.314-.874.441-1.368.392-.257.6-.15.916.462s.271.768-.261,1.034C295.122,43.719,294.88,43.691,294.583,43.314Zm19.983-.5a.834.834,0,0,1-.488-1.214c.1-.273.257-.513.359-.533a3.346,3.346,0,0,1,1.394.606,1.729,1.729,0,0,1-.2.729C315.337,43.075,315.2,43.127,314.566,42.81Zm-17.717-.189a1.264,1.264,0,0,1-.456-.608l-.191-.487.5-.313c.677-.428,1.091-.364,1.4.216.2.378.218.505.1.774a.487.487,0,0,1-.405.322,1.206,1.206,0,0,0-.467.108A.58.58,0,0,1,296.85,42.621Zm15.877-.61c-.9-.3-.912-.312-.753-1.016l.144-.638.481.039a2.057,2.057,0,0,1,1.233.5,1.558,1.558,0,0,1-.128.682C313.5,42.189,313.4,42.233,312.727,42.011Zm-13.9-.31c-.044-.126-.151-.4-.238-.621-.149-.372-.14-.4.173-.522a5.817,5.817,0,0,1,.672-.21.867.867,0,0,0,.4-.179c.033-.054.171-.07.307-.034.308.081.543.835.364,1.169-.068.127-.079.232-.026.234.294.011-.369.229-.924.3S298.9,41.9,298.832,41.7Zm11.481-.276c-.481-.085-.568-.277-.44-.963.1-.55.441-.685,1.169-.467a2.393,2.393,0,0,1,.638.263,1.336,1.336,0,0,1-.046.688C311.481,41.588,311.4,41.617,310.312,41.425Zm-34.648,15.9c.042-.11.022-.161-.049-.116a.261.261,0,0,0-.123.192C275.493,57.58,275.582,57.541,275.664,57.326Zm46.219-1.567a3.678,3.678,0,0,0,.818-1.2c0-.074-.112-.135-.248-.135a.218.218,0,0,1-.248-.24c0-.316-.189-.421-.581-.322-.31.077-.317.1-.233.786.133,1.092.082,1.519-.221,1.821a1.009,1.009,0,0,0-.2.659c.006.446.012.44.32-.312A4.279,4.279,0,0,1,321.883,55.759Zm-.219-.57a.206.206,0,0,1,.283-.28.183.183,0,0,1,.082.242C321.929,55.311,321.751,55.33,321.664,55.189ZM296.247,57.27a.271.271,0,0,0-.2-.124c-.068,0-.089.056-.047.124a.271.271,0,0,0,.2.124C296.268,57.394,296.289,57.339,296.247,57.27Zm36.616-.621a.256.256,0,0,0-.059-.368,1.454,1.454,0,0,1-.261-.7c-.127-.845-.27-.471-.206.537.045.7.094.876.232.823A.7.7,0,0,0,332.863,56.65Zm-44.112-.061c.16-.171.263-.31.229-.31a1.452,1.452,0,0,0-.353.31c-.16.17-.263.31-.229.31A1.481,1.481,0,0,0,288.751,56.589Zm.958.234a.253.253,0,0,0-.237-.01c-.1.04-.07.069.075.076S289.75,56.865,289.708,56.823Zm2.388-.1c0-.031-.056-.089-.124-.131s-.124-.017-.124.055a.128.128,0,0,0,.124.131C292.041,56.775,292.1,56.75,292.1,56.72Zm-4.956-.255c.089-.108.1-.186.029-.186s-.158.083-.2.186-.052.186-.028.186A.7.7,0,0,0,287.14,56.465Zm1.3-.434c.123-.136.169-.248.1-.248a.751.751,0,0,0-.348.248c-.123.136-.169.248-.1.248A.75.75,0,0,0,288.441,56.031Zm29.946-.279a6.565,6.565,0,0,1,.208-1.953c.073-.208.085-.351.028-.315a2.716,2.716,0,0,0-.529,1.183c.01.1.019.507.02.9C318.116,56.385,318.354,56.547,318.387,55.753Zm2.253.341c-.076-.2-.293-.258-.293-.083a.292.292,0,0,0,.265.269C320.666,56.279,320.679,56.195,320.64,56.093Zm-39.262-.239c.477-.031,1.188-.059,1.58-.063.44,0,.712-.061.712-.146a16.49,16.49,0,0,0-4.027.084c-.234.1-.231.109.062.188a1.535,1.535,0,0,0,.558.037C280.4,55.93,280.9,55.885,281.378,55.854Zm52.475-.679a.191.191,0,0,0-.131-.159c-.115-.038-.192-.252-.236-.658-.007-.068-.1-.016-.2.116-.177.234-.182.233-.182-.038,0-.173-.052-.247-.138-.193a3.522,3.522,0,0,0,.1,1.7C333.139,56.055,333.853,55.359,333.853,55.175Zm-.62-.266c0-.072.056-.1.124-.055s.124.1.124.131-.056.055-.124.055A.128.128,0,0,1,333.234,54.909Zm-55.015.633a4.542,4.542,0,0,1,.418-.836c.23-.4.723-1.3,1.1-2.02s.887-1.683,1.14-2.15a2.5,2.5,0,0,0,.38-.928c-.121-.121-.392.289-1.01,1.528a12.613,12.613,0,0,1-.712,1.3,2.68,2.68,0,0,0-.316.59c-.088.222-.2.4-.255.4s-.129.135-.171.3a1.3,1.3,0,0,1-.285.51.836.836,0,0,0-.227.441.934.934,0,0,1-.224.458c-.257.284-.266.519-.021.519C278.135,55.66,278.219,55.606,278.219,55.542Zm45.1-.653a2.458,2.458,0,0,0-.286-.654c-.077-.081-.086-.014-.026.186a6.154,6.154,0,0,1,.155.784c.043.335.1.437.193.344S323.437,55.261,323.32,54.889Zm-35.866.446c.229-.15.348-.166.472-.063.091.076.2.1.247.056.116-.115.1-.659-.018-.659a5.077,5.077,0,0,0-1.14.815C287.016,55.58,287.149,55.536,287.455,55.335Zm38.85-.047c.186,0,.129-.452-.078-.625-.162-.135-.2-.119-.262.107-.075.289-.289.249-.289-.055a3.325,3.325,0,0,0-.468-.891c-.257-.388-.6-.957-.751-1.263s-.454-.836-.664-1.177-.549-.954-.755-1.363-.7-1.319-1.108-2.022a11.262,11.262,0,0,1-.783-1.54.609.609,0,0,0-.208-.358c-.087-.054-.158-.141-.158-.2a1.71,1.71,0,0,0-.266-.47c-.146-.2-.529-.874-.851-1.487s-.919-1.715-1.327-2.449a5.6,5.6,0,0,1-.675-1.507c.052-.134.467-.177,1.9-.2,1.01-.014,2.589-.065,3.509-.115,1.581-.085,1.514-.091-1.239-.1-1.6-.008-3.3.031-3.779.086a3.779,3.779,0,0,1-1.142,0c-.161-.059-.306-.051-.35.021a13.147,13.147,0,0,0,1.639,2.884,17.469,17.469,0,0,1,1.02,1.8c.328.659.687,1.365.8,1.569a1.754,1.754,0,0,1,.2.505,1.027,1.027,0,0,0,.311.424,1.179,1.179,0,0,1,.31.383,7.853,7.853,0,0,0,.546,1,37.124,37.124,0,0,1,1.932,3.7,2.652,2.652,0,0,0,.382.643c.21.291.645.975.966,1.519.564.957,1.012,1.365,1.357,1.239A1.013,1.013,0,0,1,326.3,55.288Zm-42.027-.114c.138-.087.079-.225-.294-.679-.458-.559-.719-.693-.87-.447a3.244,3.244,0,0,0,.924,1.238A.765.765,0,0,0,284.278,55.174Zm34.883-.708a3.493,3.493,0,0,0,.156-.871c-.163-.164-.782,1.342-.643,1.566C318.84,55.43,318.962,55.257,319.16,54.466ZM283.108,53.5c2.5-1.248,3.148-1.623,2.986-1.714s-.51.025-1.347.416c-.626.294-1.346.66-1.6.814a1.116,1.116,0,0,1-.623.218,2.649,2.649,0,0,1-.567-.737c-.456-.762-.541-.838-.817-.732-.321.123-.222.572.241,1.1a1.481,1.481,0,0,1,.4.664,3.467,3.467,0,0,1-1.025.7,3.059,3.059,0,0,0-1.034.743C279.671,55.245,279.351,55.385,283.108,53.5Zm6.306,1.134c.176-.992.228-1.7.124-1.7a2.139,2.139,0,0,0-.858.6c-.1.131-.055.344.178.841a2.141,2.141,0,0,0,.4.667C289.3,55.04,289.375,54.859,289.414,54.637Zm35.022.155c0-.286-.046-.3-.4-.11-.206.109-.222.159-.085.245C324.241,55.108,324.436,55.054,324.436,54.792Zm3.736-2.121a12.7,12.7,0,0,0,1.646-1.859c-.238-.385-.824.024-2.5,1.745-1.386,1.425-1.651,1.864-1.13,1.864C326.371,54.421,327.015,53.852,328.172,52.671Zm-.281,1.637c.244-.154-.267-.3-.636-.187-.27.086-.271.092-.031.186C327.557,54.437,327.688,54.437,327.891,54.308Zm3.608-.384c.1-.187.06-.261-.218-.406-1.874-.974-2.091-1.046-2.435-.794-.293.214-.182.415.286.518a1.282,1.282,0,0,1,.575.318c.211.233.2.245-.185.382-.594.207-.287.3.848.253C331.2,54.16,331.4,54.112,331.5,53.924Zm-3.1,0c0-.066-.084-.088-.186-.048s-.186.093-.186.119.084.05.186.05S328.4,53.994,328.4,53.929Zm-43.147-.254c.131-.209.125-.264-.034-.325a.472.472,0,0,0-.559.4C284.662,54.014,285.077,53.957,285.254,53.675Zm47.184-.029c-.04-.085-.109-.261-.154-.392s-.293-.632-.551-1.115-.908-1.743-1.445-2.8-1.034-2.032-1.106-2.169c-.532-1.007-.674-1.326-.618-1.382.035-.035-.049-.2-.188-.355a11.256,11.256,0,0,1-.868-1.631c-.773-1.685-1.215-2.393-1.492-2.393-.119,0-.217.022-.217.049s.715,1.542,2.516,5.279c.214.443.48.945.592,1.115s.648,1.174,1.19,2.231a21.536,21.536,0,0,0,1.859,3.3C332.262,53.787,332.585,53.961,332.439,53.646Zm-6.516-.947c0-.249-.446-.441-.568-.244a.333.333,0,0,0,.317.478C325.835,52.934,325.923,52.852,325.923,52.7Zm-47.8-.286c-.08-.079-.186-.1-.236-.053s-.011.141.087.2C278.2,52.7,278.307,52.6,278.12,52.413Zm49.166-.539a6.6,6.6,0,0,0-2.185-1.1c-.4-.085-.741.073-.61.285a3.889,3.889,0,0,0,.833.54c.41.221.919.5,1.131.613.356.2.4.2.608.012A.658.658,0,0,0,327.286,51.874Zm-37.787.045a.665.665,0,0,0,.291-.9c-.112-.294-.284-.238-.447.145a2.662,2.662,0,0,1-.319.549c-.1.115-.137.269-.093.341C289.043,52.239,289.08,52.229,289.5,51.919Zm-2.84-.879a29.611,29.611,0,0,0-5.032-.162c-.753.188-.128.26,2.427.276C285.978,51.166,286.751,51.132,286.659,51.04Zm.233-.582a5.4,5.4,0,0,0-.976-1.49.663.663,0,0,0-.3.217c-.18.2-.168.257.138.708a1.385,1.385,0,0,0,1.041.674C286.85,50.573,286.892,50.525,286.892,50.458Zm-4.089-.352c.17-.109.923-.514,1.673-.9s2-1.05,2.788-1.476,1.55-.838,1.7-.915.278-.206.279-.286c0-.185-.456-.06-1.3.357-1.689.834-4.607,2.378-4.78,2.529a.668.668,0,0,1-.313.172,2.844,2.844,0,0,0-.916.807C281.936,50.506,282.443,50.338,282.8,50.106Zm8.271-.335c.368-.73.359-.85-.062-.745-.706.176-.905.638-.5,1.15C290.707,50.416,290.774,50.366,291.074,49.772Zm38.279.4c.112-.072.109-.167-.012-.4-.2-.39-.581-.684-1.435-1.114a7.731,7.731,0,0,1-.977-.574c-.422-.33-.758-.3-.758.064,0,.242.124.345.685.573.754.306,1.736.964,1.617,1.085a17.592,17.592,0,0,1-2.211.112c-2.253.038-2.693.088-2.693.3A35.97,35.97,0,0,0,329.353,50.174Zm-4.264-1.516c.339-.409,1-1.131,1.473-1.6.591-.593.847-.94.822-1.114-.076-.529-.46-.349-1.412.664a19.924,19.924,0,0,0-2.4,2.952c0,.073.174.067.452-.017A2.475,2.475,0,0,0,325.089,48.659Zm-43.3.119a3.9,3.9,0,0,0,.513-.8,18.908,18.908,0,0,1,.973-2.1c.06-.1.325-.649.587-1.215a8.388,8.388,0,0,1,.667-1.239,2.86,2.86,0,0,0,.425-1.377c-.088-.088-.386.369-.8,1.229-.463.957-1.37,2.761-1.651,3.284s-1.315,2.76-1.315,2.843C281.192,49.547,281.3,49.435,281.794,48.777Zm44.5.464a.3.3,0,0,0-.455-.255c-.254.211-.195.354.146.354C326.155,49.34,326.295,49.3,326.295,49.241ZM287.613,48.8c.031-.262-.013-.331-.21-.331-.332,0-.429.186-.261.5C287.323,49.309,287.563,49.223,287.613,48.8Zm-3.965-.558c.03-.2-.024-.269-.217-.269-.166,0-.256.08-.256.227C283.175,48.675,283.58,48.711,283.648,48.246Zm36.327.041c0-.1-.056-.186-.124-.186s-.124.084-.124.186.056.186.124.186S319.975,48.389,319.975,48.287Zm3.346-.186c0-.314-.048-.372-.31-.372-.242,0-.31.063-.31.289,0,.348.091.454.392.454C323.264,48.473,323.321,48.379,323.321,48.1Zm4.956-.111c0-.137-.381-.293-.479-.2-.039.039.01.123.111.187C328.141,48.129,328.277,48.132,328.277,47.99Zm-43.307-.135c.041-.067-.067-.331-.241-.586a1.962,1.962,0,0,1-.316-.622c0-.219-.556-.2-.743.029-.168.2-.123.291.482.96C284.464,47.98,284.832,48.079,284.97,47.855Zm7.407-.59c-.177-.059-.653.185-.653.335,0,.061.179.021.4-.088S292.456,47.292,292.377,47.265Zm35.179.154c.078-.171.1-.349.056-.4-.127-.127-.618.411-.52.57C327.23,47.816,327.406,47.75,327.557,47.419Zm-2.873-.174c0-.168-.24-.354-.836-.646-.46-.225-.976-.5-1.146-.614-.35-.231-1.611-.433-1.611-.258s.278.356.712.449c.222.047.4.162.4.254,0,.179.426.366.594.262a2.3,2.3,0,0,1,.837.36C324.485,47.538,324.684,47.575,324.684,47.245ZM287.016,45.87c2.02,0,2.8-.092,2.6-.3a22.676,22.676,0,0,0-5.452.051c-.234.145,0,.4.3.319C284.6,45.906,285.755,45.872,287.016,45.87Zm39.964-.643c.137-.138-.2-.782-.487-.921-.143-.07-.712-.366-1.264-.658-.708-.374-1.083-.506-1.27-.447-.437.139-.3.432.323.7a3.82,3.82,0,0,1,.81.452,1.681,1.681,0,0,0,.743.27c1.171.156.245.281-2.328.314-1.5.019-2.747.042-2.772.05s.027.1.116.211c.141.17.543.19,3.1.155A28.75,28.75,0,0,0,326.98,45.227Zm-41.013-.665c.611-.243,1.39-.576,1.73-.74s.843-.378,1.115-.474a11.343,11.343,0,0,0,2.912-1.531c0-.125-.081-.151-.279-.091-.355.108-2.906,1.151-3.174,1.3-.111.061-.907.449-1.769.862-1.383.663-2.1,1.118-1.759,1.118A11.827,11.827,0,0,0,285.967,44.562Zm37.354-.24c-.194-.234-.383-.235-.689,0-.223.169-.2.182.3.186C323.4,44.507,323.454,44.482,323.321,44.322Zm-1.432-.5a5.611,5.611,0,0,1,.9-.558,7.174,7.174,0,0,0,1.834-1.5c0-.108.156-.191.4-.215.418-.04.537-.227.221-.348-.232-.089-1.4.614-2.978,1.789-1.279.955-1.451,1.119-1.347,1.287C321.013,44.435,321.033,44.425,321.889,43.826Zm-31.683-.134c-.118-.118-.355.073-.267.216.052.085.122.083.211-.006C290.223,43.828,290.249,43.734,290.207,43.692Zm-4.554-.3a.124.124,0,1,0-.124.124A.124.124,0,0,0,285.653,43.393Zm35-.558c0-.345-.5-.4-.672-.08q-.221.412.424.351A.252.252,0,0,0,320.657,42.835Zm-33.475.007c.076-.2-.686-.936-.967-.936-.1,0-.21.115-.254.255C285.8,42.664,287,43.33,287.182,42.842Zm34.945-.379c.049-.128-.064-.242-.366-.368a4.925,4.925,0,0,1-.8-.438,4.814,4.814,0,0,0-1.729-.617c-.332,0,.165.373,1.319,1C321.738,42.674,322.017,42.75,322.127,42.463Zm3.344-.251c-.056-.146-.112-.156-.244-.047-.23.191-.216.236.073.236C325.467,42.4,325.521,42.342,325.471,42.212Zm-2.522-.547c0-.208-.22-.259-.293-.069-.043.112,0,.185.111.185S322.949,41.729,322.949,41.665Zm-27.827-.7c.263-.1.248-.459-.029-.71-.19-.172-.26-.179-.45-.04-.215.157-.215.179-.008.495C294.876,41.077,294.854,41.066,295.122,40.963Zm30.764-.466c.216-.216-.365-.265-3.29-.277-3.09-.013-4.013.071-3.609.328A61.636,61.636,0,0,0,325.886,40.5Zm-10.149-.331c.175-.28.1-.491-.163-.491-.207,0-.421.369-.342.589S315.56,40.45,315.737,40.166Zm-23.932-.654c.109-.109-.962-.226-1.754-.191-.409.018-1.365-.014-2.124-.071-1.247-.093-2.157-.035-1.994.128.034.034,1.058.094,2.276.133s2.235.09,2.26.113A4.367,4.367,0,0,0,291.805,39.512Zm19.187-.4c8.884-.048,13.688-.135,13.8-.251.075-.075-23.127.029-23.839.107-.2.023-.943.051-1.642.064a3.386,3.386,0,0,0-1.27.143,10.363,10.363,0,0,0,2.447.05C301.837,39.188,306.563,39.137,310.992,39.113Zm-22.546-1.065a1.622,1.622,0,0,1,.435-.527,1.377,1.377,0,0,0,.365-.391,3.8,3.8,0,0,1,.5-.676,2.783,2.783,0,0,0,.5-.73c0-.21-.354-.164-.611.079a9.382,9.382,0,0,0-1.124,1.466,4.482,4.482,0,0,1-.508.672c-.57.676-.56,1.023.018.6A1.371,1.371,0,0,0,288.446,38.048Zm-1.668.358a10.405,10.405,0,0,0,1.229-2.141.321.321,0,0,1,.13-.248c.212-.131-.106-.413-.384-.34a.546.546,0,0,0-.32.39,4.034,4.034,0,0,1-.364.834,7.189,7.189,0,0,0-.671,1.692C286.4,38.759,286.539,38.689,286.778,38.405Zm2.957-.26c-.46-.427-.718-.266-.29.181.235.245.384.319.471.232S289.947,38.341,289.736,38.146Zm8.494-.181c1.5-1.439,2.094-2.131,1.954-2.271-.1-.1-.38.118-.995.747a7.8,7.8,0,0,1-.943.88,1.051,1.051,0,0,1-.321-.15c-.194-.121-.325-.11-.68.06-.242.115-.44.266-.44.336,0,.165.05.16.581-.062a1.1,1.1,0,0,1,.5-.133c.12.12-.113.538-.379.68a1.349,1.349,0,0,0-.433.392c-.132.211-.116.24.13.238A2.527,2.527,0,0,0,298.23,37.965Zm-7.181-1.257c-.049-.472-.312-.46-.336.015a5.582,5.582,0,0,0,.126,1.652C290.928,38.514,291.1,37.173,291.049,36.708Zm1.826,1.267c.7-.811,1.7-1.945,1.985-2.246l.273-.291-.274.081a2.365,2.365,0,0,0-.659.415,22.043,22.043,0,0,0-2.1,2.433C292.1,38.59,292.533,38.37,292.875,37.975Zm3.435-.894c0-1.255-.1-1.68-.348-1.435a12.812,12.812,0,0,0-.07,2.692.309.309,0,0,0,.239.1C296.275,38.436,296.309,38.178,296.309,37.081Zm5.344,1.223c.228-.122.242-.224.182-1.322-.064-1.169-.171-1.5-.43-1.343-.084.052-.1.426-.056,1.049.086,1.113-.02,1.279-.568.888-.815-.58-1.024-.158-.223.45C301.132,38.461,301.286,38.5,301.653,38.3Zm5.56-1.267.062-1.337-.31.036c-.3.036-.309.058-.286.994a2.59,2.59,0,0,1-.1,1.031c-.065.04-.335-.1-.6-.307-.455-.36-1-.509-1-.272a3.331,3.331,0,0,0,.7.688c.555.457.784.571,1.084.542l.381-.037Zm1.761,1a14.325,14.325,0,0,0,1.1-1.208,7.571,7.571,0,0,1,.757-.847.216.216,0,0,0-.077-.392c-.174,0-.275.1-1.327,1.3-.3.34-.749.828-1,1.084-.427.434-.44.467-.177.467A1.51,1.51,0,0,0,308.974,38.034Zm8.746.129c.048-.247-.913-1.012-1.155-.92-.287.11-.222.262.321.753C317.4,38.458,317.653,38.509,317.72,38.162Zm-22.483-.039a1.891,1.891,0,0,0-.624-.512c-.427-.25-.584-.29-.7-.175s-.1.174.039.259c.1.061.353.221.558.355C294.972,38.352,295.339,38.389,295.238,38.123Zm17.146-.1a4.949,4.949,0,0,0,.057-1.288c-.037-1.035-.064-1.146-.28-1.146-.255,0-.283.178-.241,1.58.023.758-.084.806-.768.341-.506-.344-.841-.4-.841-.139,0,.2.713.772,1.057.84A1.317,1.317,0,0,0,312.383,38.02Zm3.558-.977c1.115-1.177,1.182-1.275.915-1.348-.233-.064-.394.034-.846.513-.307.326-.669.742-.805.926s-.333.427-.437.54c-.491.532-.537.639-.276.639A5.371,5.371,0,0,0,315.941,37.043Zm4.916.664c1.4-1.556,1.746-2.12,1.318-2.12a9.316,9.316,0,0,0-2.011,2.385C319.789,38.562,320.247,38.386,320.857,37.706Zm2.516.5c.114-.184-1.238-1.118-1.432-.989-.131.087-.047.224.373.6C322.834,38.292,323.23,38.435,323.373,38.2Zm-19.438-.658c.269-.354.546-.739.614-.856s.253-.386.411-.6c.28-.373.281-.383.036-.383-.268,0-.838.538-.953.9-.038.119-.113.217-.167.217a2.685,2.685,0,0,0-.55.681c-.44.663-.445.681-.167.681C303.358,38.188,303.594,37.992,303.935,37.546Zm14.677-.645c0-1.2-.036-1.34-.322-1.231a3.731,3.731,0,0,0-.032,2.2C318.5,38.4,318.612,38.1,318.612,36.9Zm5.535.517c-.114-.223-.312-.683-.439-1.021-.227-.6-.54-.947-.71-.777a7.752,7.752,0,0,0,.906,2.2C324.207,38.249,324.405,37.922,324.148,37.417Zm-10.213-.263c.29-.228.273-.418-.046-.52-.372-.118-1,.512-.9.9l.073.277.327-.244C313.571,37.435,313.816,37.248,313.935,37.154Zm-11.1.2c.626-.4.675-.527.2-.527-.442,0-.895.317-.895.627S302.19,37.757,302.832,37.352Zm16.912.02c.652-.412.488-.648-.246-.354-.479.192-.628.4-.431.592C319.183,37.727,319.182,37.727,319.744,37.373Zm-11.4.053c.678-.2.655-.532-.032-.44-.557.075-.8.239-.673.449C307.743,37.6,307.758,37.6,308.345,37.425Zm-13.12-.558a.477.477,0,0,0-.31,0c-.085.034-.016.062.155.062S295.31,36.9,295.225,36.867Zm-2.261-.8c0-.515,0-.519-.3-.405-.2.076-.286.909-.115,1.08S292.964,36.524,292.964,36.067Zm-1.278-.078c-.031-.119-.057-.022-.057.217s.026.336.057.217A1.015,1.015,0,0,0,291.686,35.989Zm6.536.434a3.15,3.15,0,0,0-1.158-.836c-.332,0-.093.353.484.715C298.033,36.606,298.315,36.656,298.222,36.423Zm10.924.01c.171-.277-1.049-1.029-1.286-.792-.1.1.832.925,1.049.932A.306.306,0,0,0,309.146,36.433Zm5.963-.063c.073-.221-.841-.784-1.265-.781l-.374,0,.531.5C314.523,36.586,315,36.705,315.11,36.37Zm5.443-.108c.1-.259-.3-.544-.763-.543h-.372l.429.367C320.335,36.5,320.449,36.532,320.553,36.262Zm-16.933-.114c0-.221-.378-.438-.764-.438h-.284l.307.3C303.223,36.352,303.62,36.424,303.62,36.148Zm2.336.045c.215-.075.362-.181.328-.236-.084-.137-.517-.012-.692.2S305.453,36.369,305.955,36.194Zm-15.046-.5c-.1-.158-.3-.007-.3.224,0,.158.034.165.185.041C290.9,35.875,290.947,35.756,290.909,35.694Zm.595-1.028c.062-.093.165-.086.341.023.2.122,2.046.15,8.46.131,4.515-.014,11.471-.033,15.458-.043s7.318-.027,7.4-.038c.106-.014.155-.272.155-.81s.056-.837.186-.944c.378-.314.219-.509-.4-.495-.324.007-4.324.009-8.89,0-6.546-.008-20.8.085-26.071.169-.821.013-1.151.227-.574.372.173.044.319.148.324.232s.019.459.031.834l.022.681,1.47.025a10.871,10.871,0,0,1,1.53.084C291.029,34.974,291.4,34.826,291.5,34.666Zm13.85-2.78c17.482.018,17.208.021,17.543-.2a.632.632,0,0,0,.3-.379c0-.153-.318-.185-1.952-.194-8.259-.045-25.686.061-29.4.179-1.193.038-2.545.071-3,.074-.74,0-.836.032-.836.242a.314.314,0,0,0,.155.29c.085.029,1.856.035,3.934.014S300.141,31.881,305.354,31.886Zm-17.073-1.76c-.04-.6-.074-.673-.265-.554a1.485,1.485,0,0,0-.047,1.1C288.172,30.877,288.315,30.627,288.281,30.126Zm6.015.444c.168-.061.216-.879.057-.977-.087-.054-3.524-.118-4.812-.089l-.511.011-.011.55c-.011.548-.009.551.449.589C290.113,30.707,294.108,30.638,294.3,30.57Zm1.247-.4c-.055-.654-.348-.7-.348-.051,0,.376.05.506.193.506S295.572,30.521,295.542,30.175Zm7.145.21c.122-.1.179-.1.215.012.06.181,2.627.218,8.209.117l3.836-.07.084-.411c.072-.354.044-.426-.2-.519-.556-.212-13.112-.105-14.392.122a1.411,1.411,0,0,1-.664,0,10.643,10.643,0,0,0-1.8-.107c-1.827-.018-1.92.021-1.813.75l.056.38,3.152-.069A18.428,18.428,0,0,0,302.687,30.385Zm13.55-.452c-.025-.219-.124-.37-.257-.4-.173-.033-.217.046-.217.391,0,.42.2.643.412.453A.684.684,0,0,0,316.237,29.934Zm5.924.385c.147-.044.144-.746,0-.894a48.422,48.422,0,0,0-5.3.041c-.162.1-.119.889.052.955S321.924,30.39,322.161,30.319Zm1.065-.092c.092-.257-.152-.981-.314-.928-.082.027-.167.2-.189.388C322.666,30.173,323.084,30.623,323.226,30.227Zm-33.787-1.569c-.06-.1-.16-.094-.352.009-.262.14-.263.146-.024.234C289.342,29,289.564,28.86,289.439,28.658Zm1.023,0a.848.848,0,0,0-.342-.31c-.106-.038-.276-.1-.378-.148s.037.093.31.3C290.649,28.956,290.65,28.956,290.462,28.655Zm7.52-.008c-.1-.312.018-.312.53,0,.433.264.9.328.9.123a.13.13,0,0,0-.135-.124,2.215,2.215,0,0,1-.642-.434,2.079,2.079,0,0,0-.662-.434,1.921,1.921,0,0,1-.487-.126c-.279-.106-.307-.156-.174-.315.116-.14.121-.225.018-.328-.136-.136-.174-.083-.337.478-.023.079.072.172.211.209.352.092.231.333-.308.613-.727.377-.6.585.357.585C298,28.9,298.055,28.878,297.982,28.648Zm2.6-.133a1.645,1.645,0,0,1,1.109-.734c.106,0,.192-.062.192-.137s-.088-.1-.2-.062a1.136,1.136,0,0,1-.312.075,4.531,4.531,0,0,0-1.226,1.131C300.15,29.006,300.343,28.885,300.584,28.514Zm6.6.163c.054-.162-.816-1.022-1.035-1.022a.618.618,0,0,1-.353-.275c-.141-.2-.193-.223-.193-.081,0,.107-.217.292-.482.412-.559.252-1.247,1.06-.9,1.06.057,0,.18-.144.274-.32a1.535,1.535,0,0,1,.979-.671c.23,0,.139.32-.176.616-.168.158-.274.34-.234.4A4.707,4.707,0,0,0,307.182,28.678Zm-14.4-.774h.394c.219,0,.062.261-.334.553l-.427.315h.4c.273,0,.4-.059.4-.19,0-.311.314-.338.759-.066a2.222,2.222,0,0,0,.51.255c.141,0-.315-.495-.46-.5-.227-.007-.678-.458-.821-.82-.116-.294-.153-.317-.22-.136a2.327,2.327,0,0,1-.7.62,1.858,1.858,0,0,0-.656.61c-.026.135.117.059.41-.218A1.452,1.452,0,0,1,292.787,27.9Zm3.077.558c.112-.17.184-.31.161-.31a1.715,1.715,0,0,0-.312.31c-.148.17-.22.31-.16.31S295.752,28.632,295.864,28.462Zm6.472.124c-.08-.208.231-.263.355-.062a.437.437,0,0,0,.332.124c.352,0,.114-.279-.478-.559l-.444-.211-.447.447-.447.447h.6C302.29,28.771,302.393,28.735,302.336,28.586Zm6.764-.722c.09-.036.1-.068.021-.073-.219-.016-.793.577-.793.818,0,.149.1.075.307-.23A1.859,1.859,0,0,1,309.1,27.863Zm1.322.635c-.112-.21-.112-.284,0-.322.175-.058-.057-.4-.272-.4a.733.733,0,0,1-.344-.194c-.143-.13-.242-.15-.3-.061-.045.073.005.166.112.207.287.11.235.387-.116.617-.474.311-.375.422.376.422C310.55,28.771,310.564,28.765,310.421,28.5Zm4.1.079c0-.209.288-.232.628-.05.622.333.048-.293-.721-.785-.29-.186-.527-.42-.527-.522s-.056-.184-.124-.184-.124.16-.124.357c0,.277-.08.39-.363.507-.4.167-.833.584-.718.7.04.041.231-.073.423-.252.607-.567,1.334-.6.8-.031-.365.389-.345.426.227.434C314.379,28.754,314.524,28.7,314.524,28.578Zm3.768-.116c-.1-.379.057-.394.5-.048.183.144.368.227.41.184.134-.134-.59-.788-.952-.86a.535.535,0,0,1-.432-.354c-.064-.21-.1-.236-.152-.1a1.441,1.441,0,0,1-.365.44.539.539,0,0,0-.22.651c.076.381.1.4.686.4S318.367,28.761,318.292,28.462Zm-1.042-.372a.5.5,0,0,1,.263-.186c.06,0,.109.084.109.186s-.112.186-.263.186C317.138,28.276,317.121,28.245,317.25,28.09Zm3.717.31c.445-.381.792-.471.933-.242a.305.305,0,0,1-.07.31c-.127.153-.068.18.392.18h.542l-.4-.377a1.134,1.134,0,0,1-.4-.681c0-.35-.2-.407-.3-.086a.844.844,0,0,1-.411.377c-.341.16-1.011.893-.816.893A2.032,2.032,0,0,0,320.967,28.4Zm-32.365.1c.179-.179.193-.347.029-.347-.066,0-.179.112-.252.248C288.233,28.673,288.368,28.733,288.6,28.5Zm23.4-.626c-.037-.222-.4-2.382-.808-4.8s-.889-5.319-1.071-6.443c-.476-2.946-.536-3.248-.686-3.4a15.539,15.539,0,0,0-3.178-.125c-3.373.01-3.209-.031-3.408.858-.145.646-.836,4.424-.975,5.328-.073.477-.211,1.313-.306,1.859s-.2,1.326-.245,1.735-.123,1.106-.186,1.549-.14,1.084-.173,1.425-.1.815-.152,1.053l-.091.434.44-.466c.369-.391.487-.449.729-.359a1.1,1.1,0,0,1,.478.477,2.193,2.193,0,0,0,.767.693l.578.323.874-.86a4.544,4.544,0,0,1,1.047-.86c.2,0,.507.326.623.652a.7.7,0,0,0,.359.334,3.217,3.217,0,0,1,.7.491l.417.376.513-.433a3.86,3.86,0,0,0,.708-.772.669.669,0,0,1,1.135-.122,6.782,6.782,0,0,0,.877.7,2.546,2.546,0,0,1,.664.58.292.292,0,0,0,.253.174C312.028,28.276,312.056,28.178,312.006,27.873Zm7.846.336a1.371,1.371,0,0,0-.169-.341,4.364,4.364,0,0,1-.334-.894,1.993,1.993,0,0,0-.419-.832c-.31-.259-.337-.262-.614-.059-.2.149-.207.2-.035.609a1.241,1.241,0,0,0,.651.667,1.181,1.181,0,0,1,.6.569C319.64,28.227,319.852,28.411,319.852,28.21Zm-3.651-.891c-.655-.563-1.074-.17-.481.45l.352.368.228-.268C316.524,27.606,316.522,27.6,316.2,27.319Zm-20.883.585c0-.068-.025-.124-.055-.124s-.089.056-.131.124-.017.124.055.124A.128.128,0,0,0,295.318,27.9Zm4.171-.527c-.034-.085-.062-.015-.062.155s.028.24.062.155A.477.477,0,0,0,299.489,27.378Zm-7.269-.538c0-.234-.2-.121-.38.214-.122.228-.111.238.123.113A.466.466,0,0,0,292.22,26.839Zm2.332.138.287-.3-.329-.083c-.439-.11-.8.213-.561.5C294.16,27.345,294.213,27.335,294.552,26.977Zm1.757.031c0-.072-.079-.06-.186.028a.688.688,0,0,0-.186.2c0,.024.084.011.186-.028S296.309,27.078,296.309,27.008Zm17.151-.418c.277-.106.244-.3-.052-.3-.138,0-.248.083-.248.186C313.161,26.688,313.183,26.7,313.46,26.59Zm.878-.173c.042-.068.018-.124-.055-.124a.128.128,0,0,0-.131.124c0,.068.025.124.055.124S314.3,26.485,314.338,26.417Zm-14.293-1.1c.024-.228-.012-.42-.081-.427-.136-.013-.275.509-.29,1.09l-.01.372.168-.31A2.326,2.326,0,0,0,300.045,25.32Zm-1.629-.227c0-.157-.034-.165-.185-.041-.1.084-.153.2-.115.265C298.214,25.476,298.416,25.325,298.416,25.094Zm17.71-.627c.14-.307.176-.651.069-.651a3,3,0,0,0-.894.546l-.276.236.257.223C315.583,25.081,315.907,24.946,316.126,24.467Zm-3.213.34a.128.128,0,0,0-.131-.124c-.072,0-.1.056-.055.124s.1.124.131.124S312.913,24.875,312.913,24.806Zm-18.034-.115a.134.134,0,0,0-.042-.185c-.062-.038-.145.014-.184.115C294.576,24.822,294.762,24.88,294.879,24.691Zm3.152-.69c.737-.561.959-.929.558-.929a1.446,1.446,0,0,0-.614.416,5.886,5.886,0,0,1-.731.622c-.331.217-.447.65-.142.533A8.167,8.167,0,0,0,298.031,24Zm-4.541,0c.033-.171.012-.312-.047-.312a.1.1,0,0,0-.108.093,2.679,2.679,0,0,1-.082.391c-.051.192-.034.27.049.219A.7.7,0,0,0,293.489,24Zm20.707-.25c.049-.129-.008-.186-.188-.186-.216,0-.234.031-.1.186a.8.8,0,0,0,.188.186C314.11,23.939,314.157,23.855,314.2,23.753Zm-17.635-.333c.2-.149.367-.309.367-.355a3.423,3.423,0,0,0-1.406-.026c-.108.064.4.631.575.644A1.46,1.46,0,0,0,296.562,23.42Zm-2.9-.4c-.041-.107-.132-.194-.2-.194-.143,0-.175.407-.043.539S293.747,23.231,293.665,23.018Zm19.664-.564c.2-.2-.062-.38-.5-.351-.5.034-.624.16-.4.424A.745.745,0,0,0,313.329,22.454Zm2.308.06c.555-.176.16-.372-.814-.4-1.029-.033-1.374.07-1.257.375.054.142.264.175.939.147A6.757,6.757,0,0,0,315.637,22.515Zm-17.222-.62c.134-.162.052-.186-.643-.186a2.025,2.025,0,0,0-1.037.182c-.219.166-.161.182.643.186C298.016,22.079,298.3,22.029,298.416,21.895Zm15.266-.961c.253.014.5-.036.543-.11.092-.149-1.049-1.247-1.232-1.186a2.492,2.492,0,0,0-.485.551c-.486.671-.4.951.248.816A4.321,4.321,0,0,1,313.682,20.933Zm-17.241-.5c.106-.083.345-.272.53-.419l.337-.269-.31-.334c-.459-.495-.855-.353-1.11.4a4.912,4.912,0,0,0-.2.682C295.69,20.646,296.221,20.606,296.44,20.435Zm4.291-.3c-.031-.121-.059-.052-.062.153s.023.3.057.219A.708.708,0,0,0,300.732,20.131Zm-1.21-.777.008-.434-.3.372c-.364.444-.387.628-.1.791C299.389,20.23,299.509,20.008,299.521,19.355Zm15.788.217a1.435,1.435,0,0,0-.183-.52.533.533,0,0,1-.108-.31c0-.487-.268-1.121-.47-1.118-.227,0-.688.551-.623.737a14.969,14.969,0,0,0,1.413,1.613A.915.915,0,0,0,315.31,19.571Zm-14.455.008c-.039-.1-.069-.069-.075.075s.024.2.065.163A.249.249,0,0,0,300.854,19.579Zm-2.061-1.193.492-.473-.926-.019a2.884,2.884,0,0,0-.984.076c-.088.143.536.888.744.888A1.854,1.854,0,0,0,298.793,18.386Zm13.252.052a.294.294,0,0,0-.186-.244c-.186-.072-.262.175-.1.334C311.9,18.667,312.045,18.621,312.045,18.438Zm-13.779-1.587c.116-.116.182-.116.3,0a1.912,1.912,0,0,0,1.288.076c.191-.051.245-.144.206-.351-.049-.257-.108-.277-.693-.232-.953.074-1.12.126-1.291.4S298.029,17.09,298.267,16.852Zm15.6-.624c.17-.17.061-.191-1.062-.2-1.242-.013-1.394.034-1.1.342A3.342,3.342,0,0,0,313.863,16.227Zm-15.678-1.1.365-.26-.408-.42a1.591,1.591,0,0,0-.551-.421c-.165,0-.415.643-.415,1.07C297.177,15.48,297.672,15.495,298.185,15.129Zm15.1-.381c-.17-.071-.415-.183-.543-.251-.179-.094-.293-.063-.492.137l-.259.259.8-.008C313.467,14.878,313.545,14.857,313.284,14.749Zm-11.439-.5c-.039-.1-.069-.069-.075.075s.024.2.065.163A.249.249,0,0,0,301.846,14.251Zm-1.5-.807c.17-.107.195-.177.089-.25a4.432,4.432,0,0,0-2.071.1c-.1.113-.083.13.085.071s.211-.023.186.105c-.02.1.131.317.334.481l.37.3.385-.328A7.1,7.1,0,0,1,300.348,13.444Zm11.007.2c-.125-.2-.3-.113-.3.153,0,.219.031.237.185.11C311.34,13.819,311.393,13.7,311.355,13.641Zm2.838-.017a2.912,2.912,0,0,0-.194-.632c-.11-.215-.141-.207-.476.114l-.359.344.463.285C314.236,14.109,314.283,14.1,314.193,13.624Zm.485-3.345c.178-.137.184-.242.05-.9l-.152-.743-.491-.033-.491-.033.341.26c.392.3.459.735.114.735a.537.537,0,0,1-.32-.093c-.111-.11-.692-.133-3.418-.131-1.125,0-2.853-.009-3.841-.02-7.524-.089-7.486-.09-7.619.214-.151.345-.263.354-.347.031-.066-.251-.471-.331-.883-.173-.271.1-.245.278.083.551s1.082.325,1.088.086c0-.1.062-.078.162.053.144.189.548.2,4.488.162,3.476-.037,8.842.047,10.718.167A.9.9,0,0,0,314.678,10.278ZM297.3,10.061c0-.068-.181-.118-.4-.112-.381.012-.386.017-.093.112C297.242,10.2,297.3,10.2,297.3,10.061ZM308.81,8.63a19.337,19.337,0,0,0-2.1-.036c-1.2.011-1.883.053-1.539.094A24.041,24.041,0,0,0,308.81,8.63Zm-5.347-.006a.249.249,0,0,0-.237-.01c-.1.04-.07.069.075.075S303.5,8.665,303.462,8.624Zm2.14-.99c0-.29-.027-.3-.991-.3-.759,0-.991.04-.991.171,0,.383.447.535,1.381.468C305.541,7.935,305.6,7.9,305.6,7.633Zm-3.807.081c.071-.271,0-.379-.241-.379-.17,0-.23.39-.083.537S301.73,7.962,301.8,7.714Zm1.168-1.925c0-1.692-.031-2.2-.165-2.308-.094-.078-.174-.093-.178-.033s-.035,1.1-.069,2.308c-.057,2.092-.049,2.2.173,2.2S302.958,7.825,302.963,5.789Zm5.544,2.053a.4.4,0,0,0-.28-.532,4.36,4.36,0,0,0-.859,0c-.591.044-.651.076-.651.347,0,.286.034.3.86.3A2.3,2.3,0,0,0,308.507,7.842Zm1.145-.662c-.036-.426-.152-1.22-.258-1.766a10.845,10.845,0,0,1-.2-1.4c0-.274-.049-.381-.143-.323s-.117.566-.058,1.773c.11,2.216.162,2.491.473,2.491C309.7,7.955,309.712,7.893,309.652,7.181Zm2,.67a.244.244,0,0,0,.09-.282c-.1-.254-1.55-.3-1.55-.048a.426.426,0,0,0,.217.3A1.822,1.822,0,0,0,311.647,7.85Zm1.569-.008c.107-.173-.06-.507-.254-.507-.1,0-.173.128-.173.31C312.789,7.95,313.069,8.079,313.216,7.842Zm-12.841-.228c-.035-.183-.208-.222-1.124-.253-.852-.028-1.083,0-1.083.134,0,.3.141.335,1.207.335C300.3,7.831,300.412,7.807,300.375,7.614Zm13.877-.247c-.027-.324-.1-.476-.255-.5-.134-.026-.2.021-.165.123s.085.317.126.5C314.07,8,314.3,7.905,314.252,7.367Zm-.106-1.807a1.959,1.959,0,0,0-.461-1.293c-.223-.074-.193.663.06,1.465.193.613.216.64.257.3A1.114,1.114,0,0,1,314.146,5.561Zm-16.515-.528c.1-.656-.156-.414-.274.258-.065.373-.051.462.057.361A1.4,1.4,0,0,0,297.631,5.033Zm17.141.444c-.1-.061-.207-.083-.241-.048s.018.112.117.172.207.083.241.048S314.87,5.538,314.771,5.477ZM300.4,4.919c.231-.17.364-.31.3-.31a.482.482,0,0,0-.267.143c-.109.109-.189.106-.33-.012a.508.508,0,0,0-.532-.04l-.345.115.372.2.379.206S300.167,5.09,300.4,4.919Zm11.646.125a.871.871,0,0,1,.568-.1c.148.057.192.029.149-.094a.264.264,0,0,0-.3-.133c-.684.12-.84.082-.927-.227-.074-.26-.09-.269-.1-.056a.713.713,0,0,1-.166.408c-.122.122-.116.178.031.271C311.552,5.266,311.627,5.259,312.044,5.044Zm-5.2-.246.558-.166-.457-.011a.833.833,0,0,0-.531.109c-.041.066-.239.087-.441.046s-.367-.02-.367.045c0,.211.174.3.431.221C306.171,5,306.535,4.889,306.841,4.8Zm3.965.129c0-.03-.056-.089-.124-.131s-.124-.018-.124.055a.128.128,0,0,0,.124.131C310.751,4.981,310.806,4.957,310.806,4.927Zm-6.229-.888a.249.249,0,0,0-.237-.01c-.1.04-.07.069.075.075S304.619,4.08,304.577,4.039Zm3.751-.235c0-.341-.143-.4-.354-.146a.194.194,0,0,0,.01.31C308.212,4.2,308.328,4.141,308.328,3.8ZM307,3.6c.443-.214.433-.35-.026-.35a.526.526,0,0,0-.5.24C306.232,3.938,306.272,3.947,307,3.6Zm-3.131.026c.1-.063.152-.146.115-.183s-.175.014-.306.113C303.411,3.751,303.57,3.809,303.864,3.623Zm1.243,0c0-.068-.025-.124-.055-.124s-.089.056-.131.124-.017.124.055.124A.128.128,0,0,0,305.107,3.618Zm7.311-.387c0-.06-.084-.109-.186-.109s-.186.112-.186.263c0,.22.031.238.186.109A.5.5,0,0,0,312.417,3.231Zm1.239.132a.121.121,0,0,0-.124-.117c-.068,0-.124.087-.124.193s.056.159.124.117A.266.266,0,0,0,313.656,3.363ZM310.435,3.3c0-.027-.084-.049-.186-.049s-.186.054-.186.12.084.088.186.049S310.435,3.322,310.435,3.3ZM306.1,2.336c.239-.022-.988-.04-2.726-.04a10.521,10.521,0,0,0-2.416.072C301.676,2.439,305.219,2.416,306.1,2.336Zm8.674.043c0-.068-.1-.123-.217-.122-.185,0-.19.019-.031.122C314.757,2.53,314.771,2.53,314.771,2.379Zm-12.948-.617c1.161-.076.955-.09-1.394-.1a16.369,16.369,0,0,0-2.757.105A19.54,19.54,0,0,0,301.823,1.763Zm6.257,0c.125-.081-.237-.113-1.115-.1l-1.3.021,1.053.078c.579.043,1.081.087,1.115.1A.482.482,0,0,0,308.08,1.76Zm2.84-.072a5.862,5.862,0,0,0-1.139-.052,3.3,3.3,0,0,0-1.271.131c-.056.09.3.106,1.139.052A9.245,9.245,0,0,0,310.92,1.687Zm-7.269-.01a.477.477,0,0,0-.31,0c-.085.034-.015.062.155.062S303.736,1.712,303.651,1.678Zm1.363-.008a3.959,3.959,0,0,0-.805,0c-.221.028-.04.05.4.05S305.235,1.7,305.014,1.67ZM301.9.421a1.629,1.629,0,0,0,.482-.4,3.583,3.583,0,0,0-1.628-.232.413.413,0,0,1-.375-.052c-.306-.191-.618.012-.747.485-.138.51.093.639,1.021.572A2.431,2.431,0,0,0,301.9.421Zm1.969.1a1.3,1.3,0,0,0-.336-.372,3.587,3.587,0,0,0-1.151.641,1.979,1.979,0,0,0,.876.1h.876Zm2.509.158c.186-.169.227-.175.2-.031s.067.181.332.176c.307,0,.372-.057.372-.3,0-.351-.459-.519-1.125-.411-.5.081-.561.146-.465.51C305.769.947,306.055.97,306.376.679Zm5.545.054a1.161,1.161,0,0,0-.18-.373c-.162-.247-.3-.28-1.339-.314L309.244.007l-.175.35c-.1.192-.192.382-.213.42a7.884,7.884,0,0,0,1.514.062A6.322,6.322,0,0,0,311.921.733ZM302.4-1.708c.179,0,.175-.055-.04-.49-.274-.553-.427-.548-.778.026-.38.622-.378.63.135.545A6.221,6.221,0,0,1,302.4-1.708ZM312.017-3.2a9.279,9.279,0,0,0-.225-1.655c-.124-.139-.892,1.52-.807,1.742a11.5,11.5,0,0,0,1.143,1.476C312.138-1.641,312.088-2.345,312.017-3.2ZM301.584-3.47a1.258,1.258,0,0,0-.559-1.031c-.12-.046-.294.054-.465.269a3.273,3.273,0,0,0-.468,1.873l-.028.542.724-.717A4.8,4.8,0,0,0,301.584-3.47Zm2.989,0a6.428,6.428,0,0,0-.092-1.648A4.67,4.67,0,0,0,303-3.7a8.031,8.031,0,0,0,.776,1.713.572.572,0,0,0,.453.124l.32-.037Zm2.742,1.3c.047-.328-.068-.35-.446-.086s-.346.451.065.4C307.178-1.884,307.286-1.975,307.315-2.174Zm2.164-.019c.281-.477.27-.595-.105-1.087l-.318-.417-.363.259a.865.865,0,0,0-.092,1.352C308.973-1.739,309.228-1.77,309.479-2.193ZM307.311-4.3l-.036-.939-.54.023c-.819.035-.885.088-.885.717,0,.575.2.784.27.284.046-.322.473-.468.473-.161a.312.312,0,0,1-.186.27.287.287,0,0,0-.186.234.222.222,0,0,1-.126.2,1.387,1.387,0,0,0-.206.714l-.08.672.768-.539.768-.539Zm1.364.03c-.06-.286-.281-.25-.324.053-.03.213.007.26.161.2A.243.243,0,0,0,308.675-4.272Zm1.808.012c.134-.35.086-.438-.168-.3-.143.076-.214.206-.173.314C310.235-4.008,310.389-4.014,310.483-4.26Zm-7.429-.787c.278-.307.174-.465-.381-.576-.295-.059-.4-.027-.465.142a.355.355,0,0,0,.044.346.576.576,0,0,1,.128.355c0,.179.047.2.218.111A2.139,2.139,0,0,0,303.054-5.047Zm7.628-.317.557-.329-.434.071c-1.549.252-1.49.222-1.158.588.131.145.254.185.341.113S310.377-5.183,310.683-5.364Zm-3.542-.882c.119-.046.2-.223.2-.449,0-.353-.022-.37-.387-.3a4.221,4.221,0,0,1-.668.077.379.379,0,0,0-.352.558C306-6.165,306.753-6.1,307.141-6.246Zm-2.932-.327a.918.918,0,0,0-.368-.333c-.284-.16-.353-.154-.672.06l-.355.238.434.079C303.991-6.395,304.264-6.407,304.209-6.573Zm6.933-.116a.259.259,0,0,1,.27-.048.146.146,0,0,0,.2-.051c.095-.153.107-.151-1.088-.187-.82-.025-.983,0-1.084.194a1.034,1.034,0,0,0-.119.307A4.589,4.589,0,0,0,311.142-6.689Zm-3.859-1.244a11.234,11.234,0,0,0,0-2.446c-.1-.159-.806-.165-1.054-.008-.138.087-.19.4-.208,1.264a6.588,6.588,0,0,0,.045,1.259A2.291,2.291,0,0,0,307.282-7.933Zm-4.873-.792c.721-.706.816-.85.7-1.062a6.132,6.132,0,0,1-.309-.845c-.189-.637-.152-.614-1.311-.813l-.455-.078-.07.539a17.1,17.1,0,0,0-.1,2.847C300.988-7.656,301.528-7.862,302.409-8.725Zm.938.671a.612.612,0,0,0,.149-.378c0-.221-.011-.221-.3-.006a1.315,1.315,0,0,0-.368.378C302.742-7.861,303.149-7.856,303.347-8.054Zm5.834-.433a9.611,9.611,0,0,0,.824-2.243c-.033-.033-.155.017-.27.112a1.673,1.673,0,0,1-.834.173h-.624l-.019,1.177A8.7,8.7,0,0,0,308.291-8a.463.463,0,0,0,.329.093C308.829-7.905,308.969-8.051,309.181-8.487Zm2,.334c.269-.073.308-.151.3-.592-.013-.65-.795-1.864-.8-1.235a4.987,4.987,0,0,1-.372.94C309.817-8,309.825-7.9,310.4-8,310.659-8.036,311.008-8.107,311.178-8.153ZM304.641-9.7c.032-.168.011-.277-.047-.241-.1.063-.154.547-.059.547C304.561-9.392,304.608-9.53,304.641-9.7Zm-.088-.938c.1-.162-.162-.49-.39-.49-.174,0-.238.387-.088.537A.333.333,0,0,0,304.552-10.637Zm2.765-1.1c.041-.287.022-.294-.548-.216-.681.093-.729.123-.626.391.057.148.21.189.6.16C307.2-11.431,307.281-11.481,307.317-11.734Zm2.222.057c.157-.157-.178-.317-.66-.317s-.55.034-.55.265.046.258.579.185A2.747,2.747,0,0,0,309.539-11.677Zm-7.656-1.587a1.007,1.007,0,0,0-.125-.465c-.1-.157-.16-.139-.367.124-.347.44-.312.62.122.62C301.817-12.985,301.885-13.036,301.883-13.264Zm2.79-.958v-.927l-.761-.176c-1.232-.285-1.323-.142-.784,1.224.121.307.247.644.281.751.048.153.185.179.662.124l.6-.069Zm2.54.052v-1.06l-.527.038-.527.038-.028.743c-.044,1.18.011,1.3.588,1.3h.493Zm3.454.983c.367-.073.387-.107.384-.651A1.675,1.675,0,0,0,310.616-15c-.352-.48-.5-.589-.81-.589a1.568,1.568,0,0,0-.612.125,1.633,1.633,0,0,1-.531.149c-.409.034-.363.3.169.969.243.3.537.707.653.895C309.705-13.1,309.946-13.042,310.667-13.187Zm-3.6-3.129a.44.44,0,0,0,.124-.4c-.031-.218-.123-.3-.352-.305-.6-.018-1.013.622-.465.727C306.841-16.2,306.9-16.207,307.069-16.316Zm2.114-.309a.344.344,0,0,0-.238-.573c-.413,0-.616.148-.616.447,0,.244.063.3.357.3A.742.742,0,0,0,309.183-16.625Zm-4.819-.078c0-.068-.08-.124-.179-.124a.328.328,0,0,0-.255.124c-.042.068.038.124.179.124S304.363-16.634,304.363-16.7Zm6.257-.372c.042-.068-.014-.124-.124-.124s-.166.056-.124.124.1.124.124.124S310.578-17.006,310.62-17.074Zm-6.916-.878c.145-.145.076-.609-.091-.609-.056,0-.22.167-.366.372l-.265.372h.293A.7.7,0,0,0,303.7-17.952Zm6.851-.7a5.566,5.566,0,0,0-.825-1.885,4.576,4.576,0,0,0-1.029,1.148,4.015,4.015,0,0,0,.715,1.059c.216.222,1.054.515,1.161.406A1.736,1.736,0,0,0,310.556-18.649Zm-.956-.634c.011-.147.083-.217.184-.179.188.072.149.3-.062.374C309.644-19.062,309.59-19.15,309.6-19.283Zm-1.1,1.156c-.039-.1-.121-.186-.182-.186s-.111.084-.111.186a.185.185,0,0,0,.182.186C308.5-17.942,308.54-18.014,308.5-18.127Zm-6.277-.257a7.839,7.839,0,0,1,.625-.739c.431-.449.5-.747.245-1.092-.145-.2-.181-.184-.449.178a1.474,1.474,0,0,0-.291.678c0,.19-.056.262-.171.219-.094-.036-.273.061-.4.215a.44.44,0,0,0-.093.57C301.86-17.987,301.946-17.992,302.22-18.385Zm4.643-.172c.259-.331.284-.472.247-1.432l-.04-1.065-.455.038-.455.038-.037.789c-.037.779-.033.788.26.715.379-.1.5.022.263.258-.146.146-.221.153-.366.032s-.182-.069-.182.421.037.573.239.573A.921.921,0,0,0,306.863-18.556Zm-2.167-1.21c-.031-.121-.059-.052-.062.153s.023.3.057.219A.708.708,0,0,0,304.7-19.767Zm4.6-1.456a3.983,3.983,0,0,0-1.152.2,4.264,4.264,0,0,0-.081,1.038c.007.068.3-.172.645-.535A3.505,3.505,0,0,0,309.3-21.223Zm-7.17.4c.453-.5.457-.563.043-.72-.246-.094-.356-.085-.432.034-.11.174-.145,1.089-.041,1.089A2.135,2.135,0,0,0,302.131-20.822Zm2.193-.24c-.039-.1-.069-.069-.075.075s.024.2.065.163A.249.249,0,0,0,304.324-21.063Zm2.739-1.354c.03-.157-.069-.2-.464-.2-.412,0-.5.042-.5.238s.075.232.464.2C306.869-22.2,307.038-22.284,307.063-22.416Zm2.963-1.271c-.033-.213-.132-.737-.22-1.162l-.159-.774h-.48a2.183,2.183,0,0,0-.842.187c-.336.174-.352.212-.213.527a3.285,3.285,0,0,0,1.3,1.538C309.972-23.117,310.1-23.185,310.026-23.687Zm-5.439-.149c.371-.118-.185-1.55-.691-1.781-.17-.077-.336-.113-.371-.078s-.18,0-.325-.084a2.629,2.629,0,0,0-.324-.161,2.82,2.82,0,0,1-.275-.109c-.4-.174-.467-.019-.224.487a13.01,13.01,0,0,1,.677,1.623c.066.231.147.255.722.208A6.244,6.244,0,0,0,304.588-23.836Zm2.262.066c.192-.1.24-.263.24-.805v-.677h-.47c-.453,0-.471.016-.5.454C306.05-23.794,306.283-23.467,306.849-23.77Zm-.38-2.7c0-.057-.081-.1-.18-.1s-.152.046-.117.1a.238.238,0,0,0,.18.1A.111.111,0,0,0,306.47-26.471Zm-1.545-1.848c-.082-.218-.521-.193-.608.034a2.17,2.17,0,0,0,.2.9l.271.71.1-.743A3.491,3.491,0,0,0,304.925-28.319Zm3.93,1.449c.509-.141.612-.46.3-.926a3.507,3.507,0,0,1-.313-.766,1.711,1.711,0,0,0-.246-.58c-.152-.094-.383.1-.434.364a2.8,2.8,0,0,1-.147.476.525.525,0,0,0,.041.459c.09.144.1.253.02.3a.53.53,0,0,0-.121.385c0,.175.054.276.124.233s.124-.018.124.055C308.2-26.708,308.272-26.708,308.855-26.87Zm-5.235-.172c0-.131-.238-.186-.309-.071-.043.069.009.126.115.126S303.62-27.012,303.62-27.042Zm-1.363-.5c.126-.152.118-.186-.047-.186a.194.194,0,0,0-.2.186c0,.1.021.186.047.186A.656.656,0,0,0,302.257-27.544Zm.517-.515a.682.682,0,0,0,.227-.4,7.225,7.225,0,0,0-.592-1.69c-.177-.316-.232-.143-.328,1.03-.061.75-.042.9.114.9a.187.187,0,0,1,.187.186C302.381-27.8,302.493-27.805,302.774-28.059Zm4.19-.755c0-1.208-.069-1.387-.474-1.277-.272.074-.324.153-.3.451.017.2.045.562.062.807.034.482.27.855.542.855C306.923-27.978,306.965-28.186,306.964-28.814Zm-2.089-1.735a8.808,8.808,0,0,0,.06-2.363c-.182-.294-.842.23-1.261,1-.172.317-.166.362.079.62a5.107,5.107,0,0,1,.452.556C304.38-30.473,304.84-30.346,304.875-30.549Zm4.544-.724c.026-.62.009-.673-.159-.5a.93.93,0,0,0-.039,1.049,1.707,1.707,0,0,0,.159.149C309.385-30.58,309.4-30.892,309.419-31.273Zm-2.971-1.02c.246-.246.461-.7.278-.584-.062.038-.2-.015-.3-.117-.32-.32-.453-.212-.453.371C305.974-32.022,306.094-31.939,306.448-32.293Zm2.233-1.238c-.138-.059-.6.216-.6.357a2.668,2.668,0,0,0,.2.584l.2.461.142-.681A1.475,1.475,0,0,0,308.681-33.531Zm-5.394.606c.372-.379.354-.423-.225-.555-.2-.047-.468-.113-.585-.148-.188-.056-.18,0,.062.5a2.052,2.052,0,0,0,.337.561A2.088,2.088,0,0,0,303.287-32.925Zm5.457-3.54c-.039-.1-.119-.186-.178-.186s-.075.084-.036.186.119.186.178.186S308.784-36.364,308.745-36.466Zm-3.459-.3c.1-.165-.057-.507-.235-.507a.69.69,0,0,0-.366.235c-.165.183-.176.249-.05.3C304.9-36.63,305.211-36.644,305.286-36.764Zm-2.328-.451a.812.812,0,0,0,.414-.843,1.253,1.253,0,0,0-.149-.675c-.166-.166-.551-.2-.633-.056a6.775,6.775,0,0,0-.135,1.89A2.064,2.064,0,0,0,302.958-37.216Zm-.058-.311a.387.387,0,0,1,.217-.217c.093-.031.139.015.108.108a.387.387,0,0,1-.217.217C302.915-37.387,302.869-37.434,302.9-37.527Zm4.22-.8a.316.316,0,0,0-.622-.036c-.032.121-.107.22-.167.22-.239,0-.09.327.292.643l.4.333.074-.432A2.512,2.512,0,0,0,307.12-38.322Zm-1.807-.861c-.045-.117-.223-.194-.446-.194-.43,0-.413.261.03.466C305.212-38.766,305.421-38.9,305.313-39.183Zm3.511-.566a.128.128,0,0,0-.131-.124c-.072,0-.1.056-.055.124s.1.124.131.124S308.824-39.681,308.824-39.749Zm-1.788-.838c-.041-.041-.143-.007-.227.077-.12.12-.113.176.033.267s.2.06.227-.077A.343.343,0,0,0,307.036-40.587ZM303-40.813a.28.28,0,0,1,.186-.22c.286-.11.223-.369-.186-.761l-.372-.356,0,.983c0,.892.021.961.186.743A.882.882,0,0,0,303-40.813Zm2.205-1.385c.02-.425-.008-.773-.062-.772-.176,0-.656.854-.656,1.164s.169.447.5.405C305.121-41.418,305.178-41.623,305.205-42.2Zm3.866.4c0-.293-.231-.322-.491-.062-.366.366-.318.51.119.358C308.9-41.574,309.072-41.707,309.072-41.8Zm-2.169.192c.036-.059-.055-.311-.2-.562-.2-.339-.293-.411-.366-.282a.723.723,0,0,0-.052.415c.025.133.049.3.055.37C306.348-41.507,306.811-41.459,306.9-41.606Zm-3.283-1.712c0-.513-.173-.768-.52-.768-.3,0-.281.286.056.806C303.513-42.727,303.62-42.736,303.62-43.318Zm5.285-.613c-.019-.579-.138-.728-.43-.543-.2.126-.281.674-.186,1.232l.07.41.282-.265C308.863-43.306,308.919-43.485,308.9-43.931Zm-1.691.4c0-.3-.3-.547-.456-.387-.073.073.283.7.4.7C307.187-43.219,307.213-43.36,307.213-43.532Zm-2.418-.659c-.094-.094-.308.131-.308.322,0,.169.029.163.176-.038C304.759-44.039,304.819-44.167,304.795-44.191Zm2.2-.6a.477.477,0,0,0-.31,0c-.085.034-.016.062.155.062S307.081-44.753,307-44.788Zm1.9-.362a1.136,1.136,0,0,1-.075-.28c0-.046-.1-.147-.223-.223-.193-.12-.226-.093-.249.209-.018.242.04.365.192.4C308.933-44.937,308.975-44.95,308.9-45.149Zm-5.241-.681c.065-.25.058-.252-.168-.047-.13.118-.206.263-.169.323C303.419-45.4,303.579-45.528,303.658-45.83Zm3.555.2c0-.131-.238-.186-.309-.071-.043.069.009.126.115.126S307.213-45.6,307.213-45.628Zm1.611-1.239a.516.516,0,0,0-.125-.38c-.157-.1-.3.248-.2.5C308.609-46.457,308.824-46.533,308.824-46.867Zm-5.651-.017c.115-.3.092-.382-.111-.382-.112,0-.186.115-.186.289C302.876-46.648,303.06-46.59,303.173-46.884Zm2.012-.207a3.261,3.261,0,0,1-.08-.651l-.006-.372-.238.285a.6.6,0,0,0,.032.861C305.088-46.715,305.265-46.79,305.185-47.091Zm1.466-.521c-.35-.265-.429-.235-.429.16,0,.484.128.567.422.274C306.891-47.426,306.891-47.43,306.65-47.612Zm-2.907-.811c0-.068-.025-.124-.055-.124s-.089.056-.131.124-.017.124.055.124A.128.128,0,0,0,303.744-48.423Zm4.911-.333c.091-.363-.186-1.3-.389-1.313-.068-.005-.143.093-.167.217-.032.164.011.205.155.15.2-.076.282.163.115.33a1.454,1.454,0,0,0-.075.856C308.4-48.32,308.575-48.437,308.655-48.756Zm-4.979-.649a.668.668,0,0,0-.079-.443c-.119-.26-.117-.348.009-.426s.118-.113-.026-.169c-.269-.1-.58.3-.58.759,0,.334.045.393.3.393A.52.52,0,0,0,303.676-49.4Zm1.3-.244c.09-.169.081-.272-.032-.365s-.164-.045-.185.235C304.727-49.358,304.8-49.315,304.976-49.649Zm2.214-.437q.064-.983-.4-.05c-.147.3-.16.428-.051.559C306.981-49.283,307.15-49.472,307.189-50.086Zm-.1-2.232a2.538,2.538,0,0,0-.355-.443l-.356-.389-.056.293c-.086.451.012.594.405.594C306.927-52.264,307.089-52.288,307.089-52.318Zm-1.856-.387c.152-.4.154-.386-.056-.467-.1-.04-.263.064-.385.25-.172.262-.179.336-.04.424C305.019-52.329,305.1-52.366,305.234-52.706Zm3.163-1.159c-.125-.2-.316-.037-.316.272,0,.246.016.251.2.067C308.391-53.637,308.443-53.789,308.4-53.865Zm-4.771.037c.087-.228.081-.376-.018-.5a.225.225,0,0,1,0-.346c.086-.1.1-.2.029-.246-.175-.108-.359.179-.459.714-.065.349-.043.508.082.587C303.5-53.468,303.486-53.462,303.625-53.828Zm1.284-.437c-.036-.058-.006-.106.066-.106.231,0,.14-.482-.117-.62-.235-.126-.248-.095-.244.584,0,.65.021.695.182.482C304.895-54.053,304.945-54.207,304.909-54.265Zm2.473.325a2.228,2.228,0,0,0,0-.749l-.077-.56-.292.275c-.345.324-.363.5-.092.917C307.148-53.7,307.28-53.672,307.383-53.94Zm-3.7-2.982c-.217-.344-.369-.248-.408.259l-.038.5.284-.281C303.73-56.657,303.771-56.777,303.68-56.922Zm3.521-.689c.17-.3.111-.983-.083-.964a1.885,1.885,0,0,0-.447.438c-.346.416-.35.436-.133.676C306.807-57.164,306.97-57.2,307.2-57.611Zm-2.187-.544c.038-.2.009-.3-.078-.269-.172.057-.262.584-.1.584C304.9-57.84,304.981-57.981,305.014-58.155Zm-1.27-.63a1.231,1.231,0,0,0-.145-.457c-.143-.266-.147-.264-.243.094a.627.627,0,0,0,.036.525C303.549-58.432,303.744-58.521,303.744-58.785Zm3.075-.853c.287-.331.328-.521.165-.778-.228-.359-.757.332-.762,1C306.221-59.218,306.563-59.343,306.819-59.637Zm-2.828-.791a.343.343,0,0,0-.186-.306c-.2-.076-.232.028-.111.344C303.8-60.119,303.991-60.144,303.991-60.429Zm2.969-2.019c.3-.325.307-.38.064-.85-.229-.443-.307-.451-.668-.067-.274.291-.275.309-.07.743C306.533-62.1,306.619-62.081,306.96-62.448Zm-3.118-.125c.22-.22.181-.527-.1-.781-.244-.221-.248-.216-.248.353C303.5-62.412,303.579-62.309,303.843-62.573Zm1.439-1.757a1.64,1.64,0,0,0-.045-.743c-.153-.4-.438-.442-.332-.046a3.676,3.676,0,0,1,.076.743C304.983-63.8,305.176-63.768,305.281-64.33Zm2.179-.2a.124.124,0,0,0-.124-.124.124.124,0,0,0-.124.124.124.124,0,0,0,.124.124A.124.124,0,0,0,307.461-64.531Zm-.489-1.243c.366-.2.2-1.235-.193-1.235-.182,0-.557.46-.557.684a1.637,1.637,0,0,0,.473.677A1.434,1.434,0,0,0,306.972-65.774Zm-2.986-.3a.62.62,0,0,0-.155-.79c-.114-.094-.156.009-.172.422C303.638-65.872,303.732-65.767,303.986-66.074Zm3.995-.5a1.255,1.255,0,0,0-.074-.525c-.041-.041-.074.2-.074.525s.033.565.074.525A1.255,1.255,0,0,0,307.981-66.575Zm-2.924-1c-.04-.1-.129-.155-.2-.112s-.076.17.02.348C305.037-67.047,305.186-67.244,305.057-67.579Zm1.8-1.751a1.547,1.547,0,0,0-.306-.388c-.3-.253-.362.323-.062.623S307.06-68.955,306.859-69.329Zm.35-2.614c0-.112-.084-.137-.275-.079-.392.118-.51.256-.42.488.07.182.105.18.384-.023A.745.745,0,0,0,307.209-71.943Zm-2.6-2.8c.92.027,2.244.073,2.943.1a4.139,4.139,0,0,0,1.27-.044c0-.381-.183-.873-.325-.873a.178.178,0,0,1-.17-.184c0-.3-.566-.374-2.859-.372-2.63,0-2.841.078-2.841,1.007,0,.441.035.541.155.442A6.363,6.363,0,0,1,304.611-74.744Zm2.763-2.653a2.375,2.375,0,0,0-.06-.579,9.616,9.616,0,0,0-1.127-.187c-1.324-.176-2.32-.008-2.32.391,0,.34.242.39.846.177a1.921,1.921,0,0,1,1.172-.063c1,.189,1.08.23,1.08.569,0,.227.057.3.213.269S307.388-76.981,307.374-77.4Zm-7.1,144.29A6.446,6.446,0,0,1,301.65,65c.368-.415.79-.9.939-1.076.283-.336.536-.4,2.174-.512a9.874,9.874,0,0,1,3.107.285c.081.081.015.346-.194.779a10.055,10.055,0,0,0-.532,1.463c-.258.965-.312,1.04-.6.829-.212-.155-.206-.221.118-1.427a5.68,5.68,0,0,0,.267-1.338,10.914,10.914,0,0,0-1.752.017l-1.679.09-1.085,1.155c-.6.634-1.206,1.3-1.355,1.472C300.773,67.078,300.274,67.173,300.274,66.892Zm27.569-.824a1.688,1.688,0,0,1,.813-.124c.408,0,.736.055.736.124s-.354.124-.813.124C328.07,66.192,327.8,66.146,327.844,66.068Zm-27.26-2.478c.341-.146.462-.146.372,0a.444.444,0,0,1-.348.115C300.346,63.7,300.345,63.693,300.584,63.59Zm1.115-.5a.337.337,0,0,1,.262-.124c.1,0,.151.056.109.124a.337.337,0,0,1-.262.124C301.706,63.218,301.657,63.162,301.7,63.094Zm51.708-.333a.254.254,0,0,1,.238.01c.041.042-.032.071-.164.066S353.308,62.8,353.407,62.761Zm.752-.182c.286-.082.462-.078.551.011s-.03.129-.419.121l-.551-.011Zm2.679.02c-.042-.068-.021-.124.047-.124a.272.272,0,0,1,.2.124c.042.068.021.124-.047.124A.272.272,0,0,1,356.838,62.6Zm-13.754-1.487c-.042-.068-.021-.124.047-.124a.272.272,0,0,1,.2.124c.042.068.021.124-.047.124A.272.272,0,0,1,343.085,61.112Zm-.31-.473c0-.15.234-.325.321-.238.031.031-.029.126-.133.213S342.775,60.72,342.775,60.638Zm.558-.518c.042-.068.1-.124.131-.124s.055.056.055.124a.128.128,0,0,1-.131.124C343.315,60.244,343.29,60.188,343.332,60.12ZM266.2,57.979a.9.9,0,0,1,.178-.406c.14-.19.21-.208.33-.09s.184.108.3-.051a.3.3,0,0,1,.368-.116c.211.081.211.1,0,.333a.6.6,0,0,1-.42.219.943.943,0,0,0-.473.125C266.251,58.118,266.2,58.115,266.2,57.979Zm76.7-.027c0-.1.056-.186.124-.186s.124.083.124.186-.056.186-.124.186S342.9,58.054,342.9,57.952ZM266.943,56.79a.47.47,0,0,1,.175-.254c.194-.161.393.022.259.239C267.282,56.927,266.943,56.94,266.943,56.79ZM296.248.646c-.043-.07.006-.091.117-.049.215.082.254.171.076.171A.264.264,0,0,1,296.248.646ZM310.5-73.7c.042-.068.1-.124.131-.124s.055.056.055.124a.128.128,0,0,1-.131.124C310.479-73.576,310.454-73.632,310.5-73.7ZM303.867-82a.124.124,0,0,1,.124-.124.124.124,0,0,1,.124.124.124.124,0,0,1-.124.124A.124.124,0,0,1,303.867-82Z"/>
  </g>
</svg>
