<svg xmlns="http://www.w3.org/2000/svg" width="133.93" height="84.422" viewBox="0 0 133.93 84.422">
  <g id="Layer_1" transform="translate(0 0)">
    <path id="path43950" d="M110.4,8.9C101.949,16.411,88.127,7.2,78.521,5.65c-13.829-2.237-32.577-2.686-43.9,3.1C30.15,11.037,25.989,14.444,22,17.611c-2.14,1.7-3.4,2.657-5.76,4.57C11.988,25.616,7.8,29.711,0,26.9,18.671,20.423,28.006,2.1,51.954.335,65.918-.692,78.908.628,89.15,4.468c6.4,2.4,13.006,4.821,21.254,4.428Z"/>
    <path id="path43971" d="M133.723,53.722c.583,3.537-.056,7.756-2.067,10.332-8.443,8.841-23.741.307-30.4-5.018C99.421,65.39,97.56,70.3,94.168,74.386c5.893.147,11.267-2.569,16.826-.886C95.107,78.557,75.7,84.421,54.611,80.585c2.568,3.61,6.921,7.094,10.922,10.627a97.142,97.142,0,0,0,15.055,10.923c6.782,4.017,12.686,7.551,22.14,8.265,6.153.465,11.085-.43,14.76-4.133,6.068-7.811.7-14.983-6.494-15.055,1.049,1.487,1.542,1.218,1.476,3.247-.144,4.423-8.177,4.882-8.561-1.181-.317-5.017,7.4-7.139,12.989-5.018a11.881,11.881,0,0,1,5.609,4.428c4.131,5.871,1.724,14.548-2.362,18.6-5.593,5.032-14.48,6.771-25.092,4.723-5.819-1.123-11.461-4.069-16.531-6.789-12.478-6.7-22.921-15.545-32.177-25.682-1.92-2.1-4.015-5.487-6.2-6.79-1.2-.713-2.46-1.477-3.684-2.058-3.79-1.8-7.524-4.494-9.89-5.019C16.392,67.76,7.344,75.413,0,69.072c2.061-2.691,7.151-1.279,10.332-2.362,2.522-.859,4.943-3.209,7.38-5.018C24.241,56.844,32.7,51.576,40.736,48.409c7.941-3.131,21.83-4.543,32.768-2.952,11.442,1.665,23.571,7.942,33.948,11.512,9.826,3.381,20.79,5.21,26.272-3.247ZM61.7,52.246c-.935,5.443,4.864,6.01,8.856,4.723.738-1.26,1.627-2.822.885-4.723C69.451,50.764,63.558,50.389,61.7,52.246ZM47.231,54.9c-1.258.12-3.041-.286-3.837.3-1.966,28.259,51.689,26.637,50.861.449a33.909,33.909,0,0,0-6.582-2.515c3.482,23-41.593,25.03-40.441,1.771ZM37.194,69.663c-1.965-2.955-2.134-9.956-2.657-12.1-4.185,2.9-9.485,4.685-12.693,8.561C28.131,65.935,32.248,69.492,37.194,69.663Z" transform="translate(0 -32.427)"/>
  </g>
</svg>
