<svg xmlns="http://www.w3.org/2000/svg" width="137.317" height="52.174" viewBox="0 0 137.317 52.174">
  <path id="_1549921571" data-name="1549921571" d="M163.408,65.676l-.038.036a3.029,3.029,0,0,0-.566.078c-1.816.482-3.725.038-6.882-.621a59.206,59.206,0,0,1-7.01-1.794c-3.712-1.285-2.978-1.027-4.406-1.606a60.452,60.452,0,0,1-5.723-2.51c-.169-.075-.321-.18-.491-.253-2.689-1.319-1.414-.711-2.766-1.427-3.223-1.77-3.625-2.031-6.157-3.614-2.09-1.346.076.078-4.669-3.285-.873-.7-.591-.505-2.438-2.034a13.958,13.958,0,0,1-2.023-1.919c0-.279-.015-4.233-.015-4.291l.1-.034c-.026-.052-.1-.11-.057-.171a1.971,1.971,0,0,1,.234-.136c0-.034,0-.068,0-.1.022-.031.045-.062.068-.093-.117-.056-.231-.116-.347-.172-.011-.747-.014-1.493-.019-2.24a2.184,2.184,0,0,1,.021-.511l.08-.055c-.028-.023-.057-.044-.084-.064-.01-.16-.006-.319-.013-.479l.05-.042a.711.711,0,0,1-.027-.1.917.917,0,0,1,.149-.125.51.51,0,0,1-.026-.058.13.13,0,0,0,.039-.2.616.616,0,0,0,.017-.094c-.068-.047-.168-.065-.194-.154a4.558,4.558,0,0,1-.195-.572c-.909-3.246-1.009-3.3-.9-3.67a.513.513,0,0,1-.021-.081.434.434,0,0,0,.1-.16l-.149-.084c0-.086,0-.172.008-.259h.1a.85.85,0,0,0,.037-.161.849.849,0,0,0,.2-.036c.061-.038.026-.117.022-.173,0-.032.017-.077-.018-.1s-.063-.021-.094-.03l-.051.051-.06-.029-.148.031c-.006-.16-.014-.32,0-.48.03-.034.067-.064.1-.1a.6.6,0,0,1-.091-.125c-.014-.05-.011-.1-.025-.154-.035-.038-.1-.055-.1-.117,0-.09,0-.18-.009-.269-.049.1-.01.207-.041.306a.529.529,0,0,1-.106.1.507.507,0,0,1-.116.262.586.586,0,0,1,.073.391c.006.078-.09.093-.14.129.01.034.02.067.03.1-.06.077-.162.059-.244.045-.017.024-.033.048-.048.072l.083.016c-.025.06-.084.124-.051.192.114.006.25-.043.346.041a1.291,1.291,0,0,1,0,.3,1.494,1.494,0,0,1-.152.133,1.389,1.389,0,0,1,.1.125c-.007.053-.026.108.012.155a3.418,3.418,0,0,1-.179.921c-.206.788-.886,3.084-.9,3.135-.065.156-.121.34-.287.416a1.532,1.532,0,0,1,.043.275l-.017.028a1.306,1.306,0,0,1-.06-.6,1.147,1.147,0,0,1-.023-.363c0-.056-.018-.13.047-.159-.1-.232-.071-.1-.058-.747l.083-.009-.081-.087c-.007-.35,0-.7-.012-1.051l.035-.038c0-.083.071-.128.13-.172a.966.966,0,0,1-.138-.124.652.652,0,0,1-.282-.051c-.067-.041-.155-.065-.2-.131a5.309,5.309,0,0,0-.425-1.335c-.065.018-.143.012-.2.051-.1.19-.173.392-.261.587a2.58,2.58,0,0,0-.518.079c-.537-1.419-1.069-2.841-1.611-4.259l.031-.054a.185.185,0,0,1,0-.2c0-.055-.027-.119.012-.167.045-.07.134-.123.126-.216-.028-.094-.13-.139-.17-.224-.018-.06-.024-.123-.037-.184a.269.269,0,0,1-.222-.28c-.1-.1-.055-.24-.061-.361.008-.1-.021-.222.073-.287a.777.777,0,0,1-.113-.367l.1-.006.006-.08c-.092-.064-.026-.014-.183-.189a.825.825,0,0,0-.116.148.166.166,0,0,0-.108.118.82.82,0,0,1-.091-.31l.08-.009c-.019-.114-.025-.113-.033-.174l-.1.022a.985.985,0,0,1-.089-.29l.083-.036a1.194,1.194,0,0,0-.029-.141,1.284,1.284,0,0,1-.075-.131,4.39,4.39,0,0,0,.013-.519c-.009-.073.047-.131.06-.2-.018-.065-.068-.116-.084-.182-.013-.046.029-.076.052-.11s.077-.08.118-.118q0-.07,0-.14l-.175.041a.674.674,0,0,1-.006-.233c.017-.025.035-.05.051-.076-.036-.078-.107-.142-.111-.232-.008-.07-.013-.141-.02-.211a.976.976,0,0,1-.033.257c-.031.078-.062.156-.09.234l.058.044c0,.046,0,.091,0,.136l-.067.041a.222.222,0,0,1-.137.135c.017.051.035.1.054.153l.1-.067c.028.058.07.127.036.192a.53.53,0,0,0-.09.23c.088.071.068.15.065.531-.034.049-.082.1-.066.166s.063.1.083.156a.768.768,0,0,1-.049.134c-.028-.044-.055-.088-.082-.131-.031.025-.059.051-.088.076,0,.027.006.055.011.082.08.072.051.178.023.267-.03-.046-.057-.093-.085-.139l-.087.036a.677.677,0,0,1-.06-.214l.146-.062a1.648,1.648,0,0,0-.218-.249c-.028.025-.054.05-.079.075a.245.245,0,0,1-.115.132c-.013.115.273,0,.007.424l.112.126c0,.153,0,.306,0,.459a.42.42,0,0,0-.1.156c-.022.069-.076.128-.072.2,0,.047,0,.094-.011.14-.1.047-.233.034-.318.116a.168.168,0,0,0,.082.251c.1.038.027.154.024.229a.23.23,0,0,1,.018.211,1.193,1.193,0,0,1-.168.385,2.973,2.973,0,0,0-.143.353c-.016.031-.91,2.049-1.606,3.712-.158-.229-.286-.478-.457-.7-.156.23-.45.908-.725,1.457-.1.095-.251.056-.375.066-.075,0-.12.064-.168.11.047.029.121.051.085.121.063.134.007.287.032.429.022.078-.081.091-.126.127l.131.07a.57.57,0,0,1-.069.25c-.086.141-.166.287-.256.425.017.016.035.033.054.049.013.044.028.089.042.133-.308-.114-.232-.013-1.447-4.248a.349.349,0,0,1,.037-.342c-.015-.042-.03-.083-.044-.125l.105-.039c0-.033,0-.066,0-.1-.052-.027-.1-.054-.152-.082a1.408,1.408,0,0,1,.009-.259c.061-.022.147,0,.189-.063.007-.045.008-.091.013-.136a.421.421,0,0,0,.146-.044.2.2,0,0,0-.011-.179l.024-.073c-.08-.006-.16-.014-.239-.025l-.055.043-.1-.06c0-.147-.007-.294.005-.441a.261.261,0,0,0,.083-.139.309.309,0,0,1-.117-.263c-.033-.02-.09-.018-.1-.06a1.758,1.758,0,0,1-.01-.263l-.034-.008a.648.648,0,0,1-.007.245c-.014.074-.118.1-.112.178a1.7,1.7,0,0,1-.057.23,1.126,1.126,0,0,1,.053.486c-.046,0-.09.007-.134.013s-.019.069-.027.1a.456.456,0,0,1-.075.091c-.064.026-.139.03-.18.091l.1.036c-.029.04-.087.074-.068.131,0,.107.233-.01.36.082a1.093,1.093,0,0,1,0,.3c-.072.039-.145.084-.143.177.034.019.07.037.1.059a1.145,1.145,0,0,1-.029.127.525.525,0,0,1,0,.418c-.04.109-.045.226-.076.337a37.176,37.176,0,0,1-.988,3.711,1.42,1.42,0,0,1-.261.316l.06.049-.064.055c0,.035,0,.07.007.105l.063.042-.018.082a1.847,1.847,0,0,1,.169.081c.033.047-.026.084-.044.124.087.079.06.2.062.3a1.2,1.2,0,0,1-.012.218.876.876,0,0,1-.094.108l.076.052a.871.871,0,0,0,.027.112q0,1.318.022,2.636c-.118.12-.244.231-.364.349.022.027.047.055.071.082,0,.017,0,.05,0,.067.071.085.2.092.263.184a.789.789,0,0,1-.086.139l.116.058c0,.091,0,.181,0,.272l-.125.064-.05-.059c-.1.043-.188.113-.29.152-1.88.7-1.562.613-1.794.625l-.02.063c-.949.3,1-.04-6.81,1.152a.836.836,0,0,0-.1-.1l-.02-.047a.572.572,0,0,0-.482.03,6.7,6.7,0,0,1-.862.146l-.052-.031c-.091.014-.181.03-.271.047L94,43.416c.023.035.047.07.072.105-.228.04-3.511.534-4.243.633.007-1.4.014-2.81.01-4.215.079.079.214.115.236.238a4.531,4.531,0,0,0,.189.639c.046.108.033.235.1.335a.315.315,0,0,1,.029.127l.047-.066a.232.232,0,0,0,.2.028c-.144-.154-.132-.041-.344-.8.09-.37-.072-.285-.2-.83-.037-.139-.093-.272-.12-.414-.031-.159-.069-.317-.111-.474-.037-.119.016-.252-.052-.364a.371.371,0,0,0-.053.052c.039.128.018-.168-.012,5.756-.468.083-3.262.495-3.414.516,0-.2-.009-.407,0-.61l.049-.042-.04-.066q.026-.026.054-.052c.011-.042.023-.083.036-.124-.066-.076-.034-.182-.058-.272a1.4,1.4,0,0,0-.494,0c-.038.025-.052.072-.074.11.045.072,0,.146-.032.211l.062.049a1.282,1.282,0,0,1,.073.372c-.058-.007-.135,0-.155-.067,0-.052.048-.089.074-.13l-.072-.116c-.035.046-.07.092-.1.139.019.028.039.056.059.085a.51.51,0,0,1-.1.133c-.021-.029-.061-.049-.063-.087a.666.666,0,0,1,.04-.112l-.076-.111c-.034.045-.068.091-.1.137a.134.134,0,0,1,.02.159c-.031.059-.1.023-.145.012a1.312,1.312,0,0,1,.062-.149c-.028-.041-.056-.08-.084-.12-.034.043-.067.086-.1.13l.06.081c-.013.108-.117.139-.21.146a.956.956,0,0,0,.118-.428A.165.165,0,0,0,85,43.833a1.01,1.01,0,0,0-.17.016.413.413,0,0,1-.023-.248l.1,0c.024-.041.05-.081.076-.121-.01-.034-.018-.067-.026-.1-.061-.014-.122-.027-.182-.039,0-.087,0-.173,0-.26.017-.018.035-.036.054-.054-.05-.071-.063-.2-.16-.214a1.9,1.9,0,0,0-.113.211c.082.081.041.2.038.3-.058.034-.114.071-.168.109,0,.041-.024.09.006.126a.919.919,0,0,0,.157.023c0,.076.008.152.01.228l-.053.051.048.1c-.086-.013-.186-.086-.262-.012a.194.194,0,0,0-.066.232,1,1,0,0,0-.1.136c.033.068.065.189-.038.213-.118.047-.106-.12-.071-.186-.021-.039-.043-.077-.063-.115-.028.038-.055.077-.081.116a.782.782,0,0,1,.034.172c-.045.019-.092.078-.14.035s.005-.121.022-.178l-.074-.1-.078.058a.139.139,0,0,0,0-.169c0-.052,0-.1,0-.154a.69.69,0,0,0-.445-.062c-.067,0-.072.082-.1.125l.031.051c-.027.046-.053.092-.079.139l.07.1.056.04-.067.049.068.037c0,.08-.005.161-.006.242l-.092.113q0,.162,0,.324l-2.775.413q.047-1.985.1-3.969l.1.091a.319.319,0,0,1,.285.151.727.727,0,0,0,.017.138.825.825,0,0,0,.249.456l.041-.058.064.052a.268.268,0,0,1,.212.017l.017.054c.018-.037.035-.075.053-.113a.868.868,0,0,1-.227-.231l-.057-.015a.742.742,0,0,0-.081-.308c-.048-.1-.061-.215-.116-.313a4.265,4.265,0,0,1-.242-.574,2.476,2.476,0,0,0-.238-.508.341.341,0,0,1,0-.248l-.058-.092c-.043.091-.009-.205-.187,5.482q-1.92.286-3.839.575c.029-.148,0-.3.023-.447l.061-.064-.065-.036q0-.2,0-.4l.045-.021a1.124,1.124,0,0,1,.072-.221.8.8,0,0,0,.029-.277l-.065-.008a18.447,18.447,0,0,1-.862-3.133.486.486,0,0,1,.005-.369c-.04-.064.012-.116.042-.169a.374.374,0,0,0-.109-.126.694.694,0,0,1,.021-.226.283.283,0,0,0,.227-.019l-.018-.074.045-.043c-.008-.064-.014-.128-.028-.191a1.687,1.687,0,0,0-.238-.017c0-.106,0-.213-.006-.319.019-.027.038-.054.054-.082-.011-.07-.047-.135-.056-.206s-.072-.114-.116-.163a.359.359,0,0,0-.111.228.614.614,0,0,0-.073.142l.078.021c0,.121-.014.241-.024.361-.062,0-.123,0-.184-.005a.369.369,0,0,1-.046.14c.009.022.019.044.029.066-.036.046-.061.1-.012.15a.539.539,0,0,0,.2-.007q.009.117.015.235a.545.545,0,0,0-.117.095.331.331,0,0,0,.053.12c-.014.1.053.2.023.3-.839,3.1-.781,2.978-.88,3.113a1.212,1.212,0,0,1,.061-.283.9.9,0,0,0-.372-.053c-.146-.3-.286-.6-.434-.9H73.6c-.047.123-.1.246-.142.368a2.479,2.479,0,0,1-.325-.081c-.057-.094-.091-.2-.139-.3a.835.835,0,0,1-.034-.387c-.005-.079.055-.134.105-.186,0-.013,0-.038,0-.05l-.088-.073c-.111-.01-.283.022-.329-.112-1.927-4.344-1.826-4.049-1.826-4.226l.04-.046a.912.912,0,0,1-.031-.131.538.538,0,0,0,.181-.188c-.092-.071-.208-.1-.3-.163a.64.64,0,0,1-.014-.187.506.506,0,0,1-.128-.364.71.71,0,0,1,.049-.344.7.7,0,0,1-.07-.239c.022-.037.05-.072.075-.107-.051-.049-.1-.1-.151-.15a.643.643,0,0,1-.172.161c.04.034.115.051.1.116a.249.249,0,0,1-.09.2.219.219,0,0,1,.061.176.779.779,0,0,1-.138-.265l.089-.079c-.024-.042-.047-.085-.069-.127l-.105.056a1.326,1.326,0,0,1-.106-.217c.028-.01.057-.022.085-.035a.721.721,0,0,0-.032-.145l-.134.03a1.891,1.891,0,0,0-.1-.215l.09-.029c-.01-.05-.021-.1-.031-.148l-.079.028c-.073-.1.018-.2,0-.31a4,4,0,0,0-.027-.565l.083-.02c.008-.061.015-.121.023-.182l-.113-.039q0-.062,0-.123l.046-.059a1.108,1.108,0,0,1-.072-.137l-.071,0c-.025.042-.05.085-.076.126a.272.272,0,0,1,.052.191c-.048.018-.118.019-.132.08a.2.2,0,0,0,.017.163l.087-.034a.305.305,0,0,1-.051.231,1.749,1.749,0,0,1,.04.244,2.72,2.72,0,0,0,0,.371.65.65,0,0,1-.087-.1,1.2,1.2,0,0,0-.08.144c.028.029.072.05.085.091a.506.506,0,0,1-.083.14.7.7,0,0,0-.119-.11c-.02.041-.039.083-.058.124l.1.075c-.029.053-.06.106-.093.158l-.1-.111c-.035.04-.071.079-.106.118-.038-.078-.1-.164-.045-.249l.092-.012a.7.7,0,0,0-.207-.213c-.045.062-.092.124-.141.182.035.03.1.045.093.1.007.079-.052.14-.09.2.108.134.048.317.059.474-.043.083-.052.19-.142.238,0,.054,0,.109,0,.164-.113.065-.335.027-.31.2.022.074.1.1.162.135-.014.047-.028.095-.04.142a.223.223,0,0,1,.02.163.3.3,0,0,1-.16.25l-.049-.04a1.022,1.022,0,0,1-.1.012c-.011-.115,0-.231-.007-.347.026-.033.068-.064.059-.112a.632.632,0,0,0-.063-.1c0-.038,0-.076,0-.114-.037-.033-.1-.053-.095-.113s-.007-.148-.012-.221c-.013.088-.022.176-.04.264L68,37.353c0,.043,0,.087,0,.13-.045.057-.081.141-.011.195.009.124-.005.248-.007.372-.072-.005-.144-.013-.216-.02a.612.612,0,0,1-.063.162c.018.027.037.054.057.081-.017.023-.033.046-.048.068a.616.616,0,0,0,.074.081.952.952,0,0,1,.181-.014,1.61,1.61,0,0,1,.009.263l-.123.047c0,.022-.007.065-.01.086l.085.045-.019.129.042.042c-.47.922-.932,1.849-1.4,2.773-.243-.065-.484-.135-.728-.2-.1-.175-.177-.365-.274-.543l-.086.015c-.01.026-.431,1.068-.479,1.155a.978.978,0,0,0-.348.028.119.119,0,0,0,.045.1,1.154,1.154,0,0,1,.03.44l-.06.022c-.084-.333-.159-.669-.256-1-.055-.18-.076-.368-.13-.547-.129-.424-.224-.858-.311-1.292-.015-.057.026-.1.05-.152l-.013-.066c.021-.038.042-.077.06-.117a.5.5,0,0,1-.116-.086.713.713,0,0,1,.005-.264l.171.038a.171.171,0,0,0,.053-.148c.012-.017.025-.034.039-.051l-.049-.1.053-.05-.059-.043c-.062-.056-.163.049-.217-.01a2.267,2.267,0,0,1,0-.373c.015-.027.031-.054.044-.082a.469.469,0,0,1-.085-.226l-.09-.077a2.439,2.439,0,0,0-.024-.28,2.024,2.024,0,0,0-.024.3l-.065.052c0,.045-.007.091-.01.136-.024.037-.063.07-.065.117a.621.621,0,0,0,.057.082c0,.117,0,.234-.007.351a.886.886,0,0,0-.173,0,.345.345,0,0,0-.068.228c-.009.053-.011.115.043.147a.562.562,0,0,0,.19-.022c0,.093,0,.186,0,.28-.042.032-.107.053-.106.115.031.028.066.053.1.079l-.063.051c.016.031.034.062.052.094a22.22,22.22,0,0,1-.791,3.1,1.239,1.239,0,0,1-.175.384.767.767,0,0,0-.085.049.615.615,0,0,0,.053.454.586.586,0,0,1,.1.448c-.008.042-.059.05-.087.074.016.1.055.186.07.282,0,.692,0,1.385,0,2.078l-.3.088c.01.147.1.273.112.417.037.041.076.08.116.119l.009.055c.029.019.056.043.047.082q-.013,1.807-.031,3.613c-.016.028-.031.057-.045.086l-.042-.023c-.015.034-.029.069-.044.1.015.061.031.123.047.185-.14.2-.272.412-.414.612-.218.186-1.565,2.123-2.121,2.791-2.505,3.133-2.446,2.942-2.927,3.493-.506.552-.987,1.126-1.494,1.678A47.523,47.523,0,0,1,52,63.546c-.228.224-2.068,1.666-2.154,1.734-.61.422-1.234.826-1.841,1.252a7.879,7.879,0,0,1-.739.439c-.485.265-.956.556-1.457.791a36.4,36.4,0,0,1-3.722-1.989l.074-.054a.435.435,0,0,0-.064-.089l.06-.029q0-.155,0-.309l.1-.071.139-.008a.36.36,0,0,1,.107-.141l.082.065c.043-.065,0-.126-.046-.171-.1.114-.261,0-.377-.033-.02-.265,0-.53,0-.8a.389.389,0,0,1,.068-.2c-.108-.118-.041-.29-.041-.432.022-.052.039-.105.057-.158a1.148,1.148,0,0,1-.1-.1l.073-.065a.179.179,0,0,0-.115-.055,2,2,0,0,0-.3-.019c-.1.013-.1.125-.135.193-.039-.059-.013-.123-.008-.186-.012-.038-.058-.03-.088-.036a1.247,1.247,0,0,0-.374.005c-.022.053-.007.158-.087.157a.319.319,0,0,1,0-.186c-.145,0-.29-.014-.435-.015-.121-.167-.924-1.57-.938-1.6-.04-.209.022-.423-.006-.633l.077-.044c-.02-.048-.093-.05-.112-.1a.484.484,0,0,1-.029-.218.421.421,0,0,1,.118-.07.768.768,0,0,1-.1-.087,1.128,1.128,0,0,1-.037-.226l.054-.114-.052-.046.03-.079a.2.2,0,0,0-.127.017.528.528,0,0,1-.06.121l.047.044a1.983,1.983,0,0,1-.007.262c0,.071-.087.069-.131.1l.129.054a1.236,1.236,0,0,1-.04.274,1.026,1.026,0,0,1-.09.072l.092.029c-.006.077-.011.155-.016.232q-3-.256-6.005-.519c-.006-.087-.012-.175-.018-.262l.119-.027a.957.957,0,0,1-.121-.116.779.779,0,0,1-.025-.237.83.83,0,0,1,.122-.055.531.531,0,0,1-.116-.11.482.482,0,0,1,.043-.33l-.039-.049.047-.052-.1-.068-.059.043c0,.016,0,.049,0,.066l-.065.048.053.063c-.011.1-.006.193-.026.287a.947.947,0,0,1-.149.085l.139.053c.009.13,0,.292-.132.358l.073.028a2.016,2.016,0,0,1-.137.8c-.316.5-.628,1-.947,1.5-.2-.03-.171-.313-.353-.38-.05.092-.1.185-.153.273-.036.074-.129.044-.2.054-.015.091-.025.182-.039.274a1.032,1.032,0,0,0-.19-.173c-.2-.01-.394,0-.591.005,0,.1,0,.2,0,.305h-.171c0-.046,0-.091,0-.136l.07-.1c-.051-.031-.1-.082-.164-.076a2.411,2.411,0,0,0-.306.023.286.286,0,0,0,.022.11,1.074,1.074,0,0,0-.061.12,1.436,1.436,0,0,1,.034.58l-.087.026.083.055c-.028.315,0,.631-.006.946-.058.029-.116.06-.172.094l.06.091c.031.02.1.02.086.074l-.021.067.05.02c-.019.517-.024,1.034-.036,1.551q-1.739,1.886-3.483,3.768v5.2c.332-.03.665,0,1-.028.35.009.7-.018,1.049-.012.2,0,.391-.022.587-.014.265.01.53-.025.8-.013.213.009.425-.021.638-.013s.409-.009.614-.014c.863.02,1.334.071,1.531.038a5.428,5.428,0,0,1,1.205-.089c.443-.031.889.008,1.332-.024.383-.007.767.014,1.15-.012.392-.007.784.012,1.176-.014.817.008,4.738-.052,4.738-.052a5.9,5.9,0,0,1-.109-1.405c.012-.363-.019-.726.013-1.088h.166c0-.179,0-.357,0-.536l-.169,0c0-.06,0-.12,0-.18l.139-.015.008-.07c.47-.005.939,0,1.409,0,0-.017.006-.05.009-.067.124,0,.248,0,.372,0a.281.281,0,0,0,.1.079c.027-.03.044-.085.1-.076,5.37-.119,5.174-.08,5.421-.141s.5.038.733-.046a1.145,1.145,0,0,1,.218-.014c.218,0,.436-.02.655-.02a.6.6,0,0,0,.082.026,5.089,5.089,0,0,1,.755-.029l.046.029c.034-.011.069-.022.1-.031q0-.045,0-.088c.267,0,.535.006.8.007l.054.048c.126-.054.044-.038.664-.038,0-.036.006-.07.009-.1l.123,0a.1.1,0,0,0,.115.1l-.058-.095c.3,0,.6.01.907.013l.066.063.056-.041c.143,0,.285,0,.428,0a1.774,1.774,0,0,1,.363.017c.03-.013.06-.025.09-.037,0-.02,0-.06,0-.08.285.006.57.016.854.032q.035.021.074.041c.16-.074-.062-.048.905-.067,0,.428,0,.857,0,1.285a4.615,4.615,0,0,0-.8.821c-.524.773-.518.749-.514.818,0,.542,0,1.084,0,1.626,13.038-.013,24.2-.174,24.321-.182,0-.492,0-.984-.013-1.475a7.048,7.048,0,0,0-.632-.895c-.018-.168,0-.337-.007-.506.005-.28-.012-.561.009-.841,3.408-.8,3.559-.719,5.426-1.13.527-.1,1.059-.17,1.588-.258.279-.05.563-.058.843-.1.408-.063.817-.115,1.226-.173a1.969,1.969,0,0,1,.669-.043c.146.034.316,0,.444.091.418-.048,3.112.384,3.539.449.506.072,1.007.18,1.51.27,4.606.874,1.994.317,5.231,1.024.005,1.3-.011,1.379.012,1.644-.152.284-.318.561-.469.846a2.137,2.137,0,0,0-.015.451c-.011.256.02.51.012.767-.011.288.024.575.012.863,7.478,0,24.1-.093,24.1-.093-.018-.239,0-.479-.01-.718-.027-.307.006-.615-.023-.922-.012-.125.028-.26-.04-.374a.921.921,0,0,1-.05-.445c.008-.29-.021-.58-.013-.87.008-.2-.019-.392-.013-.588.009-.35-.026-.7-.011-1.049-.022-.318-.012-.636-.016-.954l.067-.007c0-.024,0-.073,0-.1l-.081,0c0-.047,0-.093.007-.138.052,0,39.668.741,39.69.741V65.72A.746.746,0,0,0,163.408,65.676ZM29.851,70.584c-.116,0-.233,0-.349.005-.022-.153-.008-.308-.018-.462l.041-.052-.039-.048c0-.135.13-.264.048-.393-.038-.064.006-.153-.058-.2-.078.066-.012.206-.1.268a.782.782,0,0,0,.067.21c0,.072-.056.144-.01.213a2.785,2.785,0,0,1-.02.469c-.855.007-1.71.022-2.565.035,1.037-1.093,2.067-2.192,3.1-3.284C29.908,68.422,29.883,69.5,29.851,70.584ZM42.191,68.8c-.039.006-.079.01-.118.017-.009-.118,0-.237-.006-.355a.394.394,0,0,1,.079-.282,1.586,1.586,0,0,1-.108-.255,3.95,3.95,0,0,1-.18-.514c.006-.263.007-.527.016-.79.065.07.139.134.2.209.044.134.013.29.109.406C42.193,67.532,42.192,68.776,42.191,68.8Zm1.374-1.72c.106.033.135.155.145.253s.009.208.006.312a4.329,4.329,0,0,1-.507-.52c-.048-.059-.117-.109-.127-.19C43.243,66.985,43.406,67.027,43.565,67.082Zm-.321,2.924a.426.426,0,0,1,0-.23.312.312,0,0,0-.108-.029,2,2,0,0,1,.023-.2.9.9,0,0,1,.539-.086c0,.193,0,.386,0,.579A1.377,1.377,0,0,1,43.244,70.006Zm.483-.817c-.03-.024-.065-.047-.071-.088s.046-.048.078-.059C43.733,69.09,43.731,69.139,43.728,69.189Zm-.365-.416a.832.832,0,0,1-.437-.052,1.226,1.226,0,0,0-.363-.022,1.039,1.039,0,0,0-.3.081c.025-.232,0-.467.015-.7.018-.144.008-.29.012-.434s.015-.288.011-.433a.285.285,0,0,0,.087-.129c1.382,1.271,1.21.84,1.28,1.383l.064.031q0,.073.008.147C43.613,68.691,43.486,68.725,43.363,68.772Zm12.349-7.878c.051-.1.171-.013.252-.014a5.606,5.606,0,0,1,.017.6,1.232,1.232,0,0,1-.036.381c-.017.1-.018.229-.119.29a1.6,1.6,0,0,1-.6-.03l-.013-.033A9.844,9.844,0,0,1,55.712,60.895Zm-.02,1.419c-.329.373-.667.739-1,1.109a.9.9,0,0,1-.2.2c.046-.2.45-.978.539-1.167.039-.083.1-.176.2-.187A1.522,1.522,0,0,1,55.692,62.314Zm-.1-1.517a1.621,1.621,0,0,1-.161.4,4.229,4.229,0,0,1-.436.819c-.048.064-.136.051-.206.05A1.751,1.751,0,0,1,54.369,62C54.506,61.864,55.421,60.945,55.595,60.8Zm-1.534,2.756c0-.347,0-.693,0-1.04l.053-.044a.763.763,0,0,1,.011-.22.227.227,0,0,1,.129-.085,2.072,2.072,0,0,1,.626.054c.011.033.032.07.011.105-.37.946-.3.695-.517,1.226-.05.12-.152.21-.206.328-.034.057-.05.131-.112.165A2.458,2.458,0,0,1,54.061,63.554Zm-.479-.815.017.017c-.152.337-.321.667-.48,1a1.136,1.136,0,0,1-.2.319.313.313,0,0,1-.231-.026,1.478,1.478,0,0,1-.38-.184C53.674,62.65,53.555,62.748,53.582,62.738Zm-.352,1.617a1.833,1.833,0,0,1,.4.151l.008.044c-.159.174-.357.308-.523.476-.238.219-.47.447-.725.646a8.82,8.82,0,0,1,.6-1.287C53.033,64.289,53.153,64.334,53.23,64.355Zm-1.185.4c.039-.165-.049-.359.071-.5a.419.419,0,0,1,.032-.2,1.156,1.156,0,0,1,.636.153.08.08,0,0,1,.038.084.672.672,0,0,1-.037.216c-.19.37-.362.748-.545,1.122a.669.669,0,0,0-.1.13c-.029.051-.043.117-.1.144C52.041,65.523,52.038,65.14,52.045,64.757Zm-.47-.3a.168.168,0,0,1-.012.115c-.212.391-.4.794-.629,1.174a.676.676,0,0,1-.262-.1.927.927,0,0,1-.334-.229C50.755,65.1,51.158,64.772,51.575,64.458Zm-.265,1.653a1.489,1.489,0,0,1,.361.2c-.355.27-.727.515-1.085.781a.509.509,0,0,1-.222.113c-.024-.038-.037.012.468-.938A1.374,1.374,0,0,1,51,66.019C51.112,65.987,51.208,66.072,51.31,66.111Zm-1.129-.551c.163.057.317.137.474.207a.418.418,0,0,1,.17.14c-.087.345-.052.191-.544,1.167l-.181.239c-.005-.5,0-.993,0-1.49l.046-.037C50.136,65.708,50.108,65.614,50.181,65.56Zm-.609.406c0,.168-.09.233-.438.853-.048.089-.131.151-.182.238a1.518,1.518,0,0,1-.525-.328C48.822,66.5,49.185,66.213,49.572,65.967Zm-.424,1.361a1.839,1.839,0,0,1,.527.35c-.232.135-.477.247-.713.375-.163.07-.308.177-.478.233a.608.608,0,0,1,.137-.366C49.058,67.253,49,67.276,49.148,67.328Zm-.928.5c.012-.172-.015-.344.007-.515,0-.143.014-.286.022-.429a1.846,1.846,0,0,1,.625.323.445.445,0,0,0-.085.214c-.476.785-.367.636-.575.825C48.222,68.1,48.209,67.964,48.22,67.825Zm-.442-.493c.081-.088.151-.185.231-.274l.042.074c0,.076,0,.153,0,.231-.03.241.015.486-.018.728a2.043,2.043,0,0,1-.036.348c0,.038-.041.082-.083.057a3.2,3.2,0,0,1-.472-.228.8.8,0,0,1-.233-.155c.119-.229.288-.427.427-.644A.443.443,0,0,1,47.778,67.332Zm-.585,1.454c-.037.027-.083-.035-.043-.059S47.232,68.76,47.193,68.786Zm-.78-.814c.07.024.146.015.218.031a.723.723,0,0,1,.28.2c-.146-.039-.279-.112-.422-.158C46.457,68.023,46.4,68.022,46.413,67.972Zm-.053.365a1.8,1.8,0,0,1,.3.124,1.4,1.4,0,0,1-.3.123A1.393,1.393,0,0,1,46.359,68.337Zm.215.315a.669.669,0,0,1-.136.152l-.062-.068A.783.783,0,0,1,46.575,68.652Zm-.218.2c.085.008-.043.074,0,0Zm-.344-.692c.061.034.124.063.188.092a1.217,1.217,0,0,0-.016.266,2.142,2.142,0,0,1-.226-.252C45.914,68.224,45.987,68.192,46.012,68.164Zm.16.644a.533.533,0,0,1-.066.2c-.106.057-.217-.04-.323-.059A.606.606,0,0,1,46.173,68.808Zm-.694-.217a3.553,3.553,0,0,1,.341-.263.876.876,0,0,1,.242.294.44.44,0,0,1-.3.134c-.079,0-.15.056-.23.043C45.463,68.76,45.415,68.655,45.479,68.591Zm-.254-.7c.038.024.047.072.062.111-.464.2-.387.183-.455.137a.833.833,0,0,1-.135-.2c.057-.062.146-.047.221-.049C45.02,67.9,45.122,67.884,45.225,67.892ZM44.876,68.9a1,1,0,0,1-.326.252c.01-.133-.018-.308.11-.392A.76.76,0,0,1,44.876,68.9Zm-.266-1.328a3.265,3.265,0,0,1,.363.181.991.991,0,0,1-.334.064.841.841,0,0,1-.368-.4A1.77,1.77,0,0,1,44.61,67.569Zm-.736-.227c.036-.05.094-.007.117.032.069.1.18.157.245.259.044.067.083.136.133.2-.05.045,0,.071-.362.082-.082-.021-.094-.119-.1-.189A1.024,1.024,0,0,1,43.874,67.342Zm.077.991c.079.047.157.1.239.139a1.272,1.272,0,0,1-.344.137A2.2,2.2,0,0,0,43.951,68.333Zm-.045.629c.117-.035.232-.074.35-.106l.025.013a1.2,1.2,0,0,1,.009.257.1.1,0,0,1-.113.094c-.112,0-.222-.02-.334-.023C43.828,69.119,43.8,68.986,43.906,68.962ZM44.345,70c-.171,0-.341.02-.512.029,0-.186,0-.373,0-.559.123.027.248.042.373.064.059.035.03.116.038.173l.049.034c0,.052,0,.1,0,.157A.1.1,0,0,1,44.345,70Zm-.134-1.946a.572.572,0,0,1,.2-.054.8.8,0,0,1,.3.236l-.1.07C44.484,68.213,44.332,68.158,44.212,68.054Zm1.1,1.9c-.27.035-.543.017-.814.039a.8.8,0,0,0,.123-.446,4.6,4.6,0,0,1,.691-.079Q45.314,69.714,45.316,69.957Zm.084,0c.024-.162-.016-.327.016-.487.158-.023.317-.03.474-.057.039,0,.084-.022.119,0a.848.848,0,0,1,.12.337l.072.03c0,.023,0,.07.006.093A7.775,7.775,0,0,1,45.4,69.962Zm.948-.066c-.06.007-.055-.075-.021-.1.073-.078.079-.19.124-.281.127.035.251.082.377.119a2.088,2.088,0,0,1,.02.225Zm.273-.94a.9.9,0,0,1,.158-.266.267.267,0,0,1,.1-.1c.069.079.039.194.062.289A3.012,3.012,0,0,1,46.621,68.956Zm.394-.93a.485.485,0,0,1-.181-.068c-.09-.049-.184-.088-.273-.138a4.343,4.343,0,0,1,.738-.405,2.86,2.86,0,0,1,.3-.143c-.036.095-.062.1-.491.665A.379.379,0,0,1,47.015,68.026Zm.1,1.18c0-.082.083-.052.449-.169.1-.052.175.065.242.125,0,.054-.061.062-.1.079a2.144,2.144,0,0,1-.487.108C47.144,69.361,47.1,69.272,47.114,69.206Zm.031.651a.942.942,0,0,1,.1-.162.883.883,0,0,1,.255.007c.17.006.339.016.509.029l.011.072C47.728,69.818,47.437,69.838,47.145,69.857Zm.741-.371a2.377,2.377,0,0,1-.283-.022,1.184,1.184,0,0,1,.361-.147c.1-.04.083.091.1.154C48.012,69.509,47.946,69.488,47.886,69.486Zm.253.02c.007-.027-.007-.1.04-.084a.274.274,0,0,1,.073.08Zm.387-.051a.866.866,0,0,1-.3-.227.554.554,0,0,1,.248-.081c.075-.018.114.073.114.135S48.6,69.433,48.526,69.455Zm.817,0a2.376,2.376,0,0,1-.465.051c-.1.01-.091-.22-.083-.322a1.233,1.233,0,0,1,.29.061c.29.073.387.086.389.159C49.446,69.453,49.388,69.447,49.343,69.459Zm.588-.4c-.223.075-.211.1-1.357-.274-.034-.02-.1-.025-.1-.073.414-.2.83-.4,1.238-.62l.03.073a.393.393,0,0,0,.088-.108c.029.08.027.188.11.236C49.938,68.544,49.959,68.8,49.931,69.056Zm.044-2.716c-.018.206.008.414-.016.62a2.754,2.754,0,0,0,0,.335l-.036.043a1.021,1.021,0,0,1-.03.224,1.627,1.627,0,0,1-.534-.261c-.08-.05-.164-.091-.238-.148a4.656,4.656,0,0,1,.526-.948c.038-.071.113-.11.154-.177s.093-.146.14-.219a.108.108,0,0,1,.043.1C49.975,66.05,49.992,66.2,49.976,66.34Zm.47,2.645a.59.59,0,0,0-.4.053c0-.249,0-.5,0-.748.027-.029.079-.041.081-.087a1.249,1.249,0,0,1,.086-.378c.216-.14,1.35-.914,1.592-1.1.03.063.03.146.091.189a2.5,2.5,0,0,1,.015.423c-.005.366.012.733-.014,1.1a1.5,1.5,0,0,1,0,.357C51.3,69,50.985,69.171,50.445,68.985Zm1.469.489a3.312,3.312,0,0,1-.477-.022c-.039,0-.095-.026-.091-.072,0-.072.083-.08.132-.1a3.561,3.561,0,0,1,.425-.123A1.925,1.925,0,0,1,51.914,69.474Zm.012-3.593c-.084.071-.058.182-.085.278a.239.239,0,0,1-.134-.012q-.259-.117-.512-.25c-.043-.027-.12-.055-.086-.12a12.119,12.119,0,0,1,.57-1.168.18.18,0,0,1,.08-.077c.036-.059.07-.119.106-.177l.049.006a1.646,1.646,0,0,1,.008.343c.013.272.008.545,0,.817A3.362,3.362,0,0,1,51.926,65.881Zm.071,3.6c-.012-.12,0-.241-.008-.361l.068-.02C52.112,69.218,52.126,69.405,52,69.481Zm.305-.076a.345.345,0,0,1,.053-.374l.235.072c-.006.039,0,.09-.034.118C52.478,69.29,52.383,69.337,52.3,69.405Zm.245-.517c.118-.052.237-.1.355-.15a1.994,1.994,0,0,1,.323-.124.98.98,0,0,1-.432.368c-.067.023-.132-.022-.193-.041C52.578,68.926,52.529,68.924,52.547,68.888Zm0,.605c.008-.061.064-.09.1-.127a.675.675,0,0,1,.173-.129A.737.737,0,0,0,53,69.224c.115.049.224.108.34.153l.036.036C53.1,69.461,52.824,69.468,52.547,69.493Zm1.341-.269c-.005.051-.053.072-.093.093-.178-.051-.9-.195-.769-.288a2.427,2.427,0,0,1,.436-.359,1.81,1.81,0,0,1,.412-.278.735.735,0,0,1,.036.249A3.469,3.469,0,0,1,53.888,69.225Zm-.005-1.6.027.042c0,.087,0,.175,0,.263a5.35,5.35,0,0,1-.688.325c-.407.172-.807.363-1.223.512,0-.127.032-.251.02-.378-.017-.161,0-.323-.006-.484a9.564,9.564,0,0,1,.011-.995l.059-.028a1.611,1.611,0,0,0,.078-.411c.438-.353,1.43-1.288,1.668-1.476a.322.322,0,0,0,.082.108C53.931,65.475,53.934,67.235,53.883,67.621Zm.038-4.146c.01.2-.01.393,0,.59l-.037.037c.005.1.02.221-.089.266a1.5,1.5,0,0,1-.607-.18c-.092-.068-.014-.184.009-.267.175-.384.337-.774.533-1.148l.049-.029c.033-.079.067-.158.1-.237l.056.016C53.912,62.84,53.942,63.158,53.921,63.475Zm.287,5.565c-.043.048-.083.1-.123.148a1.964,1.964,0,0,1-.023-.673l.023-.037a1.719,1.719,0,0,1,.025-.192.788.788,0,0,1,.513.221,3,3,0,0,1-.314.472A.174.174,0,0,1,54.208,69.04Zm1.54-.451a.4.4,0,0,0-.06.183c-.036.064-.227-.045-.373-.117a1.838,1.838,0,0,1-.387-.21,1.655,1.655,0,0,1,.2-.313c.092-.113.165-.241.265-.348a3.588,3.588,0,0,0,.327-.372.927.927,0,0,1,.034.234C55.748,67.96,55.753,68.275,55.748,68.589Zm-.566-.757a4.326,4.326,0,0,1-.463.52.861.861,0,0,1-.437-.226.8.8,0,0,1,.211-.114c.277-.148.558-.29.835-.438A.8.8,0,0,1,55.182,67.832Zm-.815,1.244a4.286,4.286,0,0,1,.385-.473c.193,0,.036-.044.478.165.074.05.142.108.22.154-.269.087-.543.157-.816.231a1.145,1.145,0,0,1-.289.071A.36.36,0,0,0,54.367,69.076Zm1.551.374c-.162-.007-.323.024-.486.016-.181.014-.362,0-.542.023a1.525,1.525,0,0,1-.282,0c.329-.111.666-.2,1-.279a2.178,2.178,0,0,0,.317-.126A2.285,2.285,0,0,1,55.918,69.45Zm.038-.864H55.9c0-.36,0-.719,0-1.078l.052-.014C55.954,67.858,55.956,68.222,55.956,68.586Zm-.007-2.378a5.67,5.67,0,0,0,.008.571,3.26,3.26,0,0,1-.552.354c-1.217.651-1.215.663-1.435.756a1,1,0,0,1,.016-.255,1.616,1.616,0,0,0,0-.4c0-.2,0-.392,0-.588.021-.248.008-.5.011-.744.024-.272.007-.545.027-.817.061-.062.07.022.13-.4.166-.18,1.242-1.331,1.465-1.606.084-.091.176-.174.26-.265l.1.07C55.98,62.977,55.967,65.944,55.949,66.208ZM60.42,55.5c.027-.092-.014-.2.05-.281a10.579,10.579,0,0,1,.905-1.171c-.12.214-.915,1.576-.972,1.652A.622.622,0,0,1,60.42,55.5Zm1.122,8.644c-.023.162,0,.326-.015.488a.935.935,0,0,0-.023.281l-.061.04a3.181,3.181,0,0,1-.648-.217c.051-.1.061-.22.119-.319.117-.255.251-.5.367-.759a4.992,4.992,0,0,1,.269-.434C61.538,63.527,61.546,63.834,61.542,64.14Zm-.783.2a2.564,2.564,0,0,1-.19.318c-.084-.017-.166-.041-.248-.065-.006-.134-.011-.268-.01-.4.223-.2.466-.385.686-.592a1.307,1.307,0,0,1,.21-.173C61.055,63.725,60.907,64.031,60.759,64.336Zm-.8-8.3c.107-.168.178-.358.294-.52a1.365,1.365,0,0,1-.019.351c-.017.061-.015.125-.027.187-.043.083-.1.158-.146.238-.139.211-.015.094-.417.377a1.117,1.117,0,0,1,.136-.352A1.037,1.037,0,0,1,59.957,56.034Zm-.3.842c-.022.085-.045.087-.315.508a.216.216,0,0,1-.083.077,1.845,1.845,0,0,1,.154-.314A.675.675,0,0,1,59.653,56.876Zm-.2-.423a2.142,2.142,0,0,1,.229-.257,3.709,3.709,0,0,1-.33.591c-.061.068-.15.105-.2.182-.079.045-.157.091-.237.134C59.084,56.88,59.274,56.67,59.454,56.453Zm-1.2,1.572a.67.67,0,0,1,.287-.439c.231-.155.435-.349.68-.482a5.489,5.489,0,0,1-.316.743,3.546,3.546,0,0,1-.21.378c-.064.149-.173.272-.251.414-.075.1-.112.225-.193.321C58.245,58.648,58.242,58.336,58.254,58.025Zm1.321,7.549c-.031.254-.005.511-.017.766a1.452,1.452,0,0,0-.043.228l-.093-.01c-.024.027-.055.047-.088.022a5.388,5.388,0,0,1-.549-.28,3.662,3.662,0,0,1,.322-.653c.093-.165.178-.335.277-.5.071-.087.123-.186.19-.275C59.571,65.108,59.574,65.341,59.575,65.574Zm-.6-.015a5.677,5.677,0,0,1-.369.628c-.024.039-.07.01-.1,0-.108-.058-.219-.108-.327-.166-.076-.036-.019-.132-.021-.2.364-.262.723-.532,1.091-.788A5.142,5.142,0,0,1,58.971,65.559Zm-.834.611a1.579,1.579,0,0,1,.363.2,3.239,3.239,0,0,1-.264.554.615.615,0,0,1-.1.15C58.147,66.771,58.149,66.47,58.137,66.171Zm.408.523c.046-.09.115-.165.167-.251.091.04.179.089.271.129a.99.99,0,0,1,.337.2c-.2.141-1.084.714-1.187.764C58.148,67.4,58.1,67.517,58.544,66.694ZM56.69,59.645c.063-.065.112-.141.171-.209.227-.237.435-.49.653-.734.025-.041.073-.007.05.03-.064.2-.17.375-.25.565-.044.1-.1.193-.15.287a.362.362,0,0,1-.251.144,1.19,1.19,0,0,1-.315.048C56.607,59.72,56.656,59.686,56.69,59.645Zm.786.232c.031,0,.08-.02.095.021-.1.161-.226.308-.344.459a3.1,3.1,0,0,1-.3.37.327.327,0,0,1-.09.066,6.57,6.57,0,0,1,.362-.738A.345.345,0,0,1,57.476,59.877Zm-1.323.794c.035-.015.048.046.028.067C56.144,60.754,56.129,60.69,56.152,60.671Zm-.014.139c.052-.056.148.021.19-.05l-.081-.019c-.02-.07-.038-.141-.059-.21l.06-.049-.077-.025a1.5,1.5,0,0,0,.028-.281c.045-.131.2-.15.318-.186.162-.021.319-.074.482-.083-.022.184-.487,1.072-.529,1.261a3.663,3.663,0,0,0-.289.507c-.061.062-.063-.079-.072-.119C56.132,61.309,56.122,61.059,56.138,60.81Zm1.118,5.714c-.12.217-.269.417-.4.628a1.841,1.841,0,0,1-.191.258.869.869,0,0,1-.315-.122,2.511,2.511,0,0,0-.26-.143c.025-.04-.048,0,1.176-.757l-.034.051Zm-.35,1.23c.148.091.33.138.436.286-.378.211-.771.394-1.165.572.047-.1.08-.2.119-.3a4.3,4.3,0,0,1,.4-.624C56.776,67.658,56.841,67.725,56.906,67.754Zm-.758-.431c.3.194.433.229.391.295a2.937,2.937,0,0,1-.319.558,1.248,1.248,0,0,1-.176.249c-.005-.192,0-.384,0-.576.013-.167-.014-.334.008-.5Zm1.445,2.036c-.279,0-.555.04-.833.041-.242.015-.486.016-.727.043,0-.125,0-.249,0-.374q.748-.333,1.488-.681a1.576,1.576,0,0,0,.112.281C57.628,69.3,57.643,69.181,57.593,69.358Zm.039-1.944c0,.161-.053.317-.052.479a3.232,3.232,0,0,1-.741-.363c.1-.218.231-.42.352-.627a1.677,1.677,0,0,1,.24-.352c.074-.075.117-.175.2-.247C57.675,66.672,57.609,67.045,57.632,67.414Zm.393,1.515-.121.007a.612.612,0,0,0-.095.087l.055.053c0,.091-.007.182-.01.273l-.1-.01c-.059-.107-.009-.225-.023-.339s.016-.232.015-.348a.87.87,0,0,0,.069-.091,1.331,1.331,0,0,1,.063-.328c.017-.067.095-.078.146-.11C58.029,68.393,58.026,68.661,58.025,68.929Zm.016-1.745c.009.2-.162.332-.255.49a2.941,2.941,0,0,1,.007-.44c.011-.3,0-.6.006-.894a.787.787,0,0,0,.033-.27c.073.023.145.047.218.069C58.049,66.487,58.063,66.836,58.041,67.184Zm.036-5.55c0,.091,0,2.616-.014,3.071a.855.855,0,0,0,0,.407,1.95,1.95,0,0,0,0,.262,18.913,18.913,0,0,1-2.009,1.352c-.019-.165.051-.325.018-.489-.01-.2-.015-1.3.006-1.507,0-.591-.011-1.294.016-1.857.027-.037.077-.062.081-.112.037-.141.018-.307.124-.421.538-.654,1.633-2.079,1.743-2.211l.056.046c0,.333,0,.666,0,1C58.1,61.327,58.071,61.48,58.077,61.633Zm0-2.657a.219.219,0,0,1-.031.106c-.01.088.019.19-.039.266-.035.049-.069.1-.1.152a1.933,1.933,0,0,1-.512.142l-.014-.029c.1-.28.256-.534.364-.81.08-.192.2-.367.282-.555a.3.3,0,0,1,.071-.1C58.1,58.427,58.081,58.7,58.077,58.977Zm2,8.131c-.009.187.01.375-.013.562-.015.162.015.326-.006.488-.029.226.018.458-.029.683a4.2,4.2,0,0,1-.657.019c-.3.018-.6.03-.895.026-.116,0-.23.022-.345.019,0-.285,0-.569,0-.853.455-.29.907-.585,1.351-.892a.205.205,0,0,0,.09.184c.017.5-.006,1.007.01,1.51l.095,0a7.292,7.292,0,0,1,.062-1.538c.043-.117.052-.241.085-.361a1.522,1.522,0,0,1,.163-.121c.034-.013.087-.023.1.02A1.369,1.369,0,0,1,60.074,67.108Zm.147-1.892a.645.645,0,0,1-.039.3,4.1,4.1,0,0,1-.458.825c.018-1.543-.036-1.422.037-1.525a.529.529,0,0,1,.045-.2,1,1,0,0,1,.421.074C60.227,64.87,60.217,65.043,60.222,65.216Zm-.23-.779c.08-.059.154-.125.233-.185,0,.1,0,.2,0,.3A1.133,1.133,0,0,1,59.991,64.438Zm.26-5.8c0,.026,0,4.176-.039,4.528-.006.162.023.324.014.487a.992.992,0,0,1-.207.192c-.141.1-.254.238-.4.341-.488.377-.96.775-1.472,1.119-.015-.168.051-.331.024-.5a2.446,2.446,0,0,1-.009-.617,13.7,13.7,0,0,1,.012-1.586c0-.247,0-.494,0-.741.03-.332-.008-.667.023-1a4.819,4.819,0,0,1,.018-.564c.015-.074-.013-.164.058-.214a1.045,1.045,0,0,1,.182-.638,3.943,3.943,0,0,0,.35-.44c.125-.205.283-.386.419-.584,1.05-1.559.97-1.452,1.033-1.494,0,.391,0,.782,0,1.172C60.275,58.284,60.244,58.462,60.251,58.642Zm.08,6.923a4.274,4.274,0,0,1,.346-.6.125.125,0,0,1,.149-.042,1.776,1.776,0,0,1,.462.184c-.324.276-.643.558-.977.822A1.279,1.279,0,0,1,60.332,65.564Zm1.223.645c-.049,0-.108-.012-.14.035.044.019.146-.007.125.069-.367.015-.732.055-1.1.073q.518-.425,1.034-.852l.029.106.053.033c0,.042,0,.085,0,.128l-.121,0c.012.06.074.052.121.06,0,.02,0,.061,0,.081h-.12c.01.061.073.041.118.046l0,.079c-.047.016-.125-.007-.14.057h.14C61.557,66.145,61.555,66.188,61.554,66.209Zm.1-.346c.085,0,.171.01.256.015,0,.037,0,.073,0,.111-.085,0-.17-.013-.255-.016C61.651,65.935,61.651,65.9,61.652,65.863Zm.253.245a1.873,1.873,0,0,1-.24-.016l-.008-.079c.083,0,.166.008.25.014C61.906,66.046,61.905,66.087,61.9,66.107Zm0,.048c0,.02,0,.062,0,.082l-.244-.007c0-.023,0-.068,0-.091C61.743,66.146,61.824,66.149,61.906,66.156Zm-.249.157.027-.036a.438.438,0,0,1,.251.03A.91.91,0,0,1,61.656,66.312Zm.572-.169c-.091,0-.181-.007-.272-.011,0-.034,0-.067,0-.1.094.007.187.014.282.018Zm-.274-.245.27.009c0,.034,0,.068,0,.1a2.6,2.6,0,0,1-.268-.02C61.955,65.968,61.955,65.922,61.955,65.9Zm.6.4a1.257,1.257,0,0,1-.264-.022l-.013-.084a2.562,2.562,0,0,1,.285.036C62.558,66.25,62.554,66.285,62.552,66.3Zm-.271-.232.145.011c0,.021,0,.063,0,.084l-.145-.01C62.282,66.134,62.281,66.092,62.281,66.071Zm.274-.017c-.085-.053-.184.01-.278-.018,0-.042,0-.083,0-.124.095.008.189.024.284.037C62.561,65.983,62.558,66.018,62.555,66.053Zm0-.3c0,.047,0,.093,0,.141a2,2,0,0,0-.281-.022c0-.051.03-.125-.051-.118,0,.024,0,.07,0,.094a1.547,1.547,0,0,1-.262-.007l-.033-.059-.047.054c-.074,0-.148-.015-.221-.016,0-.043,0-.085,0-.127.041-.051.082-.1.119-.156l.047.063.067-.02c0-.075,0-.15,0-.225l-.117,0c0-.021,0-.064,0-.085.289-.249.533-.543.807-.809.07-.072.129-.153.2-.219,0,.2.008.395-.008.592-.013.171.012.341.006.512.007.2-.024.39-.016.586A1.234,1.234,0,0,1,62.6,65.9c0-.047.005-.092.008-.137Zm-.841-2.549c.067-.067.024-.169.053-.25a.151.151,0,0,1,.136-.066,2.228,2.228,0,0,1,.6.062l.01.015a3,3,0,0,1-.249.589c-.119.232-.224.471-.344.7a1.785,1.785,0,0,0-.21.4,1.728,1.728,0,0,1-.014-.337C61.725,63.95,61.7,63.577,61.711,63.206Zm1.075.346c0,.055-.08.087-.642.7.135-.3.282-.6.419-.9a1.3,1.3,0,0,1,.219-.337C62.785,63.19,62.781,63.371,62.786,63.552Zm-.177,2.4c.054.006.109.014.164.022-.014.029,0,.092-.051.083a1.137,1.137,0,0,1-.119-.01C62.6,66.014,62.606,65.982,62.609,65.951ZM62.6,66.1a1.6,1.6,0,0,1,.163.01c0,.02.008.059.01.079-.057,0-.114-.006-.17-.012C62.605,66.15,62.6,66.124,62.6,66.1Zm.016.218a.419.419,0,0,1,0-.092.33.33,0,0,1,.175.03A.343.343,0,0,1,62.619,66.317Zm.187-4.231c-.05.03-.107.044-.159.07.015.046.03.092.044.139l.1.023a.229.229,0,0,0-.023.159,1.268,1.268,0,0,1-.185.291,1.382,1.382,0,0,1-.56-.061,3.858,3.858,0,0,1,.288-.283c.167-.156.327-.32.5-.467C62.81,62,62.811,62.044,62.806,62.087Zm.081-6.192-.142.093a.328.328,0,0,0,.11.12c.036.273.018.552.027.828l-.088.024a1.393,1.393,0,0,0,.043.257,3.48,3.48,0,0,1,.015.531c-.006,1.066,0,2.131-.008,3.2.007.086-.1.107-.15.157.027.024.056.047.085.07a.841.841,0,0,1,.027.162c-.047.052-1.822,1.768-2.493,2.246a.782.782,0,0,1,.015-.19,1.779,1.779,0,0,0,0-.424c0-4.887.026-6.019.026-6.019a.193.193,0,0,0,.116-.12c-.013-.023-.027-.045-.041-.065a8.928,8.928,0,0,1,.7-1.316c1.164-1.957,1.3-2.264,1.513-2.582a7.151,7.151,0,0,0,.232,1.561C62.9,54.56,62.882,55.221,62.887,55.894Zm6.263-19.58c.1.086.143.068-.068.332C69.09,36.533,69.064,36.405,69.15,36.314Zm-.012.509c.02-.019.026-.067.059-.062.018.032.032.066.048.1Zm.279.075c-.027-.035.02-.07.033-.1-.008-.042-.039-.088-.009-.13l.056.064a.34.34,0,0,0,.012-.11l.037,0a.813.813,0,0,0-.016.1.316.316,0,0,0,.079.038.6.6,0,0,0-.031.1.466.466,0,0,1,.053.124A.625.625,0,0,1,69.416,36.9Zm.6.19a.859.859,0,0,1-.193-.06c-.044-.033.02-.073.033-.105-.012-.039-.025-.077-.037-.115l.062.053a.216.216,0,0,0,.009-.114c.059.015.008.085.038.123l.089,0a1.112,1.112,0,0,1-.044.109C69.993,37.014,70.006,37.051,70.02,37.088Zm.269.094c-.035.02-.1-.024-.068-.062S70.315,37.148,70.289,37.183Zm34.673,4.143c0,.031-.006.063-.008.095-.029-.02-.058-.041-.084-.062Zm-2.012.742c.562-.208,1.123-.421,1.684-.629.017.022.036.044.055.065a.434.434,0,0,1,.123,0c-.2.1-.412.16-.616.244-.261.092-.514.207-.779.284l-.018.052c.483-.174.964-.354,1.445-.534l.043.048.065-.044c0,.1,0,.209,0,.314-.53.084-1.064.151-1.592.247l.039-.02-.043-.036a.82.82,0,0,1-.2.044c-.115.026-.228.061-.344.081C102.8,42.1,102.89,42.093,102.95,42.067Zm-.249.1c0,.019-.008.057-.011.075-.069,0-.149.046-.21,0C102.553,42.213,102.627,42.189,102.7,42.165ZM84.3,44.338c.031.048.083.09.085.151-.039,0-.085.005-.112-.028S84.274,44.375,84.3,44.338Zm-.641.056a.129.129,0,0,1-.012.2A1.113,1.113,0,0,1,83.655,44.394ZM79.443,67.646c-.005.053.013.116-.029.159a1.531,1.531,0,0,1,.006-.472A.879.879,0,0,1,79.443,67.646Zm.075.152c0-.154-.006-.308-.009-.462.06.013.034.086.042.131A.743.743,0,0,1,79.518,67.8Zm.248-.245c0,.07,0,.141,0,.212a.906.906,0,0,1-.173-.01,3.172,3.172,0,0,0,0-.441c.061,0,.122.007.183.013,0,.057,0,.114,0,.171a.538.538,0,0,0-.123.027C79.691,67.533,79.728,67.543,79.765,67.554Zm.128-.473.076.024c0,.063,0,.127,0,.191C79.851,67.289,79.906,67.154,79.894,67.08Zm0-.091c0-.05,0-.1,0-.148l.074.018c0,.053,0,.107,0,.161Zm0,.324.084.009c0,.064,0,.129,0,.194l-.085,0C79.9,67.452,79.9,67.383,79.9,67.314Zm0,.544.036-.022.036.023c0,.057,0,.114,0,.171-.026-.02-.051-.041-.074-.061C79.9,67.932,79.9,67.895,79.9,67.858Zm20.871-.282c-.058-.059-.025-.157-.024-.23l.023-.03C100.771,67.4,100.772,67.49,100.767,67.577Zm.043,0c-.007-.078-.007-.155-.007-.233h.068C100.863,67.419,100.9,67.53,100.811,67.573Zm.053-.362c.021.055-.007.09-.058.107A.079.079,0,0,1,100.864,67.21Zm-.342-1.1c0-.114,0-.227,0-.34l.073.039a.95.95,0,0,1,.337.01.612.612,0,0,1,0,.293C100.8,66.112,100.659,66.119,100.522,66.112Zm.367.125c.076-.04,0,.085,0,0Zm-.041-.9-.23,0a2.032,2.032,0,0,1,0-.212q.117,0,.235,0C100.848,65.2,100.847,65.271,100.848,65.34Zm.009.056c-.011.052-.111.017-.1-.028A.066.066,0,0,1,100.857,65.4Zm.1-.07-.087,0c0-.063,0-.127,0-.189l.089-.012Q100.953,65.226,100.955,65.326Zm-.075.364a.161.161,0,0,1,.071-.147c0-.069-.081-.1-.072-.173l.078-.008a2.469,2.469,0,0,1,0,.329Zm.251,1.031.03-.041c-.018-.025-.034-.049-.05-.073.048-.047,0-.121.048-.165.024-.026.061-.029.094-.041s.043-.039.066-.058c.009.254.006.508,0,.762l-.116.006q.025-.038.054-.074C101.162,66.957,101.215,66.809,101.131,66.721Zm.031-1.637-.034.02c-.006-.185-.008-.37,0-.555l.037-.055C101.157,64.691,101.174,64.888,101.162,65.084Zm-.036.032c.061.025.037.1.039.151a.046.046,0,0,1-.044.051A1.877,1.877,0,0,1,101.125,65.116Zm.094.784a.815.815,0,0,1,.09.081c0,.052,0,.105,0,.159-.039,0-.086.011-.108-.029a.164.164,0,0,1,.019-.13l-.041-.038.051,0Zm.062.453c-.043-.037-.081-.075-.119-.114C101.231,66.155,101.314,66.28,101.281,66.353Zm-.043,0a.089.089,0,0,1-.077.037.138.138,0,0,1-.028-.146Zm.06,1.5a.982.982,0,0,0-.045-.307c-.023.1.029.21-.03.294a2.137,2.137,0,0,0-.007-.292l.092-.009C101.3,67.647,101.317,67.753,101.3,67.856Zm.03-.423c-.02.043-.078.033-.114.047,0-.109-.005-.218,0-.327.037,0,.076-.006.115-.008a.2.2,0,0,1-.058.141C101.335,67.308,101.338,67.375,101.328,67.433Zm-.095-1.727c-.005-.118.01-.235,0-.352l.143-.008c0,.092.007.185.012.278A.354.354,0,0,1,101.233,65.706Zm.014-.595.136-.008c0,.064,0,.128,0,.192l-.133.007C101.243,65.239,101.244,65.175,101.247,65.111Zm.247.308c-.024-.038-.046-.075-.069-.112,0-.065,0-.13.01-.195h.143c-.019.164.082.257-.14.515C101.439,65.557,101.392,65.445,101.494,65.42Zm.025.185c.02-.038.041-.076.064-.113l.022.091Zm.127-.019a.615.615,0,0,1,.054-.4l.032,0c.005.113,0,.226-.008.338C101.73,65.57,101.673,65.57,101.646,65.585Zm3.683-.067a2.437,2.437,0,0,0-.009-.4l-.034-.057c.029.154,0,.313.024.468-.147-.025-.3-.017-.443-.042-.186-.033-.376-.016-.561-.054-.674.006-1.347.027-2.021.039-.165.018-.33.046-.494.072a1.734,1.734,0,0,1,.022-.41c-.006-.049-.01-.1-.012-.146a.32.32,0,0,1,.145.029c.013.038,0,.106.06.107s.03-.088.036-.133l-.057-.063a.251.251,0,0,1-.163-.014c-.015-.225.026-.449.006-.673-.03.016-.059.032-.086.049.02-.177,0-.355.016-.532a2.729,2.729,0,0,0-.006-.473c-.063-.026-.05.055-.051.091,0,.353-.02.707-.019,1.059q.035.021.075.041a1.431,1.431,0,0,1-.036.359c-.03.079-.142-.011-.156.072l.092-.026a.6.6,0,0,0-.112.2c-.046-.007-.09-.016-.133-.026a.423.423,0,0,1-.177.025c.051-3.627.028-3.4.061-3.51.02-.042-.027-.076-.039-.111-.026.03-.05.062-.073.093l.041.047c-.031.387-.05,2.53-.051,2.661a1.821,1.821,0,0,1-.389.038c.03.034.063.066.1.1l-.042.048.112.041a1.491,1.491,0,0,1-.01.2,2.413,2.413,0,0,1,.016.4c-.127.008-.253,0-.379.01,0,.07,0,.139,0,.209l-.1,0c0,.035,0,.071.008.107a.432.432,0,0,0-.307.026.623.623,0,0,0,.3.237c-.038.033-.1.049-.1.11l.107-.007c.005.123,0,.246.011.368.1.01.209,0,.313.017.046.023.042.082.06.125s.049.08.085.112c0,.052.012.11-.029.151l.044.045c-.019.031-.038.063-.057.095l.055.033-.059.056c-.033.014-.1-.014-.089.051l.089.005a1,1,0,0,1-.031.171l-.065.014a.13.13,0,0,1,.053.16.311.311,0,0,0-.149.087c-.024.466.061.7-.064.816a1.178,1.178,0,0,0,.063.123c0,.042,0,.086,0,.129-18.314.236-9.072-.107-20.79.3,0-.176,0-.353.006-.529.071,0,.143,0,.215,0a.15.15,0,0,0-.1-.045,1.893,1.893,0,0,1,.015-.27c.058-.025.139.02.184-.033-.041-.006-.082-.01-.121-.013l.036-.067c.106.04.2-.039.26-.116-.06-.018-.152.013-.179-.061l-.082,0c.019-.116-.045-.256.044-.351-.087-.063-.051-.171-.011-.25.067-.013.092-.074.118-.129a1.636,1.636,0,0,0-.282-.048c0-.63-.006-1.261-.009-1.891,0-.048.042-.174-.049-.144a16.168,16.168,0,0,0,0,2.034,2.165,2.165,0,0,0-.285.016c.056.075.137.143.109.248L79.715,67c-.018.051.04.079.069.111,0,.054,0,.108,0,.163-.091,0-.182,0-.272,0-.014-.107.02-.215,0-.32l.024-.019a1.015,1.015,0,0,1-.023-.34,3.192,3.192,0,0,0-.011-.435.084.084,0,0,0-.041.077c-.014.582.022.616-.04.678.006.015.013.031.021.047a2.7,2.7,0,0,0-.011.32.813.813,0,0,0-.179-.073.589.589,0,0,0-.054.079c-.011.039.025.069.039.1a.729.729,0,0,0,.111-.085c.021.158,0,.317.008.476-.115,0-.23,0-.344,0,0-.019,0-.056,0-.075l-.153,0-.031-.057-.064.014c.019.036.039.074.056.113l-.073-.01-.018-.075a.1.1,0,0,0-.116.094c-1.639.019-1.382.051-1.521-.012-.046.008-.1.059-.136.015-.06-.05-.133.008-.183.045-.094,0-.187.007-.281.009,0,.033,0,.067,0,.1-.042,0-.084.006-.124.01.008.045.053.058.09.077a2.36,2.36,0,0,1,.027.739c-.144.01-.288.02-.433.026.061-5.666.036-5.651.078-5.982l.084-.019c.015-.047.031-.094.047-.141-.057-.022-.113-.044-.169-.068.018-.28-.013-.562.027-.839l.115-.08a.786.786,0,0,0-.126-.083c.007-1.108.023-2.217.026-3.326a.469.469,0,0,1,.024-.219c.02-.038,0-.082,0-.122l.063-.029a1.112,1.112,0,0,1,.083-.146.956.956,0,0,1-.186-.1,5.833,5.833,0,0,1,.018-.791c.038-.035.075-.072.111-.109-.049-.054-.147-.087-.132-.175a7.035,7.035,0,0,1,.247-2.471c.016-.18.007-.362.009-.543.1-.059.1-.184.175-.265l-.148-.067a3.371,3.371,0,0,1-.028-.67.35.35,0,0,1,.121-.279c-.044-.058-.087-.116-.132-.173,0-.217,0-.434-.008-.65.925-.092,28.483-3.419,28.6-3.413a4.116,4.116,0,0,0,.124.794c.314,1.547.257,1.206.264,1.546,0,.39.01.78.007,1.17-.061.047-.122.092-.184.135a.328.328,0,0,0,.134.154l-.024.052c.019.022.039.045.061.068,0,.3,0,.6.008.9a1.116,1.116,0,0,0-.232.1c.039.107.075.256.217.259a1.192,1.192,0,0,0-.065.158l.089-.013c0,.9.033,4.543.018,4.627a1.218,1.218,0,0,1-.171.132c.044.053.113.077.161.126-.048.068.029.116.028.182,0,.3,0,.6,0,.9-.079.021-.157.044-.234.068a.523.523,0,0,0,.062.151c.036.046.105.038.146.078,0,.045-.041.073-.059.11l.083.056q0,2.858.012,5.715ZM80.045,66.928c-.008-.038.024-.058.049-.079,0,.087,0,.173,0,.261C80.021,67.085,80.05,66.989,80.045,66.928Zm.067.257c0,.037,0,.074,0,.112l-.068-.006c0-.049,0-.1,0-.144Zm.009.145c-.007.076.033.206-.08.212,0-.071,0-.141-.006-.211ZM107.9,35.97c.051-.029.073.082.019.085A.049.049,0,0,1,107.9,35.97Zm-.11,2.094c-.089-.031-.049-.145-.06-.215.012-.138-.037-.287.024-.417.08.065.054.174.064.264C107.825,37.821,107.757,37.938,107.787,38.064Zm-.025-.939-.045-.043c.007-.16-.007-.32-.008-.48.02-.027.04-.053.061-.08-.019-.025-.037-.051-.054-.076a1.234,1.234,0,0,0,.142-.133c.025-.041.03-.1.074-.124a4.318,4.318,0,0,1,.027.536A.553.553,0,0,1,107.762,37.125Zm4.572-10c0,.079.014.178-.064.226C112.272,27.268,112.256,27.172,112.334,27.122Zm-.076.574a1.335,1.335,0,0,1,.077-.126.361.361,0,0,0,.043.173A.28.28,0,0,1,112.259,27.7Zm.1-.237a.4.4,0,0,1,.048-.076c0,.052,0,.1.006.155A.57.57,0,0,1,112.362,27.459Zm.139.362c-.024-.048.018-.088.034-.13a.738.738,0,0,0-.048-.124l.072.013a.415.415,0,0,1,.024-.1.233.233,0,0,0,.05.191.341.341,0,0,0,.014.235A.47.47,0,0,1,112.5,27.821Zm.4-.4q.061-.02.044.041Q112.883,27.486,112.9,27.425Zm.057.7a.655.655,0,0,1-.1-.064.874.874,0,0,1-.011-.309c0-.027-.01-.114.043-.085s0,.1-.006.141l.088.048c-.016.037-.032.073-.049.109A.5.5,0,0,1,112.962,28.124Zm-.01-.549c.084,0-.039.078,0,0Zm.184.174a.2.2,0,0,1,.076-.181c-.013-.03-.025-.06-.035-.09.04.01.058.046.074.082C113.216,27.626,113.2,27.706,113.136,27.75Zm4.358,11.767c-.047-.029-.111-.052-.124-.112a1.665,1.665,0,0,1-.013-.3c.015-.017.031-.034.049-.05l0,.03C117.538,39.184,117.508,39.374,117.494,39.517Zm.013-.543a.453.453,0,0,1-.154.1,3.757,3.757,0,0,1,.018-.535.567.567,0,0,0-.043-.28.826.826,0,0,1,.168.123c-.023.029-.045.059-.065.088.025.023.051.046.078.069C117.509,38.682,117.505,38.828,117.507,38.973ZM136.7,60.714a3.265,3.265,0,0,1-.041.715,10.358,10.358,0,0,1-1.224-1.5,4.479,4.479,0,0,1,.748-.219,2.447,2.447,0,0,1,.374-.077c.051,0,.072.048.085.089l.039.027C136.711,60.068,136.687,60.391,136.7,60.714Zm-4-2.682a4.823,4.823,0,0,1,.444.521c.118.161.254.308.358.479a1.381,1.381,0,0,0-.27.041c-.131,0-.26.029-.39.029l-.015-.041C132.649,58.959,132.723,58.641,132.7,58.032Zm2.374,1.427c-.087-.128-.158-.266-.249-.39.012-.042.01-.107.066-.116a1.83,1.83,0,0,1,.354-.07q.45.23.908.446c-.007.035-.012.071-.015.107a5.293,5.293,0,0,1-.848.334C135.234,59.657,135.148,59.563,135.078,59.459Zm.943,1.668a1.46,1.46,0,0,1-.286-.1c-.244-.138-.474-.3-.712-.445a.726.726,0,0,1-.223-.258c-.033-.053-.086-.136-.01-.179a3.608,3.608,0,0,1,.436-.17A10.744,10.744,0,0,1,136.021,61.127Zm-1.413-2.369a2.927,2.927,0,0,1-.237-.287,3.068,3.068,0,0,1,.373.168,1.028,1.028,0,0,1,.232.124A.96.96,0,0,1,134.608,58.757Zm-.2.31c.187.016.521.491.7.734a1.83,1.83,0,0,1-.527.089.565.565,0,0,1-.288-.213c-.14-.16-.278-.32-.405-.49-.014-.025-.05-.045-.041-.076C134.036,59.127,134.22,59.058,134.408,59.067Zm-.151-.2a4.326,4.326,0,0,1-.517.124c-.317-.407-.616-.827-.9-1.257.3.13.595.269.888.412.353.183.207.031.547.578C134.305,58.764,134.326,58.857,134.257,58.867Zm-.92.37a1.789,1.789,0,0,1,.3-.063,4.278,4.278,0,0,1,.579.891c-.253-.155-.5-.317-.751-.479a3.385,3.385,0,0,0-.32-.208C133.171,59.293,133.26,59.264,133.336,59.238Zm1.8,1.943.045.011a7.34,7.34,0,0,1,.973,1.384c-.5-.258-1.01-.5-1.512-.761-.617-.316-1.233-.635-1.851-.949a.794.794,0,0,1,.033-.074,5.184,5.184,0,0,1,.873-.324.929.929,0,0,1,.224-.058C134.029,60.47,135.024,61.1,135.134,61.181Zm.613.393c.249.155.5.305.74.479a2.666,2.666,0,0,1,.163.6c-.159-.154-.295-.33-.45-.487A3.657,3.657,0,0,1,135.747,61.574Zm.709-2.86a.256.256,0,0,1,.194.241c-.152-.074-.308-.142-.458-.22C136.28,58.732,136.367,58.72,136.456,58.714Zm-.542-.4a.861.861,0,0,1,.271.172,3.277,3.277,0,0,1-.338.092c-.028-.013-1.85-.895-2.069-.994-.172-.088-.13-.015-.371-.4-.053-.08-.077-.175-.134-.252,0-.017,0-.05,0-.067C133.559,57,135.712,58.2,135.914,58.315Zm-3.27-1.3a2.039,2.039,0,0,1,.051-.307c.05,0,.064,0,.423.432a.844.844,0,0,1,.164.215c-.143-.052-.275-.131-.413-.2a2.8,2.8,0,0,1-.3-.157Zm-.1,3.56c-.058-.021-.14-.017-.167-.083a1.1,1.1,0,0,1-.035-.346,2.25,2.25,0,0,1-.01-.561c.045.115.057.24.1.356C132.547,60.12,132.519,60.052,132.542,60.578Zm-.089-1.938a.087.087,0,0,1-.117.08l.057-.017c-.042-.059-.119-.107-.109-.188a5.509,5.509,0,0,1,.038-.893c.067.017.1.1.147.151A5.357,5.357,0,0,1,132.453,58.64Zm-.6-2.587a6.192,6.192,0,0,1-.935.065c-.264-.137-.52-.29-.782-.433a.622.622,0,0,1-.227-.162,9.289,9.289,0,0,1-.735-1.115C129.328,54.487,131.368,55.745,131.848,56.053Zm.19,4.228a16.333,16.333,0,0,1-1.249-1.576,8.05,8.05,0,0,1-.679-.989c.054.02-.091-.083,1.966,1.486A8.887,8.887,0,0,1,132.038,60.281Zm-2.1-3.99c.116.012.257-.008.345.089a7.169,7.169,0,0,1,.689.857c-.165.05-.337.064-.5.109-.051.02.017.05-1.218-.884-.049-.045-.128-.072-.143-.141A2.682,2.682,0,0,1,129.933,56.291Zm-1.053-.244c-.093-.005-.125-.105-.173-.168s-.111-.121-.1-.2.005-.155.007-.232c.12.031.564.309,1.186.644A8.381,8.381,0,0,1,128.88,56.047Zm2.25,1.4a3.7,3.7,0,0,1,.505.774c-.077,0-.041.022-1.024-.726C130.956,57.446,131.093,57.377,131.13,57.446Zm.933.851a4.829,4.829,0,0,1-.361-.423c-.128-.163-.267-.317-.391-.483.171-.032.345-.042.517-.065l.051.031a.45.45,0,0,1,.118.162A3.07,3.07,0,0,1,132.062,58.3Zm-.911-1.1c-.112-.189-.275-.344-.373-.54a1.9,1.9,0,0,1,.3.152,2.578,2.578,0,0,1,.446.273C131.4,57.124,131.271,57.147,131.152,57.2Zm-2.513-3.011a1.182,1.182,0,0,0,.2.248c.151.207.339.383.483.6.069.109.159.2.222.317-.327-.152-.634-.346-.953-.513C128.613,54.618,128.6,54.4,128.639,54.186Zm.032,2.684a.274.274,0,0,1,.069-.194c.189.118.36.265.542.4.137.079.183.24.26.369-.055.09-.167.085-.255.114a3.633,3.633,0,0,1-.7.139c.005-.239-.007-.477,0-.716C128.573,56.921,128.639,56.906,128.67,56.87Zm-.208.835c-.133.019-.266.034-.4.049-.061.008-.141,0-.164-.068a3.3,3.3,0,0,1-.087-.5c-.032-.435-.01-.873-.016-1.309.093.084.183.171.275.257a.807.807,0,0,1,.217.415,1.039,1.039,0,0,0,.107.355A2.308,2.308,0,0,1,128.462,57.706Zm-.013.228c0,.073-.005.147-.009.221a1.6,1.6,0,0,1-.17-.09A.332.332,0,0,1,128.449,57.934Zm-1.3-4.9a2.332,2.332,0,0,1,.318.251,3.962,3.962,0,0,1-.863-.218.86.86,0,0,1-.5-.319,4.124,4.124,0,0,1-.5-.627,2.449,2.449,0,0,1-.187-.327C125.6,51.894,125.57,51.9,127.151,53.034Zm.426,2.639c-.009.525.03,1.051-.007,1.576-.019.03-.04.059-.056.09l-.531-.655c-.106-.14-.238-.259-.334-.407-.347-.493-.712-.974-1.022-1.491.014-.027.03-.053.046-.079a5.638,5.638,0,0,1,.808,0c.062-.005.1.047.146.085C126.941,55.086,127.263,55.376,127.577,55.673Zm-.888-1.368a.551.551,0,0,1,.243.174C126.822,54.489,126.752,54.379,126.689,54.3Zm-.432-.927c-.113-.058-.2-.152-.322-.2-.1-.041-.188-.108-.286-.154a.329.329,0,0,1-.106-.076,2.532,2.532,0,0,1,.37.1A1.3,1.3,0,0,1,126.257,53.378Zm-1.551-1.972c.073.01.1.039.7.767a4.176,4.176,0,0,1,.457.654,1.261,1.261,0,0,1-.324-.086c-.364-.117-.733-.282-.805-.645A2.168,2.168,0,0,1,124.706,51.405Zm-.016,1.9.08,0c.021-.062.025-.127.044-.19.115.086,1.476,1.364,1.5,1.389-.566-.021-.777.052-.97-.12a5.086,5.086,0,0,1-.662-.823A.4.4,0,0,1,124.691,53.306Zm-.141,1.18a4.1,4.1,0,0,1-.627-.043c-.077-.016-.168.014-.229-.047a.482.482,0,0,1-.16-.359c0-.129-.043-.254-.044-.384,0-.4,0-.8.014-1.194.038-.022.06.022.085.045.163.185.313.382.483.561a6.161,6.161,0,0,1,.43.573C124.57,53.716,124.543,53.755,124.55,54.486Zm0,.645a1.272,1.272,0,0,1-.326-.214c-.065-.051-.151-.083-.185-.164a2.555,2.555,0,0,1,.511-.058Q124.549,54.913,124.547,55.131Zm-.444-2.453a.887.887,0,0,1,.294.192,2.206,2.206,0,0,0,.035.32A3.848,3.848,0,0,1,124.1,52.678ZM120.28,49.1c.007-.11-.031-.236.042-.33.024-.039,0-.087-.005-.128a.261.261,0,0,0,.17-.222c-.069-.045-.151-.065-.221-.106,0-.073,0-.146,0-.219,3.173,3.569,2.991,3.308,2.97,3.373-.2-.107-2.969-2.154-2.995-2.172C120.311,49.257,120.27,49.168,120.28,49.1Zm2.988,4.3c0,.146-.005.291-.015.436a.291.291,0,0,1-.03.1c-.055.01-.071-.059-.1-.089-.337-.395-.663-.8-1.006-1.189a7.743,7.743,0,0,1-.867-1.26,4.188,4.188,0,0,1,.889.261c.592.218.75.263.916.489a.684.684,0,0,1,.141.229A3.517,3.517,0,0,1,123.269,53.4Zm-1-1.971a4.572,4.572,0,0,1-1.227-.388,3.738,3.738,0,0,1-.841-1.028.305.305,0,0,1-.029-.109C120.463,50.1,122.17,51.354,122.267,51.428ZM120.118,50.3a3.313,3.313,0,0,1,.44.661,5.024,5.024,0,0,1-.541-.171Q120.062,50.541,120.118,50.3Zm.557.951a2.623,2.623,0,0,1,.464.46c.143.157.261.333.388.5a5.769,5.769,0,0,1,.469.7c-.29-.243-2-1.845-2.019-1.871A2.374,2.374,0,0,1,120.676,51.248Zm-.654,16.768c-.009-.2.023-.4.013-.6.01-.5-.025-.386.088-.45a1.213,1.213,0,0,0-.119-.138l.051-.029a8.513,8.513,0,0,1-.044-.97c0-.41-.006-.819,0-1.229-.027-.5-.009-1-.013-1.507-.029-.519-.006-1.04-.013-1.56-.028-.333-.006-.667-.014-1,.1-.014.006-.107.007-.167.138-.067.125-.024.2-.225-.068-.033-.138-.061-.208-.087.008-.29,0-.581,0-.871a.915.915,0,0,1,.138-.26c-.006-.067-.092-.087-.137-.125,0-.026-.025-2.849-.03-4.327-.008-.076.078-.137.031-.21a.565.565,0,0,0,.17-.276.5.5,0,0,0-.212-.1c-.02-.18-.009-.361-.012-.541a1.032,1.032,0,0,1,.029-.366.83.83,0,0,1,.127-.219l-.048-.053c-.051-.025-.119-.058-.111-.125,0-.286-.014-.572,0-.857.088.071,3,2.814,3.085,2.9.2.358.094.273.129.635l.064.008c.185.426.116-.849.174,6.186.005.078-.037.15-.034.229,0,.1,0,.191,0,.286l.053.026c0,.2.005,4.814.017,5.99A21.623,21.623,0,0,1,120.021,68.015Zm1.153-19.641a28.124,28.124,0,0,1,2.544,2.106c.181.143.356.295.541.432a.56.56,0,0,1,.163.244,2.86,2.86,0,0,1,.032.857C123.5,51.019,121.289,48.539,121.175,48.375Zm3.451,19.663c-1.075-.037-1.107,0-1.086-.083,0-.026-.039-5.869-.012-5.972a1.645,1.645,0,0,0,.012-.375c-.048-.1-.022.253-.073-5.724a2.59,2.59,0,0,1-.01-.411c.007-.053.051-.088.078-.13a1.822,1.822,0,0,0,.1-.2,1.293,1.293,0,0,1,.249.172c.084.059.163.124.242.191a2.73,2.73,0,0,1,.258.2,1.072,1.072,0,0,1,.178.151s.021,4.05.031,4.68c.011.138-.042.272-.024.411.022.186.036,3.063.061,5.037C124.623,66.668,124.653,67.353,124.626,68.037Zm.047-14.074a.076.076,0,0,1,.023-.062c.284.462.329.513.278.576a1.394,1.394,0,0,1-.308.021C124.661,54.319,124.672,54.141,124.673,53.963Zm-.008,1.3c.007-.186,0-.372,0-.558a3.486,3.486,0,0,1,.43,0c.264.09.666.7,1.311,1.6.122.181.227.373.338.561C126.584,56.779,125.48,55.885,124.665,55.266Zm2.8,12.785c-.819-.009-1.638-.008-2.457-.009,0-.217,0-.435,0-.652.065,0,.131,0,.2-.005-.016-.151.21-.114.236-.244a.611.611,0,0,1-.246-.058.991.991,0,0,1,.192-.118c.04-.01.042-.05.052-.083a.329.329,0,0,1-.244-.054c.072-.066.169-.1.245-.155-.031-.083-.154-.032-.22-.07a.941.941,0,0,1-.014-.135,1.007,1.007,0,0,0-.23-.005l-.061-.03c-.017.121.025.257-.05.365-.029.083-.035.207.054.259,0,.327-.008.655,0,.983l-.149-.006c0-.116-.053-6.807-.025-7.112.012-.121-.032-.238-.027-.358s-.036-4.422-.027-4.587a1.2,1.2,0,0,1,.267.186c.087.053.161.124.247.18.1.114.253.173.362.282s.554.422.637.512l.058.012.026.053c.209.147.4.317.6.471.535.428.438.308.505.511a1.565,1.565,0,0,1,.076.357c-.013.154.174.23.161.386.019.6.01,1.194.023,1.79,0,.572.065,2.5.014,2.671a2.851,2.851,0,0,0-.006.388c.048.066.033-.138.057,3.01l-.093-.027a.519.519,0,0,0-.051.039.382.382,0,0,0-.126-.039c0,.046.008.093.013.14-.089.144-.076.122-.051.3l.054.034Q127.467,67.641,127.464,68.051Zm.214,0h-.122a1.368,1.368,0,0,1,.017-.378h.147C127.707,67.792,127.758,67.938,127.678,68.046Zm-.878-14.33a1.527,1.527,0,0,1-.3-.448l.013-.04a1.26,1.26,0,0,1,.366.081c.208.1.438.142.651.231a4.1,4.1,0,0,1,.444.184,1.3,1.3,0,0,1,.3.284,1.556,1.556,0,0,1,.123.706A11.8,11.8,0,0,1,126.8,53.716Zm1.738,14.342c-.227-.009-.456.01-.681-.02.006-.73-.022-3.725-.022-4.154a1.8,1.8,0,0,0,.029-.482.326.326,0,0,1-.037-.208c0-.026-.013-1.819-.027-2.02-.008-.766,0-1.533-.01-2.3a2.251,2.251,0,0,1,.2-.417c.15.109.321.186.466.3,0,1.264.015,2.528.024,3.792a2.38,2.38,0,0,0-.014.432.748.748,0,0,1,.036.334C128.506,63.4,128.544,66.912,128.538,68.058Zm.031-10.161a5.956,5.956,0,0,1,.829-.155c.412-.054.317-.127,1.608,1.642a5.662,5.662,0,0,1,.365.59c-1.114-.631-1.205-.752-2.791-1.748C128.581,58.116,128.578,58.006,128.569,57.9Zm3.635,10c-.007.052-.043.107,0,.156a.369.369,0,0,1-.222.035c-.095,0-3.184-.025-3.293-.033,0-.026-.045-4.464-.078-5.04l.039-.03a3.152,3.152,0,0,0-.028-.458c0-.395-.033-3.51-.039-3.692.253.144.487.32.737.471.183.136.4.23.57.378l.061.012q.017.025.039.052c.137.065.252.168.385.24.095.05.178.12.274.169a.782.782,0,0,1,.17.123l.059,0c.01.017.022.034.035.052s.921.59.94.606a1.347,1.347,0,0,1,.1.574.774.774,0,0,1,.165.253c.045.393.05,2.461.061,2.981a.35.35,0,0,1-.03.131,1.555,1.555,0,0,0,.038.485C132.193,65.824,132.225,67.371,132.2,67.9Zm-.769-11.5a.923.923,0,0,1-.207-.124c.284,0,.567.041.851.057a.385.385,0,0,1,.338.287c.013.113.03.225.046.338C132.12,56.772,131.779,56.582,131.435,56.4Zm1.183,11.688q-.105,0-.207.007c-.08-.07-.044-.18-.049-.272,0-1.368-.04-2-.009-2.947l-.044-.049c0-.309-.037-3.086-.037-3.086.157-.229.18-.492.276-.426,0,.141.06,2.85.024,2.98a1.048,1.048,0,0,0,.029.459C132.6,65.865,132.622,66.976,132.618,68.087Zm.176-8.1a.364.364,0,0,0,.009-.146c.022-.033.045-.064.07-.095l.846.53a7.3,7.3,0,0,1-1.064.285C132.657,60.161,132.582,60,132.795,59.986ZM133,68.093a.425.425,0,0,1-.251-.038c-.005-.665-.023-1.33-.018-2-.012-.464,0-.929-.033-1.393.064-.033.027-.112.036-.167-.009-.081.021-.174-.035-.242,0-.028-.031-2.752-.038-2.879a.417.417,0,0,0,.13.048l.04.038c.137.054.259.145.4.189a.213.213,0,0,0,.136.069,2.919,2.919,0,0,0,.382.207,1.1,1.1,0,0,0,.271.128c.012.014.026.028.041.044a2.348,2.348,0,0,1,.278.139,9.613,9.613,0,0,1,1.128.58c.224.086.416.237.645.313.1.053.2.12.306.172a.3.3,0,0,1,.153.236c.037.147.09.289.125.436.01.069.085.113.077.187,0,.606.026,1.212.024,1.818a1.278,1.278,0,0,0-.025.432.7.7,0,0,1,.047.36c.006.447.014.895.021,1.342C135.562,68.109,134.283,68.088,133,68.093Zm8.3-6.392a.881.881,0,0,1,.14-.046c.015.016.031.032.049.049l.073.006a1.654,1.654,0,0,1,.057.362c.053.406.024.656.048,1.818a1.335,1.335,0,0,1-.231.062c-.038-.052-.093-.1-.1-.167a4.523,4.523,0,0,1-.037-.744C141.3,62.594,141.312,62.147,141.305,61.7ZM141.1,63.17a3.5,3.5,0,0,1-.041.529c-.076-.014-.107-.092-.156-.141a11.773,11.773,0,0,1-1.044-1.233c-.032-.03-.039-.076,0-.1.259-.126.531-.223.8-.324a4.157,4.157,0,0,1,.425-.13C141.093,62.238,141.087,62.7,141.1,63.17Zm-4-.8a6.123,6.123,0,0,1,.769.391,2.948,2.948,0,0,1-.363.131,1.573,1.573,0,0,1-.395.106c-.024-.073-.085-.133-.077-.214A.757.757,0,0,1,137.094,62.372Zm-.084-2.526a15,15,0,0,1,1.366,1.454c.026.025.072.078.008.088a5.729,5.729,0,0,1-1.375.345,2.487,2.487,0,0,1-.03-.484A7.681,7.681,0,0,1,137.01,59.846Zm1.461,2.68c-.388-.169-.763-.366-1.135-.567a.7.7,0,0,1,.3-.162,8.7,8.7,0,0,1,.942-.276,6.226,6.226,0,0,1,.534.71A6.277,6.277,0,0,1,138.471,62.527Zm.774-.031c.065-.019.119.032.164.073.138.136.285.263.413.41s.241.288.37.426c-.111-.047-1.256-.616-1.486-.745C138.887,62.611,139.06,62.533,139.245,62.5Zm-.252-1.368a6.739,6.739,0,0,1-.771-.915.771.771,0,0,1,.237.078c.492.2.987.4,1.477.61l0,.019A2.894,2.894,0,0,1,138.993,61.128Zm-.286.1a1.025,1.025,0,0,1-.068.079c-.375-.441-.755-.879-1.086-1.355.145.055.322.084.412.225A7.259,7.259,0,0,1,138.707,61.226Zm-.587,1.65a23.905,23.905,0,0,1,2.712,1.414,1.324,1.324,0,0,1,.122.232c-1.119-.437-2.243-.859-3.366-1.285-.015-.028-.028-.056-.039-.083A2.941,2.941,0,0,1,138.12,62.876Zm2.937-1.492c-.007.1-.112.147-.188.193a7.478,7.478,0,0,1-1.217.491,7.488,7.488,0,0,1-.438-.617c-.028-.034,0-.076.01-.111a7.412,7.412,0,0,1,.989-.33C140.48,61.163,140.79,61.232,141.057,61.384Zm-.937-.975c-.839-.339-1.677-.684-2.515-1.028a.4.4,0,0,1-.146-.273C137.564,59.164,140.048,60.318,140.12,60.409Zm-3.171-1.434c.063.066.124.135.182.206-.077-.03-.149-.068-.222-.1C136.922,59.045,136.9,58.98,136.95,58.975Zm4.255,9.177c-.061.031-.61-.014-2.267-.01-.629-.012-1.258-.013-1.887-.013A8.521,8.521,0,0,1,137,66.475c.069-.124.007-.28.028-.418l-.035-.05c-.031-1.762-.043-1.842.041-1.958.1-.151.158-.367.217-.385.5.169.993.384,1.495.562.254.11,1.282.466,1.959.755a3.748,3.748,0,0,1,.448.179c.031.183.029.825.036,1.155a2.031,2.031,0,0,1-.02.484,1.525,1.525,0,0,0,.036.436C141.2,67.542,141.218,67.848,141.2,68.153Zm.579-.074c0,.046-.037.1-.086.09-.124,0-.247,0-.37,0,0-.32-.005-.639-.006-.958a1.5,1.5,0,0,0,.007-.431,8.248,8.248,0,0,1-.051-1.554.3.3,0,0,1,.135.037,2.638,2.638,0,0,1,.2.593c.021.1.134.165.125.277,0,.13.032.257.026.387s.008.289,0,.433a1.585,1.585,0,0,0-.02.462.709.709,0,0,1,.043.358C141.78,67.874,141.786,67.976,141.784,68.078Zm3.867-4.042c.006.339,0,.679.011,1.018a10.952,10.952,0,0,1-.916-.942,1.49,1.49,0,0,1,.357-.176,5.076,5.076,0,0,1,.558-.22A1.4,1.4,0,0,0,145.65,64.036Zm-2.541.676c.247-.092.491-.2.739-.285.117-.041.237-.075.353-.12a8.922,8.922,0,0,1,.863,1.05c.013.061-.071.047-.1.03C144.062,65.077,143.246,64.773,143.11,64.713Zm1.6.9c0,.006,0,.018,0,.024-.258-.092-1.233-.294-1.938-.522a.75.75,0,0,1-.208-.056c.011-.049.063-.065.1-.094a4.879,4.879,0,0,0,.557.2c.074.092.2.068.3.113C143.909,65.429,144.32,65.492,144.714,65.615Zm-.075-1.116a2.311,2.311,0,0,1-.208-.24c.124.02.2.134.289.21.3.262.586.54.877.813.058.046.035.135,0,.187C145.267,65.153,144.959,64.82,144.639,64.5Zm.962-1.528c0,.171.045.339.041.51a4.544,4.544,0,0,1-.974.37c-.169.041-.3-.1-.414-.2-.131-.115-.26-.233-.384-.356.2-.076.4-.169.61-.239.236-.1.486-.155.725-.241A3.965,3.965,0,0,1,145.6,62.972Zm-1.251-.436c.175.039.336.124.51.165-.163.084-.346.122-.511.2s-.359.107-.53.186c-.224.065.022.205-1.134-1.009a.379.379,0,0,1-.113-.148C142.88,62.032,143.965,62.38,144.35,62.535Zm-2.461-.261a.507.507,0,0,1,.024-.238c0-.058,0-.115-.006-.172l.047-.031a6.21,6.21,0,0,1,1.32,1.416c.015.066-.075.073-.116.1a8.93,8.93,0,0,1-1.265.483C141.887,63.313,141.908,62.794,141.889,62.275Zm.013,1.77a2.1,2.1,0,0,1,.383-.166,5.831,5.831,0,0,1,1.2-.366,7.225,7.225,0,0,1,.578.582,3.225,3.225,0,0,1-.622.283q-.294.127-.595.236c-.24-.086-.474-.187-.713-.274-.063-.028-.163-.023-.182-.1l-.044-.012A.508.508,0,0,1,141.9,64.045Zm3.837,4.147c-.09.023.188.016-3.778-.018-.02-.023-.037-.046-.054-.068,0-.7-.032-.605.027-.712,0-.123-.006-.245,0-.367a2.193,2.193,0,0,1-.019-.432c-.009-.172.017-.342.016-.514a2.194,2.194,0,0,1,.274-.579c.291.062.583.121.87.2.257.053.505.141.763.188l.045.024c.122.015.236.066.358.086a.849.849,0,0,0,.269.057l.055.032a.226.226,0,0,1,.133.032,7.213,7.213,0,0,1,.715.194.7.7,0,0,1,.114.033c.064.116.048.267.139.372.07.075.048.18.062.273a5.163,5.163,0,0,1,.021.522c.005.1-.039.186-.042.283A.756.756,0,0,0,145.739,68.191Zm.161-5.123c.085.041.223.034.269.127-.077.112-.223.136-.325.218C145.87,63.3,145.822,63.167,145.9,63.069Zm-.044.577c.142-.064.3-.087.443-.142a1.445,1.445,0,0,1,.229-.068c.058.06.125.112.183.173a8.42,8.42,0,0,1,.072,1.836c-.174.054-.358.064-.532.115a1.9,1.9,0,0,1-.351-.276c-.05-.088-.031-.9-.059-1.527C145.839,63.718,145.83,63.676,145.856,63.645Zm.893,2.323-.085,0c-.049-.038-.1-.077-.141-.117.043-.11.161-.149.252-.21A1.98,1.98,0,0,0,146.748,65.968Zm.132,2.2c-.028.017-.053.036-.078.054a7.357,7.357,0,0,1-.941-.03.923.923,0,0,0,.03-.445.858.858,0,0,1-.029-.332c-.007-.179-.01-.358,0-.537-.01-.149.116-.255.164-.387a2.519,2.519,0,0,1,.474.112c.208.384.195.6.289.683s.058.259.093.386l-.034.05A1.727,1.727,0,0,0,146.88,68.167Zm5.029-3.252a.428.428,0,0,1,.163.314,2.982,2.982,0,0,1-.331-.273C151.8,64.941,151.851,64.927,151.909,64.915Zm-.41.14a6.221,6.221,0,0,1,.6.417,3.537,3.537,0,0,1-.034,1.089c-.089.032-.182.052-.271.08a7.335,7.335,0,0,1-.6-.439c-.108-.09-.244-.141-.346-.239-.073-.068-.157-.123-.234-.184a2.912,2.912,0,0,1,0-.488.655.655,0,0,1,.235-.1C151.427,65.033,151.46,65.021,151.5,65.055Zm-1.134,1.579-.181,0c-.329-.283-.66-.565-.97-.87.8-.218.6-.2.975.017a1.086,1.086,0,0,1,.207.149A3.241,3.241,0,0,1,150.364,66.634Zm-1.505-.956c-.468.171-.955.278-1.432.418a.412.412,0,0,1-.206.027.288.288,0,0,1-.133-.179,2.231,2.231,0,0,1-.043-.4,9.5,9.5,0,0,1,1.095-.372.234.234,0,0,1,.226.074C148.529,65.392,148.707,65.522,148.859,65.679Zm-.311-.664a.747.747,0,0,1,.055-.056,2.865,2.865,0,0,0,.36-.143,5.746,5.746,0,0,1,.6.514c.076.074-.239.145-.509.284-.161-.148-.295-.321-.45-.474A.211.211,0,0,1,148.549,65.015Zm.424.827c.059-.032.093.046.133.076a6.52,6.52,0,0,1,.6.638c-.256-.03-.511-.071-.766-.11a6.246,6.246,0,0,1-1.043-.169A6.662,6.662,0,0,1,148.972,65.842Zm1.293-.344c.012-.032.024-.063.039-.094.027-.012.056-.023.087-.033,0,.079,0,.158,0,.237A1.1,1.1,0,0,1,150.266,65.5Zm-.1-1.076a.149.149,0,0,1,.164.121c.027.191.039.384.067.575a2.692,2.692,0,0,1-.383.093c-.121.021-.184-.052-.8-.493A9.689,9.689,0,0,1,150.164,64.422Zm-1.9-.633c.27.047.525.164.8.2l.036.033a.394.394,0,0,1,.164.04.439.439,0,0,1,.136.037.32.32,0,0,1,.148.046.555.555,0,0,1,.141.037c.047,0,.129.012.081.075a4.712,4.712,0,0,1-.71.342c-.2-.135-.395-.285-.593-.425-.167-.114-.3-.265-.466-.384-.031-.026-.075-.042-.082-.084A2.852,2.852,0,0,1,148.268,63.789Zm-1.074-.19a12.5,12.5,0,0,1,1.581,1.1c-.136.029-.263.092-.4.107-.1,0-.162-.083-.232-.135-.325-.245-1-.941-1.067-1.008A.477.477,0,0,1,147.194,63.6Zm-.156.307a11.939,11.939,0,0,1,.973,1c.035.1-.259.137-.45.235a4.408,4.408,0,0,0-.523.2,6.914,6.914,0,0,1-.019-.895A3.531,3.531,0,0,1,147.038,63.907Zm.021,4.313c-.018-.022-.034-.043-.049-.064l.048-.049c-.008-.119,0-.239-.008-.358,0-.059-.073-.112-.021-.168,0-.355.083-.247.273-.727a.127.127,0,0,1,.147-.086,7.53,7.53,0,0,1,2.053.375c.174.023.334.1.508.134a.564.564,0,0,1,.128.034c.042.082.07.171.108.256a1.644,1.644,0,0,0,.175.413.483.483,0,0,1,.055.26C149.337,68.241,148.2,68.221,147.059,68.22Zm3.573-3.566a.12.12,0,0,1,.188-.046c.111.073.224.143.335.217.008.039-.047.041-.069.058-.166.064-.326.142-.5.192A1.9,1.9,0,0,1,150.632,64.654Zm.74,2.094c-.234-.027-.47-.031-.7-.066-.016-.209-.055-.417-.063-.627A4.9,4.9,0,0,1,151.372,66.748Zm.754,1.505c-.5,0-1.007,0-1.511,0a1.185,1.185,0,0,1,.259-.716c.068-.107.207-.04.309-.037a5.1,5.1,0,0,1,.667.082c.078,0,.087.09.117.145a1.424,1.424,0,0,0,.157.335.5.5,0,0,1,.06.134C152.164,68.217,152.145,68.235,152.126,68.253Zm5.427-2.04c.043.014.048.062.062.1s.1.134.02.158c-.174-.094-.345-.2-.519-.288C157.145,66.126,157.2,66.147,157.554,66.213Zm-1.183.095c.093-.021.192-.085.288-.038.227.1.464.172.685.286a3.2,3.2,0,0,1,.314.14c-.015.064-.023.14-.085.177-.1.074-.22.007-.318-.029-.224-.1-.469-.144-.691-.25-.1-.05-.189-.105-.286-.153a.679.679,0,0,1,0-.087C156.3,66.337,156.339,66.323,156.371,66.307Zm1.057,1.36c-.155.009-.31-.012-.464-.014a.572.572,0,0,1,.378-.109C157.369,67.584,157.4,67.625,157.428,67.667Zm-1.739-1.715a.9.9,0,0,1,.449.124.92.92,0,0,1-.566-.009C155.6,66.025,155.627,65.958,155.689,65.951Zm-.161.577a.936.936,0,0,1,.573.089,2.528,2.528,0,0,1,.672.361c-.115.037-.975,0-1.26,0C155.53,66.828,155.51,66.677,155.528,66.528Zm-.2.449c-1.142-.014-.933.022-1.127-.126a4.67,4.67,0,0,1,1.128-.284C155.329,66.7,155.335,66.84,155.326,66.977Zm-.057-.676a3.9,3.9,0,0,1-.717.209c-.2.048-.4.068-.6.112-.133-.123-.266-.246-.406-.36a6.147,6.147,0,0,1,1.1-.365,3.548,3.548,0,0,1,.525.272C155.218,66.2,155.33,66.228,155.269,66.3Zm-1.6.372c-1.092.18-1.068.232-1.246-.055.242-.074.486-.145.734-.195a.352.352,0,0,1,.286.093A1.454,1.454,0,0,1,153.664,66.672Zm1.462-.884c.06.018.087.081.114.132a1.168,1.168,0,0,1-.281-.1A.341.341,0,0,1,155.126,65.788Zm-.407-.2c-.03.042-.083.077-.132.045-.075-.048-.16-.08-.232-.129l-.012-.032C154.467,65.507,154.6,65.535,154.719,65.583Zm-2.211-.453c.133-.092.188-.011,1.486.5a2.143,2.143,0,0,1,.319.144,3.423,3.423,0,0,1-.647.22c-.294.056-.265.175-.715-.135-.188-.147-.391-.276-.576-.426a.634.634,0,0,1-.009-.083C152.408,65.276,152.423,65.173,152.508,65.13Zm-.157.524a5.576,5.576,0,0,1,.593.491c.03.021.014.079-.02.088-.174.071-.343.156-.522.214a1.406,1.406,0,0,1-.031-.363A4.021,4.021,0,0,1,152.351,65.654Zm5.341,2.641c-.02.048.331.037-5.3-.029-.011-.046-.02-.09-.029-.135.062-.123.134-.239.2-.36.023-.037.045-.1.1-.082a27.187,27.187,0,0,0,4.315.4c.221.017.444.019.667.02C157.677,68.17,157.738,68.232,157.691,68.3Zm.343-1.968c.259.047.516.115.777.16a7.779,7.779,0,0,0,.8.181c-.021.061-.091.065-.14.09a2.091,2.091,0,0,1-.462.108,1.038,1.038,0,0,1-.638-.063c-.147-.06-.3-.114-.441-.181C157.938,66.523,157.945,66.388,158.035,66.328Zm1.572,1.366c-.476.008-.953,0-1.429,0,.086-.237.408-.2.885-.254a.316.316,0,0,1,.2.012,2.05,2.05,0,0,1,.3.165C159.573,67.64,159.651,67.658,159.607,67.694Zm.711.64c-.2.034-.62-.018-1.407-.007-.3-.026-.595.027-.889-.025-.09-.045-.02-.186.068-.177,1.645.044,1.833.058,2.232.033C160.319,68.216,160.318,68.275,160.318,68.334Zm-.026-.742a1.36,1.36,0,0,1-.36-.091.63.63,0,0,1-.255-.112c.242-.025.485-.036.728-.041C160.392,67.434,160.4,67.565,160.292,67.592Zm.341-.243a6.826,6.826,0,0,1,1.147.071,5.125,5.125,0,0,0,.544.085c-.017.047-.073.046-.112.051-.257.017-.511.062-.768.077-.223.016-.464.109-.675,0A.274.274,0,0,1,160.634,67.348Zm1.556.767a4.169,4.169,0,0,1-.7.174,5.548,5.548,0,0,1-.835.056s0-.009,0-.012c.063-.043.03-.135.045-.2a10.865,10.865,0,0,0,1.454-.1.32.32,0,0,1,.175,0C162.316,68.093,162.234,68.09,162.19,68.115Z" transform="translate(-26.504 -24.416)"/>
</svg>
