<svg id="fNhzX7F01D" xmlns="http://www.w3.org/2000/svg" width="130.262" height="95.379" viewBox="0 0 130.262 95.379">
  <path id="path8" d="M336.33.447a1.007,1.007,0,0,0,.28.671,1,1,0,0,1,.28.652.624.624,0,0,0,.28.541c.224.075.28.541.28,2.442s-.056,2.367-.28,2.442a.74.74,0,0,0-.28.671c0,.69-.447.615-.522-.093-.037-.28-.186-.5-.336-.5-.224,0-.261.522-.261,3.076v3.076H340.8V10.346c0-2.61-.037-3.076-.28-3.076q-.28,0-.28.559t-.28.559c-.186,0-.28-.186-.28-.541a.725.725,0,0,0-.28-.652c-.224-.075-.28-.522-.28-2.4,0-1.846.056-2.367.28-2.554a.852.852,0,0,0,.28-.559.852.852,0,0,1,.28-.559c.336-.28.373-1.118.056-1.118-.13,0-.41.261-.615.559-.485.727-.839.727-.839,0q0-.559-.28-.559t-.28.559c0,.727-.354.727-.839,0-.447-.671-.839-.727-.839-.112Z" transform="translate(-273.178)"/>
  <path id="path10" d="M261.872,75.737a1.58,1.58,0,0,1-1.51.559c-.69,0-1.007.075-1.081.28-.056.168-.354.28-.708.28a2.892,2.892,0,0,0-1.081.28,2.43,2.43,0,0,1-.8.28,14.9,14.9,0,0,0-4.232,2.237,20.232,20.232,0,0,0-5.387,6.282,2.231,2.231,0,0,1-.373.522.636.636,0,0,0-.205.5,1.246,1.246,0,0,1-.3.727c-.447.5-.205.913.559.913.578,0,.69-.075,1.081-.895.391-.783.5-.876,1.118-.932.652-.056.708-.019,1.174.876.373.764.559.951.932.951.391,0,.466-.093.466-.559,0-.522.056-.559.634-.559a1.627,1.627,0,0,0,.932-.28,1.085,1.085,0,0,1,.652-.28c.485,0,.634-.28.3-.559a.9.9,0,0,1-.28-.578.541.541,0,0,0-.205-.447,1.593,1.593,0,0,1-.41-1.379c.149-.578.895-.5,1.808.205,1.025.82,1.491,1.417,1.6,2.088.075.447.205.6.559.634a.9.9,0,0,1,.615.336c.093.168.485.261,1.156.261.951,0,1.007.019,1.063.5.037.41.149.522.522.522.354,0,.485-.112.559-.578.186-.857.336-1.007,1.007-1.007.69,0,1.007.28,1.212,1.044.13.5.13.5,1.808.5,1.864,0,2.125-.075,2.125-.69,0-.578.335-.858,1.044-.858.652,0,.969.28,1.174,1.063.186.708.969.746,1.137.056.093-.41.224-.466,1.025-.522a1.736,1.736,0,0,0,1.156-.354.991.991,0,0,1,.652-.317c.354-.019.447-.149.485-.671.056-.671.447-1.118,1.808-2.162.783-.578,1.473-.541,1.547.093a3.876,3.876,0,0,1-.858,2.106c-.336.391-.149.708.429.708a.649.649,0,0,1,.541.28c.056.186.354.28.857.28.708,0,.746.037.746.559,0,.466.075.559.466.559.354,0,.522-.168.82-.839.6-1.361,1.715-1.4,2.349-.056.336.708.466.8,1.081.858.82.075,1.1-.336.615-.876a1.154,1.154,0,0,1-.3-.634.485.485,0,0,0-.168-.391,5.071,5.071,0,0,1-.671-1.081,19,19,0,0,0-4.791-5.667,9.28,9.28,0,0,0-1.156-.82,6.767,6.767,0,0,1-.913-.559,3.6,3.6,0,0,0-1.063-.559,1.962,1.962,0,0,1-.708-.261,10.154,10.154,0,0,0-2.8-.858.59.59,0,0,1-.522-.28c-.075-.205-.391-.28-1.081-.28a1.58,1.58,0,0,1-1.51-.559l-.541-.559h-5.63l-.541.559Z" transform="translate(-200.118 -61.164)"/>
  <path id="path12" d="M187.712,121.706c-.075.093,0,.336.168.522a1.154,1.154,0,0,1,.3.634.6.6,0,0,0,.3.466c.466.261.28,1.417-.242,1.491a1.1,1.1,0,0,0-.615.336,1.361,1.361,0,0,1-.876.261c-.391,0-.671.112-.727.28a.471.471,0,0,1-.373.28c-.205,0-.261.317-.261,1.268,0,1.174.037,1.3.559,1.715.6.5.764,1.379.28,1.566-.168.056-.28.336-.28.746,0,.578-.224.858-1.79,2.423a13.507,13.507,0,0,1-1.957,1.79c-.41,0-.056-.466,1.51-2.013,1.491-1.491,1.678-1.734,1.678-2.349,0-.466.075-.671.28-.671.485,0,.317-.82-.28-1.3-.466-.41-.541-.6-.559-1.454,0-.876-.056-1.007-.466-1.156a1.17,1.17,0,0,1-.6-.5,2.831,2.831,0,0,0-.485-.764l-.391-.41-.429.41a1.354,1.354,0,0,0-.429.839v.447l-2.461-.056-2.479-.056-.093-1.025-.093-1.025-.708-.056c-.41-.037-.764-.186-.82-.336-.13-.354-.354-.336-.8.112-.3.3-.373.615-.373,1.566,0,.82-.093,1.249-.28,1.417-.205.168-.28.82-.317,2.945-.056,2.274-.112,2.74-.336,2.759a19.469,19.469,0,0,0-6.748,1.883,2.261,2.261,0,0,1-.746.242,1.538,1.538,0,0,0-.69.429l-.41.447.708.466a1.7,1.7,0,0,0,1.379.391c.391-.056.746,0,.8.112a.61.61,0,0,0,.466.205,1.264,1.264,0,0,1,.727.429c.317.336.41.69.447,1.995l.056,1.585h9.88v-.466c0-.41-.093-.485-.746-.559l-.746-.093-.056-3.71c-.037-3.6-.037-3.728.373-4.157a2.668,2.668,0,0,1,2.964-.019l.559.429-.056,1.715c-.037,1.529-.019,1.752.317,2.013.373.28.354.3-.224.8a1.79,1.79,0,0,0-.615.82.81.81,0,0,1-.28.522.852.852,0,0,0-.28.559.852.852,0,0,1-.28.559c-.186.149-.28.578-.28,1.23v1.007l-5.257.037-5.276.056-.056.988c-.037.746.019,1.007.224,1.081.224.093.3.391.3,1.193,0,1.063-.019,1.1-.5,1.156-.391.037-.541.168-.578.522a1.069,1.069,0,0,1-.354.652c-.186.149-.242.5-.205,1.4l.056,1.212,8.016.037c4.418.037,8.128-.019,8.258-.112.168-.093.317-.82.41-1.995a16.529,16.529,0,0,1,.858-4.493,2.989,2.989,0,0,0,.261-.764,3.519,3.519,0,0,1,.317-.82c.168-.336.429-.876.578-1.174a19.081,19.081,0,0,1,2.349-3.411,11.019,11.019,0,0,1,2.964-2.274.815.815,0,0,0,.5-.28.815.815,0,0,1,.5-.28,2.011,2.011,0,0,0,.671-.224c.876-.5,2.573-.764,5.313-.839,2.349-.056,2.908-.019,3.244.224a1.8,1.8,0,0,0,.82.28,2.5,2.5,0,0,1,.932.28,2.643,2.643,0,0,0,.858.28.53.53,0,0,1,.429.205,2.23,2.23,0,0,0,.522.373,12.8,12.8,0,0,1,5.145,5.331,19.978,19.978,0,0,1,.839,1.883,10.564,10.564,0,0,1,.876,2.778,11.086,11.086,0,0,0,.354,1.454,7.743,7.743,0,0,1,.186,1.957c0,1.379.037,1.491.429,1.585.224.056,3.971.075,8.333.056l7.923-.056.056-1.212c.037-.895-.019-1.249-.205-1.4a1.069,1.069,0,0,1-.354-.652c-.037-.354-.186-.485-.559-.522-.5-.056-.522-.093-.522-1.156,0-.8.075-1.1.3-1.193.205-.075.261-.336.224-1.081l-.056-.988-5.257-.056-5.276-.037v-.578a2.552,2.552,0,0,0-.261-1.063c-.149-.28-.447-.876-.671-1.342a13.14,13.14,0,0,0-.764-1.4c-.578-.913-.615-1.063-.3-1.249.261-.13.317-.485.317-1.864,0-1.491.056-1.734.429-2.125a2.605,2.605,0,0,1,2.983-.019l.5.429v3.542c0,2.5-.075,3.616-.224,3.766a1.434,1.434,0,0,1-.858.224c-.559,0-.615.037-.559.5l.056.522h9.88l-.056-1.361c-.056-1.6.261-2.386,1.044-2.573a2.349,2.349,0,0,0,.746-.317,1.569,1.569,0,0,1,.895-.075,1.355,1.355,0,0,0,1.3-.391l.615-.485-.391-.429a1.279,1.279,0,0,0-.671-.429,1.981,1.981,0,0,1-.746-.261,20.1,20.1,0,0,0-6.394-1.79c-.3,0-.6-.112-.634-.242-.037-.112-.112-1.379-.149-2.8a8.376,8.376,0,0,0-.28-2.778,2.934,2.934,0,0,1-.224-1.4c0-.932-.075-1.249-.373-1.547-.447-.447-.671-.466-.82-.093-.056.168-.336.28-.746.28-.783,0-.858.112-.932,1.249l-.037.895-2.461.056-2.461.056v-.447a1.354,1.354,0,0,0-.429-.839l-.429-.41-.41.429a1.545,1.545,0,0,0-.41.82c0,.3-.13.41-.5.466-.485.056-.522.112-.578,1.063-.056.839-.149,1.081-.615,1.491-.578.5-.746,1.324-.261,1.324.186,0,.28.186.28.634,0,.578.205.858,1.678,2.312,1.547,1.529,1.957,2.088,1.51,2.088a13.506,13.506,0,0,1-1.957-1.79c-1.659-1.64-1.79-1.827-1.79-2.517,0-.485-.075-.727-.261-.727-.13,0-.3-.186-.354-.41-.093-.317.037-.559.522-.988.615-.541.652-.634.652-1.827,0-.951-.056-1.249-.261-1.249a.471.471,0,0,1-.373-.28c-.056-.186-.354-.28-.839-.28-.447,0-.764-.093-.82-.261a.726.726,0,0,0-.541-.336c-.336-.037-.447-.186-.485-.727a1.083,1.083,0,0,1,.224-.913.839.839,0,0,0,.3-.578.631.631,0,0,1,.3-.5c.168-.093.261-.261.186-.391-.186-.3-.348-.232-.485.075-.066.149-.088.213-.186.28a5.307,5.307,0,0,0-.82.615,1.962,1.962,0,0,0-.708,1.361c-.037.559-.149.746-.429.783a1.64,1.64,0,0,0-.652.317,2.59,2.59,0,0,1-1.212.317c-.857.056-.932.093-.988.559-.056.5-.093.522-1.174.522h-1.1V125.7c0-.8-.019-.839-.559-.839s-.559.037-.559.839v.839h-5.033V125.7c0-.8-.019-.839-.541-.839s-.559.056-.615.783l-.056.8h-1.118c-1.063,0-1.118-.019-1.118-.466,0-.429-.075-.466-.932-.522a2.589,2.589,0,0,1-1.212-.317,1.64,1.64,0,0,0-.652-.317c-.28-.037-.391-.224-.429-.746s-.242-.858-.895-1.435a3.955,3.955,0,0,1-.82-.951c0-.242-.317-.242-.466.019Z" transform="translate(-133.974 -98.857)"/>
  <path id="path14" d="M83.763,184.112a2.076,2.076,0,0,1-.932.075,2.26,2.26,0,0,0-1.212.466,3.37,3.37,0,0,1-1.156.559,1.584,1.584,0,0,0-.839.559,1.6,1.6,0,0,1-.82.559c-.764,0-.932.69-.876,3.747l.056,2.871H90.66v-3.262c0-3.169,0-3.244-.41-3.355a1.814,1.814,0,0,1-.783-.578,1.941,1.941,0,0,0-.895-.634,3.491,3.491,0,0,1-1.063-.522,2.655,2.655,0,0,0-1.324-.429,8.819,8.819,0,0,1-1.3-.13,2.552,2.552,0,0,0-1.118.075Z" transform="translate(-63.393 -149.705)"/>
  <path id="path16" d="M557.084,184.09a2.2,2.2,0,0,1-.969.075,1.043,1.043,0,0,0-.913.28,4.054,4.054,0,0,1-1.212.578,1.929,1.929,0,0,0-1.044.671,1.9,1.9,0,0,1-.746.652l-.429.168.037,3.206.056,3.225H564.54l.056-2.852c.037-2.367,0-2.908-.261-3.3a.973.973,0,0,0-.615-.466,1.824,1.824,0,0,1-.858-.559,1.73,1.73,0,0,0-.839-.559,2.675,2.675,0,0,1-1.044-.5,3.172,3.172,0,0,0-1.38-.522c-.354-.019-.951-.093-1.3-.149A3.282,3.282,0,0,0,557.084,184.09Z" transform="translate(-448.912 -149.701)"/>
  <path id="path18" d="M286.89,187.751a1.358,1.358,0,0,1-.876.28,2.757,2.757,0,0,0-1.137.261c-.28.13-.913.447-1.4.69a7.65,7.65,0,0,0-2.722,1.808,16.388,16.388,0,0,0-2.628,3.355,6.308,6.308,0,0,1-.559,1.212,5.067,5.067,0,0,0-.559,1.491,1.027,1.027,0,0,1-.205.634,3.5,3.5,0,0,0-.354,1.193c-.093.559-.261,1.4-.373,1.864a8.19,8.19,0,0,0-.149,1.957l.056,1.1,1.585.056c1.137.037,1.622.13,1.734.317a.64.64,0,0,0,.522.28,1.916,1.916,0,0,1,.727.224c.6.373.783-.037.876-1.827a5.379,5.379,0,0,1,.354-2.013,8.736,8.736,0,0,1,.783-1.752,8.958,8.958,0,0,1,2.256-2.535c1.92-1.137,3.115-1.679,3.115-1.176,0,.3-1.418,1.25-1.866,1.25a9.152,9.152,0,0,0-2.237,1.827,5.448,5.448,0,0,0-1.23,2.144,2.875,2.875,0,0,1-.28.839,4,4,0,0,0-.242,1.939l.056,1.361h14.913l.056-1.081a8.38,8.38,0,0,0-.969-3.877,7.074,7.074,0,0,0-3.281-3.188c-1.3-.615-2.146-1.269-1.345-1.269.932,0,3.451,1.567,4.365,2.816a9.4,9.4,0,0,1,1.156,1.752c.019.093.168.485.3.839a8.521,8.521,0,0,1,.317,1.957c.093,1.808.186,2.144.615,2.144a.638.638,0,0,0,.466-.186c.056-.112.317-.186.559-.186a.734.734,0,0,0,.6-.28c.112-.186.6-.28,1.734-.317l1.585-.056.056-.913a7.111,7.111,0,0,0-.149-1.771c-.112-.466-.28-1.286-.373-1.79a11.459,11.459,0,0,0-.839-2.8c-.149-.317-.391-.895-.559-1.3a9.411,9.411,0,0,0-.485-1.025c-.093-.149-.224-.41-.3-.559a12.1,12.1,0,0,0-5-4.549c-.41-.205-.969-.466-1.249-.615a2.651,2.651,0,0,0-.969-.242.658.658,0,0,1-.6-.28c-.093-.224-.6-.28-2.871-.28-2.218,0-2.8.056-2.983.28Zm4.475,7.289c0,.224-.486.261-1.753.261-1.454,0-1.957-.13-1.659-.447a7.575,7.575,0,0,1,1.678-.112C290.879,194.741,291.365,194.816,291.365,195.04Z" transform="translate(-224.483 -152.524)"/>
  <path id="path20" d="M40.748,198.842l-.652.112-.056,3.579-.037,3.6h-.447a1.007,1.007,0,0,1-.671-.28c-.205-.242-1.081-.28-5.872-.28s-5.667.037-5.872.28a1.007,1.007,0,0,1-.671.28h-.447l-.037-3.6-.056-3.579-.82-.056c-1.156-.093-1.678.093-1.883.615-.149.373-.317.466-.82.466-.913,0-1.23.168-1.23.652a2.061,2.061,0,0,1-.485,1.007c-.447.541-.578.578-1.659.578-1.118,0-1.212.037-1.435.5-.186.41-.391.541-.951.578-.541.056-.69.13-.69.429a2.631,2.631,0,0,1-.28.913c-.242.447-.242.615-.056.932a.567.567,0,0,1,0,.746,2.073,2.073,0,0,0-.224.839,3.256,3.256,0,0,1-.3,1.1c-.5,1.025-.3,1.23,1.212,1.23h1.286l-.093-1.118-.112-1.118h4.194c3.5,0,4.25-.037,4.437-.28a1.283,1.283,0,0,1,.839-.28,1.283,1.283,0,0,0,.839-.28c.186-.242.969-.28,4.754-.28s4.567.037,4.754.28a1.283,1.283,0,0,0,.839.28,1.283,1.283,0,0,1,.839.28c.205.242.82.28,3.989.242l3.747-.056v-6.525l-.429-.056a.726.726,0,0,1-.541-.336c-.13-.354-.988-.336-1.249.037-.186.242-.28.205-.764-.28a2.006,2.006,0,0,0-.839-.578,1.056,1.056,0,0,1-.615-.373C41.847,198.656,41.81,198.656,40.748,198.842Z" transform="translate(-12.082 -161.676)"/>
  <path id="path22" d="M517.652,199.063a.672.672,0,0,1-.522.391,1.958,1.958,0,0,0-.876.578c-.485.485-.578.522-.764.28a.73.73,0,0,0-1.137-.037.9.9,0,0,1-.615.336l-.466.056v6.525l3.467.056c2.927.037,3.5,0,3.71-.242a1.556,1.556,0,0,1,1.119-.28,1.653,1.653,0,0,0,1.118-.28c.186-.242.969-.28,4.754-.28s4.567.037,4.754.28a1.283,1.283,0,0,0,.839.28,1.283,1.283,0,0,1,.839.28c.186.224.988.28,4.362.317l4.12.056.056.69c.037.541-.019.727-.336.895-.671.354-.205.559,1.324.559,1.678,0,1.939-.205,1.4-1.118a2.541,2.541,0,0,1-.3-1.063,1.951,1.951,0,0,0-.28-.932c-.242-.336-.242-.485-.056-.783a.788.788,0,0,0,0-.857,2.519,2.519,0,0,1-.224-.932c0-.373-.093-.447-.69-.5-.559-.037-.764-.168-.951-.578-.224-.466-.317-.5-1.417-.5-1.007,0-1.23-.056-1.6-.466a3.228,3.228,0,0,1-.652-1.081c-.168-.522-.28-.615-.988-.69-.615-.075-.857-.205-1.025-.559-.224-.429-.336-.466-1.435-.466h-1.212l-.056,3.579-.037,3.6h-.447a1.007,1.007,0,0,1-.671-.28c-.205-.242-1.081-.28-5.872-.28s-5.667.037-5.872.28a1.007,1.007,0,0,1-.671.28h-.447v-3.523a25.611,25.611,0,0,0-.13-3.616,4.4,4.4,0,0,0-1.025-.205c-.764-.112-.895-.075-1.081.242Z" transform="translate(-417.589 -161.711)"/>
  <path id="path24" d="M55.3,241.629a2.062,2.062,0,0,1-1.063.28c-.447,0-.746.093-.8.28-.093.224-.6.28-2.889.28-2.628,0-2.778.019-2.778.354,0,.224.336.615.82.951l.82.6.075,1.566a5.165,5.165,0,0,0,.28,1.771c.41.41,7.475-.112,7.96-.6a12.23,12.23,0,0,1,2.666-.168c2.088,0,2.479.037,2.479.28s.6.28,4.716.242l4.7-.056.056-1.3a3.626,3.626,0,0,1,.317-1.585,1.928,1.928,0,0,0,.317-.839c.037-.41.168-.578.485-.615.224-.037.41-.186.41-.336,0-.224-.69-.261-4.306-.261-3.561,0-4.343-.056-4.567-.28a1.4,1.4,0,0,0-.82-.28,2.728,2.728,0,0,1-1.044-.28C62.349,241.218,55.843,241.218,55.3,241.629Z" transform="translate(-38.866 -196.335)"/>
  <path id="path26" d="M521.4,241.629c-.149.186-.578.28-1.249.28-.708,0-1.025.075-1.1.28-.093.242-.746.28-4.194.28-3.411,0-4.083.037-4.083.261,0,.149.186.3.429.336.317.037.429.186.466.708a1.476,1.476,0,0,0,.317.857c.168.13.28.652.317,1.491l.056,1.286,4.437.056c3.84.037,4.418,0,4.418-.242s.429-.28,2.8-.28c2.4,0,2.8.037,2.8.3,0,.205.149.28.522.242,1.324-.093,2.274.019,2.274.3,0,.242.466.28,3.076.28h3.076V246.1c0-1.622.056-1.957.28-1.957a.271.271,0,0,0,.28-.261.436.436,0,0,1,.3-.373.455.455,0,0,0,.224-.522c-.056-.429-.112-.429-2.759-.485-2.144-.037-2.722-.112-2.852-.317-.075-.168-.41-.28-.764-.28a2.93,2.93,0,0,1-1.156-.28C528.518,241.218,521.732,241.218,521.4,241.629Z" transform="translate(-415.555 -196.335)"/>
  <path id="path28" d="M33,247.751a.747.747,0,0,0,.205.634,1.147,1.147,0,0,1,.3.652c0,.186.261.429.615.578.895.373,1.044.615,1.1,1.957l.056,1.212h1.491l.056-1.379.056-1.361-.783-.671a4.294,4.294,0,0,1-1.025-1.286c-.242-.559-.336-.615-1.1-.615C33.373,247.471,33.093,247.564,33,247.751Z" transform="translate(-26.835 -201.339)"/>
  <path id="path30" d="M649.02,247.682a1.024,1.024,0,0,0-.13.559,1.275,1.275,0,0,1-.559.858c-.541.391-.559.447-.559,1.939,0,1.771.093,2.125.559,2.125.447,0,.559-.354.559-1.7,0-.858.056-1.1.28-1.1a.287.287,0,0,0,.28-.28q0-.28.559-.28c.5,0,.559-.056.559-.559,0-.391.093-.559.3-.559s.261-.149.224-.522c-.056-.466-.13-.5-.988-.559A2.529,2.529,0,0,0,649.02,247.682Z" transform="translate(-527.017 -201.438)"/>
  <path id="path32" d="M657.889,259.751q0,.28-.559.28h-.559v1.4c0,1.081.075,1.435.28,1.51a.659.659,0,0,1,.28.559c0,.447,0,.447,2.237.447,2.088,0,2.237-.019,2.237-.354a6.6,6.6,0,0,1,1.4-1.827c.895-.932,1.4-1.6,1.4-1.864v-.429h-3.355C658.393,259.471,657.889,259.508,657.889,259.751Z" transform="translate(-534.339 -211.102)"/>
  <path id="path34" d="M.771,260.833c0,.466.317.932,1.286,1.9a12.143,12.143,0,0,1,1.212,1.379c.317.485.373.5,2.33.5H7.631l.3-.82a4.373,4.373,0,0,0,.261-1.7c-.093-1.4-.466-1.529-4.288-1.547-2.722-.019-3.132.019-3.132.28Z" transform="translate(-0.627 -211.979)"/>
  <path id="path36" d="M87.533,274.732c0,.168-.373.28-1.23.354a2.6,2.6,0,0,0-1.4.336c-.093.149-.149,4.362-.112,9.4l.037,9.134h2.051l.056-4.437.037-4.418h1.678l.037,4.418.056,4.437h1.622l.019-4.381.037-4.381h3.169v9.321l-4.66.093-4.66.093v1.491l4.94.112c2.722.056,5.164.168,5.425.242,1.007.3,1.752-.764,1.007-1.38-.242-.205-.28-1.622-.317-10.141l-.056-9.9-1.342-.056c-1.044-.037-1.361-.112-1.361-.317,0-.224-.429-.28-2.517-.28C88.055,274.471,87.533,274.527,87.533,274.732Zm5.648,2.367.69.186v2.144c0,2.349.01,1.822-.013,2.3-1.178.04-2.342.012-3.137-.029-.261-.056-.3-.373-.3-2.293v-2.237l.559-.112A3.989,3.989,0,0,1,93.182,277.1Zm-4.138,1.417c.056,1.864-.056,2.945-.28,3.095a2.4,2.4,0,0,1-.951.093l-.746-.056-.056-1.864-.056-1.883.615-.186a5.471,5.471,0,0,1,1.044-.242C88.987,277.454,89.025,277.528,89.043,278.516Z" transform="translate(-68.562 -223.305)"/>
  <path id="path38" d="M554.567,274.751c0,.186-.28.28-1.063.317l-1.081.056-.056,9.9c-.037,8.519-.075,9.936-.317,10.141a1,1,0,0,0-.28.652c0,.615.447.913,1.156.746.336-.075,2.834-.186,5.555-.261l4.94-.112.056-.783.056-.8-4.716-.037-4.716-.056V285.19h2.983l-.056,4.325-.075,4.325.466.112a2.888,2.888,0,0,0,.988.056l.541-.056.056-4.437.037-4.437.8.056.783.056.093,4.381.093,4.381,1.081.056,1.063.056V275.03h-1.4c-1.118,0-1.4-.056-1.4-.28,0-.242-.429-.28-2.8-.28C555.052,274.471,554.567,274.508,554.567,274.751Zm2.628,2.442a8.239,8.239,0,0,1,.168,2.237c0,1.474.029,1.595.062,2.369-1.369.022-2.6.367-3.577-.046a13.2,13.2,0,0,1,.067-4.485,2.086,2.086,0,0,1,.652-.242,7.8,7.8,0,0,1,2.628.168Zm2.684.522.746.261v3.672l-.8.056c-1.212.093-1.342-.112-1.342-2.013C558.482,277.3,558.519,277.249,559.88,277.715Z" transform="translate(-448.912 -223.305)"/>
  <path id="path40" d="M146.9,277.716c-.075.075-.13,4.437-.13,9.675,0,8.128.037,9.582.28,9.787a2.223,2.223,0,0,1,.317,1.174l.056.969h1.3c1.23,0,1.3-.019,1.361-.447a1.849,1.849,0,0,1,.615-.895l.541-.466v-8.445c0-7.2-.037-8.482-.261-8.612-.186-.112-.3-.559-.336-1.454l-.056-1.3-1.771-.056A8.4,8.4,0,0,0,146.9,277.716Z" transform="translate(-119.411 -225.88)"/>
  <path id="path42" d="M161.248,319.252c.06-2.013.409-2.5.466-.671.017.559.037,1.137.037,1.249a.3.3,0,0,0,.3.242c.242,0,.28-.932.28-7.252,0-6.264-.037-7.27-.28-7.363a.646.646,0,0,1-.28-.578c0-.3-.112-.466-.28-.466-.242,0-.28.82-.28,6.319,0,5.8-.093,6.972-.466,6.357m0,0c-.056-.093-.112-3.672-.112-7.941.019-6.562.056-7.811.3-8.146a2.511,2.511,0,0,0,.28-1.156,1.477,1.477,0,0,0-.559-1.3l-.559-.541v-9.078c0-8.035.037-9.1.3-9.19.205-.075.261-.336.224-1.081l-.056-.988-.932-.056a2.529,2.529,0,0,0-1.081.075c-.261.261-.149,1.939.149,2.051.242.093.28,1.3.28,9.246v9.116l-.541.5a2.222,2.222,0,0,0-.615.876c-.037.28-.242.392-.8.466l-.746.093-.056.969a2.223,2.223,0,0,1-.317,1.174c-.429.354-.41,15.323,0,15.659.205.168.28.615.28,1.622,0,.932.075,1.4.242,1.454.112.037,1.249.112,2.5.149l2.274.056.056-1.864" transform="translate(-126.58 -225.845)"/>
  <path id="path44" d="M186.08,277.634c-.075.112.056.354.3.559.391.317.913.336,7.736.336s7.345-.019,7.736-.336c.242-.205.373-.447.3-.559C201.962,277.317,186.266,277.317,186.08,277.634Z" transform="translate(-151.375 -225.685)"/>
  <path id="path46" d="M276,277.809c-.056.13-.075,4.138-.056,8.911l.056,8.668h2.051l.037-7.363c.019-4.045.037-7.419.056-7.513,0-.075.13-.13.28-.13.242,0,.28-.242.242-1.361l-.056-1.342-1.268-.056C276.444,277.585,276.052,277.641,276,277.809Z" transform="translate(-224.495 -225.861)"/>
  <path id="path48" d="M407.9,277.682a4.009,4.009,0,0,0-.13,1.3c0,.839.075,1.212.28,1.324.242.13.28,1.249.317,7.606l.056,7.457h2.051V277.663l-1.212-.056A3.872,3.872,0,0,0,407.9,277.682Z" transform="translate(-331.756 -225.845)"/>
  <path id="path50" d="M425.944,277.6c-.205.186-.149.373.168.69.242.261,1.212.3,7.718.3,6.916,0,7.438-.019,7.829-.336.913-.746.522-.783-7.718-.783C429.616,277.471,426,277.527,425.944,277.6Z" transform="translate(-346.443 -225.746)"/>
  <path id="path52" d="M513.4,277.79a2.5,2.5,0,0,0,.205,1.957c.242.186.28,1.435.28,9.283v9.078l-.559.485c-.485.41-.559.578-.559,1.454,0,.634.093,1.063.28,1.212.242.205.28,1.3.28,7.923s-.037,7.718-.28,7.923c-.224.186-.28.671-.28,2.144v1.9l2.2.019a13.476,13.476,0,0,0,2.442-.13,3.5,3.5,0,0,0,.317-1.585,3.726,3.726,0,0,1,.354-1.734c.41-.41.41-15.249.019-15.473-.168-.093-.3-.522-.336-1.174l-.056-1.025-.783-.056c-.708-.056-.8-.112-.8-.5a1.338,1.338,0,0,0-.559-.895l-.559-.485v-9.023c0-7.923.037-9.06.28-9.265.224-.186.28-.522.242-1.193l-.056-.951-.969-.056c-.6-.037-1.007.019-1.1.168Z" transform="translate(-417.183 -225.86)"/>
  <path id="path54" d="M528.461,277.716a3.863,3.863,0,0,0-.13,1.286c0,.8-.093,1.23-.28,1.4-.242.205-.28,1.4-.28,8.668v8.445l.541.466a1.849,1.849,0,0,1,.615.895c.056.429.13.447,1.361.447h1.3l.056-1.007a1.935,1.935,0,0,1,.336-1.212c.224-.168.261-1.585.224-9.805l-.056-9.6-1.771-.056A8.4,8.4,0,0,0,528.461,277.716Z" transform="translate(-429.386 -225.88)"/>
  <path id="path56" d="M37.179,280.682c-.224.224-.149.6.205.932.3.3.317,1.044.373,9.3.037,8.817.037,8.985-.336,9.321a1.153,1.153,0,0,0-.373.5,3.963,3.963,0,0,1-.559.932c-.671.932-.69,1.081-.093,1.64l.447.429v9.787c0,5.369.037,9.824.093,9.861a11.831,11.831,0,0,0,3.244-.019A2.22,2.22,0,0,0,40.4,322.1a2.8,2.8,0,0,1,.559-1.957l.559-.82v-7.009c0-5.8-.037-7.065-.261-7.308a3.852,3.852,0,0,1-.429-1.417c-.13-.969-.205-1.119-.578-1.174-.391-.056-.485-.28-.429-1.063a1.59,1.59,0,0,0-.541-.932l-.559-.541v-8.724c0-7.643.037-8.8.3-9.19a1.541,1.541,0,0,0,.224-.876c-.056-.373-.168-.429-.988-.485a2.53,2.53,0,0,0-1.081.075Z" transform="translate(-29.261 -228.286)"/>
  <path id="path58" d="M55.286,280.767a.393.393,0,0,0-.112.466,1.5,1.5,0,0,1-.186.895c-.242.5-.3,1.734-.3,9l-.019,8.407.466.391a1.59,1.59,0,0,1,.522,1.119l.056.727,1.4-.056a6.229,6.229,0,0,0,1.9-.336c.429-.224.485-.354.466-1.118-.037-.615.056-.913.3-1.081.3-.242.317-.839.28-9.358L60,280.711l-2.237-.056A12.851,12.851,0,0,0,55.286,280.767Z" transform="translate(-44.479 -228.334)"/>
  <path id="path60" d="M291.569,280.943a3.027,3.027,0,0,0-.13,1.118c0,.69-.075,1.007-.28,1.081-.242.093-.28,1.044-.242,7.513l.056,7.419h2.61V281.484l-.727-.056a1.642,1.642,0,0,1-.951-.336C291.793,280.943,291.644,280.869,291.569,280.943Z" transform="translate(-236.675 -228.547)"/>
  <path id="path62" d="M615.809,280.763c-.2.336-.149,18.082.056,18.474a2.919,2.919,0,0,1,.205,1.118c0,1.081.541,1.4,2.4,1.417h1.417l.056-.708a2.167,2.167,0,0,1,.522-1.193l.447-.485v-4.735c0-3-.012-7.069-.168-10.048a4.967,4.967,0,0,1-.28-1.566c-.186-2.61.112-2.33-2.386-2.386a8.926,8.926,0,0,0-2.274.112Z" transform="translate(-500.908 -228.329)"/>
  <path id="path64" d="M634.751,280.825a1.741,1.741,0,0,0,.429,1.4c.093.056.186,3.747.205,8.818l.037,8.724-.559.429a1.328,1.328,0,0,0-.615,1.193c-.056.671-.13.8-.522.895-.41.093-.466.224-.522,1.118a3.525,3.525,0,0,1-.335,1.38c-.41.578-.392,14.689.019,15.025a.786.786,0,0,1,.28.466.786.786,0,0,0,.28.466c.168.13.28.652.317,1.454l.056,1.249,1.454.056a3.561,3.561,0,0,0,1.734-.168c.224-.186.261-1.808.261-9.936v-9.75l.466-.429a1.587,1.587,0,0,0,.466-.615,11.439,11.439,0,0,0-1.659-2.517c-.242-.205-.28-.932-.224-5.518-.247-3.187-.006-6.572.019-9.526,0-2.349.056-3.076.28-3.374a1.477,1.477,0,0,0,.28-.783c0-.373-.093-.41-1.007-.41C635.05,280.471,634.845,280.527,634.751,280.825Z" transform="translate(-514.649 -228.187)"/>
  <path id="path66" d="M394.855,281.639c0,.112-.354.205-.783.242l-.8.056v16.591h2.61l.056-7.419c.037-6.469,0-7.419-.242-7.513-.205-.093-.28-.392-.28-1.118,0-.764-.075-1.007-.28-1.007C394.986,281.471,394.855,281.546,394.855,281.639Z" transform="translate(-319.959 -229)"/>
  <path id="path68" d="M309.29,283.673c-.056.093.019.261.168.391a.951.951,0,0,1,.28.634,1.335,1.335,0,0,0,.149.6,1.133,1.133,0,0,0,1.361.149.7.7,0,0,1,.485-.261c.205,0,.242.317.205,1.622-.056,1.6-.075,1.64-.522,1.64-.28,0-.485.13-.522.336s-.242.317-.615.317h-.541v-1.7c0-1.268-.056-1.678-.224-1.622-.186.075-.242.671-.242,2.218v2.125h14.913V288c0-1.547-.056-2.144-.224-2.218-.186-.056-.242.354-.242,1.622v1.7h-.541c-.373,0-.559-.112-.634-.373s-.224-.354-.541-.336c-.41.056-.429.019-.485-1.585-.037-1.4-.019-1.622.261-1.622a.472.472,0,0,1,.391.373c.075.261.168.317.317.205a1.637,1.637,0,0,1,.671-.242c.354-.037.485-.186.522-.615a1.8,1.8,0,0,1,.336-.857c.149-.168.205-.354.13-.41C323.961,283.45,309.4,283.487,309.29,283.673Zm3.952,3.523c.056,1.808.037,1.9-.336,1.9-.354,0-.373-.112-.373-1.976,0-1.771.037-1.957.336-1.9C313.148,285.277,313.186,285.538,313.242,287.2Zm7.68-.056c0,1.79-.037,1.957-.354,1.957-.466,0-.578-.354-.578-1.771,0-1.361.242-2.144.652-2.144C320.866,285.183,320.922,285.519,320.922,287.141Z" transform="translate(-251.618 -230.662)"/>
  <path id="path70" d="M12.771,286.617c0,.205.317.28,1.361.317l1.342.056.093,9.973c.093,9.712.112,9.973.447,9.973.261,0,.41-.186.522-.6A4.075,4.075,0,0,1,17.431,305l.746-.746V295.6c0-8.146-.019-8.668-.336-8.948C17.357,286.207,12.771,286.188,12.771,286.617Z" transform="translate(-10.39 -232.935)"/>
  <path id="path72" d="M186,286.809c-.056.13-.075,4.138-.056,8.911l.056,8.668h.932l.056-8.2c.037-7.214.075-8.221.336-8.426a.713.713,0,0,0,.224-.652c-.037-.354-.186-.447-.764-.485-.447-.037-.727.019-.783.186Z" transform="translate(-151.273 -233.183)"/>
  <path id="path74" d="M196.274,286.724a1.268,1.268,0,0,0-.13.652c0,.28-.075.578-.186.634a77.332,77.332,0,0,0-.186,8.221c0,5.276.056,8.09.186,8.09a23.288,23.288,0,0,0,.186-4.567v-4.567l.447-.112a2.794,2.794,0,0,1,.876-.037l.447.056.056,4.6.037,4.623.447.112a2.792,2.792,0,0,0,.876.037l.447-.056.093-4.66.093-4.66h2.983l.093,4.66.093,4.66H205l.056-8c.037-6.655,0-8.072-.224-8.407a2.423,2.423,0,0,1-.336-.858l-.056-.447-4.027-.056C198.213,286.631,196.349,286.669,196.274,286.724Zm7.1,2.927c.016.836.045,1.466,0,2.1-1.928-.057-2.484-.071-3.393-.147-.354-.056-.391-.186-.447-1.715a12.441,12.441,0,0,1,.037-1.92c.075-.205.522-.242,1.92-.205l1.827.056Zm-5.2-1.473a6.741,6.741,0,0,1-.019,3.225c-.205.261-.913.317-1.585.13-.41-.112-.429-.224-.429-1.659,0-1.4.037-1.547.429-1.734C197.15,287.862,197.933,287.88,198.176,288.178Z" transform="translate(-159.276 -233.21)"/>
  <path id="path76" d="M246.058,286.859a.678.678,0,0,0,.186.634c.261.28.3,1.268.336,8.333l.056,8,.429.056a1.035,1.035,0,0,0,.764-.224,3.283,3.283,0,0,1,1.7-.336l1.4-.056V286.673l-2.386-.056C246.524,286.58,246.151,286.617,246.058,286.859Z" transform="translate(-200.168 -233.177)"/>
  <path id="path78" d="M425.9,286.6c-.075.056-.13,3.84-.13,8.389v8.258h1.473c1.081,0,1.529.075,1.7.28a1.144,1.144,0,0,0,.764.28h.541v-8.035c-.019-7.252.019-8.072.3-8.389a.747.747,0,0,0,.205-.634c-.093-.224-.522-.28-2.423-.28A12.143,12.143,0,0,0,425.9,286.6Z" transform="translate(-346.401 -233.068)"/>
  <path id="path80" d="M453.569,286.611a.842.842,0,0,0-.13.522.959.959,0,0,1-.28.652c-.242.205-.28,1.3-.242,8.37l.056,8.128.541.056a3.331,3.331,0,0,0,.969-.037l.447-.112.037-4.623.056-4.6,1.435-.056,1.454-.056.037,4.716.056,4.716h1.678l.093-4.66.093-4.66.615-.056c.336-.037.46.436.895.168.109-.067.2,9.188.284,9.132a.534.534,0,0,0,.2-.249c.051-.122.086-9.594.105-9.857s.024-.616.011-1.1c-.043-1.659-.075-1.771-.429-1.715-1.976.336-1.957.354-1.957-1.659,0-1.529.168-1.846.932-1.846s1.1.5,1.007,1.473a7.979,7.979,0,0,0,.178,2.205c.2.053.1-1.422.12-2.765,0-1.64-.056-2.013-.3-2.106a66.542,66.542,0,0,0-7.96.019Zm4.81,2.945c0,1.752.008,1.493.006,1.973-1.794,0-2.657,0-3.343-.053-.354-.056-.391-.186-.447-1.715a12.439,12.439,0,0,1,.037-1.92c.075-.205.522-.242,1.92-.205l1.827.056Z" transform="translate(-368.476 -233.078)"/>
  <path id="path82" d="M503.916,286.682a1.1,1.1,0,0,0,.056,1.118,82.9,82.9,0,0,1,.224,8.37l.056,8.2h1.119V286.663l-.652-.056A1.473,1.473,0,0,0,503.916,286.682Z" transform="translate(-409.875 -233.167)"/>
  <path id="path84" d="M655.948,288c-.056.858-.112,4.828-.093,8.855.019,8.09-.075,7.438,1.249,8.836a2.3,2.3,0,0,1,.541.969c.075.391.205.5.466.466.373-.056.373-.261.354-9.955-.037-8.985,0-9.917.261-10.029a8.658,8.658,0,0,1,1.6-.112c1.025,0,1.286-.056,1.286-.28,0-.242-.429-.28-2.778-.28H656.06Z" transform="translate(-533.591 -233.068)"/>
  <path id="path86" d="M12.228,292.778c-.056.112.13.522.447.913l.578.727.037,8.817.056,8.836.522.056.5.056-.037-9.75-.056-9.75-.969-.056A1.753,1.753,0,0,0,12.228,292.778Z" transform="translate(-9.94 -238.07)"/>
  <path id="path88" d="M674.119,292.736c-.149.168-.186,2.889-.168,9.731l.056,9.489h1.118l.056-8.836.037-8.817.559-.708a2.858,2.858,0,0,0,.559-.913c0-.3-1.957-.261-2.218.056Z" transform="translate(-548.313 -237.954)"/>
  <path id="path90" d="M685.542,296.683c-.2.037-.559.112-.783.168-.242.037-.429.168-.429.28a.906.906,0,0,1-.28.466c-.242.242-.28,1.51-.28,9.041,0,7.643.037,8.743.28,8.743.28,0,.336-2.106.373-14.522,0-1.734.037-1.957.373-2.144,1.491-.839,2.181-1.79,1.473-2.051a2.742,2.742,0,0,0-.317-.093A4.079,4.079,0,0,1,685.542,296.683Z" transform="translate(-556.306 -241.286)"/>
  <path id="path92" d="M.013,297.788c-.13.317.727,1.174,1.622,1.6.429.224.466.317.429,1.529-.037.727-.037,1.547-.037,1.864.093,10.793.168,13.235.391,13.235.186,0,.261-1.715.3-8.2.019-4.511,0-8.463-.056-8.78a1.783,1.783,0,0,0-1.771-1.566c-.541,0-.783.093-.876.317Z" transform="translate(0 -242.018)"/>
  <path id="path94" d="M309.081,323.07a29.415,29.415,0,0,0-.13,4.66c.056,4.455.056,4.549.447,4.6a.744.744,0,0,0,.634-.242.669.669,0,0,1,1.1.037c.168.317.186.317.522,0,.447-.391.876-.41,1.174-.037.186.224.839.28,3.672.28,2.871,0,3.449-.037,3.523-.28a.659.659,0,0,1,.559-.28.611.611,0,0,1,.559.28.364.364,0,0,0,.708,0c.13-.373.746-.354,1.044,0a.745.745,0,0,0,.634.242c.391-.056.391-.149.447-4.511a24.05,24.05,0,0,0-.149-4.66C323.622,322.958,309.417,322.865,309.081,323.07Zm1.995,2.144c.149.578-.261,1.081-.727.895-.317-.112-.447-1.007-.186-1.249A.555.555,0,0,1,311.076,325.213Zm1.49.186c.037.447-.019.615-.317.69-.447.112-.764-.186-.764-.708s.168-.69.652-.615c.261.037.391.224.429.634Zm8.539-.373c.3.783-.075,1.324-.727,1.081-.28-.112-.392-1.025-.149-1.249a.584.584,0,0,1,.876.168Zm1.752.28a.872.872,0,0,1-.242.727c-.447.373-.932-.168-.764-.839S322.783,324.6,322.858,325.307Zm-11.744,2.7c.056,1.193-.224,1.715-.8,1.491-.205-.075-.28-.391-.28-1.286,0-1.3.075-1.473.652-1.4C311,326.873,311.057,327.022,311.113,328.01Zm1.622.168c0,1.268-.019,1.3-.466,1.3-.429,0-.466-.075-.522-1.1-.075-1.361.037-1.64.559-1.566C312.7,326.873,312.735,326.966,312.735,328.177Zm8.389,0c0,1.268-.019,1.3-.466,1.3-.429,0-.466-.075-.522-1.1-.075-1.361.037-1.64.559-1.566C321.087,326.873,321.124,326.966,321.124,328.177Zm1.678,0c0,1.268-.019,1.3-.466,1.3-.429,0-.466-.075-.522-1.1-.075-1.361.037-1.64.559-1.566C322.764,326.873,322.8,326.966,322.8,328.177Zm-11.707,2.256c.13.373-.41.839-.8.69a.6.6,0,0,1-.13-.858A.645.645,0,0,1,311.095,330.433Zm1.7.186c.056.41-.373.652-.839.5-.261-.093-.317-.652-.112-.876A.637.637,0,0,1,312.791,330.619Zm8.351-.2a.549.549,0,0,1-.671.708.5.5,0,0,1-.373-.541c0-.354.093-.447.466-.447A.646.646,0,0,1,321.143,330.414Zm1.715.2a.481.481,0,0,1-.858.373.457.457,0,0,1,.373-.82A.536.536,0,0,1,322.858,330.619Z" transform="translate(-251.354 -262.751)"/>
  <path id="path100" d="M253.8,376.6c-.168.205-.634.28-1.771.28s-1.6.075-1.771.28a.9.9,0,0,1-.578.28c-.3,0-.354.149-.354,1.007,0,.652-.093,1.081-.28,1.23-.373.317-.373,1.678,0,1.678.186,0,.28.28.317,1.063l.056,1.081,1.286.056c1.044.037,1.3,0,1.51-.28.242-.317,1.025-.336,15.174-.336,13.813.019,14.932.037,15.267.336.261.242.69.317,1.678.317h1.342v-1.025c0-.746.075-1.063.28-1.137.186-.075.28-.373.28-.913s-.093-.839-.28-.913c-.205-.075-.28-.391-.28-1.137,0-.876-.056-1.025-.354-1.025a.9.9,0,0,1-.578-.28c-.168-.205-.615-.28-1.659-.28a3.632,3.632,0,0,1-1.771-.28C280.76,376.169,254.158,376.188,253.8,376.6Z" transform="translate(-202.396 -306.138)"/>
  <path id="path102" d="M186.325,385.724c-.075.075-.019.261.112.41a3.837,3.837,0,0,1,.317,1.324l.093,1.044,4.381.056c5.294.075,5.965,0,5.965-.6a1.8,1.8,0,0,1,.391-.932,1.42,1.42,0,0,0,.317-.895l-.056-.429-5.7-.056C189.01,385.631,186.4,385.669,186.325,385.724Z" transform="translate(-151.564 -313.755)"/>
  <path id="path104" d="M449.933,385.622c-.205.205-.149.8.13,1.324a5.273,5.273,0,0,1,.391,1.025l.093.5,5.182-.037,5.164-.056.056-1.025a2.964,2.964,0,0,1,.336-1.324c.149-.149.205-.354.13-.41-.149-.168-11.334-.168-11.483,0Z" transform="translate(-365.959 -313.634)"/>
  <path id="path106" d="M66.313,394.99a16.6,16.6,0,0,1-1.771.317l-1.118.13-.056.8a2.21,2.21,0,0,0,.224,1.249c.261.391.3,1.454.3,7.811v7.382l-.559.895a3.136,3.136,0,0,0-.559,1.976v1.063l1.081-.056,1.063-.056.037-6.338c.037-4.977.112-6.45.317-6.9.149-.317.41-.895.615-1.3a7.013,7.013,0,0,1,2.479-2.647,4.507,4.507,0,0,1,3.113-.69c2.423.15,2.87.374,4.437,1.7a7.566,7.566,0,0,1,1.659,2.442c.708,1.379.858,2.852.858,8.3,0,5.779-.019,5.667,1.063,5.369.485-.13.522-.205.578-1.212a2.763,2.763,0,0,0-.224-1.529c-.261-.373-.3-1.51-.3-8.426,0-7.009.037-8.034.3-8.24a1.083,1.083,0,0,0,.224-.913l-.056-.671-1.585-.056a9.654,9.654,0,0,1-2.144-.242A63.432,63.432,0,0,0,66.313,394.99Z" transform="translate(-51.069 -321.25)"/>
  <path id="path108" d="M547.361,394.778c-.466.093-1.641.242-2.61.317l-1.771.131-.056.671a1.083,1.083,0,0,0,.224.913c.261.205.3,1.23.3,8.146,0,6.823-.037,7.96-.28,8.333a2.828,2.828,0,0,0-.242,1.715l.056,1.286h1.491l.093-5.872c.075-4.12.168-6.021.336-6.394a8.143,8.143,0,0,1,.224-.951,7.854,7.854,0,0,1,3.672-4.288,6.868,6.868,0,0,1,2.647-.354,6.138,6.138,0,0,1,6.264,4.9c.224.373.261,1.659.28,6.748v6.3h2.181l.093-.932c.112-1.081,0-1.864-.261-1.864a1.255,1.255,0,0,1-.541-.429c-.317-.391-.336-.857-.354-8.072,0-6.711.037-7.7.28-7.9.205-.168.28-.5.242-1.1l-.056-.857-1.025-.112a10.208,10.208,0,0,1-1.678-.336,62.171,62.171,0,0,0-9.507,0Z" transform="translate(-441.706 -321.037)"/>
  <path id="path110" d="M662.666,401.39a.678.678,0,0,1-.429.242c-.13,0-.28.186-.354.41-.056.242-.112,4.679-.112,9.861,0,7.848.037,9.489.261,9.656a5.566,5.566,0,0,0,2.274.168l2.032-.056.093-9.6c.056-5.276.112-9.619.149-9.638a2.584,2.584,0,0,1,.466-.093c.466-.056.69-.839.28-.988a21.848,21.848,0,0,0-2.349-.13C663.449,401.185,662.8,401.241,662.666,401.39Z" transform="translate(-538.407 -326.419)"/>
  <path id="path112" d="M5.927,401.623a.564.564,0,0,0,.485.839,1.426,1.426,0,0,1,.41.037c.037.037.093,4.362.149,9.638l.093,9.582H9.208l2.144-.019.056-9.843L11.445,402l-.41-.317c-.6-.447-4.94-.5-5.108-.056Z" transform="translate(-4.776 -326.503)"/>
  <path id="path114" d="M449.9,403.938a4.575,4.575,0,0,0-.13,1.417v1.268l5.835-.037,5.816-.056.056-.988c.056-.895.019-.988-.429-1.156a45.289,45.289,0,0,0-5.574-.186,33.838,33.838,0,0,1-5.257-.186A.252.252,0,0,0,449.9,403.938Z" transform="translate(-365.927 -328.613)"/>
  <path id="path116" d="M196.474,404.715c-.354.075-2.666.093-5.126.056a27.784,27.784,0,0,0-5,.13c-.485.186-.522.261-.466,1.174l.056.988H197.5l.056-.82c.075-.895-.075-1.715-.3-1.678C197.182,404.584,196.828,404.659,196.474,404.715Z" transform="translate(-151.217 -329.147)"/>
  <path id="path118" d="M269.9,415.682a.766.766,0,0,0,.149,1.007c.429.354.429,14.745-.019,15.1a1.083,1.083,0,0,0-.224.913c.056.652.075.671.8.671s.746-.019.8-.671a1.083,1.083,0,0,0-.224-.913c-.261-.205-.3-1.174-.3-7.55s.037-7.345.28-7.55a.744.744,0,0,0,.242-.634c-.037-.3-.205-.41-.708-.447a1.474,1.474,0,0,0-.8.075Z" transform="translate(-219.483 -338.12)"/>
  <path id="path120" d="M279.461,415.724a1.507,1.507,0,0,0-.13.727,1.283,1.283,0,0,1-.28.839c-.242.205-.28,1.212-.28,6.935v6.711l.522.541a2.621,2.621,0,0,1,.6,1.23l.093.671h2.237c2.479-.019,2.7-.131,2.7-1.286a1.267,1.267,0,0,1,.28-.82c.41-.336.429-13.627.019-13.981a1.549,1.549,0,0,1-.336-.895l-.056-.69-2.628-.056A19.386,19.386,0,0,0,279.461,415.724Z" transform="translate(-226.804 -338.162)"/>
  <path id="path122" d="M314.9,415.682a.766.766,0,0,0,.149,1.007c.429.354.429,14.745-.019,15.1a1.083,1.083,0,0,0-.224.913c.056.652.075.671.8.671s.746-.019.8-.671a1.083,1.083,0,0,0-.224-.913c-.261-.205-.3-1.174-.3-7.55s.037-7.345.28-7.55a.744.744,0,0,0,.242-.634c-.037-.3-.205-.41-.708-.447A1.474,1.474,0,0,0,314.9,415.682Z" transform="translate(-256.095 -338.12)"/>
  <path id="path124" d="M324.461,415.724a1.85,1.85,0,0,0-.13.839c0,.429-.093.727-.28.8-.242.093-.28,1.025-.28,6.879,0,5.816.037,6.823.28,7.028a1.455,1.455,0,0,1,.28.932,1.455,1.455,0,0,0,.28.932c.186.149,1.379.224,4.138.242h3.877l.056-1.007c.037-.634.168-1.063.336-1.156.391-.224.391-13.59,0-13.925a1.549,1.549,0,0,1-.336-.895l-.056-.69-4.027-.056C326.4,415.631,324.535,415.669,324.461,415.724Z" transform="translate(-263.415 -338.162)"/>
  <path id="path126" d="M374.9,415.682a.766.766,0,0,0,.149,1.007c.429.354.429,14.745-.019,15.1a1.083,1.083,0,0,0-.224.913c.056.652.075.671.8.671s.746-.019.8-.671a1.083,1.083,0,0,0-.224-.913c-.261-.205-.3-1.174-.3-7.55s.037-7.345.28-7.55a.744.744,0,0,0,.242-.634c-.037-.3-.205-.41-.708-.447A1.474,1.474,0,0,0,374.9,415.682Z" transform="translate(-304.91 -338.12)"/>
  <path id="path128" d="M384.308,415.724a1.508,1.508,0,0,0-.13.727,1.283,1.283,0,0,1-.28.839c-.41.336-.429,13.627,0,13.981a2.164,2.164,0,0,1,.317,1.174l.056.951h5.406l.056-.951a2.164,2.164,0,0,1,.317-1.174c.41-.336.41-13.646.019-13.981a1.549,1.549,0,0,1-.336-.895l-.056-.69-2.628-.056A19.388,19.388,0,0,0,384.308,415.724Z" transform="translate(-312.078 -338.162)"/>
  <path id="path130" d="M419.9,415.6a.744.744,0,0,0,.149.988c.429.354.429,14.745-.019,15.1a1.083,1.083,0,0,0-.224.913c.056.652.093.671.858.727l.783.056v-.727a1.4,1.4,0,0,0-.28-.969c-.242-.205-.28-1.268-.28-7.55s.037-7.345.28-7.55a1.007,1.007,0,0,0,.28-.671c0-.391-.093-.447-.708-.447A1.792,1.792,0,0,0,419.9,415.6Z" transform="translate(-341.521 -338.021)"/>
  <path id="path132" d="M81.436,418.957a6.922,6.922,0,0,0-3.169,3.766c-.373,1.118-.391,1.454-.354,7.121l.056,5.947H78.6c1.137,0,1.137.037,1.137-5.742,0-5.686.056-6.04,1.025-7.326a3.268,3.268,0,0,1,2.144-1.51,3.966,3.966,0,0,1,4.53,2.274c.391.708.41,1.044.5,6.525l.093,5.76.708.019a1.329,1.329,0,0,0,.876-.186,112.011,112.011,0,0,0,.093-11.651,7.8,7.8,0,0,0-2.367-4.325,4.679,4.679,0,0,0-3.5-1.063A5.3,5.3,0,0,0,81.436,418.957Z" transform="translate(-63.378 -340.537)"/>
  <path id="path134" d="M251.656,418.676c-.224.391-.112,1.342.186,1.51.261.149.3,1.025.3,7.251,0,6.114-.037,7.084-.28,7.177a.725.725,0,0,0-.28.652c0,.522.037.541.839.541s.839-.019.839-.541a.725.725,0,0,0-.28-.652c-.242-.093-.28-1.063-.28-7.2s.037-7.1.28-7.2c.186-.074.28-.373.28-.932v-.82h-.727A1.4,1.4,0,0,0,251.656,418.676Z" transform="translate(-204.647 -340.462)"/>
  <path id="path136" d="M437.041,418.657a2.269,2.269,0,0,0,.391,1.7c.391.317.354,14.13-.037,14.279-.149.056-.261.336-.261.634,0,.522.037.541.839.541s.839-.019.839-.541a.726.726,0,0,0-.28-.652c-.242-.093-.28-1.063-.28-7.2s.037-7.1.28-7.2c.186-.074.28-.373.28-.932v-.82h-.82C437.526,418.471,437.1,418.546,437.041,418.657Z" transform="translate(-355.527 -340.462)"/>
  <path id="path138" d="M559.008,419.086a6.8,6.8,0,0,0-3.057,4.232c-.075.354-.168,3.262-.205,6.469l-.075,5.816.652.112c1.417.28,1.3.671,1.417-5.872.112-6.562.075-6.431,1.529-7.829a2.394,2.394,0,0,1,1.641-.839,3.954,3.954,0,0,1,4.269,1.864l.485.746.093,5.835c.112,6.431.056,6.245,1.3,6.152l.653-.056v-6.152c0-6.152-.037-6.636-.671-7.736a7,7,0,0,1-.336-.652,6.764,6.764,0,0,0-2.591-2.33,5.521,5.521,0,0,0-2.442-.373A4.12,4.12,0,0,0,559.008,419.086Z" transform="translate(-452.085 -340.462)"/>
  <path id="path140" d="M262.349,421.271a2.116,2.116,0,0,1-.3.932c-.224.3-.261,1.473-.28,7.214,0,6.543.019,6.9.373,7.345l.354.466.112-.541a5.778,5.778,0,0,1,.391-1.025c.205-.391.261-1.734.261-7.214,0-5.984-.037-6.748-.3-6.86a.865.865,0,0,1-.447-.5C262.368,420.749,262.349,420.767,262.349,421.271Z" transform="translate(-212.973 -342.404)"/>
  <path id="path142" d="M191.771,422.062a.74.74,0,0,0,.28.671c.242.093.28,1.063.28,7.2s-.037,7.1-.28,7.2a.725.725,0,0,0-.28.652c0,.522.037.541.839.541s.839-.019.839-.541a.725.725,0,0,0-.28-.652c-.242-.093-.28-1.063-.28-7.177,0-6.282.037-7.1.3-7.252a.6.6,0,0,0,.224-.615c-.037-.373-.168-.447-.839-.5C191.79,421.521,191.771,421.54,191.771,422.062Z" transform="translate(-156.022 -342.971)"/>
  <path id="path144" d="M202.715,421.844a3.264,3.264,0,0,0-.578.876c-.391.727-.41.988-.429,7.4l-.037,6.655.485.764a2.382,2.382,0,0,0,.615.746c.075,0,.932.019,1.9.037,1.715.037,1.771.019,1.827-.373a.726.726,0,0,1,.336-.541c.391-.149.391-14.261,0-14.6a1.1,1.1,0,0,1-.336-.615c-.056-.391-.168-.41-1.827-.447A8.472,8.472,0,0,0,202.715,421.844Z" transform="translate(-164.076 -343.126)"/>
  <path id="path146" d="M231.143,421.732a1.08,1.08,0,0,0,.168.708c.224.447.28,1.715.28,7.662,0,6.9-.019,7.158-.373,7.513-.615.615-.466.764.708.708,1.007-.056,1.063-.075,1.118-.559.037-.373-.019-.522-.224-.522-.261,0-.3-.8-.3-7.27s.037-7.27.3-7.27c.205,0,.261-.149.224-.522-.056-.466-.13-.5-.932-.559A1.673,1.673,0,0,0,231.143,421.732Z" transform="translate(-187.826 -343.014)"/>
  <path id="path148" d="M455.771,422.012a.725.725,0,0,0,.28.652c.242.093.28,1.063.28,7.289,0,6.264-.037,7.177-.28,7.177q-.28,0-.28.559c0,.541.037.559.82.559,1.007,0,1.156-.186.783-.969-.261-.485-.3-1.585-.3-7.438,0-6.562.019-6.879.373-7.494.447-.746.317-.876-.951-.876C455.827,421.471,455.771,421.508,455.771,422.012Z" transform="translate(-370.808 -342.902)"/>
  <path id="path150" d="M467.729,421.611a.672.672,0,0,0-.13.447.716.716,0,0,1-.317.522c-.317.168-.336.727-.373,7.065l-.037,6.9.447.8.429.82,1.79.037,1.808.019.447-.727.466-.727v-6.86c0-5.742-.037-6.916-.28-7.233a1.311,1.311,0,0,1-.28-.652.489.489,0,0,0-.3-.429A14.159,14.159,0,0,0,467.729,421.611Z" transform="translate(-379.839 -342.912)"/>
  <path id="path152" d="M497.156,421.657c-.075.112.019.447.168.783.429.839.447,14.186.037,14.988-.373.69-.242.82.746.82.783,0,.82-.019.82-.541a.725.725,0,0,0-.28-.652c-.242-.093-.28-1.062-.28-7.2s.037-7.1.28-7.2a.725.725,0,0,0,.28-.652c0-.522-.037-.541-.82-.541A1.712,1.712,0,0,0,497.156,421.657Z" transform="translate(-404.457 -342.902)"/>
  <path id="path154" d="M507.33,421.937a.646.646,0,0,1-.28.578c-.242.093-.28,1.1-.28,7.363,0,6.319.037,7.252.28,7.252.224,0,.28-.28.28-1.454a3.629,3.629,0,0,1,.28-1.827c.41-.541.41-12.378,0-12.378C507.442,421.471,507.33,421.639,507.33,421.937Z" transform="translate(-412.301 -342.902)"/>
  <path id="path156" d="M428.9,423.649c-.075.056-.13,3.225-.13,7.028,0,5.518.056,7.009.261,7.289a3.6,3.6,0,0,1,.373.932l.149.559.354-.69c.336-.634.354-1.118.3-7.363-.037-6.655-.037-6.674-.466-7.289C429.312,423.519,429.125,423.407,428.9,423.649Z" transform="translate(-348.841 -344.577)"/>
  <path id="path158" d="M243.33,427.19a.977.977,0,0,0-.41.3c-.075.112-.149,3.3-.149,7.084v6.879l.447.41.429.41.317-.578c.28-.522.3-1.323.261-7.326-.056-5.723-.093-6.786-.336-7.009A.612.612,0,0,0,243.33,427.19Z" transform="translate(-197.515 -347.54)"/>
  <path id="path160" d="M448.107,426.77c-.317.168-.336.708-.336,7.158,0,6.655.019,7.009.373,7.587.2.336.373.522.373.41a1.573,1.573,0,0,1,.373-.634c.354-.41.373-.69.373-7.158,0-5.8-.037-6.8-.3-7.158C448.647,426.509,448.554,426.491,448.107,426.77Z" transform="translate(-364.3 -347.065)"/>
</svg>
