<svg xmlns="http://www.w3.org/2000/svg" width="165.424" height="94.948" viewBox="0 0 165.424 94.948">
  <g id="Taj-Mahal-Illustration" transform="translate(-137.634 -171.636)">
    <path id="Path_752" data-name="Path 752" d="M220.011,172.055c.138-.184.317-.541.6-.378a1.557,1.557,0,0,1,.7,1.174,1.279,1.279,0,0,1-.375.823c-.006.569,0,1.138,0,1.707a1.664,1.664,0,0,1,.787,1.026,1.459,1.459,0,0,1-.554,1.251,1.337,1.337,0,0,1,.319,1.132,1.072,1.072,0,0,1-.663.627,1.186,1.186,0,0,1,.553.381,19.8,19.8,0,0,0,5.942,5.122,5.122,5.122,0,0,1,1.893,1.253.5.5,0,0,1-.316.747,19.75,19.75,0,0,0-1.974-.409,5.345,5.345,0,0,1,2.034,1,27.2,27.2,0,0,1,5.41,4.728,19.752,19.752,0,0,1,3.251,5.125,15.4,15.4,0,0,1,.992,9.038c.527-.931,1.5-1.45,2.234-2.19.792-.661,1.473-1.442,2.276-2.09a.476.476,0,0,1,.156-.768c-.145-.127-.333-.268-.306-.485a.555.555,0,0,1,.387-.385c-.149-.07-.358-.109-.369-.311-.086-.2.084-.355.183-.5a4.533,4.533,0,0,1,.007-1.223.48.48,0,0,1,.869,0,4.6,4.6,0,0,1,0,1.238.89.89,0,0,1,.182.391.779.779,0,0,1-.312.42c.116.107.28.2.3.373.046.212-.157.354-.285.485a.492.492,0,0,1,.15.763,5.913,5.913,0,0,0,2.2,1.776,7.719,7.719,0,0,1,3.6,3.868,8.625,8.625,0,0,1,.649,3.7,3.5,3.5,0,0,1,1.755.962c.193.369-.337.477-.6.43a12.425,12.425,0,0,0-2.691-.314,12.269,12.269,0,0,1,1.47.2.969.969,0,0,1,.072.457c0,1.869,0,3.738,0,5.608.709.012,1.419,0,2.129-.014,1.828.223,3.665.383,5.494.593-.131-1.532-.181-3.071-.279-4.606-.075-1.084-.088-2.174-.225-3.252a1.136,1.136,0,0,1,.479-.877.452.452,0,0,1-.067-.671,3.74,3.74,0,0,1,0-.921c.03-.258.363-.353.575-.256.387.244.186.769.218,1.145a.653.653,0,0,1,.1.571,1.484,1.484,0,0,1,.335,1.29c-.09.614-.149,1.234-.217,1.851.408-.048.818-.1,1.228-.127-.045-1.462-.074-2.924-.108-4.386.013-.4-.28-.768-.152-1.172a1.066,1.066,0,0,1,.636-.722.506.506,0,0,1-.037-.658,3.433,3.433,0,0,1,.04-.986.406.406,0,0,1,.765.09,6.757,6.757,0,0,1,.006.847.506.506,0,0,1-.055.718,2.089,2.089,0,0,1,.359,1.688c-.05,1.4-.081,2.809-.117,4.213.152-.047.3-.1.46-.139a.5.5,0,0,1-.056-.679,2.957,2.957,0,0,1,.036-.991.414.414,0,0,1,.707,0,2.277,2.277,0,0,1,.047,1,.434.434,0,0,1-.212.747,1.4,1.4,0,0,1,.656.688,15.017,15.017,0,0,0-.355,3.243c-.063.953,0,1.912-.1,2.861.03.381-.011.762-.013,1.144a5.147,5.147,0,0,1-.184,1.041c-.085.188-.331.118-.491.122-2.8-.308-5.6-.589-8.4-.884a17.541,17.541,0,0,0-2.158-.119c-3.088,0-6.176-.026-9.264-.036-1.433.009-2.868-.062-4.3.017l-.532-.03q0,16.035,0,32.07c1.056.006,2.113-.013,3.17.011a9,9,0,0,1-.053-1.865c.03-2.172.069-4.343.094-6.516a3.11,3.11,0,0,1,.948-2.044,7.33,7.33,0,0,1,2.977-1.85c.408-.179.828.056,1.214.187a5.817,5.817,0,0,1,3.349,2.76,5.011,5.011,0,0,1,.323,2.234c.025,1.676.054,3.35.08,5.027a16.976,16.976,0,0,1-.023,2.065c1.736-.013,3.473-.019,5.208,0a9.833,9.833,0,0,1-.056-1.874c.017-2.169.045-4.337.06-6.505a3.275,3.275,0,0,1,.794-2.025,5.547,5.547,0,0,1,1.863-1.5c.22-.134.469-.021.687.059a4.086,4.086,0,0,1,2.047,1.777,4.515,4.515,0,0,1,.534,2.179c.012,1.644.034,3.289.049,4.934-.014.982.08,1.968-.029,2.947.624-.012,1.25-.007,1.875-.01q0-14.986,0-29.973l.208.017q-.024,14.88-.007,29.761h10.144q.191-5.742.385-11.484a8.423,8.423,0,0,1-1.036-.036,2.759,2.759,0,0,1,.039-1.332,3.826,3.826,0,0,1,1.045-.053c.114-3.468.238-6.934.346-10.4l.146.073c.012.23.024.459.03.689-.107,3.212-.22,6.425-.322,9.638q3.024,0,6.047,0c-.062-2.732-.147-5.464-.209-8.2l.228.076c-.044,1.033.042,2.068.05,3.1q.065,2.509.131,5.019c.312.047.728-.122.971.115a3.974,3.974,0,0,1-.017,1.274,8.373,8.373,0,0,1-.916.032q.151,5.743.3,11.485,5.375,0,10.749,0,.286-8.474.57-16.95c-.384,0-.765.01-1.146,0-.115-.016-.327-.033-.32-.188a7.265,7.265,0,0,1,.038-1.57,14.142,14.142,0,0,1,1.489-.034c.152-4.85.34-9.7.475-14.551a8.979,8.979,0,0,1-1.355-.052,4.248,4.248,0,0,1-.068-1.153c.021-.187-.058-.462.132-.58.453-.038.908-.006,1.363-.016q.249-7.381.5-14.76a18.337,18.337,0,0,1-1.949-.043,9.62,9.62,0,0,1-.031-1.517c0-.165.181-.228.318-.248.553-.089,1.112-.147,1.67-.213q0-3.193,0-6.383c-.422.057-.835.163-1.257.216-.157-.063-.208-.231-.269-.37-.163-.414-.338-.823-.48-1.245a1.388,1.388,0,0,1,.824-.253c.4-.052.8-.1,1.2-.14a5.367,5.367,0,0,1,.357-3.492,2.782,2.782,0,0,1,2.058-1.366c.035-.582.125-1.16.144-1.744a.481.481,0,0,1,.416-.5l.088-.009.169-.041c-.216-.146-.562-.126-.658-.427-.141-.359.222-.582.476-.742.343.032.756,0,.953.353.249.417-.237.779-.619.794.339.007.8.284.649.68-.238.514-.024,1.083-.047,1.623a2.544,2.544,0,0,1,2.287,1.378,6.5,6.5,0,0,1,.486,3.557c.411.041.824.085,1.235.149a.39.39,0,0,1,.34.2c-.139.544-.408,1.044-.591,1.574a6.784,6.784,0,0,1-1.291-.159q0,3.187,0,6.374c.547.076,1.1.1,1.645.21.092.022.242.062.239.187.031.423.014.849.013,1.274,0,.134-.058.313-.218.313-.456.031-.914,0-1.369.011q.192,7.381.388,14.761c.347,0,.7-.019,1.047.015a.287.287,0,0,1,.151.278q.01.6,0,1.2a.307.307,0,0,1-.149.284c-.334.033-.67.01-1,.015q.192,7.279.384,14.558c.4.008.795-.026,1.191.018.24.089.159.4.178.6a4.008,4.008,0,0,1-.065,1.1,3.939,3.939,0,0,1-1.258.083q.222,8.475.446,16.952c.43.008.862-.024,1.292.014.135.033.182.167.21.29.322,1.323.637,2.647.97,3.967-.1.12-.209.255-.385.213q-80.53,0-161.058,0c-1.314-.021-2.631.04-3.943-.033a2.49,2.49,0,0,1,.049-.9c.164-1.085.316-2.17.478-3.254.014-.138.081-.322.256-.295.488-.023.977,0,1.467-.008q.284-8.475.569-16.951c-.471-.056-1.008.124-1.437-.107a6.021,6.021,0,0,1,0-1.647,11.841,11.841,0,0,1,1.5-.04c.158-4.85.334-9.7.481-14.551-.459-.014-.919.014-1.376-.033a5.49,5.49,0,0,1,.014-1.733,11.316,11.316,0,0,1,1.429-.036q.249-7.381.5-14.76c-.647-.017-1.3.038-1.942-.038a8.8,8.8,0,0,1-.042-1.469c-.023-.184.163-.292.321-.3.555-.087,1.113-.147,1.672-.213q0-3.191,0-6.383c-.426.057-.843.17-1.27.214a.623.623,0,0,1-.251-.36c-.163-.418-.341-.829-.485-1.255a.753.753,0,0,1,.332-.178c.56-.095,1.125-.152,1.689-.215a5.234,5.234,0,0,1,.423-3.6,2.781,2.781,0,0,1,1.994-1.256c.045-.619.116-1.237.159-1.857.031-.313.38-.425.645-.464-.343-.034-.776-.294-.656-.7a.868.868,0,0,1,1.1-.367.522.522,0,0,1,.379.647c-.081.254-.354.347-.585.415.226.062.491.148.581.391.1.2-.036.41-.123.591.015.442.061.882.072,1.324a2.552,2.552,0,0,1,2.324,1.442,6.632,6.632,0,0,1,.451,3.493,4.249,4.249,0,0,1,1.6.316c-.169.547-.415,1.066-.613,1.6a6.361,6.361,0,0,1-1.291-.155c0,2.123,0,4.247,0,6.369a10.551,10.551,0,0,1,1.845.294,5.285,5.285,0,0,1,.057,1.187c0,.18.023.488-.228.509-.454.029-.908,0-1.363.01q.194,7.381.389,14.761c.344,0,.689-.019,1.034.015.261.121.138.458.169.683-.036.364.1.779-.13,1.1-.341,0-.683,0-1.025,0q.189,7.279.383,14.558c.364,0,.728-.013,1.092,0a.269.269,0,0,1,.272.309c0,.427.019.857-.011,1.285,0,.127-.144.177-.249.182-.352.031-.705.008-1.056.013q.219,8.475.445,16.951h10.132q.189-5.743.384-11.485a6.879,6.879,0,0,1-1.039-.041,5.283,5.283,0,0,1-.042-1.081c0-.143.057-.325.235-.293.3-.019.6,0,.9-.006.113-3.468.239-6.934.345-10.4l.15.076c.01.26.022.522.022.784q-.158,4.77-.32,9.54h6.049c-.061-2.733-.146-5.465-.209-8.2l.228.077c-.038,1.292.056,2.587.071,3.881q.055,2.12.11,4.24c.314.059.775-.148.984.152a2.8,2.8,0,0,1-.06,1.211,2.892,2.892,0,0,1-.886.058q.151,5.743.3,11.486h11.033V223.851c0-1.257.019-2.513-.04-3.769a41.747,41.747,0,0,0-.424-6.282c.014-.26.285-.41.442-.593-.059-.121-.2-.249-.124-.394.2-.394-.009-.845.136-1.251a.411.411,0,0,1,.746.06,3.179,3.179,0,0,1,.012.943c.048.072.1.146.146.221-.071.224.062.335.263.4-.052-1.448-.066-2.9-.129-4.345a1.818,1.818,0,0,1,.507-1.713l-.139-.162c.046-.132.1-.262.154-.39a3.96,3.96,0,0,1,.012-.936.415.415,0,0,1,.775,0,3.919,3.919,0,0,1,.015.931.444.444,0,0,1-.12.717,1.26,1.26,0,0,1,.52.685c.12.4-.17.771-.154,1.173-.032,1.457-.069,2.914-.1,4.371.409.044.82.085,1.229.135-.08-.576-.118-1.158-.208-1.733a1.791,1.791,0,0,1,.151-1.2c.107-.177.2-.363.291-.545a2.959,2.959,0,0,1,.022-1.026.424.424,0,0,1,.756.088,4.645,4.645,0,0,1,.01.9.622.622,0,0,1,.084.6,1.39,1.39,0,0,1,.254,1.269c-.159,2.312-.263,4.629-.4,6.942-.015.14-.033.281-.054.422,1.6-.178,3.195-.333,4.791-.506a23.777,23.777,0,0,1,3.048-.073c.011-2.064-.023-4.13.017-6.193a11.76,11.76,0,0,0-1.309.23.716.716,0,0,1-.747-.262,2.991,2.991,0,0,1,1.834-1.118,8.352,8.352,0,0,1,1.361-5,7.978,7.978,0,0,1,1.5-1.65c1.142-.967,2.732-1.377,3.6-2.662-.046-.128-.15-.247-.134-.388-.006-.207.19-.309.326-.425a.43.43,0,0,1,0-.832c-.137-.117-.342-.221-.329-.429-.02-.154.117-.265.183-.39a4.264,4.264,0,0,1-.014-1.2c.093-.442.8-.395.9.025a4.78,4.78,0,0,1-.012,1.169c.07.125.22.236.2.395.013.209-.19.315-.324.434a.443.443,0,0,1-.032.856.435.435,0,0,1,.2.751c1.152,1.018,2.221,2.134,3.43,3.089a4.425,4.425,0,0,1,1.166,1.293,16.028,16.028,0,0,1,2.218-11.5A26.078,26.078,0,0,1,213,186.945a11.933,11.933,0,0,1,2.014-.454c-.941.077-1.873.229-2.808.352a.5.5,0,0,1-.341-.84,2.955,2.955,0,0,1,1.628-.72,13.952,13.952,0,0,0,3.7-2.744,9.192,9.192,0,0,0,2-2.369,2.65,2.65,0,0,1,.473-.853,1.077,1.077,0,0,1-.34-1.032,1.171,1.171,0,0,1,.446-.635,1.258,1.258,0,0,1-.589-1.151,1.929,1.929,0,0,1,.793-1.155c0-.547,0-1.094,0-1.64a1.256,1.256,0,0,1,.045-1.649m-.147.9a1.061,1.061,0,0,0,.3.683c.011.595,0,1.189,0,1.784a1.862,1.862,0,0,0-.8,1.182c-.023.468.369.786.706,1.041-.253.226-.566.465-.587.834s.276.649.537.875c.448-.046,1.007-.085,1.246-.537.2-.43-.126-.845-.356-1.186a1.519,1.519,0,0,0,.628-1.128c-.038-.468-.446-.766-.8-1.017.011-.611-.031-1.224.014-1.833.11-.269.377-.48.361-.795a1.462,1.462,0,0,0-.664-1.061,2.233,2.233,0,0,0-.585,1.159m-.512,7.319a8.573,8.573,0,0,1-1.878,2.259,16.423,16.423,0,0,1-3.532,2.766c-.523.3-1.172.259-1.672.607-.159.108-.35.247-.349.46.055.107.12.208.186.31a64.357,64.357,0,0,1,7.333-.724,31.9,31.9,0,0,1,9.338.756.278.278,0,0,0,.245-.461,5.7,5.7,0,0,0-1.859-1.188,19.96,19.96,0,0,1-5.929-5.121,1.745,1.745,0,0,0-1.493-.413,3.445,3.445,0,0,0-.39.75m-74.641,4.645c-.2.063-.344.33-.165.493a.685.685,0,0,0,1.05-.136c.01-.422-.583-.5-.886-.357m150.9,0c-.2.06-.353.335-.167.5.291.281,1,.244,1.053-.228-.113-.352-.592-.4-.887-.272m-150.8,1.09c-.22.036-.467.3-.277.51a.72.72,0,0,0,1.046-.054c.121-.418-.467-.558-.769-.456m150.9,0c-.2.043-.434.235-.321.456a.668.668,0,0,0,1.114-.088c-.03-.368-.5-.448-.793-.368m-76.966.178a31.417,31.417,0,0,0-5.287.815,3.34,3.34,0,0,0-1.08.591,25.813,25.813,0,0,0-7.162,6.935,16.252,16.252,0,0,0-2.833,9.585,44.465,44.465,0,0,1,12.035-1.974c1.737-.089,3.477-.1,5.215-.075a104.63,104.63,0,0,1,12.118.41,35.244,35.244,0,0,1,6.943,1.314,15.8,15.8,0,0,0-2.206-8.239,24.414,24.414,0,0,0-7.377-7.695,8.135,8.135,0,0,0-2.036-1.132,10.812,10.812,0,0,0-2.449-.493,43.848,43.848,0,0,0-5.882-.041m-74.283.591c-.047.5-.094,1-.143,1.5a2.723,2.723,0,0,0-1.986,1.172,5.173,5.173,0,0,0-.39,3.627c2.121-.027,4.243-.07,6.363-.109a5.777,5.777,0,0,0-.682-3.716,2.413,2.413,0,0,0-2.086-.968c-.032-.467-.064-.935-.093-1.4a1.986,1.986,0,0,1-.983-.1m150.893,0c-.048.5-.095.994-.142,1.49a2.745,2.745,0,0,0-1.984,1.171,5.15,5.15,0,0,0-.392,3.634q3.182-.049,6.364-.113a5.813,5.813,0,0,0-.681-3.711,2.417,2.417,0,0,0-2.089-.971q-.05-.7-.093-1.4a2.029,2.029,0,0,1-.983-.1m-153.443,7.958c0,2.133-.027,4.268.016,6.4l.3-.053c.013-1.222.008-2.444,0-3.665a4.938,4.938,0,0,1,.065-1.294c.109-.435.794-.453,1.014-.1a1.93,1.93,0,0,1,.18,1c-.011,1.327,0,2.653-.009,3.98l.463-.014c-.019-1.125-.006-2.252-.01-3.377a2.184,2.184,0,0,1,.593-1.623.844.844,0,0,1,1.192.088,2.505,2.505,0,0,1,.356,1.437c0,1.173,0,2.345,0,3.519.108-.012.216-.023.324-.033,0-1.394.011-2.787-.011-4.181a1.751,1.751,0,0,1,.135-.822.608.608,0,0,1,.945.014,1.7,1.7,0,0,1,.188.917c-.007,1.4,0,2.807-.006,4.211.113-.007.227-.013.341-.018-.024-2.12.006-4.24-.015-6.36a22.547,22.547,0,0,0-6.066-.028m150.895,0c-.01,2.128,0,4.256,0,6.384l.317-.025q.022-2.182,0-4.365a1.293,1.293,0,0,1,.184-.8.629.629,0,0,1,.91.11,2.013,2.013,0,0,1,.174.989c-.01,1.327.006,2.654-.01,3.982.152-.006.306-.01.462-.014-.017-1.125-.006-2.252-.009-3.377a2.208,2.208,0,0,1,.551-1.584.844.844,0,0,1,1.189,0,2.242,2.242,0,0,1,.4,1.386c.014,1.206-.012,2.413.011,3.621l.318-.039c-.006-1.39.011-2.78-.013-4.169a2.148,2.148,0,0,1,.074-.687c.08-.427.7-.464.963-.182a1.52,1.52,0,0,1,.233.968q-.007,2.1,0,4.2l.321.026c.018-2.129.01-4.26,0-6.39a22.622,22.622,0,0,0-6.065-.03m-148.129,1.4a1.9,1.9,0,0,0-.546,1.476c0,1.116,0,2.233,0,3.349.576.033,1.153.018,1.729.035.029-1.094,0-2.189.015-3.283a2.574,2.574,0,0,0-.3-1.479.608.608,0,0,0-.9-.1m2.024-.054a1.357,1.357,0,0,0-.115.648q.025,2.155,0,4.31c.283.021.566.041.85.06.034-1.359,0-2.719.02-4.078a1.966,1.966,0,0,0-.127-.86.42.42,0,0,0-.632-.08m148.6.378a2.422,2.422,0,0,0-.278,1.351c.007,1.051,0,2.1.008,3.154.575.027,1.151.016,1.727.033.032-1.061,0-2.124.017-3.186a3.183,3.183,0,0,0-.221-1.455.64.64,0,0,0-.574-.379.845.845,0,0,0-.679.481m-152.753-.391a1.222,1.222,0,0,0-.127.664c.019,1.448.017,2.9.006,4.345q.425-.031.851-.058c.034-1.3,0-2.6.018-3.9a2.253,2.253,0,0,0-.121-.946.42.42,0,0,0-.626-.1m150.769.554c.01,1.485.015,2.97,0,4.455.282-.021.566-.04.85-.058.029-1.433.013-2.868.011-4.3,0-.3-.075-.761-.466-.742-.364-.038-.4.386-.4.646m4.166,0c.01,1.471.014,2.942,0,4.413q.423.031.849.059c.03-1.459.013-2.917.013-4.376,0-.306-.087-.795-.5-.745-.349-.017-.364.4-.368.649m-100.294,1.818a2.149,2.149,0,0,0-.065,1.044c.011.254.4.3.5.081a3.215,3.215,0,0,0,.02-.972.267.267,0,0,0-.46-.153m46.237-.014a2.144,2.144,0,0,0-.072,1.048c0,.268.418.317.51.078a3.772,3.772,0,0,0,.017-.949.271.271,0,0,0-.455-.178m-46.41,1.435c-.029.131-.09.315.067.394a.616.616,0,0,0,.792-.156l-.128-.233c-.244.008-.488.007-.731,0m46.1.241a.633.633,0,0,0,.976,0l-.168-.232c-.212.006-.424,0-.634,0-.043.059-.13.178-.175.237m-46.22.862a.666.666,0,0,0,1.008-.006.558.558,0,0,0-1.008.006m46.454-.27a.29.29,0,0,0-.193.271.555.555,0,0,0,.851.079c.156-.361-.414-.5-.658-.35m-103.428.871q-.007.7,0,1.395,4.98.007,9.961,0c.007-.467.008-.934,0-1.4-.807-.1-1.614-.2-2.423-.264a30.437,30.437,0,0,0-7.533.268m150.894,0q-.012.7,0,1.4,4.981,0,9.961,0c0-.467.006-.932,0-1.4-1.338-.173-2.682-.314-4.03-.369a31.231,31.231,0,0,0-5.928.37m-93.722.019a.214.214,0,0,0-.038.372c.233.194.739.152.793-.2a.532.532,0,0,0-.754-.174m46.237-.021c-.145.074-.23.226-.109.368.236.217.776.2.83-.18a.537.537,0,0,0-.721-.187m-46.337.776c-.918,1.334-2.617,1.714-3.761,2.794a7.875,7.875,0,0,0-2.586,6.311q6.39-.074,12.781-.171a10.313,10.313,0,0,0-.229-2.252,13.4,13.4,0,0,1-.486-1.46,3.833,3.833,0,0,0-1.435-2.13c-1.209-.959-2.3-2.049-3.428-3.1-.286,0-.571,0-.856.011m45.976.158c-.822.789-1.647,1.575-2.505,2.325a8.206,8.206,0,0,0-1.524,1.439,8.361,8.361,0,0,0-1.283,5c4.232.088,8.466.123,12.7.18a7.875,7.875,0,0,0-2.6-6.328c-1.143-1.069-2.833-1.451-3.746-2.782-.342.029-.772-.118-1.037.163m-101.111.669a7.268,7.268,0,0,0,.021.983c-.166,4.59-.313,9.18-.467,13.771,2.423,0,4.847,0,7.27,0-.085-3.64-.2-7.28-.277-10.919a9.4,9.4,0,0,0-.025-1.607c-.06-.748-.027-1.5-.044-2.245-2.16.021-4.319-.006-6.478.014m150.884,0a3.21,3.21,0,0,0,.034.8q-.246,6.977-.469,13.955c2.422,0,4.846,0,7.268,0q-.127-5.113-.269-10.225a17.626,17.626,0,0,0-.027-2.1c-.068-.813-.022-1.628-.047-2.442-2.163.022-4.326,0-6.489.013m-73.5.588c-2.071-.064-4.144-.095-6.213.012a35.529,35.529,0,0,0-10.511,1.861,14.507,14.507,0,0,0,.574,2.561,80.6,80.6,0,0,1,11.173-1.028c3.042-.11,6.085-.09,9.128-.077,2.9.029,5.791.1,8.679.317a42.713,42.713,0,0,1,5.762.748,9.592,9.592,0,0,1,.384-1.032,6.212,6.212,0,0,0,.354-1.614,33.945,33.945,0,0,0-9.65-1.746,85.9,85.9,0,0,0-9.68,0M179.975,205.6a1.705,1.705,0,0,0-.04.88c.02.2.355.2.4,0a2.577,2.577,0,0,0,.013-.675c.024-.216-.2-.3-.369-.206m80.921.024a1.832,1.832,0,0,0-.035.859.205.205,0,0,0,.393,0,1.883,1.883,0,0,0-.031-.852.24.24,0,0,0-.327,0m-81.14,1.189c.072.406.754.415.749-.038-.251.011-.5.023-.749.038m80.948-.03c0,.436.681.423.75.03-.25-.014-.5-.023-.75-.03m-.483,1.381c.016.333.18.643.183.98.035,1.513.063,3.026.113,4.539-.545.084-1.1.128-1.643.188.055-.624.12-1.247.206-1.866a2.278,2.278,0,0,0-.038-1.057.441.441,0,0,0-.36-.3.919.919,0,0,0-.812.976c.125,1.012.139,2.033.209,3.05.082,1.532.18,3.062.252,4.6.257.035.515.067.774.1-.006-.547-.031-1.095,0-1.641a.6.6,0,0,1,1.194.011,15.059,15.059,0,0,1-.025,1.753c.8.082,1.6.175,2.408.254.007-1.165.029-2.33.092-3.492a12.687,12.687,0,0,1,.262-2.26c.115-.3-.205-.534-.427-.673-.455-.267-.926.087-1.355.233a1.311,1.311,0,0,0,.208-.658q.043-1.82.1-3.64a3.456,3.456,0,0,0-.1-1.583c-.086-.149-.2-.338-.385-.358a1.019,1.019,0,0,0-.85.855m-80.548-.709a1.515,1.515,0,0,0-.284,1.107c.069,1.15.072,2.3.112,3.454a3.27,3.27,0,0,0,.211,1.534,2.821,2.821,0,0,0-1.01-.332,1.186,1.186,0,0,0-.807.554,10.829,10.829,0,0,1,.3,2.274c.072,1.231.1,2.463.1,3.7.81-.08,1.617-.179,2.428-.253a10.545,10.545,0,0,1-.042-1.764.6.6,0,0,1,1.194.008c.029.542,0,1.086,0,1.628q.38-.041.762-.079c.173-2.618.27-5.243.474-7.857a.953.953,0,0,0-.691-.758.387.387,0,0,0-.47.258,2.154,2.154,0,0,0-.052,1.057c.091.623.142,1.252.223,1.877-.551-.031-1.1-.1-1.647-.162.031-1.518.074-3.036.106-4.553,0-.468.377-.981.027-1.407-.213-.237-.661-.614-.934-.281m34.534.826a81.267,81.267,0,0,0-10.712,1.072c.05.53.108,1.058.149,1.59,11.27,0,22.54.015,33.81-.009a15.586,15.586,0,0,1,.135-1.844,66.7,66.7,0,0,0-7.006-.692c-2.693-.145-5.391-.2-8.087-.207-2.763.031-5.527-.033-8.289.091m44.118.721a1.45,1.45,0,0,0-.057.842c0,.229.4.219.4-.006a2.7,2.7,0,0,0,0-.767.223.223,0,0,0-.339-.069m-75.938.2c-.158.229-.078.574-.065.847a.211.211,0,0,0,.387.062,2.287,2.287,0,0,0,.01-.843c-.081-.114-.217-.175-.331-.066m75.8.97c-.022.042-.064.129-.086.173.214.212.735.2.732-.175-.217,0-.432.007-.646,0m-76.023.257a3.8,3.8,0,0,1,.7.191l0-.254c-.2.006-.394.011-.59.012l-.1.051m21.5.712c.046.862.09,1.725.114,2.589q16.831.01,33.662,0a10.806,10.806,0,0,1,.063-1.225,8.989,8.989,0,0,1-.036-1.363q-16.9-.009-33.8,0m58.717.217c-.254.175-.119.583-.13.853a.209.209,0,0,0,.392.087,1.976,1.976,0,0,0,0-.87.251.251,0,0,0-.263-.07m-24.764.161c.036.362.07.724.1,1.087a18.767,18.767,0,0,0,2.138-.2,37.326,37.326,0,0,1,5.228-.218c.956.006,1.906.114,2.863.1a16.509,16.509,0,0,1,3.62.341,1.067,1.067,0,0,0,.636-.082,3.9,3.9,0,0,0-1.558-.872,7.429,7.429,0,0,0-1.221-.051c-1.645-.019-3.289-.032-4.934-.051-2.292,0-4.584-.13-6.874-.059m-59.257.114a2.06,2.06,0,0,0-.015.847.224.224,0,0,0,.389.021,2.176,2.176,0,0,0-.019-.9.246.246,0,0,0-.355.032m25.1.2a.836.836,0,0,0-.037.381c-.033.073.053.389.153.222a2.063,2.063,0,0,0-.115-.6m-12.616.863q0,3.051,0,6.1.641-.007,1.281,0a7.837,7.837,0,0,1,.319-3.015,1.318,1.318,0,0,1,1.063-.923c.136-.016.236.106.278.222a6.548,6.548,0,0,1,.3,3.7c.5,0,1,0,1.493.006a4.657,4.657,0,0,1,.071-1.95,3.582,3.582,0,0,1,1.647-2.11c.146-.087.331-.2.5-.092a3.112,3.112,0,0,1,1,1.152,6.368,6.368,0,0,1,.28,2.974q.6,0,1.2,0a8.439,8.439,0,0,1,.438-3.195c.158-.325.393-.726.788-.761a1.825,1.825,0,0,1,.658.689,5.5,5.5,0,0,1,.368,3.253q.513,0,1.028-.008c-.007-2.014.017-4.027-.013-6.041a43.76,43.76,0,0,0-5.2-.516,39.547,39.547,0,0,0-7.492.514m46.788.212c.014,1.944,0,3.889.009,5.833l.83,0a5.263,5.263,0,0,1,.427-3.345c.175-.251.382-.6.733-.583a1.378,1.378,0,0,1,.663.779,8.477,8.477,0,0,1,.428,3.155q.6.012,1.2.008a10.067,10.067,0,0,1,.041-2.227,3.062,3.062,0,0,1,.986-1.724c.145-.111.325-.3.523-.193a3.5,3.5,0,0,1,1.808,2.017,4.16,4.16,0,0,1,.116,2.149h1.53a6.154,6.154,0,0,1,.36-3.877c.5-.169,1,.276,1.189.717a7.143,7.143,0,0,1,.382,3.172c.5,0,.991,0,1.488.009q.009-2.953,0-5.906a40.574,40.574,0,0,0-7.142-.524,41.07,41.07,0,0,0-5.573.538m24.489-.346c-.065.465.8.445.662-.018a4.012,4.012,0,0,1-.662.018m-83.96.216c.079.085.094.324.26.28.161-.016.318-.052.475-.082-.009-.055-.026-.167-.035-.222-.234.011-.468.016-.7.024m25.624,1.149c.186,7.347.129,14.7.073,22.045-.056,5.673-.124,11.345-.24,17.017,2.309.034,4.619-.017,6.929-.007.023-4.454,0-8.908.013-13.362a3.652,3.652,0,0,0-.093-.993c-.115-.4.108-.779.092-1.177q-.006-1.28,0-2.559a12.953,12.953,0,0,1,.023-1.877,8.157,8.157,0,0,1,1.373-3.448,12.947,12.947,0,0,1,3.285-3.226,23.551,23.551,0,0,1,5.273-2.7c.3-.146.609.027.895.119a16.5,16.5,0,0,1,7.107,4.709,8.743,8.743,0,0,1,2.043,5.131q.207,9.643.4,19.285c2.023,0,4.045-.01,6.067-.026q.114-8.193.214-16.388c.083-4.965.046-9.931.056-14.9-.07-1.121.143-2.233.139-3.352.008-1.433,0-2.865,0-4.3q-16.828,0-33.654,0m-7.645,2.216a3.746,3.746,0,0,0-.363,2.574c1.03.022,2.058.053,3.088.042a8.2,8.2,0,0,0-.116-2.565,3.2,3.2,0,0,0-1.1-1.444,3.7,3.7,0,0,0-1.506,1.393m47.193-1.393a3.145,3.145,0,0,0-1.132,1.578,9.057,9.057,0,0,0-.081,2.428c1.029.017,2.056-.022,3.085-.037a3.7,3.7,0,0,0-.378-2.61,3.654,3.654,0,0,0-1.494-1.359m-41.92.207a1.975,1.975,0,0,0-.586.826,8.614,8.614,0,0,0-.36,2.968c.615.006,1.231,0,1.846-.016a7,7,0,0,0,.016-2.1,2.5,2.5,0,0,0-.916-1.679m-8.734.767a7.056,7.056,0,0,0-.35,3.065c.51-.006,1.021,0,1.532-.007a6.009,6.009,0,0,0-.326-3.782,1.291,1.291,0,0,0-.855.724m46.195.142a5.8,5.8,0,0,0-.205,2.866c.617.007,1.234.024,1.852.019a10.649,10.649,0,0,0-.192-2.407,2.285,2.285,0,0,0-.766-1.39,2.33,2.33,0,0,0-.688.912m8.561-.854a6.042,6.042,0,0,0-.294,3.777q.757-.012,1.517,0a7.122,7.122,0,0,0-.331-3.03,1.22,1.22,0,0,0-.892-.749M181.1,217.37c-.254.113-.225.423-.231.654a11.139,11.139,0,0,0,.032,1.27.407.407,0,0,0,.762.009,12.362,12.362,0,0,0,.02-1.576.4.4,0,0,0-.583-.357m78.415,0a.377.377,0,0,0-.214.348c-.025.4-.009.8-.012,1.194.008.2-.02.467.188.587a.4.4,0,0,0,.62-.294c.028-.492.023-.987,0-1.48a.4.4,0,0,0-.587-.355m-119.6.748q-.006.7,0,1.4,4.981,0,9.962,0,.007-.7,0-1.4-4.981,0-9.962,0m150.893,0q-.007.7,0,1.4,4.98.006,9.961,0,.007-.7,0-1.4-4.981,0-9.961,0m-101.673.889a16.865,16.865,0,0,0,.045,2,.614.614,0,0,1-.509.191,23.353,23.353,0,0,0-2.661.182,3.273,3.273,0,0,1-.562-.079c.809-.078,1.615-.171,2.424-.25,0-.667,0-1.334,0-2-3.188.311-6.369.68-9.557.988.043.659.125,1.314.17,1.973.115.061.23.123.352.175-.152,0-.3.014-.452.021q-.016,15.406,0,30.812h1.812c.034-2.591.056-5.183.084-7.774a4.364,4.364,0,0,1,.663-2.3,4.083,4.083,0,0,1,2.2-1.65c.232-.1.456.056.654.162a6.1,6.1,0,0,1,1.377,1.082,3.538,3.538,0,0,1,1.032,2.313q.033,4.085.08,8.17c1.694,0,3.389.007,5.083,0,.032-2.558.085-5.116.117-7.673a3.7,3.7,0,0,1,1.053-2.537,7.394,7.394,0,0,1,3.236-1.88,1.145,1.145,0,0,1,.848.126,7.087,7.087,0,0,1,2.789,1.826,3.138,3.138,0,0,1,.87,1.872q.059,4.136.125,8.272c1.008,0,2.016,0,3.024,0,.171-10.221.313-20.442.279-30.665,0-.425-.01-.849-.021-1.273a14.918,14.918,0,0,1-2.746-.12c.92-.025,1.841,0,2.763-.033-.017-.663-.006-1.327-.03-1.988-4.847.033-9.695.035-14.542.07m48.485-.069c-.056.661-.1,1.323-.162,1.984,4.8.049,9.6.058,14.4.07q-.006-.988,0-1.977c-4.748-.051-9.5-.043-14.244-.077m-49.547.046q0,1.009,0,2.02.432,0,.866-.011c0-.666,0-1.331,0-2-.29-.01-.579-.013-.868-.012m63.986,0q0,1.007,0,2.015l.852.006c.011-.658.03-1.317,0-1.974a2.736,2.736,0,0,0-.853-.047m1.06.058c0,.668,0,1.336,0,2q4.69.484,9.378.976c.069-.658.121-1.317.189-1.975-.932-.109-1.865-.217-2.8-.285-2.251-.267-4.508-.48-6.763-.721m-111.935.69.166.087c-.18,4.814-.324,9.631-.494,14.446,2.751.009,5.5,0,8.252,0q-.138-5.536-.291-11.072a17.008,17.008,0,0,0-.068-2.623,4.188,4.188,0,0,0-.058-.949l-.047.114c-.728-.062-1.458-.016-2.187-.029-1.758.014-3.516-.03-5.273.021m150.892,0,.167.087c-.179,4.816-.326,9.634-.492,14.451q4.125,0,8.252,0c-.09-3.677-.2-7.354-.282-11.031a14.37,14.37,0,0,0-.077-2.377,6.868,6.868,0,0,0-.057-1.233l-.043.113c-.893-.065-1.788-.013-2.682-.03-1.595.013-3.191-.025-4.785.019m-71.543,4.11a20.159,20.159,0,0,0-7.147,4.306,8.447,8.447,0,0,0-2.653,5.462c.041,1.412.016,2.825.026,4.238,2.489,0,4.98,0,7.47,0-.139-1.077-.028-2.171-.062-3.255.044-.789-.17-1.668.3-2.368a4.049,4.049,0,0,1,2.258-1.541,3.116,3.116,0,0,1,2.425,2.334c.058,1.015.046,2.034.08,3.051a11.277,11.277,0,0,1-.022,1.779q3.617-.006,7.236,0c-.021-1.318-.057-2.634-.078-3.951a8.188,8.188,0,0,0-1.44-4.536,12.039,12.039,0,0,0-3-3.029,19.022,19.022,0,0,0-4.838-2.479.654.654,0,0,0-.554-.016m0,7.1a4.613,4.613,0,0,0-1.529.943,1.917,1.917,0,0,0-.64,1.423c.006,1.458,0,2.915,0,4.372,1.569-.009,3.137-.006,4.706-.029-.036-1.479-.059-2.959-.1-4.437a2.579,2.579,0,0,0-1.626-2.089c-.254-.1-.537-.323-.817-.183m-81.21,3.529q-.006.7,0,1.4,5.58,0,11.161,0v-1.394c-3.72-.01-7.44,0-11.161,0m150.893,0c0,.466,0,.933,0,1.4,3.717,0,7.435,0,11.154,0,.01-.468.009-.937,0-1.4q-5.577,0-11.155,0m-149.411,1.57q-.29,8.487-.567,16.977H149.6q-.158-6.142-.323-12.286a5.66,5.66,0,0,0-.049-1.38q.009-1.648-.067-3.294l-.161.011c-2.262-.009-4.523.006-6.785,0a8.032,8.032,0,0,0-1.021.047,3.862,3.862,0,0,0-.4-.07m150.894,0q-.29,8.489-.566,16.979,4.684,0,9.369,0-.228-8.478-.448-16.957l-.131.012c-1.479-.017-2.959,0-4.438,0-1.128.025-2.261-.056-3.386.045-.134-.031-.267-.054-.4-.072m-81.057,2.007c0,.2,0,.407,0,.612q9.9.015,19.8,0c0-.206,0-.41,0-.614q-9.9,0-19.8,0m.127.814c-.016,4.718-.009,9.438,0,14.157,2.058,0,4.117,0,6.175,0q0-3.092,0-6.183a4.443,4.443,0,0,1,.154-1.673,4.735,4.735,0,0,1,2.256-2.35,5.768,5.768,0,0,1,1.477-.622,5.992,5.992,0,0,1,2.864,1.769,3.362,3.362,0,0,1,.829,2.079q.072,3.491.147,6.982,3.052,0,6.1,0-.145-7.08-.295-14.16-9.853.013-19.707,0m-51.333,1.449q0,.51,0,1.023,4.095,0,8.189,0,0-.512,0-1.024-4.094,0-8.188,0m113.021,0q0,.51,0,1.023,4.092,0,8.187,0,0-.512,0-1.023-4.094,0-8.187,0M193.3,242.37a4.078,4.078,0,0,0-1.5,2.071,6.476,6.476,0,0,0-.132,1.691c-.041,2.29-.065,4.581-.116,6.871,2.883.023,5.766,0,8.649.011-.036-2.756-.085-5.511-.12-8.267a2.564,2.564,0,0,0-.586-1.447,6.437,6.437,0,0,0-2.829-2.021c-.282-.1-.585-.286-.89-.155a8.03,8.03,0,0,0-2.476,1.245m50.99-1.079a6.41,6.41,0,0,0-2.825,2.04,2.539,2.539,0,0,0-.563,1.422c-.036,2.76-.085,5.52-.121,8.281q4.321-.006,8.644,0-.059-3.9-.123-7.79a3.24,3.24,0,0,0-.46-1.592,6.346,6.346,0,0,0-3.574-2.507c-.331-.162-.669.029-.977.148m-83.833.218c0,.3.01.6.026.9-.12,3.537-.252,7.073-.35,10.61,2.272-.007,4.544,0,6.815,0-.1-3.825-.189-7.65-.311-11.475l0-.047c-2.061,0-4.124-.012-6.184.013m20.411,1.965a4.847,4.847,0,0,0-.4,2.269c-.022,2.423-.055,4.846-.073,7.27h5.683c-.033-2.824-.042-5.648-.092-8.471a4.614,4.614,0,0,0-2.651-3.115,3.93,3.93,0,0,0-2.469,2.046m75.411-1.119a3.508,3.508,0,0,0-1.3,2.593c-.02,2.694-.052,5.39-.077,8.084h5.685c-.02-2.527-.055-5.054-.075-7.58a4.673,4.673,0,0,0-.241-1.594,3.806,3.806,0,0,0-2.578-2.4,4.319,4.319,0,0,0-1.413.9m17.195-.848q.013.352.036.705c-.124,3.6-.256,7.208-.357,10.811,2.271-.01,4.544,0,6.816,0q-.152-5.733-.3-11.464l0-.055c-2.066,0-4.131-.01-6.2.008m-55.089,2.2a3.612,3.612,0,0,0-1.171,1.681,4.5,4.5,0,0,0-.09,1.342c.006,2.1-.006,4.2.007,6.3q3.66,0,7.322,0c-.04-2.33-.1-4.658-.142-6.988a3.236,3.236,0,0,0-.959-2.147,6.553,6.553,0,0,0-2.546-1.525,7.964,7.964,0,0,0-2.422,1.341m18.847,5.244c-.008,1.2-.019,2.4-.019,3.594.01.19-.1.383-.039.572.143-.162.078-.38.1-.57-.025-1.2,0-2.4-.041-3.6m-98.726,4.285c-.181,1.36-.4,2.714-.585,4.073q82.519,0,165.038,0c-.327-1.362-.663-2.722-.993-4.083q-19.42-.013-38.839,0c-.311,0-.57.233-.885.2-8.249-.016-16.5.016-24.746-.016-.337-.282-.794-.169-1.2-.185q-38.167,0-76.334,0C152.813,253.226,145.659,253.2,138.506,253.231Z" transform="translate(-0.103)" fill="#232326"/>
    <path id="Path_753" data-name="Path 753" d="M363.229,488.824a.66.66,0,0,1,1.21.1c.012.2-.152.322-.286.437.111.1.262.182.275.349.05.2-.135.337-.273.444.118.117.327.237.257.437a3.1,3.1,0,0,0-.041,1.213,1.937,1.937,0,0,1,1.534.828,4.467,4.467,0,0,1,.516,2.807c.39.077.84.007,1.173.265a10.133,10.133,0,0,1-.469,1.169c-.269.207-.635-.029-.943-.029v4.568c.394.047.792.074,1.182.15a.255.255,0,0,1,.206.267c.012.3.013.6,0,.907.023.124-.1.217-.209.228-.315.026-.631.006-.947.01q.142,5.364.283,10.731c.28.039.675-.119.865.156a7.516,7.516,0,0,1,0,1.095c-.15.271-.518.129-.767.161,0,.025.013.074.018.1a6.349,6.349,0,0,0-1.9-.128c-1.022,0-2.044,0-3.064-.012a4.567,4.567,0,0,0-1.134.124h-.035c-.245-.169-.766.076-.79-.343.015-.366-.128-.827.124-1.129a7.367,7.367,0,0,1,.958-.021q.18-5.366.36-10.732c-.438-.011-.879.028-1.315-.019-.161-.127-.138-.352-.144-.533a3.766,3.766,0,0,1,.038-.754c.073-.124.229-.115.351-.143.358-.054.718-.093,1.078-.135,0-1.525,0-3.049,0-4.572-.319.018-.656.2-.962.1a4.046,4.046,0,0,1-.466-1.109c-.068-.158.125-.263.254-.267.388-.073.781-.108,1.173-.152a4.092,4.092,0,0,1,.248-2.494,2.132,2.132,0,0,1,1.537-1.07c.046-.449.077-.9.123-1.347.009-.158.175-.215.275-.3-.145-.119-.378-.253-.288-.48.01-.166.157-.253.265-.354-.16-.12-.344-.3-.264-.523m.313-.084c-.124.072-.2.224-.076.338a.532.532,0,0,0,.769-.068c.046-.35-.466-.415-.693-.27m-.2.966a.521.521,0,0,0,.905.108c-.056-.451-.663-.353-.905-.108m.3.638a.353.353,0,0,0-.255.243.484.484,0,0,0,.861.02c-.035-.275-.387-.331-.606-.262m-.251.639c-.03.339-.064.678-.1,1.017a2.018,2.018,0,0,0-1.414.8,3.731,3.731,0,0,0-.323,2.721q2.335-.037,4.669-.082a4.043,4.043,0,0,0-.582-2.831,1.863,1.863,0,0,0-1.448-.619q-.035-.476-.069-.951a6.679,6.679,0,0,1-.73-.056m-1.864,5.81c.008,1.544-.023,3.09.016,4.634.222-.11.16-.372.173-.572-.01-.823,0-1.644-.013-2.466a1.384,1.384,0,0,1,.169-.847.578.578,0,0,1,.672.043,1.086,1.086,0,0,1,.193.706c.018.985-.018,1.973.011,2.958l.212.063c0-.844-.01-1.69,0-2.534a1.482,1.482,0,0,1,.53-1.2.625.625,0,0,1,.838.095,1.718,1.718,0,0,1,.3,1.113c0,.843,0,1.687,0,2.531h.126c.017-1.01.01-2.019,0-3.028a1.209,1.209,0,0,1,.168-.743.539.539,0,0,1,.756.156,1.994,1.994,0,0,1,.114.79c-.007.963,0,1.925-.011,2.888l.193.014q0-2.289,0-4.576a16.541,16.541,0,0,0-4.453-.023m.45.934a1.769,1.769,0,0,0-.076.66c.014.985.007,1.97,0,2.955.207-.016.414-.029.622-.041.027-.873,0-1.746.015-2.617a3.084,3.084,0,0,0-.068-.847.314.314,0,0,0-.5-.109m1.595.028a1.493,1.493,0,0,0-.418,1.226c.01.765-.018,1.532.02,2.3.419-.01.837,0,1.257.006.015-.8,0-1.6.01-2.4a1.763,1.763,0,0,0-.246-1.077.442.442,0,0,0-.622-.051m1.392.343c-.007,1.068.016,2.136,0,3.2l.63.06c.017-1.026.01-2.05.007-3.076-.016-.225,0-.6-.3-.632-.275-.065-.337.242-.328.444m-4.9,3.655c-.006.344,0,.687,0,1.032q3.644-.01,7.287,0c.016-.343.02-.685.016-1.029a23.949,23.949,0,0,0-7.307,0m1.454,1.219c-.124,3.576-.239,7.153-.363,10.73,1.778.01,3.556,0,5.335,0-.068-2.977-.172-5.952-.223-8.928a16.874,16.874,0,0,0-.023-1.815c-1.575.014-3.151-.007-4.726.01M360.071,513.9q-.009.51,0,1.024c2.428,0,4.856-.012,7.285.006a6.6,6.6,0,0,0,0-1.036C364.928,513.915,362.5,513.9,360.071,513.9Z" transform="translate(-200.304 -285.589)" fill="#232326"/>
    <path id="Path_754" data-name="Path 754" d="M1509.1,488.825a.655.655,0,0,1,1.2.1c.02.2-.147.324-.281.439.107.1.262.181.273.347.048.2-.129.336-.268.442a1.2,1.2,0,0,1,.292.415c-.228.383-.08.828-.085,1.244a1.9,1.9,0,0,1,1.585.9,4.569,4.569,0,0,1,.466,2.733,2.7,2.7,0,0,1,1.178.266c-.151.391-.283.791-.469,1.167-.265.218-.64-.03-.946-.026q0,2.284,0,4.568c.394.047.792.074,1.184.15.13,0,.2.15.2.269.013.3.011.6,0,.9a.217.217,0,0,1-.213.231c-.316.024-.631,0-.945.009q.14,5.364.282,10.731c.294.014.626-.068.884.122-.013.376.016.754-.017,1.131-.2.283-.618.124-.916.173-1.1-.1-2.212-.022-3.317-.046a12.336,12.336,0,0,0-2.617.113l-.028.006c-.261-.132-.579-.027-.818-.208q.008-.583,0-1.166c.32-.226.733-.093,1.1-.124q.182-5.366.361-10.732a4.251,4.251,0,0,1-1.457-.1c.006-.349-.011-.7.007-1.046a.242.242,0,0,1,.2-.262c.415-.084.839-.117,1.26-.172q0-2.287,0-4.574c-.3.052-.6.106-.9.171a4.642,4.642,0,0,1-.589-1.286,3.917,3.917,0,0,1,1.488-.307,4.06,4.06,0,0,1,.247-2.491,2.117,2.117,0,0,1,1.537-1.07c.042-.451.074-.9.127-1.352.006-.147.159-.212.252-.3-.13-.127-.329-.25-.282-.462-.007-.18.167-.263.294-.347-.179-.113-.354-.322-.276-.543m.316-.091a.212.212,0,0,0-.025.388c.232.181.806.078.7-.289a.572.572,0,0,0-.675-.1m.013.817a.267.267,0,0,0-.161.257.527.527,0,0,0,.8.077c.176-.354-.405-.49-.638-.334m.087.788a.471.471,0,0,0-.23.156c-.091.485.905.48.815,0a.56.56,0,0,0-.585-.154m-.255.637c-.029.339-.064.68-.1,1.019a2.033,2.033,0,0,0-1.419.809,3.736,3.736,0,0,0-.319,2.716q2.334-.038,4.668-.083a4.049,4.049,0,0,0-.58-2.827,1.843,1.843,0,0,0-1.45-.619q-.036-.478-.069-.955a4.505,4.505,0,0,1-.731-.06m-1.863,5.815c.01,1.546-.028,3.094.02,4.64a.333.333,0,0,0,.161-.279c.032-1.086-.038-2.176.023-3.26a.48.48,0,0,1,.82-.308,1.289,1.289,0,0,1,.188.8c-.009.965-.006,1.929-.007,2.894l.231,0c-.007-.734,0-1.468-.007-2.2a1.946,1.946,0,0,1,.336-1.315.688.688,0,0,1,.815-.258,1.131,1.131,0,0,1,.512.988c.054.961-.024,1.925.038,2.886a1.051,1.051,0,0,0,.117-.621c-.013-.758,0-1.517-.014-2.275a2.064,2.064,0,0,1,.1-.829.488.488,0,0,1,.628-.148c.25.116.284.431.3.675.029,1.052-.037,2.109.023,3.159l.165.091c.013-1.538,0-3.076.005-4.614a16.5,16.5,0,0,0-4.453-.023m.4,1.1c-.054,1.145.006,2.3-.022,3.443.205-.014.413-.027.622-.038.019-.939,0-1.878.015-2.817a1.787,1.787,0,0,0-.091-.694c-.112-.229-.54-.178-.525.107m1.645-.142a1.489,1.489,0,0,0-.418,1.226c.011.765-.02,1.532.022,2.3.417-.011.835-.006,1.255,0,.016-.8,0-1.6.01-2.406a1.79,1.79,0,0,0-.241-1.065.442.442,0,0,0-.627-.057m1.413.141c-.059,1.133.011,2.273-.028,3.41l.631.052c.01-.959,0-1.917.011-2.875a1.817,1.817,0,0,0-.089-.688c-.1-.236-.544-.18-.526.1m-4.92,3.859c-.006.343,0,.686.011,1.031,2.427-.006,4.854-.013,7.282,0,.016-.344.02-.688.015-1.032a23.793,23.793,0,0,0-7.307,0m1.411,1.206c.011.125.024.253.038.379-.138,3.454-.235,6.911-.357,10.366q2.667,0,5.334,0c-.068-2.976-.174-5.95-.221-8.927a13.16,13.16,0,0,0-.032-1.808c-1.588-.011-3.175,0-4.762-.009m-1.406,10.942c-.011.34-.011.683,0,1.024,2.429,0,4.858-.011,7.287,0,.016-.342.018-.685.008-1.028Q1509.585,513.907,1505.938,513.9Z" transform="translate(-1233.147 -285.587)" fill="#232326"/>
    <path id="Path_755" data-name="Path 755" d="M965.734,174.419a2.233,2.233,0,0,1,.585-1.159,1.462,1.462,0,0,1,.664,1.061c.016.315-.25.526-.361.795-.044.61,0,1.222-.014,1.833.351.251.758.548.8,1.017a1.519,1.519,0,0,1-.628,1.128c.23.341.553.756.356,1.186-.239.452-.8.49-1.246.537-.26-.226-.564-.5-.537-.875s.333-.609.587-.834c-.337-.254-.729-.572-.706-1.041a1.862,1.862,0,0,1,.8-1.182c0-.595.008-1.189,0-1.784A1.061,1.061,0,0,1,965.734,174.419Z" transform="translate(-745.973 -1.464)" fill="#232326"/>
    <path id="Path_756" data-name="Path 756" d="M897.241,252.324a3.442,3.442,0,0,1,.39-.75,1.745,1.745,0,0,1,1.493.413,19.96,19.96,0,0,0,5.929,5.121,5.7,5.7,0,0,1,1.859,1.188.278.278,0,0,1-.245.461,31.9,31.9,0,0,0-9.338-.756,64.352,64.352,0,0,0-7.333.724c-.066-.1-.131-.2-.186-.31,0-.213.19-.352.349-.46.5-.347,1.149-.306,1.672-.607a16.424,16.424,0,0,0,3.532-2.767A8.573,8.573,0,0,0,897.241,252.324Z" transform="translate(-677.991 -72.05)" fill="#232326"/>
    <path id="Path_757" data-name="Path 757" d="M809.307,318.415a43.845,43.845,0,0,1,5.882.041,10.814,10.814,0,0,1,2.449.493,8.132,8.132,0,0,1,2.036,1.132,24.413,24.413,0,0,1,7.377,7.695,15.8,15.8,0,0,1,2.206,8.239,35.241,35.241,0,0,0-6.943-1.314,104.631,104.631,0,0,0-12.118-.41c-1.739-.021-3.479-.014-5.215.075a44.464,44.464,0,0,0-12.035,1.974,16.251,16.251,0,0,1,2.833-9.585,25.812,25.812,0,0,1,7.162-6.935,3.339,3.339,0,0,1,1.08-.591A31.415,31.415,0,0,1,809.307,318.415Z" transform="translate(-590.67 -132.233)" fill="#232326"/>
    <path id="Path_758" data-name="Path 758" d="M181.418,325.12a1.986,1.986,0,0,0,.983.1c.029.467.061.935.093,1.4a2.414,2.414,0,0,1,2.086.968,5.777,5.777,0,0,1,.682,3.716c-2.12.039-4.242.083-6.363.109a5.173,5.173,0,0,1,.39-3.627,2.723,2.723,0,0,1,1.986-1.172C181.324,326.117,181.37,325.618,181.418,325.12Z" transform="translate(-37.064 -138.347)" fill="#232326"/>
    <path id="Path_759" data-name="Path 759" d="M1711.345,325.13a2.029,2.029,0,0,0,.983.1q.041.7.093,1.4a2.417,2.417,0,0,1,2.089.971,5.814,5.814,0,0,1,.681,3.711q-3.182.068-6.364.113a5.149,5.149,0,0,1,.392-3.634,2.745,2.745,0,0,1,1.984-1.171C1711.25,326.124,1711.3,325.627,1711.345,325.13Z" transform="translate(-1416.098 -138.356)" fill="#232326"/>
    <path id="Path_760" data-name="Path 760" d="M179.849,404.063a22.549,22.549,0,0,1,6.066.028c.021,2.12-.009,4.24.015,6.36-.114,0-.228.011-.341.018,0-1.4,0-2.808.006-4.211a1.7,1.7,0,0,0-.188-.917.608.608,0,0,0-.945-.014,1.75,1.75,0,0,0-.135.822c.022,1.394.008,2.787.011,4.181l-.324.033c0-1.174,0-2.346,0-3.519a2.505,2.505,0,0,0-.356-1.437.844.844,0,0,0-1.192-.088,2.184,2.184,0,0,0-.593,1.623c0,1.125-.009,2.252.01,3.377l-.463.014c.014-1.327,0-2.653.009-3.98a1.93,1.93,0,0,0-.18-1c-.22-.352-.9-.334-1.014.1a4.936,4.936,0,0,0-.065,1.294c0,1.221.009,2.443,0,3.665q-.149.025-.3.053C179.822,408.33,179.854,406.2,179.849,404.063Z" transform="translate(-38.045 -209.33)" fill="#232326"/>
    <path id="Path_761" data-name="Path 761" d="M1709.824,404.059a22.62,22.62,0,0,1,6.064.03c.006,2.13.014,4.261,0,6.39l-.321-.026q0-2.1,0-4.2a1.518,1.518,0,0,0-.233-.967c-.259-.281-.883-.245-.963.182a2.147,2.147,0,0,0-.074.687c.024,1.389.007,2.779.013,4.169l-.318.039c-.023-1.207,0-2.414-.011-3.621a2.242,2.242,0,0,0-.4-1.386.844.844,0,0,0-1.189,0,2.208,2.208,0,0,0-.551,1.584c0,1.125-.008,2.252.009,3.377-.156,0-.31.008-.462.014.016-1.328,0-2.655.01-3.982a2.014,2.014,0,0,0-.174-.989.629.629,0,0,0-.91-.11,1.294,1.294,0,0,0-.184.8q.025,2.182,0,4.365l-.317.025C1709.822,408.314,1709.814,406.187,1709.824,404.059Z" transform="translate(-1417.125 -209.328)" fill="#232326"/>
    <path id="Path_762" data-name="Path 762" d="M159.645,471.524a30.44,30.44,0,0,1,7.533-.268c.81.065,1.616.169,2.423.264.012.467.011.933,0,1.4q-4.981,0-9.961,0Q159.638,472.222,159.645,471.524Z" transform="translate(-19.836 -269.958)" fill="#232326"/>
    <path id="Path_763" data-name="Path 763" d="M1689.574,471.495a31.233,31.233,0,0,1,5.928-.37c1.348.055,2.692.2,4.03.369.007.466.006.932,0,1.4q-4.981,0-9.961,0Q1689.563,472.193,1689.574,471.495Z" transform="translate(-1398.871 -269.93)" fill="#232326"/>
    <path id="Path_764" data-name="Path 764" d="M680.254,482.841c.285-.007.57-.009.856-.011,1.124,1.054,2.219,2.145,3.428,3.1a3.833,3.833,0,0,1,1.435,2.13,13.4,13.4,0,0,0,.486,1.46,10.312,10.312,0,0,1,.229,2.252q-6.391.1-12.781.171a7.875,7.875,0,0,1,2.586-6.311C677.638,484.555,679.336,484.175,680.254,482.841Z" transform="translate(-483.374 -280.502)" fill="#232326"/>
    <path id="Path_765" data-name="Path 765" d="M1155.948,482.93c.264-.281.694-.134,1.037-.163.913,1.331,2.6,1.713,3.746,2.782a7.875,7.875,0,0,1,2.6,6.328c-4.233-.056-8.467-.092-12.7-.18a8.362,8.362,0,0,1,1.283-5,8.211,8.211,0,0,1,1.524-1.439C1154.3,484.505,1155.126,483.719,1155.948,482.93Z" transform="translate(-913.091 -280.434)" fill="#232326"/>
    <path id="Path_766" data-name="Path 766" d="M175.336,491.79c2.06,1.091,4.108,2.207,6.166,3.3.207.077.254.295.291.489.077,3.639.192,7.279.277,10.919-2.423,0-4.847,0-7.27,0,.154-4.591.3-9.181.467-13.771C175.289,492.414,175.314,492.1,175.336,491.79Z" transform="translate(-33.5 -288.578)" fill="#232326"/>
    <path id="Path_767" data-name="Path 767" d="M1705.293,491.84c1.868.985,3.72,2,5.587,2.99a3.422,3.422,0,0,1,.783.478,6.922,6.922,0,0,1,.085,1.012q.144,5.111.269,10.225c-2.422,0-4.845,0-7.268,0q.229-6.978.469-13.955C1705.24,492.338,1705.267,492.089,1705.293,491.84Z" transform="translate(-1412.556 -288.624)" fill="#232326"/>
    <path id="Path_768" data-name="Path 768" d="M811.094,496.025a85.9,85.9,0,0,1,9.68,0,33.946,33.946,0,0,1,9.65,1.746,6.207,6.207,0,0,1-.354,1.614,9.625,9.625,0,0,0-.384,1.032,42.717,42.717,0,0,0-5.762-.748c-2.888-.212-5.783-.288-8.679-.317-3.043-.013-6.086-.034-9.128.077a80.6,80.6,0,0,0-11.173,1.028,14.5,14.5,0,0,1-.574-2.561,35.53,35.53,0,0,1,10.511-1.861C806.95,495.93,809.023,495.961,811.094,496.025Z" transform="translate(-591.964 -292.274)" fill="#232326"/>
    <path id="Path_769" data-name="Path 769" d="M377.946,513.92a6.65,6.65,0,0,0,.73.056q.034.475.069.951a1.863,1.863,0,0,1,1.448.619,4.043,4.043,0,0,1,.582,2.831q-2.335.041-4.669.082a3.731,3.731,0,0,1,.323-2.721,2.019,2.019,0,0,1,1.414-.8C377.882,514.6,377.917,514.259,377.946,513.92Z" transform="translate(-214.856 -308.526)" fill="#232326"/>
    <path id="Path_770" data-name="Path 770" d="M1523.886,513.87a4.513,4.513,0,0,0,.731.06c.022.318.045.636.069.955a1.843,1.843,0,0,1,1.45.619,4.05,4.05,0,0,1,.58,2.827q-2.335.044-4.668.083a3.737,3.737,0,0,1,.319-2.716,2.034,2.034,0,0,1,1.419-.809C1523.822,514.55,1523.858,514.209,1523.886,513.87Z" transform="translate(-1247.777 -308.481)" fill="#232326"/>
    <path id="Path_771" data-name="Path 771" d="M1357.977,534.185a1.019,1.019,0,0,1,.85-.855c.181.02.3.209.385.358a3.457,3.457,0,0,1,.1,1.583q-.055,1.821-.1,3.64a1.311,1.311,0,0,1-.208.658c.429-.146.9-.5,1.355-.233.222.139.542.37.427.673a12.7,12.7,0,0,0-.262,2.26c-.063,1.163-.085,2.328-.092,3.492-.8-.08-1.606-.173-2.408-.254a15.045,15.045,0,0,0,.025-1.753.6.6,0,0,0-1.194-.011c-.029.546,0,1.094,0,1.641-.259-.032-.517-.064-.774-.1-.072-1.533-.171-3.063-.252-4.6-.07-1.017-.084-2.038-.209-3.049a.918.918,0,0,1,.812-.976.441.441,0,0,1,.36.3,2.279,2.279,0,0,1,.038,1.057c-.086.619-.151,1.242-.206,1.866.547-.06,1.1-.1,1.643-.188-.05-1.513-.078-3.026-.113-4.539C1358.157,534.828,1357.993,534.518,1357.977,534.185Z" transform="translate(-1097.859 -326.022)" fill="#232326"/>
    <path id="Path_772" data-name="Path 772" d="M546.587,533.608c.273-.333.721.044.934.281.35.426-.027.939-.027,1.407-.032,1.517-.075,3.035-.106,4.553.548.059,1.1.131,1.647.162-.081-.625-.132-1.254-.223-1.877a2.153,2.153,0,0,1,.052-1.057.387.387,0,0,1,.47-.258.953.953,0,0,1,.691.758c-.2,2.614-.3,5.239-.474,7.857q-.382.037-.762.079c.007-.542.033-1.086,0-1.628a.6.6,0,0,0-1.194-.008,10.547,10.547,0,0,0,.042,1.764c-.811.075-1.618.174-2.428.254-.006-1.233-.031-2.465-.1-3.7a10.829,10.829,0,0,0-.3-2.274,1.186,1.186,0,0,1,.807-.554,2.822,2.822,0,0,1,1.01.332,3.27,3.27,0,0,1-.211-1.534c-.04-1.151-.043-2.3-.112-3.454A1.515,1.515,0,0,1,546.587,533.608Z" transform="translate(-367.018 -326.154)" fill="#232326"/>
    <path id="Path_773" data-name="Path 773" d="M815.082,542.361c2.762-.123,5.526-.06,8.289-.091,2.7,0,5.394.062,8.087.207a66.7,66.7,0,0,1,7.006.692,15.593,15.593,0,0,0-.135,1.844c-11.27.024-22.54.007-33.81.009-.04-.532-.1-1.06-.149-1.59A81.262,81.262,0,0,1,815.082,542.361Z" transform="translate(-600.978 -334.08)" fill="#232326"/>
    <path id="Path_774" data-name="Path 774" d="M376.8,571.551a16.544,16.544,0,0,1,4.453.023q0,2.287,0,4.576l-.193-.014c.016-.963,0-1.925.011-2.888a2,2,0,0,0-.114-.79.539.539,0,0,0-.756-.156,1.209,1.209,0,0,0-.168.743c.01,1.009.017,2.018,0,3.028h-.126c0-.844,0-1.687,0-2.531a1.718,1.718,0,0,0-.3-1.114.625.625,0,0,0-.838-.095,1.482,1.482,0,0,0-.53,1.2c-.013.844,0,1.69,0,2.534l-.212-.063c-.029-.985.007-1.973-.011-2.958a1.087,1.087,0,0,0-.193-.706.578.578,0,0,0-.672-.043,1.384,1.384,0,0,0-.169.847c.016.822,0,1.643.013,2.466-.013.2.049.462-.173.572C376.78,574.641,376.81,573.1,376.8,571.551Z" transform="translate(-215.576 -360.347)" fill="#232326"/>
    <path id="Path_775" data-name="Path 775" d="M1522.736,571.548a16.507,16.507,0,0,1,4.453.023c0,1.538.008,3.076-.005,4.614l-.165-.091c-.06-1.05.006-2.107-.023-3.159-.017-.244-.051-.558-.3-.675a.487.487,0,0,0-.628.148,2.064,2.064,0,0,0-.1.829c.017.758,0,1.517.014,2.275a1.051,1.051,0,0,1-.117.621c-.062-.961.016-1.925-.038-2.886a1.131,1.131,0,0,0-.512-.988.688.688,0,0,0-.815.258,1.947,1.947,0,0,0-.336,1.315c0,.734,0,1.468.007,2.2l-.231,0c0-.965,0-1.929.007-2.894a1.29,1.29,0,0,0-.188-.8.48.48,0,0,0-.82.308c-.061,1.084.009,2.174-.023,3.26a.333.333,0,0,1-.161.279C1522.708,574.642,1522.746,573.094,1522.736,571.548Z" transform="translate(-1248.489 -360.343)" fill="#232326"/>
    <path id="Path_776" data-name="Path 776" d="M676.06,583.079a39.55,39.55,0,0,1,7.492-.514,43.758,43.758,0,0,1,5.2.516c.03,2.014.006,4.027.013,6.041q-.515.007-1.028.008a5.5,5.5,0,0,0-.368-3.253,1.826,1.826,0,0,0-.658-.689c-.4.036-.63.436-.788.761a8.437,8.437,0,0,0-.438,3.194q-.6,0-1.2,0a6.368,6.368,0,0,0-.28-2.974,3.113,3.113,0,0,0-1-1.152c-.168-.1-.353,0-.5.092a3.582,3.582,0,0,0-1.647,2.11,4.657,4.657,0,0,0-.071,1.95c-.5-.009-1-.008-1.493-.006a6.548,6.548,0,0,0-.3-3.7c-.042-.116-.142-.238-.278-.222a1.318,1.318,0,0,0-1.063.923,7.836,7.836,0,0,0-.319,3.015q-.641,0-1.281,0Q676.057,586.129,676.06,583.079Z" transform="translate(-485.321 -370.379)" fill="#232326"/>
    <path id="Path_777" data-name="Path 777" d="M1150.47,585.134a41.067,41.067,0,0,1,5.573-.537,40.577,40.577,0,0,1,7.141.524q.006,2.953,0,5.906c-.5-.007-.993-.009-1.488-.009a7.142,7.142,0,0,0-.382-3.172c-.191-.441-.684-.886-1.189-.717a6.153,6.153,0,0,0-.36,3.877h-1.53a4.161,4.161,0,0,0-.116-2.149,3.5,3.5,0,0,0-1.808-2.017c-.2-.111-.378.082-.523.193a3.062,3.062,0,0,0-.986,1.724,10.07,10.07,0,0,0-.041,2.227q-.6,0-1.2-.008a8.474,8.474,0,0,0-.428-3.155,1.377,1.377,0,0,0-.663-.779c-.351-.019-.558.331-.733.583a5.264,5.264,0,0,0-.427,3.345l-.83,0C1150.467,589.023,1150.484,587.078,1150.47,585.134Z" transform="translate(-912.943 -372.223)" fill="#232326"/>
    <path id="Path_778" data-name="Path 778" d="M805.767,600.47q16.827,0,33.654,0c0,1.431,0,2.863,0,4.3,0,1.119-.209,2.231-.139,3.352-.01,4.966.027,9.932-.056,14.9q-.109,8.194-.214,16.388c-2.023.016-4.045.029-6.068.026q-.206-9.643-.4-19.285a8.743,8.743,0,0,0-2.043-5.131,16.5,16.5,0,0,0-7.107-4.709c-.286-.093-.6-.265-.895-.119a23.547,23.547,0,0,0-5.273,2.7,12.945,12.945,0,0,0-3.285,3.226,8.157,8.157,0,0,0-1.373,3.448,12.96,12.96,0,0,0-.023,1.877q0,1.278,0,2.559c.017.4-.207.78-.092,1.177a3.653,3.653,0,0,1,.093.993c-.015,4.454.01,8.908-.013,13.362-2.31-.01-4.62.04-6.929.007.115-5.672.183-11.344.24-17.017.056-7.348.113-14.7-.073-22.045m2.131,2.208a14.565,14.565,0,0,0-.053,2.384q.019,14.4.006,28.8c.023,1.023-.051,2.048.043,3.068a11.633,11.633,0,0,0,1.788.063c.19-.013.483.028.552-.211a7.045,7.045,0,0,0,.029-1.041q0-15.344,0-30.69c8.241.007,16.482-.022,24.724.015q-.016,14.445-.005,28.89c.021.989-.046,1.981.04,2.969a13.3,13.3,0,0,0,2.286,0c.085-.888.021-1.781.04-2.671v-28.6c-.024-.984.051-1.974-.043-2.955a12.006,12.006,0,0,0-1.291-.043c-2.53.048-5.06.015-7.59.025H810.568a20.608,20.608,0,0,0-2.67,0m4.131,4.231a3.365,3.365,0,0,0-.067,1.006c0,2.96,0,5.92,0,8.879.032.214-.006.594.287.616.141-.239.235-.5.351-.753a8.13,8.13,0,0,1,1.207-1.856,15.984,15.984,0,0,1,4.482-3.5,25.2,25.2,0,0,1,4.51-1.941,14.937,14.937,0,0,1,2.5.887,17.835,17.835,0,0,1,5.15,3.33,11.346,11.346,0,0,1,2.637,3.805c.116,0,.235,0,.354,0,.031-3.317-.019-6.635-.021-9.951-.031-.178.051-.426-.129-.539a4.253,4.253,0,0,0-1.033-.053q-9.564,0-19.13,0A3.809,3.809,0,0,0,812.029,606.909Z" transform="translate(-602.087 -386.54)" fill="#232326"/>
    <path id="Path_779" data-name="Path 779" d="M362,620.569a23.945,23.945,0,0,1,7.307,0c0,.343,0,.685-.016,1.029q-3.642-.01-7.287,0C362,621.257,361.993,620.913,362,620.569Z" transform="translate(-202.233 -404.405)" fill="#232326"/>
    <path id="Path_780" data-name="Path 780" d="M1507.932,620.568a23.794,23.794,0,0,1,7.307,0c0,.343,0,.687-.015,1.032-2.427-.016-4.854-.009-7.282,0C1507.928,621.254,1507.926,620.911,1507.932,620.568Z" transform="translate(-1235.147 -404.401)" fill="#232326"/>
    <path id="Path_781" data-name="Path 781" d="M373.453,635.48c1.587.592,3.168,1.2,4.749,1.8.051,2.976.155,5.951.223,8.928-1.778,0-3.556.007-5.335,0C373.214,642.633,373.329,639.056,373.453,635.48Z" transform="translate(-212.234 -418.097)" fill="#232326"/>
    <path id="Path_782" data-name="Path 782" d="M1519.435,635.73c1.584.561,3.147,1.184,4.718,1.781.047,2.977.153,5.951.221,8.927q-2.667.006-5.334,0c.122-3.455.219-6.912.357-10.366C1519.407,635.987,1519.425,635.816,1519.435,635.73Z" transform="translate(-1245.162 -418.322)" fill="#232326"/>
    <path id="Path_783" data-name="Path 783" d="M159.643,642.935q4.981,0,9.962,0,.007.7,0,1.4-4.981,0-9.962,0Q159.637,643.634,159.643,642.935Z" transform="translate(-19.835 -424.815)" fill="#232326"/>
    <path id="Path_784" data-name="Path 784" d="M1689.576,642.939q4.981,0,9.961,0,.007.7,0,1.4-4.981,0-9.961,0Q1689.569,643.638,1689.576,642.939Z" transform="translate(-1398.876 -424.819)" fill="#232326"/>
    <path id="Path_785" data-name="Path 785" d="M658.651,651.32c4.848-.034,9.7-.037,14.543-.07.024.662.013,1.326.03,1.988-.921.035-1.842.008-2.763.033-2.939-.044-5.88-.068-8.819.019-.981.027-1.965-.025-2.945.028A16.874,16.874,0,0,1,658.651,651.32Z" transform="translate(-469.623 -432.311)" fill="#232326"/>
    <path id="Path_786" data-name="Path 786" d="M1148.842,651.26c4.748.034,9.5.026,14.244.077q-.007.99,0,1.977c-4.8-.012-9.6-.021-14.4-.07C1148.74,652.583,1148.785,651.921,1148.842,651.26Z" transform="translate(-911.33 -432.32)" fill="#232326"/>
    <path id="Path_787" data-name="Path 787" d="M647.933,651.728c.289,0,.578,0,.868.012-.007.666,0,1.331,0,2q-.433.01-.866.011Q647.93,652.738,647.933,651.728Z" transform="translate(-459.968 -432.743)" fill="#232326"/>
    <path id="Path_788" data-name="Path 788" d="M1296.7,651.658a2.738,2.738,0,0,1,.853.047c.029.657.01,1.316,0,1.974l-.852-.006Q1296.7,652.665,1296.7,651.658Z" transform="translate(-1044.749 -432.67)" fill="#232326"/>
    <path id="Path_789" data-name="Path 789" d="M1307.425,652.34c2.255.241,4.512.454,6.763.721.935.068,1.868.176,2.8.285-.068.658-.12,1.317-.189,1.974q-4.69-.485-9.378-.976C1307.429,653.676,1307.424,653.008,1307.425,652.34Z" transform="translate(-1054.414 -433.294)" fill="#232326"/>
    <path id="Path_790" data-name="Path 790" d="M549.06,653.378c3.188-.309,6.369-.678,9.557-.988,0,.666,0,1.333,0,2-.809.079-1.615.172-2.424.25-2.323.2-4.639.475-6.959.711C549.185,654.692,549.1,654.037,549.06,653.378Z" transform="translate(-370.848 -433.339)" fill="#232326"/>
    <path id="Path_791" data-name="Path 791" d="M169.694,660.22c1,.476,2.01.914,3.012,1.379,1.488.658,2.948,1.385,4.455,2q.151,5.536.291,11.072c-2.751-.006-5.5,0-8.252,0C169.371,669.851,169.515,665.034,169.694,660.22Z" transform="translate(-28.453 -440.397)" fill="#232326"/>
    <path id="Path_792" data-name="Path 792" d="M1699.652,660.19c2.484,1.158,4.989,2.273,7.478,3.42.078,3.678.192,7.355.282,11.031q-4.128,0-8.252,0C1699.326,669.824,1699.473,665.006,1699.652,660.19Z" transform="translate(-1407.518 -440.37)" fill="#232326"/>
    <path id="Path_793" data-name="Path 793" d="M1149.061,673.63l.531.03c.766.164,1.55.216,2.327.308,7.4.788,14.829,1.247,22.252,1.758q.012,14.986,0,29.973c-.625,0-1.25,0-1.875.01.109-.979.015-1.965.029-2.947-.016-1.645-.037-3.29-.049-4.934a4.515,4.515,0,0,0-.534-2.179,4.086,4.086,0,0,0-2.047-1.777c-.218-.08-.468-.193-.687-.059a5.547,5.547,0,0,0-1.863,1.5,3.275,3.275,0,0,0-.794,2.025c-.015,2.169-.043,4.337-.06,6.505a9.839,9.839,0,0,0,.056,1.874c-1.736-.023-3.473-.017-5.208,0a16.945,16.945,0,0,0,.023-2.065c-.026-1.677-.055-3.351-.08-5.027a5.011,5.011,0,0,0-.323-2.234,5.817,5.817,0,0,0-3.349-2.76c-.386-.131-.806-.366-1.214-.187a7.329,7.329,0,0,0-2.977,1.85,3.11,3.11,0,0,0-.948,2.044c-.025,2.173-.064,4.345-.094,6.516a8.992,8.992,0,0,0,.053,1.865c-1.057-.024-2.114,0-3.17-.011q0-16.035,0-32.07m7.226,4.228a6.989,6.989,0,0,0-3.326,2.174,2.812,2.812,0,0,0-.688,1.723c-.022,2.8-.109,5.6-.1,8.407a4.8,4.8,0,0,0,.929.078c2.691.012,5.383.116,8.073.087.016-2.232-.062-4.463-.083-6.695a6.86,6.86,0,0,0-.338-2.824,5.947,5.947,0,0,0-3.422-2.767c-.335-.1-.687-.313-1.042-.182m12.719.579a4.232,4.232,0,0,0-2.716,4.1c0,1.646-.005,3.292-.01,4.938.02,1.017-.049,2.036.032,3.049,1.412.074,2.83.014,4.245.034a12.1,12.1,0,0,0,1.745-.05,6.791,6.791,0,0,0,.041-1.358c-.02-2.038-.044-4.075-.062-6.113a5.587,5.587,0,0,0-.216-1.8,4.413,4.413,0,0,0-2.425-2.706A.786.786,0,0,0,1169.006,678.437Z" transform="translate(-911.672 -452.484)" fill="#232326"/>
    <path id="Path_794" data-name="Path 794" d="M549.7,683.833c.15-.007.3-.016.452-.021,1.7-.084,3.4-.011,5.094-.01q9.888.087,19.776.177c.034,10.223-.109,20.444-.279,30.665-1.008,0-2.016,0-3.024,0q-.071-4.136-.125-8.272a3.138,3.138,0,0,0-.87-1.872,7.087,7.087,0,0,0-2.789-1.826,1.145,1.145,0,0,0-.848-.126,7.394,7.394,0,0,0-3.236,1.88,3.7,3.7,0,0,0-1.053,2.537c-.032,2.557-.086,5.115-.117,7.673-1.694.012-3.389,0-5.083,0q-.046-4.085-.08-8.17a3.538,3.538,0,0,0-1.032-2.313,6.1,6.1,0,0,0-1.377-1.082c-.2-.106-.422-.265-.654-.162a4.083,4.083,0,0,0-2.2,1.65,4.363,4.363,0,0,0-.663,2.3c-.028,2.591-.05,5.183-.084,7.774H549.7q-.01-15.4,0-30.812m17.417,3.156a7.26,7.26,0,0,0-3.345,1.971,3.658,3.658,0,0,0-.975,2.427c-.03,2.6-.09,5.194-.112,7.79a.278.278,0,0,0,.346.314c2.8-.041,5.6-.072,8.4-.129.278.037.29-.279.282-.473-.039-2.666-.085-5.331-.116-8a2.822,2.822,0,0,0-.7-1.733,6.768,6.768,0,0,0-2.915-2.018,1.277,1.277,0,0,0-.859-.151m-12.642.587A4.37,4.37,0,0,0,551.8,690.4a7.831,7.831,0,0,0-.213,2.369q-.034,3.255-.069,6.509c-.02.179.052.427.279.409,1.806.02,3.613,0,5.418.008a.308.308,0,0,0,.379-.32c0-2.368-.014-4.738-.013-7.107a6.182,6.182,0,0,0-.144-1.878,4.2,4.2,0,0,0-2.6-2.822A.5.5,0,0,0,554.476,687.576Z" transform="translate(-371.418 -461.626)" fill="#232326"/>
    <path id="Path_795" data-name="Path 795" d="M887.5,700.473a.654.654,0,0,1,.554.016,19.027,19.027,0,0,1,4.838,2.479,12.039,12.039,0,0,1,3,3.029,8.188,8.188,0,0,1,1.44,4.536c.021,1.317.057,2.633.078,3.951q-3.619-.01-7.236,0a11.279,11.279,0,0,0,.022-1.779c-.034-1.017-.022-2.036-.08-3.051a3.116,3.116,0,0,0-2.425-2.333,4.049,4.049,0,0,0-2.258,1.541c-.472.7-.258,1.579-.3,2.368.034,1.084-.077,2.178.062,3.255-2.49-.008-4.981,0-7.47,0-.01-1.413.016-2.826-.026-4.238a8.447,8.447,0,0,1,2.653-5.462A20.16,20.16,0,0,1,887.5,700.473Z" transform="translate(-667.076 -476.63)" fill="#232326"/>
    <path id="Path_796" data-name="Path 796" d="M362.009,746.256c2.428,0,4.856.012,7.285-.006a6.6,6.6,0,0,1,0,1.036c-2.428-.018-4.856-.007-7.285-.006Q362,746.766,362.009,746.256Z" transform="translate(-202.242 -517.942)" fill="#232326"/>
    <path id="Path_797" data-name="Path 797" d="M1507.946,746.31q3.648.007,7.3,0c.01.342.008.685-.008,1.028-2.429-.015-4.858-.006-7.288,0C1507.935,746.992,1507.935,746.65,1507.946,746.31Z" transform="translate(-1235.155 -517.996)" fill="#232326"/>
    <path id="Path_798" data-name="Path 798" d="M369.409,761.54c1.83.667,3.626,1.422,5.451,2.1.063,2.732.148,5.464.209,8.2H369.02q.158-4.771.32-9.54C369.355,762.042,369.383,761.791,369.409,761.54Z" transform="translate(-208.565 -531.724)" fill="#232326"/>
    <path id="Path_799" data-name="Path 799" d="M1515.369,761.53c1.827.67,3.625,1.422,5.449,2.1.062,2.732.147,5.464.209,8.2h-6.047c.1-3.213.215-6.426.322-9.638C1515.315,761.968,1515.342,761.748,1515.369,761.53Z" transform="translate(-1241.503 -531.715)" fill="#232326"/>
    <path id="Path_800" data-name="Path 800" d="M957.184,772.561c.28-.139.562.081.817.183a2.579,2.579,0,0,1,1.626,2.089c.038,1.478.062,2.958.1,4.437-1.569.023-3.137.02-4.706.029,0-1.457,0-2.914,0-4.372a1.917,1.917,0,0,1,.64-1.423A4.613,4.613,0,0,1,957.184,772.561Z" transform="translate(-736.764 -541.617)" fill="#232326"/>
    <path id="Path_801" data-name="Path 801" d="M153.583,808.728c3.72,0,7.44-.007,11.161,0v1.394q-5.58.009-11.161,0Q153.577,809.428,153.583,808.728Z" transform="translate(-14.373 -574.256)" fill="#232326"/>
    <path id="Path_802" data-name="Path 802" d="M1683.516,808.732q5.577,0,11.155,0c.008.467.009.936,0,1.4-3.718-.008-7.436,0-11.154,0C1683.511,809.665,1683.511,809.2,1683.516,808.732Z" transform="translate(-1393.413 -574.26)" fill="#232326"/>
    <path id="Path_803" data-name="Path 803" d="M163.457,824.67a3.863,3.863,0,0,1,.4.07q3.994,1.746,8.008,3.455c.029.388.056.776.075,1.166q.169,6.142.324,12.286H162.89Q163.159,833.158,163.457,824.67Z" transform="translate(-22.765 -588.628)" fill="#232326"/>
    <path id="Path_804" data-name="Path 804" d="M1693.416,824.66c.132.018.265.041.4.072,2.651,1.158,5.305,2.312,7.969,3.439.025-1.163-.11-2.319-.145-3.48l.131-.012q.231,8.477.448,16.957-4.685,0-9.369,0Q1693.112,833.15,1693.416,824.66Z" transform="translate(-1401.83 -588.619)" fill="#232326"/>
    <path id="Path_805" data-name="Path 805" d="M877.931,853.233q9.853,0,19.707,0,.143,7.08.295,14.16-3.052,0-6.1,0-.078-3.49-.147-6.982a3.363,3.363,0,0,0-.829-2.079,5.992,5.992,0,0,0-2.864-1.769,5.767,5.767,0,0,0-1.477.622,4.736,4.736,0,0,0-2.256,2.35,4.444,4.444,0,0,0-.154,1.673q0,3.09,0,6.183c-2.058.008-4.117,0-6.175,0C877.922,862.671,877.915,857.951,877.931,853.233Z" transform="translate(-667.275 -614.371)" fill="#232326"/>
    <path id="Path_806" data-name="Path 806" d="M357.52,867.939q4.1,0,8.188,0,0,.512,0,1.024-4.095,0-8.189,0Q357.515,868.45,357.52,867.939Z" transform="translate(-198.197 -627.628)" fill="#232326"/>
    <path id="Path_807" data-name="Path 807" d="M1503.471,867.933q4.093,0,8.187,0,0,.51,0,1.023-4.095,0-8.187,0Q1503.466,868.444,1503.471,867.933Z" transform="translate(-1231.127 -627.622)" fill="#232326"/>
    <path id="Path_808" data-name="Path 808" d="M365.142,880.52c2.027.765,4.027,1.606,6.068,2.336.034-.8-.067-1.6.015-2.406.121,3.825.208,7.651.311,11.475-2.271,0-4.543,0-6.815,0,.1-3.537.23-7.073.35-10.61C365.089,881.052,365.116,880.785,365.142,880.52Z" transform="translate(-204.689 -638.906)" fill="#232326"/>
    <path id="Path_809" data-name="Path 809" d="M1511.088,880.613c2.027.765,4.028,1.6,6.066,2.339.021-.8-.067-1.6.019-2.4q.155,5.731.3,11.464c-2.272,0-4.545,0-6.816,0,.1-3.6.233-7.209.357-10.811C1511.035,881.009,1511.061,880.81,1511.088,880.613Z" transform="translate(-1237.609 -638.996)" fill="#232326"/>
    <path id="Path_810" data-name="Path 810" d="M943.765,890.071a7.964,7.964,0,0,1,2.422-1.341,6.551,6.551,0,0,1,2.545,1.525,3.236,3.236,0,0,1,.959,2.147c.045,2.329.1,4.658.142,6.988q-3.662,0-7.322,0c-.013-2.1,0-4.2-.007-6.3a4.5,4.5,0,0,1,.09-1.342A3.611,3.611,0,0,1,943.765,890.071Z" transform="translate(-725.482 -646.37)" fill="#232326"/>
    <path id="Path_811" data-name="Path 811" d="M140.085,998.725c7.153-.036,14.307,0,21.46-.015q38.167,0,76.334,0c.4.017.858-.1,1.2.185,8.248.032,16.5,0,24.746.016.315.032.574-.2.885-.2q19.419.006,38.839,0c.33,1.361.666,2.721.993,4.083q-82.518.007-165.038,0C139.683,1001.439,139.9,1000.085,140.085,998.725Z" transform="translate(-1.682 -745.494)" fill="#232326"/>
    <path id="Path_812" data-name="Path 812" d="M140.076,1053.392q81.724,0,163.447,0,.507,3.886,1,7.777-82.521.007-165.041,0C139.673,1058.575,139.877,1055.984,140.076,1053.392Z" transform="translate(-1.664 -794.79)" fill="#232326"/>
    <path id="Path_813" data-name="Path 813" d="M203.56,292.859a.866.866,0,0,1,1.477-.259.481.481,0,0,1-.143.663c-.436.291-1.214.181-1.334-.4m.378-.25a.277.277,0,0,0-.09.417.744.744,0,0,0,.967.049.272.272,0,0,0,0-.434A.778.778,0,0,0,203.938,292.609Z" transform="translate(-59.424 -108.759)" fill="#232326"/>
    <path id="Path_814" data-name="Path 814" d="M828.2,622.448a20.619,20.619,0,0,1,2.67,0h17.857c2.53-.01,5.061.024,7.59-.025a12.023,12.023,0,0,1,1.291.043c.095.981.02,1.971.043,2.955v28.6c-.02.89.044,1.783-.04,2.671a13.3,13.3,0,0,1-2.286,0c-.087-.987-.02-1.979-.04-2.969q0-14.445,0-28.89c-8.241-.036-16.482-.008-24.724-.015q0,15.346,0,30.69a7.038,7.038,0,0,1-.029,1.041c-.069.239-.362.2-.552.211a11.619,11.619,0,0,1-1.788-.063c-.095-1.02-.021-2.046-.043-3.068q-.006-14.4-.006-28.8a14.558,14.558,0,0,1,.053-2.384m.177.187q-.019,16.942-.007,33.884c.655.031,1.312.01,1.968.014.018-11.295,0-22.589.01-33.884-.657-.034-1.314-.016-1.971-.014m2.19.014c0,.656-.008,1.313,0,1.969,8.24,0,16.481.011,24.72-.007,0-.648-.007-1.3,0-1.945-2.257-.046-4.514-.007-6.771-.02q-8.977,0-17.954,0m24.908.008c.021,11.291,0,22.582.013,33.873.655.008,1.31,0,1.965,0q.016-16.788.008-33.575c-.022-.109.046-.349-.145-.318C856.706,622.619,856.091,622.619,855.479,622.658Z" transform="translate(-622.392 -406.31)" fill="#232326"/>
    <path id="Path_815" data-name="Path 815" d="M685.811,716.07a1.277,1.277,0,0,1,.859.151,6.767,6.767,0,0,1,2.915,2.018,2.821,2.821,0,0,1,.7,1.733c.032,2.666.077,5.331.116,8,.008.194,0,.511-.282.473-2.8.057-5.6.088-8.4.129a.278.278,0,0,1-.346-.314c.023-2.6.083-5.193.112-7.79a3.658,3.658,0,0,1,.975-2.427,7.261,7.261,0,0,1,3.345-1.971m-2.32,1.319a3.869,3.869,0,0,0-1.8,2.981q-.061,4-.124,8.008,4.321-.064,8.644-.126c-.035-2.76-.086-5.518-.119-8.277a2.917,2.917,0,0,0-.874-1.871,6.943,6.943,0,0,0-3.158-1.874A7.219,7.219,0,0,0,683.491,717.389Z" transform="translate(-490.112 -490.707)" fill="#232326"/>
    <path id="Path_816" data-name="Path 816" d="M1184.713,716.122c.355-.13.707.08,1.042.182a5.945,5.945,0,0,1,3.422,2.767,6.856,6.856,0,0,1,.338,2.824c.021,2.232.1,4.463.083,6.695-2.691.03-5.382-.075-8.074-.087a4.8,4.8,0,0,1-.929-.078c-.007-2.8.081-5.6.1-8.407a2.812,2.812,0,0,1,.688-1.723,6.988,6.988,0,0,1,3.326-2.174m-2.725,1.8a3.087,3.087,0,0,0-1.094,2.2c-.031,2.724-.085,5.448-.115,8.172,2.88.037,5.761.085,8.641.124q-.058-4-.123-8a3.429,3.429,0,0,0-.884-2.163,3.757,3.757,0,0,0-6.425-.335Z" transform="translate(-940.098 -490.749)" fill="#232326"/>
    <path id="Path_817" data-name="Path 817" d="M571.1,722.017a.5.5,0,0,1,.363,0,4.2,4.2,0,0,1,2.6,2.822,6.18,6.18,0,0,1,.144,1.878c0,2.369.017,4.739.013,7.107a.307.307,0,0,1-.379.32c-1.806,0-3.613.012-5.418-.008-.227.018-.3-.231-.279-.409q.033-3.255.069-6.509a7.829,7.829,0,0,1,.213-2.369,4.37,4.37,0,0,1,2.679-2.829m-1.212.937a4.176,4.176,0,0,0-1.471,3.17q-.04,3.91-.081,7.818,2.845,0,5.689,0-.018-3.713-.019-7.427a4.672,4.672,0,0,0-.181-1.762,4.057,4.057,0,0,0-2.545-2.606A4.9,4.9,0,0,0,569.89,722.954Z" transform="translate(-388.045 -496.067)" fill="#232326"/>
    <path id="Path_818" data-name="Path 818" d="M1326.306,722.011a.786.786,0,0,1,.633.093,4.414,4.414,0,0,1,2.425,2.706,5.587,5.587,0,0,1,.216,1.8c.018,2.038.042,4.075.062,6.113a6.773,6.773,0,0,1-.042,1.358,12.109,12.109,0,0,1-1.745.05c-1.415-.02-2.833.04-4.245-.034-.081-1.014-.012-2.033-.032-3.05,0-1.646.012-3.292.01-4.938a4.233,4.233,0,0,1,2.716-4.1m-2.509,3.515c-.022,2.8-.012,5.606-.027,8.408q2.842,0,5.686,0c-.029-2.689-.045-5.378-.09-8.067a4.156,4.156,0,0,0-1.764-3.156,2.984,2.984,0,0,0-1.125-.542A4.019,4.019,0,0,0,1323.8,725.526Z" transform="translate(-1068.972 -496.058)" fill="#232326"/>
    <path id="Path_819" data-name="Path 819" d="M138.218,1051.605c-.01-.245.25-.276.438-.268q81.169,0,162.338,0a3.681,3.681,0,0,1,.988.055,1.371,1.371,0,0,1,.121.461c.306,2.446.63,4.89.934,7.336a.292.292,0,0,1-.36.323H138.952c-.426,0-.853.015-1.277-.028a1.809,1.809,0,0,1-.03-.587c.2-2.43.363-4.863.572-7.291m.194-.069c-.2,2.592-.4,5.183-.6,7.776q82.519,0,165.041,0-.5-3.889-1-7.777Q220.136,1051.539,138.412,1051.536Z" transform="translate(0 -792.934)" fill="#232326"/>
    <path id="Path_820" data-name="Path 820" d="M205.986,294.4a.778.778,0,0,1,.874.033.272.272,0,0,1,0,.434.744.744,0,0,1-.967-.049A.277.277,0,0,1,205.986,294.4Z" transform="translate(-61.472 -110.548)" fill="#232326"/>
    <path id="Path_821" data-name="Path 821" d="M206.105,305.723c.3-.142.9-.065.886.357a.685.685,0,0,1-1.05.136C205.761,306.054,205.909,305.786,206.105,305.723Z" transform="translate(-61.497 -120.804)" fill="#232326"/>
    <path id="Path_822" data-name="Path 822" d="M1736.039,305.729c.295-.123.773-.08.887.272-.055.471-.762.509-1.053.228C1735.686,306.064,1735.835,305.789,1736.039,305.729Z" transform="translate(-1440.532 -120.811)" fill="#232326"/>
    <path id="Path_823" data-name="Path 823" d="M206.186,317.056c.3-.1.891.038.769.456a.72.72,0,0,1-1.046.054C205.719,317.356,205.966,317.092,206.186,317.056Z" transform="translate(-61.48 -131.049)" fill="#232326"/>
    <path id="Path_824" data-name="Path 824" d="M1736.122,317.072c.29-.08.763,0,.793.368a.668.668,0,0,1-1.113.088C1735.688,317.307,1735.926,317.116,1736.122,317.072Z" transform="translate(-1440.519 -131.067)" fill="#232326"/>
    <path id="Path_825" data-name="Path 825" d="M202.953,418.566a.608.608,0,0,1,.9.1,2.574,2.574,0,0,1,.3,1.479c-.011,1.095.014,2.19-.015,3.283-.576-.018-1.153,0-1.729-.035-.007-1.116,0-2.233,0-3.349A1.9,1.9,0,0,1,202.953,418.566Z" transform="translate(-58.384 -222.434)" fill="#232326"/>
    <path id="Path_826" data-name="Path 826" d="M227.415,418.466a.42.42,0,0,1,.632.08,1.966,1.966,0,0,1,.127.86c-.02,1.359.014,2.719-.02,4.078-.284-.019-.567-.039-.85-.06q.018-2.155,0-4.31A1.357,1.357,0,0,1,227.415,418.466Z" transform="translate(-80.822 -222.389)" fill="#232326"/>
    <path id="Path_827" data-name="Path 827" d="M1732.589,418.877a.845.845,0,0,1,.678-.481.64.64,0,0,1,.574.379,3.184,3.184,0,0,1,.221,1.455c-.012,1.061.015,2.124-.017,3.186-.576-.017-1.152-.006-1.727-.033-.012-1.051,0-2.1-.008-3.154A2.422,2.422,0,0,1,1732.589,418.877Z" transform="translate(-1437.398 -222.422)" fill="#232326"/>
    <path id="Path_828" data-name="Path 828" d="M185.177,418.453a.42.42,0,0,1,.626.1,2.253,2.253,0,0,1,.121.946c-.016,1.3.016,2.6-.018,3.9q-.426.027-.851.058c.011-1.449.013-2.9-.006-4.346A1.222,1.222,0,0,1,185.177,418.453Z" transform="translate(-42.739 -222.389)" fill="#232326"/>
    <path id="Path_829" data-name="Path 829" d="M1715.015,419.014c-.006-.26.034-.685.4-.646.391-.02.462.445.465.742,0,1.433.018,2.868-.011,4.3-.284.018-.568.037-.85.058C1715.03,421.983,1715.025,420.5,1715.015,419.014Z" transform="translate(-1421.809 -222.395)" fill="#232326"/>
    <path id="Path_830" data-name="Path 830" d="M1757.26,419.026c0-.25.019-.666.368-.649.41-.05.5.439.5.745,0,1.459.017,2.917-.013,4.376q-.426-.028-.849-.059C1757.274,421.968,1757.27,420.5,1757.26,419.026Z" transform="translate(-1459.887 -222.403)" fill="#232326"/>
    <path id="Path_831" data-name="Path 831" d="M739.466,442.643a.267.267,0,0,1,.46.153,3.217,3.217,0,0,1-.02.972c-.107.221-.494.174-.5-.081A2.148,2.148,0,0,1,739.466,442.643Z" transform="translate(-542.388 -244.202)" fill="#232326"/>
    <path id="Path_832" data-name="Path 832" d="M1208.239,442.624a.271.271,0,0,1,.455.178,3.773,3.773,0,0,1-.017.949c-.092.239-.509.19-.51-.078A2.14,2.14,0,0,1,1208.239,442.624Z" transform="translate(-964.924 -244.197)" fill="#232326"/>
    <path id="Path_833" data-name="Path 833" d="M738.271,457.83c.243.012.487.013.731,0l.128.233a.616.616,0,0,1-.792.156C738.181,458.145,738.242,457.961,738.271,457.83Z" transform="translate(-541.365 -257.968)" fill="#232326"/>
    <path id="Path_834" data-name="Path 834" d="M1205.99,458.107c.044-.059.131-.178.175-.237.21.008.422.009.634,0l.168.232A.633.633,0,0,1,1205.99,458.107Z" transform="translate(-962.987 -258.004)" fill="#232326"/>
    <path id="Path_835" data-name="Path 835" d="M737.35,466.076a.558.558,0,0,1,1.008-.006A.666.666,0,0,1,737.35,466.076Z" transform="translate(-540.568 -265.111)" fill="#232326"/>
    <path id="Path_836" data-name="Path 836" d="M1206.593,465.733c.244-.148.814-.011.658.35a.555.555,0,0,1-.851-.079A.291.291,0,0,1,1206.593,465.733Z" transform="translate(-963.357 -265.039)" fill="#232326"/>
    <path id="Path_837" data-name="Path 837" d="M738.159,474.508a.532.532,0,0,1,.755.174c-.054.35-.56.393-.793.2A.214.214,0,0,1,738.159,474.508Z" transform="translate(-541.179 -272.925)" fill="#232326"/>
    <path id="Path_838" data-name="Path 838" d="M1206.646,474.493a.537.537,0,0,1,.721.187c-.054.377-.595.4-.831.181C1206.416,474.719,1206.5,474.567,1206.646,474.493Z" transform="translate(-963.428 -272.931)" fill="#232326"/>
    <path id="Path_839" data-name="Path 839" d="M395.978,490.52c.228-.145.74-.08.693.27a.532.532,0,0,1-.769.068C395.781,490.744,395.854,490.592,395.978,490.52Z" transform="translate(-232.74 -287.369)" fill="#232326"/>
    <path id="Path_840" data-name="Path 840" d="M1541.97,490.518a.572.572,0,0,1,.675.1c.107.367-.468.47-.7.289A.212.212,0,0,1,1541.97,490.518Z" transform="translate(-1265.705 -287.371)" fill="#232326"/>
    <path id="Path_841" data-name="Path 841" d="M395.23,499.075c.243-.246.849-.343.905.108A.521.521,0,0,1,395.23,499.075Z" transform="translate(-232.19 -294.958)" fill="#232326"/>
    <path id="Path_842" data-name="Path 842" d="M1541.911,498.836c.233-.156.814-.02.638.334a.528.528,0,0,1-.8-.077A.267.267,0,0,1,1541.911,498.836Z" transform="translate(-1265.632 -294.872)" fill="#232326"/>
    <path id="Path_843" data-name="Path 843" d="M395.955,507.195c.219-.069.571-.013.606.262a.484.484,0,0,1-.861-.02A.353.353,0,0,1,395.955,507.195Z" transform="translate(-232.614 -302.44)" fill="#232326"/>
    <path id="Path_844" data-name="Path 844" d="M1542.106,507.171a.56.56,0,0,1,.585.154c.091.482-.905.487-.815,0A.47.47,0,0,1,1542.106,507.171Z" transform="translate(-1265.741 -302.419)" fill="#232326"/>
    <path id="Path_845" data-name="Path 845" d="M565.186,515.661c.167-.092.393-.01.369.206a2.574,2.574,0,0,1-.013.675c-.041.2-.377.2-.4,0A1.706,1.706,0,0,1,565.186,515.661Z" transform="translate(-385.313 -310.062)" fill="#232326"/>
    <path id="Path_846" data-name="Path 846" d="M1385.755,515.674a.24.24,0,0,1,.327,0,1.884,1.884,0,0,1,.031.852.206.206,0,0,1-.393,0A1.83,1.83,0,0,1,1385.755,515.674Z" transform="translate(-1124.961 -310.051)" fill="#232326"/>
    <path id="Path_847" data-name="Path 847" d="M563.68,527.948c.248-.016.5-.028.749-.038C564.434,528.364,563.752,528.355,563.68,527.948Z" transform="translate(-384.026 -321.136)" fill="#232326"/>
    <path id="Path_848" data-name="Path 848" d="M1384.43,528c.249.007.5.016.75.03C1385.111,528.423,1384.43,528.436,1384.43,528Z" transform="translate(-1123.829 -321.217)" fill="#232326"/>
    <path id="Path_849" data-name="Path 849" d="M1359.47,550.018a.223.223,0,0,1,.339.069,2.711,2.711,0,0,1,0,.767c0,.225-.4.235-.4.006A1.449,1.449,0,0,1,1359.47,550.018Z" transform="translate(-1101.249 -341.016)" fill="#232326"/>
    <path id="Path_850" data-name="Path 850" d="M589.467,552c.114-.108.251-.048.331.066a2.287,2.287,0,0,1-.01.843.211.211,0,0,1-.387-.062C589.389,552.573,589.309,552.228,589.467,552Z" transform="translate(-407.183 -342.798)" fill="#232326"/>
    <path id="Path_851" data-name="Path 851" d="M1358.106,562.342c.214.005.429,0,.646,0,0,.376-.518.387-.732.175C1358.042,562.471,1358.084,562.384,1358.106,562.342Z" transform="translate(-1100.023 -352.17)" fill="#232326"/>
    <path id="Path_852" data-name="Path 852" d="M588.07,564.393l.1-.051c.2,0,.393-.006.59-.012,0,.063,0,.191,0,.255A3.8,3.8,0,0,0,588.07,564.393Z" transform="translate(-406.011 -353.964)" fill="#232326"/>
    <path id="Path_853" data-name="Path 853" d="M806.02,572.19q16.9.006,33.8,0a8.978,8.978,0,0,0,.035,1.363,10.8,10.8,0,0,0-.063,1.225q-16.831,0-33.662,0C806.11,573.915,806.066,573.052,806.02,572.19Z" transform="translate(-602.465 -361.049)" fill="#232326"/>
    <path id="Path_854" data-name="Path 854" d="M1399.94,574.277a.251.251,0,0,1,.263.07,1.975,1.975,0,0,1,0,.87.209.209,0,0,1-.392-.087C1399.821,574.86,1399.686,574.452,1399.94,574.277Z" transform="translate(-1137.668 -362.919)" fill="#232326"/>
    <path id="Path_855" data-name="Path 855" d="M548.989,576.335a.246.246,0,0,1,.355-.032,2.177,2.177,0,0,1,.019.9.224.224,0,0,1-.389-.021A2.06,2.06,0,0,1,548.989,576.335Z" transform="translate(-370.738 -364.702)" fill="#232326"/>
    <path id="Path_856" data-name="Path 856" d="M380.706,581.583a.314.314,0,0,1,.5.108,3.083,3.083,0,0,1,.068.847c-.011.872.012,1.745-.015,2.618-.208.013-.415.026-.622.041,0-.985.009-1.97,0-2.955A1.769,1.769,0,0,1,380.706,581.583Z" transform="translate(-219.03 -369.445)" fill="#232326"/>
    <path id="Path_857" data-name="Path 857" d="M393.74,581.625a.442.442,0,0,1,.622.051,1.764,1.764,0,0,1,.246,1.077c0,.8,0,1.6-.01,2.4-.419-.011-.837-.016-1.257-.006-.037-.764-.01-1.531-.02-2.3A1.493,1.493,0,0,1,393.74,581.625Z" transform="translate(-230.469 -369.46)" fill="#232326"/>
    <path id="Path_858" data-name="Path 858" d="M411.635,581.923c-.009-.2.053-.509.328-.444.3.028.288.407.3.632,0,1.026.01,2.05-.007,3.076l-.63-.06C411.651,584.059,411.628,582.991,411.635,581.923Z" transform="translate(-246.972 -369.413)" fill="#232326"/>
    <path id="Path_859" data-name="Path 859" d="M1526.614,581.734c-.016-.284.412-.335.525-.107a1.792,1.792,0,0,1,.091.694c-.017.939,0,1.878-.015,2.817-.209.012-.417.025-.623.038C1526.62,584.03,1526.56,582.879,1526.614,581.734Z" transform="translate(-1251.968 -369.426)" fill="#232326"/>
    <path id="Path_860" data-name="Path 860" d="M1539.68,581.626a.442.442,0,0,1,.627.057,1.792,1.792,0,0,1,.241,1.065c-.006.8.006,1.6-.01,2.405-.419-.011-.837-.016-1.255,0-.041-.765-.011-1.532-.022-2.3A1.49,1.49,0,0,1,1539.68,581.626Z" transform="translate(-1263.389 -369.46)" fill="#232326"/>
    <path id="Path_861" data-name="Path 861" d="M1557.588,581.731c-.019-.282.421-.337.526-.1a1.815,1.815,0,0,1,.089.688c-.015.958,0,1.916-.011,2.875l-.631-.052C1557.6,584,1557.528,582.864,1557.588,581.731Z" transform="translate(-1279.883 -369.424)" fill="#232326"/>
    <path id="Path_862" data-name="Path 862" d="M1398.738,586.468a4,4,0,0,0,.662-.018C1399.543,586.913,1398.673,586.932,1398.738,586.468Z" transform="translate(-1136.722 -373.902)" fill="#232326"/>
    <path id="Path_863" data-name="Path 863" d="M547.48,588.6c.233-.008.467-.013.7-.024.009.055.026.167.035.222-.158.03-.315.066-.475.082C547.574,588.927,547.559,588.689,547.48,588.6Z" transform="translate(-369.424 -375.822)" fill="#232326"/>
    <path id="Path_864" data-name="Path 864" d="M725.746,610.213a3.7,3.7,0,0,1,1.506-1.393,3.2,3.2,0,0,1,1.1,1.444,8.2,8.2,0,0,1,.116,2.565c-1.03.011-2.058-.021-3.088-.042A3.746,3.746,0,0,1,725.746,610.213Z" transform="translate(-529.71 -394.066)" fill="#232326"/>
    <path id="Path_865" data-name="Path 865" d="M1196.806,608.82a3.654,3.654,0,0,1,1.494,1.359,3.7,3.7,0,0,1,.378,2.61c-1.029.016-2.056.054-3.085.038a9.065,9.065,0,0,1,.081-2.428A3.144,3.144,0,0,1,1196.806,608.82Z" transform="translate(-953.578 -394.066)" fill="#232326"/>
    <path id="Path_866" data-name="Path 866" d="M774.594,610.92a2.5,2.5,0,0,1,.916,1.679,7,7,0,0,1-.016,2.1c-.615.011-1.231.022-1.846.016a8.614,8.614,0,0,1,.36-2.968A1.975,1.975,0,0,1,774.594,610.92Z" transform="translate(-573.286 -395.959)" fill="#232326"/>
    <path id="Path_867" data-name="Path 867" d="M691.306,612.084a1.291,1.291,0,0,1,.855-.724,6.008,6.008,0,0,1,.326,3.782c-.511,0-1.022,0-1.532.007A7.055,7.055,0,0,1,691.306,612.084Z" transform="translate(-498.732 -396.356)" fill="#232326"/>
    <path id="Path_868" data-name="Path 868" d="M1160.431,611.8a2.33,2.33,0,0,1,.688-.912,2.285,2.285,0,0,1,.766,1.39,10.645,10.645,0,0,1,.192,2.407c-.618,0-1.235-.012-1.852-.019A5.8,5.8,0,0,1,1160.431,611.8Z" transform="translate(-921.662 -395.932)" fill="#232326"/>
    <path id="Path_869" data-name="Path 869" d="M1245.5,611.48a1.221,1.221,0,0,1,.892.749,7.124,7.124,0,0,1,.331,3.03q-.759-.012-1.517,0A6.041,6.041,0,0,1,1245.5,611.48Z" transform="translate(-998.172 -396.464)" fill="#232326"/>
    <path id="Path_870" data-name="Path 870" d="M575.169,634.937a.4.4,0,0,1,.583.357,12.346,12.346,0,0,1-.02,1.576.407.407,0,0,1-.762-.009,11.135,11.135,0,0,1-.032-1.27C574.944,635.36,574.914,635.05,575.169,634.937Z" transform="translate(-394.172 -417.567)" fill="#232326"/>
    <path id="Path_871" data-name="Path 871" d="M1370.285,634.939a.4.4,0,0,1,.587.355c.019.493.024.988,0,1.48a.4.4,0,0,1-.62.294c-.208-.119-.18-.385-.188-.587,0-.4-.013-.8.012-1.194A.377.377,0,0,1,1370.285,634.939Z" transform="translate(-1110.873 -417.567)" fill="#232326"/>
    <path id="Path_872" data-name="Path 872" d="M685.264,719.169a7.218,7.218,0,0,1,2.568-1.159,6.942,6.942,0,0,1,3.158,1.874,2.918,2.918,0,0,1,.874,1.871c.034,2.759.084,5.517.119,8.277q-4.323.061-8.644.126.061-4,.124-8.008A3.869,3.869,0,0,1,685.264,719.169Z" transform="translate(-491.885 -492.487)" fill="#232326"/>
    <path id="Path_873" data-name="Path 873" d="M1183.659,719.648a3.757,3.757,0,0,1,6.425.335,3.429,3.429,0,0,1,.884,2.163q.061,4,.123,8c-2.88-.039-5.761-.087-8.641-.124.031-2.724.085-5.448.115-8.172A3.088,3.088,0,0,1,1183.659,719.648Z" transform="translate(-941.769 -492.478)" fill="#232326"/>
    <path id="Path_874" data-name="Path 874" d="M571.712,724.458a4.9,4.9,0,0,1,1.392-.808,4.058,4.058,0,0,1,2.546,2.606,4.674,4.674,0,0,1,.181,1.762q.006,3.713.019,7.427-2.845.007-5.689,0,.036-3.909.081-7.818A4.176,4.176,0,0,1,571.712,724.458Z" transform="translate(-389.867 -497.571)" fill="#232326"/>
    <path id="Path_875" data-name="Path 875" d="M1325.617,727.327a4.019,4.019,0,0,1,2.68-3.357,2.987,2.987,0,0,1,1.125.542,4.156,4.156,0,0,1,1.764,3.156c.044,2.689.061,5.378.09,8.067q-2.843,0-5.686,0C1325.6,732.933,1325.595,730.13,1325.617,727.327Z" transform="translate(-1070.792 -497.859)" fill="#232326"/>
    <path id="Path_876" data-name="Path 876" d="M685.029,877.036a8.033,8.033,0,0,1,2.476-1.245c.3-.131.608.05.89.155a6.436,6.436,0,0,1,2.829,2.021,2.564,2.564,0,0,1,.586,1.447c.035,2.756.085,5.511.12,8.267-2.883-.01-5.766.012-8.648-.011.051-2.29.075-4.581.116-6.871a6.473,6.473,0,0,1,.132-1.691A4.079,4.079,0,0,1,685.029,877.036Z" transform="translate(-491.831 -634.665)" fill="#232326"/>
    <path id="Path_877" data-name="Path 877" d="M1185.939,875.968c.309-.119.646-.31.977-.148a6.346,6.346,0,0,1,3.574,2.507,3.239,3.239,0,0,1,.46,1.592q.058,3.9.123,7.79-4.323,0-8.644,0c.037-2.76.085-5.521.121-8.281a2.539,2.539,0,0,1,.563-1.422A6.409,6.409,0,0,1,1185.939,875.968Z" transform="translate(-941.751 -634.677)" fill="#232326"/>
    <path id="Path_878" data-name="Path 878" d="M570.651,881.317a3.93,3.93,0,0,1,2.469-2.047,4.614,4.614,0,0,1,2.651,3.115c.049,2.823.059,5.647.092,8.471H570.18c.018-2.423.051-4.847.073-7.27A4.847,4.847,0,0,1,570.651,881.317Z" transform="translate(-389.885 -637.843)" fill="#232326"/>
    <path id="Path_879" data-name="Path 879" d="M1326.978,880.458a4.319,4.319,0,0,1,1.413-.9,3.806,3.806,0,0,1,2.578,2.4,4.668,4.668,0,0,1,.241,1.594c.02,2.527.055,5.054.075,7.58H1325.6c.025-2.694.057-5.39.077-8.084A3.507,3.507,0,0,1,1326.978,880.458Z" transform="translate(-1070.801 -638.104)" fill="#232326"/>
    <path id="Path_880" data-name="Path 880" d="M179.252,491.194c2.159-.02,4.318.007,6.478-.014.018.748-.016,1.5.044,2.245a9.4,9.4,0,0,1,.025,1.607c-.036-.194-.084-.412-.291-.489-2.058-1.095-4.106-2.211-6.166-3.3-.022.312-.046.624-.069.937A7.276,7.276,0,0,1,179.252,491.194Z" transform="translate(-37.507 -288.029)" fill="#232326"/>
    <path id="Path_881" data-name="Path 881" d="M1709.077,491.183c2.163-.016,4.326.009,6.489-.013.026.814-.021,1.629.047,2.442a17.645,17.645,0,0,1,.027,2.1,6.906,6.906,0,0,0-.085-1.012,3.426,3.426,0,0,0-.783-.478c-1.867-.99-3.719-2.005-5.587-2.99-.027.25-.053.5-.074.749A3.21,3.21,0,0,1,1709.077,491.183Z" transform="translate(-1416.447 -288.02)" fill="#232326"/>
    <path id="Path_882" data-name="Path 882" d="M376.77,635.39c1.575-.017,3.151,0,4.726-.01a16.874,16.874,0,0,1,.023,1.815C379.938,636.588,378.357,635.982,376.77,635.39Z" transform="translate(-215.551 -418.007)" fill="#232326"/>
    <path id="Path_883" data-name="Path 883" d="M1522.27,635.37c1.587.012,3.174,0,4.762.009a13.179,13.179,0,0,1,.033,1.808c-1.571-.6-3.134-1.22-4.718-1.781-.01.086-.028.257-.037.343C1522.294,635.622,1522.281,635.5,1522.27,635.37Z" transform="translate(-1248.074 -417.998)" fill="#232326"/>
    <path id="Path_884" data-name="Path 884" d="M172.53,659.108c1.757-.05,3.515-.007,5.273-.021.729.013,1.459-.034,2.187.029a6.376,6.376,0,0,0,.035,1.35c.026-.172.051-.344.071-.516a17,17,0,0,1,.068,2.623c-1.507-.615-2.967-1.342-4.455-2-1-.465-2.017-.9-3.012-1.379Z" transform="translate(-31.454 -439.371)" fill="#232326"/>
    <path id="Path_885" data-name="Path 885" d="M1702.46,659.1c1.595-.043,3.191-.006,4.785-.019.894.017,1.789-.036,2.682.03a7.065,7.065,0,0,0,.032,1.457q.034-.17.069-.337a14.384,14.384,0,0,1,.077,2.377c-2.489-1.147-4.994-2.262-7.478-3.42Z" transform="translate(-1410.492 -439.367)" fill="#232326"/>
    <path id="Path_886" data-name="Path 886" d="M368.5,758.332a4.567,4.567,0,0,1,1.134-.124c1.021.016,2.043.009,3.064.012a6.349,6.349,0,0,1,1.9.128c0,.788.044,1.576.017,2.363l-.228-.077c-1.826-.676-3.622-1.431-5.451-2.1-.026.25-.053.5-.069.754,0-.262-.012-.524-.022-.784l-.15-.076Z" transform="translate(-208.096 -528.72)" fill="#232326"/>
    <path id="Path_887" data-name="Path 887" d="M1514.47,758.315a12.335,12.335,0,0,1,2.617-.113c1.1.025,2.214-.056,3.317.046l.17.051c-.008.8.039,1.6.013,2.395l-.228-.076c-1.825-.678-3.622-1.43-5.449-2.1-.027.218-.053.438-.067.658-.006-.231-.018-.46-.03-.689l-.146-.073Z" transform="translate(-1241.043 -528.703)" fill="#232326"/>
    <path id="Path_888" data-name="Path 888" d="M172.65,824.941a8.029,8.029,0,0,1,1.021-.047c2.262.011,4.523,0,6.785,0,0,.757.113,1.51.106,2.267a3.84,3.84,0,0,0,.122,1.016,5.66,5.66,0,0,1,.049,1.38c-.019-.39-.046-.778-.075-1.166Q176.644,826.69,172.65,824.941Z" transform="translate(-31.562 -588.828)" fill="#232326"/>
    <path id="Path_889" data-name="Path 889" d="M1702.64,824.908c1.125-.1,2.258-.021,3.386-.045,1.479.007,2.959-.012,4.438,0,.035,1.161.17,2.317.145,3.479C1707.945,827.219,1705.291,826.065,1702.64,824.908Z" transform="translate(-1410.655 -588.794)" fill="#232326"/>
    <path id="Path_890" data-name="Path 890" d="M368.01,879.96c2.06-.025,4.123-.012,6.184-.013l0,.047c-.082.8.019,1.6-.015,2.405-2.041-.73-4.041-1.57-6.068-2.335-.026.265-.053.532-.072.8C368.02,880.562,368.013,880.261,368.01,879.96Z" transform="translate(-207.655 -638.451)" fill="#232326"/>
    <path id="Path_891" data-name="Path 891" d="M1513.91,879.956c2.065-.018,4.13-.013,6.2-.008l0,.055c-.086.8,0,1.6-.019,2.4-2.038-.738-4.039-1.574-6.066-2.339-.027.2-.053.4-.071.595Q1513.923,880.307,1513.91,879.956Z" transform="translate(-1240.538 -638.45)" fill="#232326"/>
    <path id="Path_892" data-name="Path 892" d="M1150.28,575.825c2.29-.071,4.582.058,6.874.059,1.645.02,3.289.033,4.934.051a7.435,7.435,0,0,1,1.221.051,3.9,3.9,0,0,1,1.558.872,1.067,1.067,0,0,1-.636.082,16.5,16.5,0,0,0-3.62-.341c-.957.013-1.907-.1-2.863-.1a37.328,37.328,0,0,0-5.228.218,18.779,18.779,0,0,1-2.138.2Q1150.334,576.368,1150.28,575.825Z" transform="translate(-912.772 -364.307)" fill="#232326"/>
    <path id="Path_893" data-name="Path 893" d="M830.627,624.7c.657,0,1.314-.02,1.971.014-.012,11.295.008,22.589-.01,33.884-.656,0-1.313.017-1.968-.014Q830.632,641.643,830.627,624.7Z" transform="translate(-624.639 -408.375)" fill="#232326"/>
    <path id="Path_894" data-name="Path 894" d="M852.859,624.841q8.977-.01,17.954,0c2.257.013,4.514-.027,6.771.02-.009.648-.007,1.3,0,1.945-8.239.018-16.48,0-24.72.007C852.852,626.153,852.854,625.5,852.859,624.841Z" transform="translate(-644.681 -408.501)" fill="#232326"/>
    <path id="Path_895" data-name="Path 895" d="M1105.45,624.691c.612-.039,1.227-.039,1.84-.018.191-.032.123.208.145.318q-.019,16.787-.008,33.575c-.655,0-1.31.006-1.965,0C1105.446,647.273,1105.471,635.982,1105.45,624.691Z" transform="translate(-872.363 -408.344)" fill="#232326"/>
    <path id="Path_896" data-name="Path 896" d="M872.18,667.136q10.523,0,21.047,0c.007,3.366.058,6.731.029,10.1a12.277,12.277,0,0,0-2.5-3.567,18.676,18.676,0,0,0-7.054-4.182c-.384-.1-.789-.362-1.187-.179a20.855,20.855,0,0,0-8.71,5.285,8.822,8.822,0,0,0-1.624,2.608C872.171,673.846,872.179,670.491,872.18,667.136Z" transform="translate(-662.097 -446.627)" fill="#232326"/>
    <path id="Path_897" data-name="Path 897" d="M247.926,658.374l.047-.114a4.187,4.187,0,0,1,.058.949c-.02.172-.045.344-.071.516A6.376,6.376,0,0,1,247.926,658.374Z" transform="translate(-99.391 -438.63)" fill="#232326"/>
    <path id="Path_898" data-name="Path 898" d="M1777.912,658.383l.043-.113a6.868,6.868,0,0,1,.057,1.233c-.024.111-.047.224-.069.337A7.056,7.056,0,0,1,1777.912,658.383Z" transform="translate(-1478.477 -438.639)" fill="#232326"/>
    <path id="Path_899" data-name="Path 899" d="M870.126,665.075a3.808,3.808,0,0,1,1.107-.069q9.566,0,19.13,0a4.256,4.256,0,0,1,1.033.053c.18.112.1.361.129.539,0,3.317.051,6.635.021,9.951-.119,0-.238,0-.354,0a11.346,11.346,0,0,0-2.637-3.8,17.836,17.836,0,0,0-5.15-3.33,14.942,14.942,0,0,0-2.5-.887,25.2,25.2,0,0,0-4.51,1.941,15.982,15.982,0,0,0-4.482,3.5,8.134,8.134,0,0,0-1.207,1.856c-.116.25-.21.514-.351.753-.293-.023-.255-.4-.287-.616,0-2.96,0-5.92,0-8.879a3.365,3.365,0,0,1,.067-1.006m.141.139c0,3.355-.009,6.71,0,10.065a8.823,8.823,0,0,1,1.624-2.608,20.854,20.854,0,0,1,8.71-5.285c.4-.182.8.077,1.188.18a18.677,18.677,0,0,1,7.054,4.182,12.277,12.277,0,0,1,2.5,3.567c.03-3.365-.022-6.73-.029-10.1Q880.791,665.2,870.268,665.214Z" transform="translate(-660.184 -444.706)" fill="#232326"/>
    <path id="Path_900" data-name="Path 900" d="M561.471,671.422c.98-.052,1.964,0,2.945-.028,2.939-.087,5.88-.063,8.819-.019a14.936,14.936,0,0,0,2.746.12c.011.424.017.848.021,1.273q-9.888-.1-19.776-.177c-1.7,0-3.4-.074-5.094.01-.122-.051-.237-.113-.352-.175,2.32-.236,4.636-.508,6.959-.711a3.276,3.276,0,0,0,.562.079,23.388,23.388,0,0,1,2.661-.182A.613.613,0,0,0,561.471,671.422Z" transform="translate(-372.399 -450.417)" fill="#232326"/>
    <path id="Path_901" data-name="Path 901" d="M1179.074,673.54a5.154,5.154,0,0,0,.184-1.04c.019.741,0,1.482-.012,2.224l-.208-.017c-7.423-.512-14.852-.97-22.252-1.758-.777-.092-1.56-.144-2.327-.308,1.432-.079,2.867-.008,4.3-.017,3.088.01,6.176.031,9.264.035a17.544,17.544,0,0,1,2.158.119c2.8.295,5.6.576,8.4.884C1178.743,673.659,1178.989,673.729,1179.074,673.54Z" transform="translate(-916.54 -451.466)" fill="#232326"/>
    <path id="Path_902" data-name="Path 902" d="M251.79,824.851l.161-.011q.075,1.645.067,3.294a3.842,3.842,0,0,1-.122-1.016C251.9,826.361,251.793,825.608,251.79,824.851Z" transform="translate(-102.897 -588.781)" fill="#232326"/>
    <path id="Path_903" data-name="Path 903" d="M876.726,845q9.9,0,19.8,0c0,.2,0,.408,0,.614q-9.9.009-19.8,0C876.726,845.4,876.725,845.2,876.726,845Z" transform="translate(-666.198 -606.947)" fill="#232326"/>
    <g id="Group_3" data-name="Group 3" transform="translate(295.017 183.601)">
      <path id="Path_904" data-name="Path 904" d="M1734.134,294.088c-.418,0-.758-.253-.758-.565s.34-.565.758-.565.758.253.758.565S1734.551,294.088,1734.134,294.088Zm0-.962c-.325,0-.591.178-.591.4s.265.4.591.4.59-.178.59-.4S1734.459,293.127,1734.134,293.127Z" transform="translate(-1733.375 -292.959)" fill="#232326"/>
    </g>
  </g>
</svg>
