<svg xmlns="http://www.w3.org/2000/svg" width="112.469" height="115.818" viewBox="0 0 112.469 115.818">
  <g id="_1549491218" data-name="1549491218" transform="translate(-19.8 -20.249)">
    <path id="Path_905" data-name="Path 905" d="M123.753,23.061c4.18-2.627,4.436-3.33,5.494-2.453.135.112.208.207.125.383-1.8,3.843.281,2.457-2.878,4.467.352.411.537.464.355.847-.724,1.521,5.038,7.4,5.421,8.574-.7.477-.408.729-1.506,1.058-4,1.2-1.552.171-3.147,2.16-.254.317-.476.311-.752,0-.913-1.014.1-1-4.213.176-4.5,1.225.719.1-5.791,1.942-.6.17-.452.032-1.888,5.343-.159.589.222.425-7.687,2.024-11.13,2.25-9.818.153-9.695,4.142.013.439-.184.591-1.045.664-.812.069-.31.2-.25,2.455.012.45.032.313,1.913,1.174.473.216.868.552,1.327.783.364.183.1.426.065.639s-.076.279-1.247.039c-.436-.089-.415.624-.054.627,1.32.011,13.282-2.152,15.044-2.425a1.241,1.241,0,0,1,1.031.408c.218.207.072.579.049.873-.014.185-.185.153-.652.253-.27.058-.4.093-.393.877.024,1.718-.12,3.433-.082,5.151.014.629,0,.633-.6.7C95.828,65.77,96.249,65.159,96.214,65.9c-.307,6.562-.109,8.768,2.181,20.383.289,1.464.665,1.417,1.739,1.665.612.141.469.83-.063.895-1.748.212-.449.734.632.544.916-.161,10.47.008,10.47.008.179-.059.149-.453-.092-.362-.964.364-1.451-1.143.545-1.339a5.114,5.114,0,0,0,1.106-.427.46.46,0,0,0,.307-.495c-.021-2.506.145-2.457-.324-2.5-2.9-.286-2.785.217-2.9-.614-.165-1.236-.14-1.47-.559-1.442a1.051,1.051,0,0,1-.974-.354.277.277,0,0,0-.205-.086c-.613.041-.925-.361-1.214-.8.278-.48.371-.17,1.559-.39,11.743-2.181,4.75-1.766,9.547-.92,5.362.945,5.539.732,6.3,1.148a.888.888,0,0,1-.874.745c-.956.072-.2.359-1.294.43-.467.03-.6-.082-.646,1.619-.013.527-.257.394-2.143.455-.694.022-.476-.219-.46,2.989,0,.533.11.555,1.846,1.258.4.163.429.757-.141.777-.44.015-.73-.046-.711.323.025.5.659.1,1.536.455.629.252.35.785.046.8-.539.024-.408.158-.353,3,.027,1.4.125,1.645-.354,1.632-2.7-.068-1.741-2.077-1.455,15.252.012.7.2.655,2.212,1.459.387.155.5.7-.5.7a.344.344,0,1,0,.018.683,3.319,3.319,0,0,1,1.074.137c.268.077.3.272.31.484.036.544-.73-.074-.7.731.177,4.786.466,4.249-1.6,4.248-.3,0-.4.141-.377.428.171,2.261,1.35,15.457.38,16.032a5.1,5.1,0,0,1-4.269.294c-1.539-.465-2.131.3-2.743-.562-.487-.683.263-.789-.312-1.232-.549-.424.428-.672,0-1.491-.154-.295-.218-1.248,0-1.435.882-.773.415-1.86.476-2.111.167-.692-1-.569-.608-2.35.224-1.023-.162-2.271.272-3.636.137-.432-.16-2.219.028-3.355.075-.453.268-.371-3.308-.251-10.417.35-9.341.157-9.46.889a45.3,45.3,0,0,0,.69,5.765c.489,2.694-.423,1.927,1.32,6.478.127.332-.527.279-.989.928-.132.185-.018.461-.263.587a2.944,2.944,0,0,1-1.5.545c-.6-.031-.812.3-1.44-.1-1.452-.938-1.412.976-3.874-.5-1.046-.628-1.028.491-2.043.265a1.213,1.213,0,0,0-.785.012c-.548.249-1.126.044-1.69.12a2.133,2.133,0,0,1-1.072-.34c-.558-.272-.382-3.51-.228-3.616.42-.288.241-.814.483-1.167a.287.287,0,0,0,.043-.273,3.108,3.108,0,0,1-.082-1.817.606.606,0,0,0,.012-.337c-.328-.639.071-.866-.157-2.6a32.09,32.09,0,0,1,.064-3.883c-.009-.36-.186-.328-1.054-.324-13.39.067-12.223-.109-12.179.523a23.49,23.49,0,0,0,.107,3.2c.015.073.6,4.021.7,5.179.457,5.52.966,4.1.256,5.588a63.652,63.652,0,0,1-6.414-.1c-.85-.087-.682-.5-1.514-.14-.617.264-1.829.154-1.75-.669.1-1.045-.312-.765-.054-3.191.05-.472.551-.63.437-1.606a11.29,11.29,0,0,1,.156-3.7,5.491,5.491,0,0,1,.222-2.15.525.525,0,0,0,.019-.283c-.351-1.475.375-2.541-.489-2.538-2.288.009-2.266.2-2.27-.617-.007-1.453.132-1.69-.513-1.626-10.623,1.057-7.541-1.455-8.264,3.374a80.363,80.363,0,0,0,.062,8.575c.022.365-.416,2.154-.393,2.82a.644.644,0,0,1-.7.679,10.236,10.236,0,0,1-2.457-.061c-.468-.11-1.838.672-2.373-.684-.388-.984-3.629-.428-4.108-.368a11.893,11.893,0,0,1-1.754-.151c-.3-.005-.04-.282-.72-.981-.73-.752-.01-.849-.142-2.582-.026-.336.626-.282.413-.706a1.22,1.22,0,0,1,.036-.891c.539-2.316,1.016-1.534.887-2.341a17.532,17.532,0,0,1,.581-5.25c.4-1.413.423-.859-6.2-.761-9.488.141-8.6-.156-8.588.656.219,13.452,2.044,12.44-2.53,12.274-7.208-.261-4.176,2.973-3.857-12.059.019-.876-.314-.546-2.363-.663-.329-.019-.579.046-.439-1.362.085-.855-.038-1.714.067-2.57.053-.432-.007-.492-.438-.636a.505.505,0,0,1-.119-.9c.574-.371.77-.167,1.61-.187a.247.247,0,0,0,.008-.492c-.341-.055-.756-.011-.82-.371-.143-.812,2.79-.66,2.787-1.816-.029-15.036.818-14.99-.114-14.994-2.7-.013-2.538.012-2.544-.561-.045-3.931.084-3.85-.133-4.035-.272-.232-.219-.464.292-1,.644-.672-.331-.973.525-1.444,2.685-1.477,2.415.377,2.571-3.284.025-.588-.012-.513-2.107-.528-.724,0-.948.086-.934-1.576.007-.8-.886-.125-1.3-.822-.086-.145-.327-.064-.651-.168-.431-.138-.4-.69.073-.649,0,0,3.363-.742,4.468-.845,3-.278,2.731-1.491,4.036-.9,4.959,2.257,8.6,1.369,7.2,2.487-.332.265-.5.142-.584.189-1.152.661-1.782.156-1.685.8a3.035,3.035,0,0,1-.073,1.024c-.135.714-.1.4-2.734.458-.61.014-.156.477-.218.658-.225.657.063,1.319-.025,1.977-.1.721,2.826.739,3.372,2.312.165.477.439.458,3.084.495,2.142.03,7.016.236,8.194.162a.143.143,0,1,0-.014-.285c-.457-.031-.851.132-.956-.352-.144-.665.884-.747,2.446-1.295.891-.313.22.129.606-5.15,1.124-15.381,1.749-14.08-.084-13.966-.073,0-9.161.588-10.937.455-.859-.064-.612.228-.658-3.291-.03-2.323.01-2.341-.425-2.392a.5.5,0,0,1-.008-1c.387-.073,12.071.22,12.171-.405.047-.3-.024-.451-.658-.418a.5.5,0,0,1-.333-.841c3.522-2.985,1.9-.567,2.546-4.294.1-.565.024-.438-1-.614-.548-.094-.364-.37-.424-1.719-.029-.656.122-.407-3.637-.4-1.612,0-6.863-.07-8.929-.323-.763-.093-.523-.254-1.479-4.346-.182-.778.026-.709-2.633-.918-.474-.037-.532-.21-.976-1.716-.189-.639-.258-.486-3.673-.729-.229-.016-.325.046-1.423.7-.53.316-1.222-.418-1.246-.793-.014-.213-.332-.169-.4-.27-.618-.946-1.69.243-2.731-1.488a7.937,7.937,0,0,1,1.161-.709c5.125-3.007,5.338-2.794,5.065-3.889-.083-.334.185-.371.351-.562-.185-.137-.27-.353-.528-.426a.851.851,0,0,1-.634-.916c.023-.584-.647-1.424-.049-1.805.738-.469,2.437.918,3.172,1.152,7.575,2.419,16,2.044,23.076,1.8C66.573,38.408,107.238,33.443,123.753,23.061Zm-45.3,59.678c-.364.41-.607.885-1.23.818a.31.31,0,0,0-.282.169c-.324.5-.864-.191-1.078.726-.184.787.229,1.29-.6,1.32-2.446.088,2.045.869,1.78,1.9-.1.369-.4.249-.952.293-.29.023-.244.45-.071.52.072.029,12.274.728,12.272.309,0-.372-1.117.13-.983-.8.045-.311.313-.346.543-.429.793-.286.369.184.673-5.177.716-12.658.87-13.993.87-13.993.443-3.622,2.409-2.034-21.019-.721l-10.587.811c-3.386.258-2.506-.511-2.53,3.778-.088,15.7-1.594,16.092-.282,15.838.574-.111-.01.287.659.555,1.443.577,1.465.706,1.438.952-.034.312-.239.4-.522.414-.324.015-.226.44-.016.457.018,0,4.348.014,4.348.014,4.278-.04,3.965.35,4.01-.424.084-1.442-.761-.121-.856-1.235-.078-.912,1.034-.779,2.142-.778.331,0,.39-.45.007-.449-1.053,0-.9.092-1.07-.463-.273-.883,1.457-.71,1.82-1.14-1.651,0-1.676.1-1.734-.478-.094-.918.063-1.37-.509-1.365-.545,0-.975-.427-1.523-.452-.064,0-.132-.075-.187-.126-.826-.769.012-.687,1.989-1.04.306-.055.38.05.167-1.815-.1-.874-.948-.082-1.45-.774a.41.41,0,0,0-.309-.124c-.633.033-.89-.45-1.243-.813a.66.66,0,0,1,.5-.219c10.049-1.395,8.366-2.269,9.718-1.577.707.362,8.313,1.689,8.606,1.764a1.637,1.637,0,0,1-1.306.88c-.147.006-.337-.025-.432.108-.617.862-1.336-.687-1.475,1.531a1.452,1.452,0,0,1-.3.988C77.749,82.7,78.1,82.61,78.448,82.739ZM38.3,112.945v-.108l5.791,0c.308.018.446-.48.024-.492-.658-.018-.855.085-.846-.343.007-.315,1.249-.678,1.358-.707,1.66-.438-.022-.768,1.7-14.887.123-1.005,1.862-.683-15.257-1.031-.788-.016-.487-1.394-.6,14.761-.008,1.063,3.233,1.342,3.05,2.007-.214.778-1.224-.032-1.243.559C32.264,113.039,31.946,112.945,38.3,112.945Zm49.233-17.89c-12.629-.553-11.376-.722-11.434.054-.122,1.609-1.321.2-1.287,1.239.533,16.149-.263,14.454.862,14.843.218.076.551.118.466.313-.262.6.243.6,1.132,1.027a.367.367,0,0,1-.071.714c-.771.118-.891.17-.859.436.038.319.225.3.747.305,3.658.07,9.77-.044,9.973-.058.159-.011.246-.087.226-.258-.106-.9-1.256.01-1.307-.694-.035-.475.041-.477,1.656-.985.506-.159.216-.239.15-2.4C87.4,97.234,88.5,95.1,87.534,95.055Zm11.682.287s.392,1.923,1.061,16.113c.03.639-.058.572,1.281.921.332.087.292.742-.288.788-.758.06-.662-.072-.749.412-.048.264.2.221.472.216,10.927-.213,10.351-.059,10.342-.5-.01-.509-.865-.072-1.055-.369-.434-.679.493-.886,2.228-1.552.753-.289.51,1.406.509-15.464,0-.86,1.561-.616-13.242-.607A1.229,1.229,0,0,0,99.216,95.342ZM66.125,112.017c-.321-.041-.414-.225-.427-.5-.015-.31.236-.311.414-.384,1.866-.768,1.392,1.14,1.456-10.591.028-5.109.148-4.653-.385-4.672,0,0-.581,0-7.795-.069-5.591-.051-5.061-.225-5.035.5.07,1.919.115,3.391.294,4.917.461,3.93-.233,4.614.072,9.1.031.457.156.385,2.153,1,.643.2.5.18.514.64.006.28-.187.192-1.016.216-.268.008-.289.548.013.55.911.006,4.481-.107,7.507-.126A4.892,4.892,0,0,0,66.125,112.017Zm11.418-51.94c3.895-.271,13-1.065,9.113-1.421-.542-.05-.915-.67-.251-1.146,3.354-2.41,3.346-2.326,3.356-2.663.082-2.895.4-2.182-1.655-2.537-1.095-.189.255-2.043-.854-1.943-8.273.75-7.008.623-7.734,1.555-.128.164-.354.349-.34.507.044.469-.228.907-.077,1.382.267.841-.767.813-.816,2.459C78.233,57.968,76.93,58.5,77.543,60.077ZM63.824,53.935c0-.983-.131-1.075-.408-1.043-7.312.827-6.934.176-6.939,1.1-.012,2.141.131,2.359-.375,2.408-1.132.109-1.247.074-1.214.457.2,2.279.053,2.475.625,2.763,2.309,1.165,2.168,1.208,2.08,1.52-.221.785-1.328-.232-1.386.659-.02.307-.676.3,9.285-.592.211-.019.531.1.6-.162.061-.223-.211-.393-.393-.518-.739-.51.3-1.468-.829-2.827-.667-.8.141-1.849-.808-2.993C63.849,54.454,63.7,54.228,63.824,53.935ZM24.614,112.015c-.122.035-.333.025-.314.174s.224.17.372.171C24.849,112.361,24.87,111.941,24.614,112.015Zm6.408-.025c-.2-.077-.334-.291-.532-.105C30.388,111.98,30.478,112.356,31.022,111.989Zm14.863.094c.163.079.289.24.445.038C46.413,112.014,46.2,111.686,45.885,112.083Z" transform="translate(0 0)"/>
    <path id="Path_906" data-name="Path 906" d="M1389.2,98.211c.109,0,.023.148-.013.046C1389.184,98.245,1389.2,98.226,1389.2,98.211Z" transform="translate(-1270.262 -72.318)"/>
    <path id="Path_907" data-name="Path 907" d="M1355.471,106.676l-.035-.025.073,0Z" transform="translate(-1238.953 -80.147)"/>
    <path id="Path_908" data-name="Path 908" d="M1136.161,176.206l-.041-.03c.062-.024.038-.027.089.011Z" transform="translate(-1035.513 -144.623)"/>
    <path id="Path_909" data-name="Path 909" d="M763.159,247.537c-.034-.045-.036-.029.008-.064C763.2,247.518,763.2,247.5,763.159,247.537Z" transform="translate(-689.526 -210.776)"/>
    <path id="Path_910" data-name="Path 910" d="M610.069,265.644l.025.012C610.048,265.654,610.055,265.654,610.069,265.644Z" transform="translate(-547.531 -227.631)"/>
  </g>
</svg>
